<svg width="20" height="20" viewBox="0 0 20 20" fill="none" xmlns="http://www.w3.org/2000/svg">
<path fill-rule="evenodd" clip-rule="evenodd" d="M10 1.04169C5.60376 1.04169 1.875 4.67464 1.875 9.10485C1.875 11.3735 2.83489 13.2701 4.18074 14.8354C5.5208 16.394 7.26528 17.6509 8.8985 18.662L8.90925 18.6687L8.92025 18.6749C9.24967 18.8608 9.62167 18.9584 10 18.9584C10.3783 18.9584 10.7503 18.8608 11.0798 18.6749L11.0893 18.6694L11.0987 18.6637C12.7379 17.6607 14.4827 16.3997 15.8222 14.8365C17.1669 13.2672 18.125 11.366 18.125 9.10485C18.125 4.67464 14.3962 1.04169 10 1.04169ZM10 5.83335C8.15905 5.83335 6.66667 7.32574 6.66667 9.16669C6.66667 11.0076 8.15905 12.5 10 12.5C11.8409 12.5 13.3333 11.0076 13.3333 9.16669C13.3333 7.32574 11.8409 5.83335 10 5.83335Z" fill="#8F9DA2"/>
</svg>
