<svg width="165" height="49" viewBox="0 0 165 49" fill="none" xmlns="http://www.w3.org/2000/svg">
<g clip-path="url(#clip0_110_9944)">
<path d="M164.222 22.2888V19.4071H160.644V14.9272L160.523 14.9643L157.162 15.9927L157.096 16.0128V19.4073H151.791V17.5163C151.791 16.6358 151.987 15.9619 152.375 15.5126C152.761 15.0686 153.312 14.8429 154.015 14.8429C154.52 14.8429 155.043 14.9619 155.57 15.1967L155.702 15.2556V12.2208L155.64 12.198C155.149 12.0214 154.481 11.9325 153.652 11.9325C152.609 11.9325 151.66 12.1596 150.833 12.6098C150.006 13.0606 149.355 13.7041 148.899 14.5224C148.444 15.3396 148.214 16.2836 148.214 17.3281V19.4071H145.722V22.2888H148.214V34.4288H151.791V22.2888H157.096V30.0036C157.096 33.1809 158.594 34.791 161.55 34.791C162.036 34.791 162.547 34.7341 163.069 34.6227C163.6 34.5083 163.962 34.394 164.175 34.2719L164.222 34.244V31.3357L164.077 31.4319C163.883 31.5613 163.641 31.667 163.357 31.7456C163.073 31.8257 162.835 31.8658 162.651 31.8658C161.958 31.8658 161.446 31.6792 161.128 31.311C160.807 30.9394 160.644 30.2897 160.644 29.3808V22.2888H164.222ZM137.734 31.8662C136.435 31.8662 135.412 31.4357 134.69 30.5877C133.964 29.7354 133.597 28.5203 133.597 26.9764C133.597 25.3835 133.964 24.1369 134.691 23.2695C135.412 22.4079 136.426 21.9705 137.704 21.9705C138.945 21.9705 139.932 22.3882 140.639 23.2126C141.35 24.0413 141.711 25.278 141.711 26.8894C141.711 28.5206 141.372 29.7736 140.703 30.6118C140.038 31.4436 139.04 31.8662 137.734 31.8662ZM137.893 19.0453C135.416 19.0453 133.448 19.7711 132.045 21.2026C130.643 22.6342 129.933 24.6154 129.933 27.0916C129.933 29.4436 130.627 31.3354 131.995 32.7136C133.364 34.0923 135.226 34.7907 137.53 34.7907C139.931 34.7907 141.86 34.0548 143.262 32.6035C144.664 31.1537 145.374 29.1912 145.374 26.7729C145.374 24.3841 144.708 22.4782 143.392 21.1092C142.077 19.7395 140.226 19.0453 137.893 19.0453ZM124.165 19.0453C122.48 19.0453 121.087 19.4762 120.022 20.326C118.951 21.1808 118.407 22.302 118.407 23.6587C118.407 24.3639 118.525 24.9903 118.756 25.5216C118.988 26.0547 119.347 26.524 119.824 26.9179C120.298 27.3086 121.03 27.7179 121.999 28.1343C122.813 28.4696 123.421 28.7531 123.807 28.9766C124.184 29.1957 124.452 29.4158 124.603 29.6303C124.75 29.8402 124.825 30.1274 124.825 30.4818C124.825 31.491 124.069 31.9821 122.514 31.9821C121.937 31.9821 121.279 31.8616 120.558 31.6242C119.843 31.3903 119.167 31.0479 118.556 30.6088L118.407 30.5023V33.9462L118.462 33.9715C118.968 34.2052 119.606 34.4022 120.358 34.5572C121.109 34.7124 121.791 34.7914 122.383 34.7914C124.212 34.7914 125.684 34.3583 126.758 33.5035C127.84 32.6428 128.388 31.4952 128.388 30.0916C128.388 29.079 128.093 28.2107 127.511 27.5104C126.934 26.8158 125.932 26.1781 124.534 25.6145C123.42 25.1675 122.706 24.7964 122.412 24.5116C122.128 24.2364 121.984 23.8473 121.984 23.3545C121.984 22.9176 122.162 22.5676 122.527 22.2842C122.895 21.9994 123.407 21.8545 124.05 21.8545C124.646 21.8545 125.255 21.9487 125.862 22.1332C126.468 22.3177 127 22.5648 127.444 22.8671L127.59 22.9669V19.7001L127.534 19.676C127.124 19.5002 126.584 19.3498 125.927 19.2277C125.274 19.1064 124.681 19.0453 124.165 19.0453ZM109.082 31.8662C107.784 31.8662 106.76 31.4357 106.039 30.5877C105.313 29.7354 104.946 28.5206 104.946 26.9764C104.946 25.3835 105.313 24.1369 106.04 23.2695C106.761 22.4079 107.775 21.9705 109.054 21.9705C110.293 21.9705 111.281 22.3882 111.988 23.2126C112.699 24.0413 113.06 25.278 113.06 26.8894C113.06 28.5206 112.72 29.7736 112.051 30.6118C111.387 31.4436 110.389 31.8662 109.082 31.8662ZM109.242 19.0453C106.764 19.0453 104.796 19.7711 103.394 21.2026C101.993 22.6342 101.281 24.6154 101.281 27.0916C101.281 29.4445 101.976 31.3354 103.344 32.7136C104.713 34.0923 106.575 34.7907 108.879 34.7907C111.28 34.7907 113.209 34.0548 114.611 32.6035C116.013 31.1537 116.723 29.1912 116.723 26.7729C116.723 24.3841 116.057 22.4782 114.741 21.1092C113.425 19.7395 111.575 19.0453 109.242 19.0453ZM95.8515 22.0086V19.4071H92.318V34.4285H95.8515V26.7445C95.8515 25.4379 96.1477 24.3645 96.7323 23.5537C97.3095 22.7526 98.0785 22.3467 99.0175 22.3467C99.3358 22.3467 99.6931 22.3991 100.08 22.503C100.463 22.6062 100.74 22.7182 100.904 22.8362L101.052 22.9438V19.3815L100.995 19.3569C100.666 19.2171 100.201 19.1465 99.6116 19.1465C98.7237 19.1465 97.9291 19.4319 97.2484 19.9936C96.651 20.4874 96.2192 21.1644 95.8891 22.0086H95.8515ZM85.9902 19.0453C84.3691 19.0453 82.9232 19.3929 81.6934 20.0781C80.4609 20.7649 79.5078 21.7455 78.8594 22.9923C78.2138 24.2361 77.886 25.689 77.886 27.3093C77.886 28.7286 78.2038 30.031 78.832 31.1789C79.4604 32.3288 80.35 33.2283 81.476 33.8522C82.6005 34.4753 83.9001 34.7912 85.3391 34.7912C87.0183 34.7912 88.452 34.4555 89.6015 33.7934L89.6479 33.7668V30.5295L89.4994 30.638C88.9787 31.0173 88.3968 31.32 87.7707 31.5381C87.1462 31.7561 86.5768 31.8662 86.0775 31.8662C84.6911 31.8662 83.578 31.4324 82.7701 30.5771C81.9604 29.7207 81.5499 28.5181 81.5499 27.0048C81.5499 25.482 81.978 24.2485 82.8218 23.3383C83.663 22.4308 84.7781 21.9705 86.1359 21.9705C87.2973 21.9705 88.429 22.3638 89.4997 23.1405L89.6479 23.2481V19.8372L89.6001 19.8102C89.1971 19.5847 88.6476 19.3984 87.9654 19.2572C87.286 19.1163 86.6215 19.0453 85.9902 19.0453ZM75.4524 19.4073H71.9189V34.4285H75.4524V19.4073ZM73.7218 13.0081C73.1402 13.0081 72.633 13.2061 72.2163 13.5984C71.7978 13.9918 71.5856 14.4872 71.5856 15.0718C71.5856 15.6471 71.7953 16.1335 72.2098 16.5164C72.6216 16.8983 73.1304 17.0918 73.722 17.0918C74.3134 17.0918 74.8241 16.8983 75.2408 16.517C75.6602 16.1335 75.8729 15.6473 75.8729 15.0718C75.8729 14.5076 75.6659 14.0174 75.2581 13.6143C74.8505 13.212 74.3335 13.0081 73.7218 13.0081ZM64.9056 18.299V34.4285H68.5116V13.468H63.5207L57.1768 29.0369L51.0205 13.468H45.8264V34.4284H49.2151V18.2974H49.3315L55.8324 34.4285H58.3897L64.7892 18.299H64.9056Z" fill="white"/>
<path d="M16.9869 23.0863H0.364365V6.46387H16.9869V23.0863Z" fill="white"/>
<path d="M35.3401 23.0863H18.718V6.46387H35.3401V23.0863Z" fill="white"/>
<path d="M16.9864 41.4462H0.364365V24.8239H16.9864V41.4462Z" fill="white"/>
<path d="M35.3401 41.4462H18.718V24.8239H35.3401V41.4462Z" fill="white"/>
</g>
<defs>
<clipPath id="clip0_110_9944">
<rect width="164" height="48" fill="white" transform="translate(0.364319 0.455078)"/>
</clipPath>
</defs>
</svg>
