<svg width="122" height="49" viewBox="0 0 122 49" fill="none" xmlns="http://www.w3.org/2000/svg">
<g clip-path="url(#clip0_110_9957)">
<path d="M38.1987 32.8815L39.6668 29.4501C41.2743 30.6405 43.3709 31.2706 45.4681 31.2706C47.0059 31.2706 47.9843 30.6756 47.9843 29.7653C47.9492 27.2441 38.723 29.205 38.6528 22.8664C38.6177 19.6449 41.4838 17.1588 45.5383 17.1588C47.9492 17.1588 50.3612 17.7543 52.0734 19.1201L50.7015 22.6248C49.1261 21.6118 47.1803 20.9055 45.3282 20.9055C44.0701 20.9055 43.2311 21.5005 43.2311 22.2714C43.2662 24.7575 52.5631 23.3916 52.6678 29.4501C52.6678 32.7417 49.8714 35.0529 45.8871 35.0529C42.9519 35.0529 40.2608 34.3527 38.1982 32.8815H38.1987ZM96.6567 28.2075C96.2861 28.866 95.7471 29.414 95.0948 29.7954C94.4426 30.1768 93.7006 30.3778 92.9451 30.3779C90.5903 30.3779 88.6816 28.4651 88.6816 26.1058C88.6816 23.7465 90.5903 21.8338 92.9451 21.8338C93.7006 21.8339 94.4426 22.0349 95.0948 22.4163C95.7471 22.7977 96.2861 23.3457 96.6567 24.0042L100.738 21.7386C99.2095 19.0063 96.2933 17.1588 92.9451 17.1588C88.0134 17.1588 84.0156 21.1642 84.0156 26.1058C84.0156 31.047 88.0134 35.0529 92.9451 35.0529C96.2933 35.0529 99.2095 33.2053 100.738 30.4731L96.6567 28.2075ZM55.3164 34.7025H60.4189V9.71094H55.3169L55.3164 34.7025ZM103.315 9.71094V34.7025H108.418V27.2151L114.464 34.7025H120.986L113.297 25.8076L120.427 17.5076H114.184L108.418 24.4082V9.71094H103.315ZM76.1392 17.5087V19.5402C75.3006 18.1392 73.2385 17.1588 71.0717 17.1588C66.5982 17.1588 63.0685 21.116 63.0685 26.0883C63.0685 31.0605 66.5982 35.0529 71.0717 35.0529C73.2385 35.0529 75.3006 34.0725 76.1392 32.6715V34.7025H81.2417V17.5087H76.1392ZM76.1392 28.2421C75.4054 29.4676 73.8676 30.3774 72.1553 30.3774C69.8 30.3774 67.8913 28.4651 67.8913 26.1058C67.8913 23.7465 69.8 21.8338 72.1553 21.8338C73.8676 21.8338 75.4054 22.7791 76.1392 24.0392V28.2421Z" fill="white"/>
<path d="M11.2515 9.15881C9.59791 9.15881 8.25761 10.5021 8.25761 12.1587C8.25722 12.5523 8.33434 12.942 8.48458 13.3058C8.63483 13.6695 8.85524 14.0001 9.13325 14.2787C9.41126 14.5573 9.74141 14.7783 10.1049 14.9293C10.4683 15.0803 10.8579 15.1582 11.2515 15.1586H14.2459V12.1587C14.2465 11.3638 13.9314 10.6013 13.3699 10.0387C12.8084 9.4761 12.0464 9.15961 11.2515 9.15881ZM11.2515 17.1585H3.26731C1.61374 17.1585 0.273438 18.5018 0.273438 20.1589C0.273438 21.8155 1.61374 23.1588 3.26731 23.1588H11.252C12.9051 23.1588 14.2459 21.8155 14.2459 20.1589C14.2459 18.5018 12.9051 17.1585 11.2515 17.1585Z" fill="white"/>
<path d="M30.2149 20.1589C30.2149 18.5018 28.8741 17.1585 27.2205 17.1585C25.5669 17.1585 24.2266 18.5018 24.2266 20.1589V23.1588H27.2205C28.0154 23.158 28.7774 22.8415 29.3389 22.2789C29.9004 21.7164 30.2155 20.9538 30.2149 20.1589ZM22.2307 20.1589V12.1587C22.2314 11.3638 21.9163 10.6013 21.3547 10.0387C20.7932 9.4761 20.0312 9.15961 19.2363 9.15881C17.5827 9.15881 16.2424 10.5021 16.2424 12.1587V20.1584C16.2424 21.816 17.5827 23.1593 19.2363 23.1593C20.0312 23.1585 20.7932 22.842 21.3547 22.2794C21.9163 21.7169 22.2314 20.9543 22.2307 20.1594" fill="white"/>
<path d="M19.2363 39.1586C20.0312 39.1578 20.7932 38.8413 21.3547 38.2787C21.9163 37.7161 22.2314 36.9535 22.2307 36.1587C22.2314 35.3638 21.9163 34.6012 21.3547 34.0386C20.7932 33.4761 20.0312 33.1596 19.2363 33.1588H16.2424V36.1587C16.2424 37.8153 17.5827 39.1586 19.2363 39.1586ZM19.2363 31.1589H27.221C28.8741 31.1589 30.2149 29.8155 30.2149 28.1585C30.2155 27.3636 29.9004 26.601 29.3389 26.0384C28.7774 25.4759 28.0154 25.1594 27.2205 25.1586H19.2363C17.5827 25.1586 16.2424 26.5019 16.2424 28.1585C16.242 28.552 16.3192 28.9418 16.4694 29.3055C16.6196 29.6693 16.8401 29.9999 17.1181 30.2785C17.3961 30.557 17.7262 30.7781 18.0897 30.9291C18.4531 31.0801 18.8428 31.158 19.2363 31.1584" fill="white"/>
<path d="M0.273439 28.1585C0.273044 28.552 0.350169 28.9418 0.500412 29.3055C0.650655 29.6693 0.871072 29.9999 1.14908 30.2785C1.42709 30.557 1.75724 30.7781 2.12069 30.9291C2.48413 31.0801 2.87376 31.158 3.26732 31.1584C4.06219 31.1576 4.82419 30.8411 5.38573 30.2785C5.94727 29.7159 6.26236 28.9533 6.26169 28.1585V25.1586H3.26732C1.61374 25.1586 0.273439 26.5019 0.273439 28.1585ZM8.25761 28.1585V36.1582C8.25761 37.8153 9.59792 39.1586 11.2515 39.1586C12.0464 39.1578 12.8084 38.8413 13.3699 38.2787C13.9314 37.7161 14.2465 36.9535 14.2459 36.1587V28.1585C14.2463 27.7649 14.1691 27.375 14.0188 27.0113C13.8686 26.6475 13.6481 26.3169 13.3701 26.0383C13.092 25.7597 12.7618 25.5386 12.3983 25.3877C12.0348 25.2368 11.6451 25.1589 11.2515 25.1586C9.59792 25.1586 8.25761 26.5019 8.25761 28.1585Z" fill="white"/>
</g>
<defs>
<clipPath id="clip0_110_9957">
<rect width="121" height="48" fill="white" transform="translate(0.273376 0.455078)"/>
</clipPath>
</defs>
</svg>
