<svg width="524" height="198" viewBox="0 0 524 198" fill="none" xmlns="http://www.w3.org/2000/svg">
<rect x="8" y="4" width="72" height="128" rx="12" fill="#333333"/>
<rect x="8" y="81" width="72" height="51" rx="10" fill="#FF1E00"/>
<path d="M19.745 24.196C19.2457 24.196 18.7813 24.105 18.352 23.923C17.9227 23.7363 17.5517 23.475 17.239 23.139C16.931 22.7983 16.7047 22.3947 16.56 21.928L17.757 21.585C17.911 22.0517 18.1677 22.4063 18.527 22.649C18.8863 22.8917 19.29 23.0107 19.738 23.006C20.1487 22.9967 20.5033 22.9033 20.802 22.726C21.1053 22.544 21.3387 22.2967 21.502 21.984C21.67 21.6713 21.754 21.3097 21.754 20.899C21.754 20.2737 21.5673 19.7673 21.194 19.38C20.8207 18.988 20.3307 18.792 19.724 18.792C19.556 18.792 19.3787 18.8153 19.192 18.862C19.01 18.9087 18.8397 18.974 18.681 19.058L18.079 18.071L21.817 14.69L21.978 15.11H16.959V13.92H22.902V15.117L19.717 18.169L19.703 17.728C20.3703 17.6813 20.9537 17.791 21.453 18.057C21.9523 18.323 22.3397 18.7033 22.615 19.198C22.895 19.6927 23.035 20.2597 23.035 20.899C23.035 21.543 22.8903 22.1123 22.601 22.607C22.3117 23.1017 21.9197 23.4913 21.425 23.776C20.9303 24.056 20.3703 24.196 19.745 24.196ZM28.257 24.21C27.6037 24.21 27.0203 24.063 26.507 23.769C25.9983 23.4703 25.5947 23.0667 25.296 22.558C25.002 22.0447 24.855 21.4613 24.855 20.808V17.112C24.855 16.4587 25.002 15.8753 25.296 15.362C25.5947 14.8487 25.9983 14.445 26.507 14.151C27.0203 13.857 27.6037 13.71 28.257 13.71C28.9103 13.71 29.4937 13.857 30.007 14.151C30.5203 14.445 30.924 14.8487 31.218 15.362C31.512 15.8753 31.659 16.4587 31.659 17.112V20.808C31.659 21.4613 31.512 22.0447 31.218 22.558C30.924 23.0667 30.5203 23.4703 30.007 23.769C29.4937 24.063 28.9103 24.21 28.257 24.21ZM28.257 23.013C28.6537 23.013 29.013 22.9173 29.335 22.726C29.657 22.5347 29.9137 22.278 30.105 21.956C30.2963 21.6293 30.392 21.27 30.392 20.878V17.035C30.392 16.6383 30.2963 16.279 30.105 15.957C29.9137 15.635 29.657 15.3783 29.335 15.187C29.013 14.9957 28.6537 14.9 28.257 14.9C27.865 14.9 27.5057 14.9957 27.179 15.187C26.857 15.3783 26.6003 15.635 26.409 15.957C26.2177 16.279 26.122 16.6383 26.122 17.035V20.878C26.122 21.27 26.2177 21.6293 26.409 21.956C26.6003 22.278 26.857 22.5347 27.179 22.726C27.5057 22.9173 27.865 23.013 28.257 23.013ZM34.7387 24L33.8987 23.16L43.1527 13.92L43.9927 14.76L34.7387 24ZM41.8927 24.21C41.4307 24.21 41.0083 24.098 40.6257 23.874C40.2477 23.6453 39.9443 23.342 39.7157 22.964C39.487 22.5813 39.3727 22.1567 39.3727 21.69C39.3727 21.2327 39.4893 20.8127 39.7227 20.43C39.956 20.0473 40.264 19.7417 40.6467 19.513C41.0293 19.2843 41.4447 19.17 41.8927 19.17C42.3547 19.17 42.777 19.2843 43.1597 19.513C43.5423 19.737 43.8457 20.0403 44.0697 20.423C44.2983 20.801 44.4127 21.2233 44.4127 21.69C44.4127 22.1567 44.2983 22.5813 44.0697 22.964C43.8457 23.342 43.5423 23.6453 43.1597 23.874C42.777 24.098 42.3547 24.21 41.8927 24.21ZM41.8927 23.111C42.1493 23.111 42.385 23.0457 42.5997 22.915C42.819 22.7843 42.9917 22.6117 43.1177 22.397C43.2483 22.1823 43.3137 21.9467 43.3137 21.69C43.3137 21.4333 43.2483 21.1977 43.1177 20.983C42.9917 20.7637 42.819 20.591 42.5997 20.465C42.385 20.3343 42.1493 20.269 41.8927 20.269C41.636 20.269 41.4003 20.3343 41.1857 20.465C40.971 20.591 40.7983 20.7637 40.6677 20.983C40.537 21.1977 40.4717 21.4333 40.4717 21.69C40.4717 21.9467 40.537 22.1823 40.6677 22.397C40.7983 22.6117 40.971 22.7843 41.1857 22.915C41.4003 23.0457 41.636 23.111 41.8927 23.111ZM35.9987 18.75C35.5367 18.75 35.1143 18.638 34.7317 18.414C34.349 18.1853 34.0433 17.882 33.8147 17.504C33.5907 17.1213 33.4787 16.6967 33.4787 16.23C33.4787 15.7727 33.5953 15.3527 33.8287 14.97C34.062 14.5873 34.37 14.2817 34.7527 14.053C35.1353 13.8243 35.5507 13.71 35.9987 13.71C36.4607 13.71 36.8807 13.8243 37.2587 14.053C37.6413 14.277 37.947 14.5803 38.1757 14.963C38.4043 15.341 38.5187 15.7633 38.5187 16.23C38.5187 16.6967 38.4043 17.1213 38.1757 17.504C37.947 17.882 37.6413 18.1853 37.2587 18.414C36.8807 18.638 36.4607 18.75 35.9987 18.75ZM35.9987 17.651C36.2553 17.651 36.491 17.5857 36.7057 17.455C36.925 17.3243 37.0977 17.1517 37.2237 16.937C37.3543 16.7223 37.4197 16.4867 37.4197 16.23C37.4197 15.9733 37.3543 15.7377 37.2237 15.523C37.0977 15.3037 36.925 15.131 36.7057 15.005C36.491 14.8743 36.2553 14.809 35.9987 14.809C35.742 14.809 35.5063 14.8743 35.2917 15.005C35.077 15.131 34.9043 15.3037 34.7737 15.523C34.643 15.7377 34.5777 15.9733 34.5777 16.23C34.5777 16.4867 34.643 16.7223 34.7737 16.937C34.9043 17.1517 35.077 17.3243 35.2917 17.455C35.5063 17.5857 35.742 17.651 35.9987 17.651Z" fill="white"/>
<rect x="117" y="4" width="72" height="128" rx="12" fill="#333333"/>
<path d="M117 110C117 104.399 117 101.599 118.09 99.4601C119.049 97.5785 120.578 96.0487 122.46 95.0899C124.599 94 127.399 94 133 94H173C178.601 94 181.401 94 183.54 95.0899C185.422 96.0487 186.951 97.5785 187.91 99.4601C189 101.599 189 104.399 189 110V116C189 121.601 189 124.401 187.91 126.54C186.951 128.422 185.422 129.951 183.54 130.91C181.401 132 178.601 132 173 132H133C127.399 132 124.599 132 122.46 130.91C120.578 129.951 119.049 128.422 118.09 126.54C117 124.401 117 121.601 117 116V110Z" fill="#FF7A00"/>
<path d="M128.745 24.196C128.246 24.196 127.781 24.105 127.352 23.923C126.923 23.7363 126.552 23.475 126.239 23.139C125.931 22.7983 125.705 22.3947 125.56 21.928L126.757 21.585C126.911 22.0517 127.168 22.4063 127.527 22.649C127.886 22.8917 128.29 23.0107 128.738 23.006C129.149 22.9967 129.503 22.9033 129.802 22.726C130.105 22.544 130.339 22.2967 130.502 21.984C130.67 21.6713 130.754 21.3097 130.754 20.899C130.754 20.2737 130.567 19.7673 130.194 19.38C129.821 18.988 129.331 18.792 128.724 18.792C128.556 18.792 128.379 18.8153 128.192 18.862C128.01 18.9087 127.84 18.974 127.681 19.058L127.079 18.071L130.817 14.69L130.978 15.11H125.959V13.92H131.902V15.117L128.717 18.169L128.703 17.728C129.37 17.6813 129.954 17.791 130.453 18.057C130.952 18.323 131.34 18.7033 131.615 19.198C131.895 19.6927 132.035 20.2597 132.035 20.899C132.035 21.543 131.89 22.1123 131.601 22.607C131.312 23.1017 130.92 23.4913 130.425 23.776C129.93 24.056 129.37 24.196 128.745 24.196ZM136.837 24.21C136.319 24.21 135.836 24.1027 135.388 23.888C134.945 23.6733 134.564 23.3793 134.247 23.006C133.934 22.628 133.71 22.194 133.575 21.704L134.772 21.382C134.856 21.7133 135.005 22.0003 135.22 22.243C135.435 22.481 135.684 22.6677 135.969 22.803C136.258 22.9337 136.559 22.999 136.872 22.999C137.283 22.999 137.651 22.901 137.978 22.705C138.309 22.5043 138.571 22.2407 138.762 21.914C138.953 21.5827 139.049 21.221 139.049 20.829C139.049 20.423 138.949 20.0567 138.748 19.73C138.552 19.3987 138.288 19.1373 137.957 18.946C137.626 18.7547 137.264 18.659 136.872 18.659C136.429 18.659 136.048 18.7523 135.731 18.939C135.418 19.121 135.171 19.345 134.989 19.611L133.883 19.191L134.191 13.92H139.602V15.103H134.793L135.346 14.585L135.087 18.806L134.814 18.449C135.094 18.1503 135.428 17.9193 135.815 17.756C136.207 17.5927 136.606 17.511 137.012 17.511C137.637 17.511 138.197 17.658 138.692 17.952C139.187 18.2413 139.579 18.638 139.868 19.142C140.157 19.6413 140.302 20.2037 140.302 20.829C140.302 21.4497 140.143 22.0167 139.826 22.53C139.509 23.0387 139.086 23.447 138.559 23.755C138.036 24.0583 137.462 24.21 136.837 24.21ZM143.096 24L142.256 23.16L151.51 13.92L152.35 14.76L143.096 24ZM150.25 24.21C149.788 24.21 149.366 24.098 148.983 23.874C148.605 23.6453 148.302 23.342 148.073 22.964C147.844 22.5813 147.73 22.1567 147.73 21.69C147.73 21.2327 147.847 20.8127 148.08 20.43C148.313 20.0473 148.621 19.7417 149.004 19.513C149.387 19.2843 149.802 19.17 150.25 19.17C150.712 19.17 151.134 19.2843 151.517 19.513C151.9 19.737 152.203 20.0403 152.427 20.423C152.656 20.801 152.77 21.2233 152.77 21.69C152.77 22.1567 152.656 22.5813 152.427 22.964C152.203 23.342 151.9 23.6453 151.517 23.874C151.134 24.098 150.712 24.21 150.25 24.21ZM150.25 23.111C150.507 23.111 150.742 23.0457 150.957 22.915C151.176 22.7843 151.349 22.6117 151.475 22.397C151.606 22.1823 151.671 21.9467 151.671 21.69C151.671 21.4333 151.606 21.1977 151.475 20.983C151.349 20.7637 151.176 20.591 150.957 20.465C150.742 20.3343 150.507 20.269 150.25 20.269C149.993 20.269 149.758 20.3343 149.543 20.465C149.328 20.591 149.156 20.7637 149.025 20.983C148.894 21.1977 148.829 21.4333 148.829 21.69C148.829 21.9467 148.894 22.1823 149.025 22.397C149.156 22.6117 149.328 22.7843 149.543 22.915C149.758 23.0457 149.993 23.111 150.25 23.111ZM144.356 18.75C143.894 18.75 143.472 18.638 143.089 18.414C142.706 18.1853 142.401 17.882 142.172 17.504C141.948 17.1213 141.836 16.6967 141.836 16.23C141.836 15.7727 141.953 15.3527 142.186 14.97C142.419 14.5873 142.727 14.2817 143.11 14.053C143.493 13.8243 143.908 13.71 144.356 13.71C144.818 13.71 145.238 13.8243 145.616 14.053C145.999 14.277 146.304 14.5803 146.533 14.963C146.762 15.341 146.876 15.7633 146.876 16.23C146.876 16.6967 146.762 17.1213 146.533 17.504C146.304 17.882 145.999 18.1853 145.616 18.414C145.238 18.638 144.818 18.75 144.356 18.75ZM144.356 17.651C144.613 17.651 144.848 17.5857 145.063 17.455C145.282 17.3243 145.455 17.1517 145.581 16.937C145.712 16.7223 145.777 16.4867 145.777 16.23C145.777 15.9733 145.712 15.7377 145.581 15.523C145.455 15.3037 145.282 15.131 145.063 15.005C144.848 14.8743 144.613 14.809 144.356 14.809C144.099 14.809 143.864 14.8743 143.649 15.005C143.434 15.131 143.262 15.3037 143.131 15.523C143 15.7377 142.935 15.9733 142.935 16.23C142.935 16.4867 143 16.7223 143.131 16.937C143.262 17.1517 143.434 17.3243 143.649 17.455C143.864 17.5857 144.099 17.651 144.356 17.651Z" fill="white"/>
<rect x="226" y="4" width="72" height="128" rx="12" fill="#333333"/>
<rect x="226" y="105" width="72" height="28" rx="10" fill="#FFC700"/>
<path d="M234.7 23.993L234.707 22.873L239.18 18.848C239.553 18.512 239.803 18.1947 239.929 17.896C240.06 17.5927 240.125 17.2823 240.125 16.965C240.125 16.5777 240.036 16.2277 239.859 15.915C239.682 15.6023 239.439 15.355 239.131 15.173C238.828 14.991 238.482 14.9 238.095 14.9C237.694 14.9 237.337 14.9957 237.024 15.187C236.711 15.3737 236.464 15.6233 236.282 15.936C236.105 16.2487 236.018 16.5893 236.023 16.958H234.749C234.749 16.3233 234.896 15.7633 235.19 15.278C235.484 14.788 235.883 14.4053 236.387 14.13C236.896 13.85 237.472 13.71 238.116 13.71C238.741 13.71 239.301 13.8547 239.796 14.144C240.291 14.4287 240.68 14.8183 240.965 15.313C241.254 15.803 241.399 16.3583 241.399 16.979C241.399 17.4177 241.343 17.798 241.231 18.12C241.124 18.442 240.956 18.7407 240.727 19.016C240.498 19.2867 240.211 19.576 239.866 19.884L236.149 23.223L235.988 22.803H241.399V23.993H234.7ZM246.476 24.21C245.822 24.21 245.239 24.063 244.726 23.769C244.217 23.4703 243.813 23.0667 243.515 22.558C243.221 22.0447 243.074 21.4613 243.074 20.808V17.112C243.074 16.4587 243.221 15.8753 243.515 15.362C243.813 14.8487 244.217 14.445 244.726 14.151C245.239 13.857 245.822 13.71 246.476 13.71C247.129 13.71 247.712 13.857 248.226 14.151C248.739 14.445 249.143 14.8487 249.437 15.362C249.731 15.8753 249.878 16.4587 249.878 17.112V20.808C249.878 21.4613 249.731 22.0447 249.437 22.558C249.143 23.0667 248.739 23.4703 248.226 23.769C247.712 24.063 247.129 24.21 246.476 24.21ZM246.476 23.013C246.872 23.013 247.232 22.9173 247.554 22.726C247.876 22.5347 248.132 22.278 248.324 21.956C248.515 21.6293 248.611 21.27 248.611 20.878V17.035C248.611 16.6383 248.515 16.279 248.324 15.957C248.132 15.635 247.876 15.3783 247.554 15.187C247.232 14.9957 246.872 14.9 246.476 14.9C246.084 14.9 245.724 14.9957 245.398 15.187C245.076 15.3783 244.819 15.635 244.628 15.957C244.436 16.279 244.341 16.6383 244.341 17.035V20.878C244.341 21.27 244.436 21.6293 244.628 21.956C244.819 22.278 245.076 22.5347 245.398 22.726C245.724 22.9173 246.084 23.013 246.476 23.013ZM252.957 24L252.117 23.16L261.371 13.92L262.211 14.76L252.957 24ZM260.111 24.21C259.649 24.21 259.227 24.098 258.844 23.874C258.466 23.6453 258.163 23.342 257.934 22.964C257.706 22.5813 257.591 22.1567 257.591 21.69C257.591 21.2327 257.708 20.8127 257.941 20.43C258.175 20.0473 258.483 19.7417 258.865 19.513C259.248 19.2843 259.663 19.17 260.111 19.17C260.573 19.17 260.996 19.2843 261.378 19.513C261.761 19.737 262.064 20.0403 262.288 20.423C262.517 20.801 262.631 21.2233 262.631 21.69C262.631 22.1567 262.517 22.5813 262.288 22.964C262.064 23.342 261.761 23.6453 261.378 23.874C260.996 24.098 260.573 24.21 260.111 24.21ZM260.111 23.111C260.368 23.111 260.604 23.0457 260.818 22.915C261.038 22.7843 261.21 22.6117 261.336 22.397C261.467 22.1823 261.532 21.9467 261.532 21.69C261.532 21.4333 261.467 21.1977 261.336 20.983C261.21 20.7637 261.038 20.591 260.818 20.465C260.604 20.3343 260.368 20.269 260.111 20.269C259.855 20.269 259.619 20.3343 259.404 20.465C259.19 20.591 259.017 20.7637 258.886 20.983C258.756 21.1977 258.69 21.4333 258.69 21.69C258.69 21.9467 258.756 22.1823 258.886 22.397C259.017 22.6117 259.19 22.7843 259.404 22.915C259.619 23.0457 259.855 23.111 260.111 23.111ZM254.217 18.75C253.755 18.75 253.333 18.638 252.95 18.414C252.568 18.1853 252.262 17.882 252.033 17.504C251.809 17.1213 251.697 16.6967 251.697 16.23C251.697 15.7727 251.814 15.3527 252.047 14.97C252.281 14.5873 252.589 14.2817 252.971 14.053C253.354 13.8243 253.769 13.71 254.217 13.71C254.679 13.71 255.099 13.8243 255.477 14.053C255.86 14.277 256.166 14.5803 256.394 14.963C256.623 15.341 256.737 15.7633 256.737 16.23C256.737 16.6967 256.623 17.1213 256.394 17.504C256.166 17.882 255.86 18.1853 255.477 18.414C255.099 18.638 254.679 18.75 254.217 18.75ZM254.217 17.651C254.474 17.651 254.71 17.5857 254.924 17.455C255.144 17.3243 255.316 17.1517 255.442 16.937C255.573 16.7223 255.638 16.4867 255.638 16.23C255.638 15.9733 255.573 15.7377 255.442 15.523C255.316 15.3037 255.144 15.131 254.924 15.005C254.71 14.8743 254.474 14.809 254.217 14.809C253.961 14.809 253.725 14.8743 253.51 15.005C253.296 15.131 253.123 15.3037 252.992 15.523C252.862 15.7377 252.796 15.9733 252.796 16.23C252.796 16.4867 252.862 16.7223 252.992 16.937C253.123 17.1517 253.296 17.3243 253.51 17.455C253.725 17.5857 253.961 17.651 254.217 17.651Z" fill="white"/>
<rect x="335" y="4" width="72" height="128" rx="12" fill="#333333"/>
<rect x="335" y="114" width="72" height="18" rx="9" fill="#4CAF50"/>
<path d="M345.737 24V15.299L343.84 16.447V15.054L345.737 13.92H347.004V24H345.737ZM352.65 24.21C352.132 24.21 351.649 24.1027 351.201 23.888C350.757 23.6733 350.377 23.3793 350.06 23.006C349.747 22.628 349.523 22.194 349.388 21.704L350.585 21.382C350.669 21.7133 350.818 22.0003 351.033 22.243C351.247 22.481 351.497 22.6677 351.782 22.803C352.071 22.9337 352.372 22.999 352.685 22.999C353.095 22.999 353.464 22.901 353.791 22.705C354.122 22.5043 354.383 22.2407 354.575 21.914C354.766 21.5827 354.862 21.221 354.862 20.829C354.862 20.423 354.761 20.0567 354.561 19.73C354.365 19.3987 354.101 19.1373 353.77 18.946C353.438 18.7547 353.077 18.659 352.685 18.659C352.241 18.659 351.861 18.7523 351.544 18.939C351.231 19.121 350.984 19.345 350.802 19.611L349.696 19.191L350.004 13.92H355.415V15.103H350.606L351.159 14.585L350.9 18.806L350.627 18.449C350.907 18.1503 351.24 17.9193 351.628 17.756C352.02 17.5927 352.419 17.511 352.825 17.511C353.45 17.511 354.01 17.658 354.505 17.952C354.999 18.2413 355.391 18.638 355.681 19.142C355.97 19.6413 356.115 20.2037 356.115 20.829C356.115 21.4497 355.956 22.0167 355.639 22.53C355.321 23.0387 354.899 23.447 354.372 23.755C353.849 24.0583 353.275 24.21 352.65 24.21ZM358.909 24L358.069 23.16L367.323 13.92L368.163 14.76L358.909 24ZM366.063 24.21C365.601 24.21 365.178 24.098 364.796 23.874C364.418 23.6453 364.114 23.342 363.886 22.964C363.657 22.5813 363.543 22.1567 363.543 21.69C363.543 21.2327 363.659 20.8127 363.893 20.43C364.126 20.0473 364.434 19.7417 364.817 19.513C365.199 19.2843 365.615 19.17 366.063 19.17C366.525 19.17 366.947 19.2843 367.33 19.513C367.712 19.737 368.016 20.0403 368.24 20.423C368.468 20.801 368.583 21.2233 368.583 21.69C368.583 22.1567 368.468 22.5813 368.24 22.964C368.016 23.342 367.712 23.6453 367.33 23.874C366.947 24.098 366.525 24.21 366.063 24.21ZM366.063 23.111C366.319 23.111 366.555 23.0457 366.77 22.915C366.989 22.7843 367.162 22.6117 367.288 22.397C367.418 22.1823 367.484 21.9467 367.484 21.69C367.484 21.4333 367.418 21.1977 367.288 20.983C367.162 20.7637 366.989 20.591 366.77 20.465C366.555 20.3343 366.319 20.269 366.063 20.269C365.806 20.269 365.57 20.3343 365.356 20.465C365.141 20.591 364.968 20.7637 364.838 20.983C364.707 21.1977 364.642 21.4333 364.642 21.69C364.642 21.9467 364.707 22.1823 364.838 22.397C364.968 22.6117 365.141 22.7843 365.356 22.915C365.57 23.0457 365.806 23.111 366.063 23.111ZM360.169 18.75C359.707 18.75 359.284 18.638 358.902 18.414C358.519 18.1853 358.213 17.882 357.985 17.504C357.761 17.1213 357.649 16.6967 357.649 16.23C357.649 15.7727 357.765 15.3527 357.999 14.97C358.232 14.5873 358.54 14.2817 358.923 14.053C359.305 13.8243 359.721 13.71 360.169 13.71C360.631 13.71 361.051 13.8243 361.429 14.053C361.811 14.277 362.117 14.5803 362.346 14.963C362.574 15.341 362.689 15.7633 362.689 16.23C362.689 16.6967 362.574 17.1213 362.346 17.504C362.117 17.882 361.811 18.1853 361.429 18.414C361.051 18.638 360.631 18.75 360.169 18.75ZM360.169 17.651C360.425 17.651 360.661 17.5857 360.876 17.455C361.095 17.3243 361.268 17.1517 361.394 16.937C361.524 16.7223 361.59 16.4867 361.59 16.23C361.59 15.9733 361.524 15.7377 361.394 15.523C361.268 15.3037 361.095 15.131 360.876 15.005C360.661 14.8743 360.425 14.809 360.169 14.809C359.912 14.809 359.676 14.8743 359.462 15.005C359.247 15.131 359.074 15.3037 358.944 15.523C358.813 15.7377 358.748 15.9733 358.748 16.23C358.748 16.4867 358.813 16.7223 358.944 16.937C359.074 17.1517 359.247 17.3243 359.462 17.455C359.676 17.5857 359.912 17.651 360.169 17.651Z" fill="white"/>
<rect x="444" y="4" width="72" height="128" rx="12" fill="#333333"/>
<rect x="444" y="113" width="72" height="19" rx="9.5" fill="#2196F3"/>
<path d="M454.737 24V15.299L452.84 16.447V15.054L454.737 13.92H456.004V24H454.737ZM461.65 24.21C461.132 24.21 460.649 24.1027 460.201 23.888C459.757 23.6733 459.377 23.3793 459.06 23.006C458.747 22.628 458.523 22.194 458.388 21.704L459.585 21.382C459.669 21.7133 459.818 22.0003 460.033 22.243C460.247 22.481 460.497 22.6677 460.782 22.803C461.071 22.9337 461.372 22.999 461.685 22.999C462.095 22.999 462.464 22.901 462.791 22.705C463.122 22.5043 463.383 22.2407 463.575 21.914C463.766 21.5827 463.862 21.221 463.862 20.829C463.862 20.423 463.761 20.0567 463.561 19.73C463.365 19.3987 463.101 19.1373 462.77 18.946C462.438 18.7547 462.077 18.659 461.685 18.659C461.241 18.659 460.861 18.7523 460.544 18.939C460.231 19.121 459.984 19.345 459.802 19.611L458.696 19.191L459.004 13.92H464.415V15.103H459.606L460.159 14.585L459.9 18.806L459.627 18.449C459.907 18.1503 460.24 17.9193 460.628 17.756C461.02 17.5927 461.419 17.511 461.825 17.511C462.45 17.511 463.01 17.658 463.505 17.952C463.999 18.2413 464.391 18.638 464.681 19.142C464.97 19.6413 465.115 20.2037 465.115 20.829C465.115 21.4497 464.956 22.0167 464.639 22.53C464.321 23.0387 463.899 23.447 463.372 23.755C462.849 24.0583 462.275 24.21 461.65 24.21ZM467.909 24L467.069 23.16L476.323 13.92L477.163 14.76L467.909 24ZM475.063 24.21C474.601 24.21 474.178 24.098 473.796 23.874C473.418 23.6453 473.114 23.342 472.886 22.964C472.657 22.5813 472.543 22.1567 472.543 21.69C472.543 21.2327 472.659 20.8127 472.893 20.43C473.126 20.0473 473.434 19.7417 473.817 19.513C474.199 19.2843 474.615 19.17 475.063 19.17C475.525 19.17 475.947 19.2843 476.33 19.513C476.712 19.737 477.016 20.0403 477.24 20.423C477.468 20.801 477.583 21.2233 477.583 21.69C477.583 22.1567 477.468 22.5813 477.24 22.964C477.016 23.342 476.712 23.6453 476.33 23.874C475.947 24.098 475.525 24.21 475.063 24.21ZM475.063 23.111C475.319 23.111 475.555 23.0457 475.77 22.915C475.989 22.7843 476.162 22.6117 476.288 22.397C476.418 22.1823 476.484 21.9467 476.484 21.69C476.484 21.4333 476.418 21.1977 476.288 20.983C476.162 20.7637 475.989 20.591 475.77 20.465C475.555 20.3343 475.319 20.269 475.063 20.269C474.806 20.269 474.57 20.3343 474.356 20.465C474.141 20.591 473.968 20.7637 473.838 20.983C473.707 21.1977 473.642 21.4333 473.642 21.69C473.642 21.9467 473.707 22.1823 473.838 22.397C473.968 22.6117 474.141 22.7843 474.356 22.915C474.57 23.0457 474.806 23.111 475.063 23.111ZM469.169 18.75C468.707 18.75 468.284 18.638 467.902 18.414C467.519 18.1853 467.213 17.882 466.985 17.504C466.761 17.1213 466.649 16.6967 466.649 16.23C466.649 15.7727 466.765 15.3527 466.999 14.97C467.232 14.5873 467.54 14.2817 467.923 14.053C468.305 13.8243 468.721 13.71 469.169 13.71C469.631 13.71 470.051 13.8243 470.429 14.053C470.811 14.277 471.117 14.5803 471.346 14.963C471.574 15.341 471.689 15.7633 471.689 16.23C471.689 16.6967 471.574 17.1213 471.346 17.504C471.117 17.882 470.811 18.1853 470.429 18.414C470.051 18.638 469.631 18.75 469.169 18.75ZM469.169 17.651C469.425 17.651 469.661 17.5857 469.876 17.455C470.095 17.3243 470.268 17.1517 470.394 16.937C470.524 16.7223 470.59 16.4867 470.59 16.23C470.59 15.9733 470.524 15.7377 470.394 15.523C470.268 15.3037 470.095 15.131 469.876 15.005C469.661 14.8743 469.425 14.809 469.169 14.809C468.912 14.809 468.676 14.8743 468.462 15.005C468.247 15.131 468.074 15.3037 467.944 15.523C467.813 15.7377 467.748 15.9733 467.748 16.23C467.748 16.4867 467.813 16.7223 467.944 16.937C468.074 17.1517 468.247 17.3243 468.462 17.455C468.676 17.5857 468.912 17.651 469.169 17.651Z" fill="white"/>
<path d="M24.8794 169.24C23.7328 169.24 22.7594 168.987 21.9594 168.48C21.1594 167.973 20.5488 167.269 20.1274 166.368C19.7114 165.467 19.5034 164.424 19.5034 163.24C19.5034 162.056 19.7114 161.013 20.1274 160.112C20.5488 159.211 21.1594 158.507 21.9594 158C22.7594 157.493 23.7328 157.24 24.8794 157.24C26.2128 157.24 27.3088 157.579 28.1674 158.256C29.0314 158.933 29.6261 159.845 29.9514 160.992L28.5034 161.376C28.2688 160.517 27.8501 159.84 27.2474 159.344C26.6448 158.848 25.8554 158.6 24.8794 158.6C24.0208 158.6 23.3061 158.795 22.7354 159.184C22.1648 159.573 21.7354 160.117 21.4474 160.816C21.1594 161.509 21.0128 162.317 21.0074 163.24C21.0021 164.157 21.1434 164.965 21.4314 165.664C21.7194 166.357 22.1514 166.901 22.7274 167.296C23.3034 167.685 24.0208 167.88 24.8794 167.88C25.8554 167.88 26.6448 167.632 27.2474 167.136C27.8501 166.635 28.2688 165.957 28.5034 165.104L29.9514 165.488C29.6261 166.629 29.0314 167.541 28.1674 168.224C27.3088 168.901 26.2128 169.24 24.8794 169.24ZM31.7059 169V160.36H32.9779V162.448L32.7699 162.176C32.8713 161.909 33.0019 161.664 33.1619 161.44C33.3273 161.216 33.5113 161.032 33.7139 160.888C33.9379 160.707 34.1913 160.568 34.4739 160.472C34.7566 160.376 35.0446 160.32 35.3379 160.304C35.6313 160.283 35.9059 160.301 36.1619 160.36V161.696C35.8633 161.616 35.5353 161.595 35.1779 161.632C34.8206 161.669 34.4899 161.8 34.1859 162.024C33.9086 162.221 33.6926 162.461 33.5379 162.744C33.3886 163.027 33.2846 163.333 33.2259 163.664C33.1673 163.989 33.1379 164.323 33.1379 164.664V169H31.7059ZM37.8347 158.832V157.36H39.2587V158.832H37.8347ZM37.8347 169V160.36H39.2587V169H37.8347ZM46.4831 169C45.9711 169.101 45.4644 169.141 44.9631 169.12C44.4671 169.104 44.0244 169.005 43.6351 168.824C43.2457 168.637 42.9497 168.349 42.7471 167.96C42.5764 167.619 42.4831 167.275 42.4671 166.928C42.4564 166.576 42.4511 166.179 42.4511 165.736V157.96H43.8751V165.672C43.8751 166.024 43.8777 166.325 43.8831 166.576C43.8937 166.827 43.9497 167.043 44.0511 167.224C44.2431 167.565 44.5471 167.765 44.9631 167.824C45.3844 167.883 45.8911 167.867 46.4831 167.776V169ZM40.6991 161.536V160.36H46.4831V161.536H40.6991ZM48.3972 158.832V157.36H49.8212V158.832H48.3972ZM48.3972 169V160.36H49.8212V169H48.3972ZM55.8616 169.24C54.9869 169.24 54.2429 169.045 53.6296 168.656C53.0216 168.261 52.5576 167.72 52.2376 167.032C51.9176 166.344 51.7522 165.56 51.7416 164.68C51.7522 163.779 51.9202 162.987 52.2456 162.304C52.5762 161.616 53.0482 161.08 53.6616 160.696C54.2749 160.312 55.0136 160.12 55.8776 160.12C56.7896 160.12 57.5736 160.344 58.2296 160.792C58.8909 161.24 59.3336 161.853 59.5576 162.632L58.1496 163.056C57.9682 162.555 57.6722 162.165 57.2616 161.888C56.8562 161.611 56.3896 161.472 55.8616 161.472C55.2696 161.472 54.7816 161.611 54.3976 161.888C54.0136 162.16 53.7282 162.539 53.5416 163.024C53.3549 163.504 53.2589 164.056 53.2536 164.68C53.2642 165.64 53.4856 166.416 53.9176 167.008C54.3549 167.595 55.0029 167.888 55.8616 167.888C56.4269 167.888 56.8962 167.76 57.2696 167.504C57.6429 167.243 57.9256 166.867 58.1176 166.376L59.5576 166.752C59.2589 167.557 58.7922 168.173 58.1576 168.6C57.5229 169.027 56.7576 169.24 55.8616 169.24ZM63.5682 169.24C62.9229 169.24 62.3815 169.123 61.9442 168.888C61.5122 168.648 61.1842 168.333 60.9602 167.944C60.7415 167.555 60.6322 167.128 60.6322 166.664C60.6322 166.211 60.7175 165.819 60.8882 165.488C61.0642 165.152 61.3095 164.875 61.6242 164.656C61.9389 164.432 62.3149 164.256 62.7522 164.128C63.1629 164.016 63.6215 163.92 64.1282 163.84C64.6402 163.755 65.1575 163.677 65.6802 163.608C66.2029 163.539 66.6909 163.472 67.1442 163.408L66.6322 163.704C66.6482 162.936 66.4935 162.368 66.1682 162C65.8482 161.632 65.2935 161.448 64.5042 161.448C63.9815 161.448 63.5229 161.568 63.1282 161.808C62.7389 162.043 62.4642 162.427 62.3042 162.96L60.9522 162.552C61.1602 161.795 61.5629 161.2 62.1602 160.768C62.7575 160.336 63.5442 160.12 64.5202 160.12C65.3042 160.12 65.9762 160.261 66.5362 160.544C67.1015 160.821 67.5069 161.243 67.7522 161.808C67.8749 162.075 67.9522 162.365 67.9842 162.68C68.0162 162.989 68.0322 163.315 68.0322 163.656V169H66.7682V166.928L67.0642 167.12C66.7389 167.819 66.2829 168.347 65.6962 168.704C65.1149 169.061 64.4055 169.24 63.5682 169.24ZM63.7842 168.048C64.2962 168.048 64.7389 167.957 65.1122 167.776C65.4909 167.589 65.7949 167.347 66.0242 167.048C66.2535 166.744 66.4029 166.413 66.4722 166.056C66.5522 165.789 66.5949 165.493 66.6002 165.168C66.6109 164.837 66.6162 164.584 66.6162 164.408L67.1122 164.624C66.6482 164.688 66.1922 164.749 65.7442 164.808C65.2962 164.867 64.8722 164.931 64.4722 165C64.0722 165.064 63.7122 165.141 63.3922 165.232C63.1575 165.307 62.9362 165.403 62.7282 165.52C62.5255 165.637 62.3602 165.789 62.2322 165.976C62.1095 166.157 62.0482 166.384 62.0482 166.656C62.0482 166.891 62.1069 167.115 62.2242 167.328C62.3469 167.541 62.5335 167.715 62.7842 167.848C63.0402 167.981 63.3735 168.048 63.7842 168.048ZM70.2722 169V157.24H71.6962V169H70.2722Z" fill="white"/>
<path d="M24.8794 169.24C23.7328 169.24 22.7594 168.987 21.9594 168.48C21.1594 167.973 20.5488 167.269 20.1274 166.368C19.7114 165.467 19.5034 164.424 19.5034 163.24C19.5034 162.056 19.7114 161.013 20.1274 160.112C20.5488 159.211 21.1594 158.507 21.9594 158C22.7594 157.493 23.7328 157.24 24.8794 157.24C26.2128 157.24 27.3088 157.579 28.1674 158.256C29.0314 158.933 29.6261 159.845 29.9514 160.992L28.5034 161.376C28.2688 160.517 27.8501 159.84 27.2474 159.344C26.6448 158.848 25.8554 158.6 24.8794 158.6C24.0208 158.6 23.3061 158.795 22.7354 159.184C22.1648 159.573 21.7354 160.117 21.4474 160.816C21.1594 161.509 21.0128 162.317 21.0074 163.24C21.0021 164.157 21.1434 164.965 21.4314 165.664C21.7194 166.357 22.1514 166.901 22.7274 167.296C23.3034 167.685 24.0208 167.88 24.8794 167.88C25.8554 167.88 26.6448 167.632 27.2474 167.136C27.8501 166.635 28.2688 165.957 28.5034 165.104L29.9514 165.488C29.6261 166.629 29.0314 167.541 28.1674 168.224C27.3088 168.901 26.2128 169.24 24.8794 169.24ZM31.7059 169V160.36H32.9779V162.448L32.7699 162.176C32.8713 161.909 33.0019 161.664 33.1619 161.44C33.3273 161.216 33.5113 161.032 33.7139 160.888C33.9379 160.707 34.1913 160.568 34.4739 160.472C34.7566 160.376 35.0446 160.32 35.3379 160.304C35.6313 160.283 35.9059 160.301 36.1619 160.36V161.696C35.8633 161.616 35.5353 161.595 35.1779 161.632C34.8206 161.669 34.4899 161.8 34.1859 162.024C33.9086 162.221 33.6926 162.461 33.5379 162.744C33.3886 163.027 33.2846 163.333 33.2259 163.664C33.1673 163.989 33.1379 164.323 33.1379 164.664V169H31.7059ZM37.8347 158.832V157.36H39.2587V158.832H37.8347ZM37.8347 169V160.36H39.2587V169H37.8347ZM46.4831 169C45.9711 169.101 45.4644 169.141 44.9631 169.12C44.4671 169.104 44.0244 169.005 43.6351 168.824C43.2457 168.637 42.9497 168.349 42.7471 167.96C42.5764 167.619 42.4831 167.275 42.4671 166.928C42.4564 166.576 42.4511 166.179 42.4511 165.736V157.96H43.8751V165.672C43.8751 166.024 43.8777 166.325 43.8831 166.576C43.8937 166.827 43.9497 167.043 44.0511 167.224C44.2431 167.565 44.5471 167.765 44.9631 167.824C45.3844 167.883 45.8911 167.867 46.4831 167.776V169ZM40.6991 161.536V160.36H46.4831V161.536H40.6991ZM48.3972 158.832V157.36H49.8212V158.832H48.3972ZM48.3972 169V160.36H49.8212V169H48.3972ZM55.8616 169.24C54.9869 169.24 54.2429 169.045 53.6296 168.656C53.0216 168.261 52.5576 167.72 52.2376 167.032C51.9176 166.344 51.7522 165.56 51.7416 164.68C51.7522 163.779 51.9202 162.987 52.2456 162.304C52.5762 161.616 53.0482 161.08 53.6616 160.696C54.2749 160.312 55.0136 160.12 55.8776 160.12C56.7896 160.12 57.5736 160.344 58.2296 160.792C58.8909 161.24 59.3336 161.853 59.5576 162.632L58.1496 163.056C57.9682 162.555 57.6722 162.165 57.2616 161.888C56.8562 161.611 56.3896 161.472 55.8616 161.472C55.2696 161.472 54.7816 161.611 54.3976 161.888C54.0136 162.16 53.7282 162.539 53.5416 163.024C53.3549 163.504 53.2589 164.056 53.2536 164.68C53.2642 165.64 53.4856 166.416 53.9176 167.008C54.3549 167.595 55.0029 167.888 55.8616 167.888C56.4269 167.888 56.8962 167.76 57.2696 167.504C57.6429 167.243 57.9256 166.867 58.1176 166.376L59.5576 166.752C59.2589 167.557 58.7922 168.173 58.1576 168.6C57.5229 169.027 56.7576 169.24 55.8616 169.24ZM63.5682 169.24C62.9229 169.24 62.3815 169.123 61.9442 168.888C61.5122 168.648 61.1842 168.333 60.9602 167.944C60.7415 167.555 60.6322 167.128 60.6322 166.664C60.6322 166.211 60.7175 165.819 60.8882 165.488C61.0642 165.152 61.3095 164.875 61.6242 164.656C61.9389 164.432 62.3149 164.256 62.7522 164.128C63.1629 164.016 63.6215 163.92 64.1282 163.84C64.6402 163.755 65.1575 163.677 65.6802 163.608C66.2029 163.539 66.6909 163.472 67.1442 163.408L66.6322 163.704C66.6482 162.936 66.4935 162.368 66.1682 162C65.8482 161.632 65.2935 161.448 64.5042 161.448C63.9815 161.448 63.5229 161.568 63.1282 161.808C62.7389 162.043 62.4642 162.427 62.3042 162.96L60.9522 162.552C61.1602 161.795 61.5629 161.2 62.1602 160.768C62.7575 160.336 63.5442 160.12 64.5202 160.12C65.3042 160.12 65.9762 160.261 66.5362 160.544C67.1015 160.821 67.5069 161.243 67.7522 161.808C67.8749 162.075 67.9522 162.365 67.9842 162.68C68.0162 162.989 68.0322 163.315 68.0322 163.656V169H66.7682V166.928L67.0642 167.12C66.7389 167.819 66.2829 168.347 65.6962 168.704C65.1149 169.061 64.4055 169.24 63.5682 169.24ZM63.7842 168.048C64.2962 168.048 64.7389 167.957 65.1122 167.776C65.4909 167.589 65.7949 167.347 66.0242 167.048C66.2535 166.744 66.4029 166.413 66.4722 166.056C66.5522 165.789 66.5949 165.493 66.6002 165.168C66.6109 164.837 66.6162 164.584 66.6162 164.408L67.1122 164.624C66.6482 164.688 66.1922 164.749 65.7442 164.808C65.2962 164.867 64.8722 164.931 64.4722 165C64.0722 165.064 63.7122 165.141 63.3922 165.232C63.1575 165.307 62.9362 165.403 62.7282 165.52C62.5255 165.637 62.3602 165.789 62.2322 165.976C62.1095 166.157 62.0482 166.384 62.0482 166.656C62.0482 166.891 62.1069 167.115 62.2242 167.328C62.3469 167.541 62.5335 167.715 62.7842 167.848C63.0402 167.981 63.3735 168.048 63.7842 168.048ZM70.2722 169V157.24H71.6962V169H70.2722Z" fill="white" fill-opacity="0.1"/>
<path d="M137.917 169V157.48H139.341V162.56H145.405V157.48H146.829V169H145.405V163.912H139.341V169H137.917ZM149.233 158.832V157.36H150.657V158.832H149.233ZM149.233 169V160.36H150.657V169H149.233ZM156.554 173.08C156.1 173.08 155.658 173.011 155.226 172.872C154.794 172.733 154.396 172.523 154.034 172.24C153.676 171.963 153.378 171.611 153.138 171.184L154.442 170.496C154.655 170.917 154.956 171.224 155.346 171.416C155.74 171.608 156.146 171.704 156.562 171.704C157.111 171.704 157.567 171.603 157.93 171.4C158.292 171.203 158.559 170.907 158.73 170.512C158.906 170.117 158.991 169.627 158.986 169.04V166.68H159.154V160.36H160.418V169.056C160.418 169.291 160.41 169.517 160.394 169.736C160.383 169.955 160.356 170.171 160.314 170.384C160.202 170.997 159.98 171.501 159.65 171.896C159.319 172.296 158.892 172.592 158.37 172.784C157.847 172.981 157.242 173.08 156.554 173.08ZM156.45 169.24C155.644 169.24 154.954 169.04 154.378 168.64C153.802 168.235 153.356 167.688 153.042 167C152.732 166.312 152.578 165.536 152.578 164.672C152.578 163.808 152.732 163.032 153.042 162.344C153.356 161.656 153.802 161.115 154.378 160.72C154.954 160.32 155.642 160.12 156.442 160.12C157.258 160.12 157.943 160.317 158.498 160.712C159.052 161.107 159.471 161.648 159.754 162.336C160.042 163.024 160.186 163.803 160.186 164.672C160.186 165.531 160.042 166.307 159.754 167C159.471 167.688 159.052 168.235 158.498 168.64C157.943 169.04 157.26 169.24 156.45 169.24ZM156.626 167.936C157.207 167.936 157.684 167.797 158.058 167.52C158.431 167.237 158.706 166.851 158.882 166.36C159.063 165.864 159.154 165.301 159.154 164.672C159.154 164.032 159.063 163.469 158.882 162.984C158.706 162.493 158.434 162.112 158.066 161.84C157.698 161.563 157.231 161.424 156.666 161.424C156.079 161.424 155.594 161.568 155.21 161.856C154.831 162.144 154.548 162.533 154.362 163.024C154.18 163.515 154.09 164.064 154.09 164.672C154.09 165.285 154.183 165.84 154.37 166.336C154.556 166.827 154.836 167.216 155.21 167.504C155.588 167.792 156.06 167.936 156.626 167.936ZM168.803 169V164.672C168.803 164.261 168.766 163.867 168.691 163.488C168.622 163.109 168.497 162.771 168.315 162.472C168.139 162.168 167.899 161.928 167.595 161.752C167.297 161.576 166.918 161.488 166.459 161.488C166.102 161.488 165.777 161.549 165.483 161.672C165.195 161.789 164.947 161.971 164.739 162.216C164.531 162.461 164.369 162.771 164.251 163.144C164.139 163.512 164.083 163.947 164.083 164.448L163.147 164.16C163.147 163.323 163.297 162.605 163.595 162.008C163.899 161.405 164.323 160.944 164.867 160.624C165.417 160.299 166.062 160.136 166.803 160.136C167.363 160.136 167.841 160.224 168.235 160.4C168.63 160.576 168.958 160.811 169.219 161.104C169.481 161.392 169.686 161.717 169.835 162.08C169.985 162.437 170.089 162.803 170.147 163.176C170.211 163.544 170.243 163.893 170.243 164.224V169H168.803ZM162.643 169V157.48H163.923V163.84H164.083V169H162.643Z" fill="white"/>
<path d="M137.917 169V157.48H139.341V162.56H145.405V157.48H146.829V169H145.405V163.912H139.341V169H137.917ZM149.233 158.832V157.36H150.657V158.832H149.233ZM149.233 169V160.36H150.657V169H149.233ZM156.554 173.08C156.1 173.08 155.658 173.011 155.226 172.872C154.794 172.733 154.396 172.523 154.034 172.24C153.676 171.963 153.378 171.611 153.138 171.184L154.442 170.496C154.655 170.917 154.956 171.224 155.346 171.416C155.74 171.608 156.146 171.704 156.562 171.704C157.111 171.704 157.567 171.603 157.93 171.4C158.292 171.203 158.559 170.907 158.73 170.512C158.906 170.117 158.991 169.627 158.986 169.04V166.68H159.154V160.36H160.418V169.056C160.418 169.291 160.41 169.517 160.394 169.736C160.383 169.955 160.356 170.171 160.314 170.384C160.202 170.997 159.98 171.501 159.65 171.896C159.319 172.296 158.892 172.592 158.37 172.784C157.847 172.981 157.242 173.08 156.554 173.08ZM156.45 169.24C155.644 169.24 154.954 169.04 154.378 168.64C153.802 168.235 153.356 167.688 153.042 167C152.732 166.312 152.578 165.536 152.578 164.672C152.578 163.808 152.732 163.032 153.042 162.344C153.356 161.656 153.802 161.115 154.378 160.72C154.954 160.32 155.642 160.12 156.442 160.12C157.258 160.12 157.943 160.317 158.498 160.712C159.052 161.107 159.471 161.648 159.754 162.336C160.042 163.024 160.186 163.803 160.186 164.672C160.186 165.531 160.042 166.307 159.754 167C159.471 167.688 159.052 168.235 158.498 168.64C157.943 169.04 157.26 169.24 156.45 169.24ZM156.626 167.936C157.207 167.936 157.684 167.797 158.058 167.52C158.431 167.237 158.706 166.851 158.882 166.36C159.063 165.864 159.154 165.301 159.154 164.672C159.154 164.032 159.063 163.469 158.882 162.984C158.706 162.493 158.434 162.112 158.066 161.84C157.698 161.563 157.231 161.424 156.666 161.424C156.079 161.424 155.594 161.568 155.21 161.856C154.831 162.144 154.548 162.533 154.362 163.024C154.18 163.515 154.09 164.064 154.09 164.672C154.09 165.285 154.183 165.84 154.37 166.336C154.556 166.827 154.836 167.216 155.21 167.504C155.588 167.792 156.06 167.936 156.626 167.936ZM168.803 169V164.672C168.803 164.261 168.766 163.867 168.691 163.488C168.622 163.109 168.497 162.771 168.315 162.472C168.139 162.168 167.899 161.928 167.595 161.752C167.297 161.576 166.918 161.488 166.459 161.488C166.102 161.488 165.777 161.549 165.483 161.672C165.195 161.789 164.947 161.971 164.739 162.216C164.531 162.461 164.369 162.771 164.251 163.144C164.139 163.512 164.083 163.947 164.083 164.448L163.147 164.16C163.147 163.323 163.297 162.605 163.595 162.008C163.899 161.405 164.323 160.944 164.867 160.624C165.417 160.299 166.062 160.136 166.803 160.136C167.363 160.136 167.841 160.224 168.235 160.4C168.63 160.576 168.958 160.811 169.219 161.104C169.481 161.392 169.686 161.717 169.835 162.08C169.985 162.437 170.089 162.803 170.147 163.176C170.211 163.544 170.243 163.893 170.243 164.224V169H168.803ZM162.643 169V157.48H163.923V163.84H164.083V169H162.643Z" fill="white" fill-opacity="0.1"/>
<path d="M233.073 169V157.48H234.369L238.721 166.656L243.049 157.48H244.361V168.992H243.009V160.608L239.097 169H238.337L234.425 160.608V169H233.073ZM250.348 169.24C249.5 169.24 248.759 169.053 248.124 168.68C247.495 168.301 247.004 167.776 246.652 167.104C246.3 166.427 246.124 165.637 246.124 164.736C246.124 163.792 246.298 162.976 246.644 162.288C246.991 161.595 247.474 161.061 248.092 160.688C248.716 160.309 249.447 160.12 250.284 160.12C251.154 160.12 251.892 160.32 252.5 160.72C253.114 161.12 253.572 161.691 253.876 162.432C254.186 163.173 254.319 164.056 254.276 165.08H252.836V164.568C252.82 163.507 252.604 162.715 252.188 162.192C251.772 161.664 251.154 161.4 250.332 161.4C249.452 161.4 248.783 161.683 248.324 162.248C247.866 162.813 247.636 163.624 247.636 164.68C247.636 165.699 247.866 166.488 248.324 167.048C248.783 167.608 249.436 167.888 250.284 167.888C250.855 167.888 251.351 167.757 251.772 167.496C252.194 167.235 252.524 166.859 252.764 166.368L254.132 166.84C253.796 167.603 253.29 168.195 252.612 168.616C251.94 169.032 251.186 169.24 250.348 169.24ZM247.156 165.08V163.936H253.54V165.08H247.156ZM259.45 169.24C258.644 169.24 257.954 169.04 257.378 168.64C256.802 168.235 256.356 167.688 256.042 167C255.732 166.312 255.578 165.536 255.578 164.672C255.578 163.808 255.732 163.032 256.042 162.344C256.356 161.656 256.802 161.115 257.378 160.72C257.954 160.32 258.642 160.12 259.442 160.12C260.258 160.12 260.943 160.317 261.498 160.712C262.052 161.107 262.471 161.648 262.754 162.336C263.042 163.024 263.186 163.803 263.186 164.672C263.186 165.531 263.042 166.307 262.754 167C262.471 167.688 262.052 168.235 261.498 168.64C260.943 169.04 260.26 169.24 259.45 169.24ZM259.626 167.936C260.207 167.936 260.684 167.797 261.058 167.52C261.431 167.237 261.706 166.851 261.882 166.36C262.063 165.864 262.154 165.301 262.154 164.672C262.154 164.032 262.063 163.469 261.882 162.984C261.706 162.493 261.434 162.112 261.066 161.84C260.698 161.563 260.231 161.424 259.666 161.424C259.079 161.424 258.594 161.568 258.21 161.856C257.831 162.144 257.548 162.533 257.362 163.024C257.18 163.515 257.09 164.064 257.09 164.672C257.09 165.285 257.183 165.84 257.37 166.336C257.556 166.827 257.836 167.216 258.21 167.504C258.588 167.792 259.06 167.936 259.626 167.936ZM262.154 169V162.64H261.994V157.48H263.426V169H262.154ZM265.827 158.832V157.36H267.251V158.832H265.827ZM265.827 169V160.36H267.251V169H265.827ZM272.931 169.224C272.377 169.224 271.899 169.136 271.499 168.96C271.105 168.784 270.777 168.549 270.515 168.256C270.254 167.963 270.049 167.637 269.899 167.28C269.75 166.923 269.643 166.557 269.579 166.184C269.521 165.811 269.491 165.461 269.491 165.136V160.36H270.931V164.688C270.931 165.093 270.969 165.485 271.043 165.864C271.118 166.243 271.243 166.584 271.419 166.888C271.601 167.192 271.841 167.432 272.139 167.608C272.443 167.784 272.822 167.872 273.275 167.872C273.633 167.872 273.958 167.811 274.251 167.688C274.545 167.565 274.795 167.384 275.003 167.144C275.211 166.899 275.371 166.589 275.483 166.216C275.595 165.843 275.651 165.408 275.651 164.912L276.587 165.2C276.587 166.032 276.435 166.749 276.131 167.352C275.833 167.955 275.409 168.419 274.859 168.744C274.315 169.064 273.673 169.224 272.931 169.224ZM275.811 169V166.688H275.651V160.36H277.083V169H275.811ZM289.651 169L289.659 163.472C289.659 162.827 289.486 162.323 289.139 161.96C288.798 161.592 288.352 161.408 287.803 161.408C287.483 161.408 287.179 161.483 286.891 161.632C286.603 161.776 286.368 162.005 286.187 162.32C286.006 162.629 285.915 163.027 285.915 163.512L285.163 163.208C285.152 162.595 285.278 162.059 285.539 161.6C285.806 161.136 286.168 160.776 286.627 160.52C287.086 160.264 287.603 160.136 288.179 160.136C289.08 160.136 289.79 160.411 290.307 160.96C290.824 161.504 291.083 162.237 291.083 163.16L291.075 169H289.651ZM279.315 169V160.36H280.587V162.672H280.747V169H279.315ZM284.491 169L284.499 163.528C284.499 162.867 284.328 162.349 283.987 161.976C283.646 161.597 283.192 161.408 282.627 161.408C282.067 161.408 281.614 161.6 281.267 161.984C280.92 162.368 280.747 162.877 280.747 163.512L279.995 163.064C279.995 162.504 280.128 162.003 280.395 161.56C280.662 161.117 281.024 160.771 281.483 160.52C281.942 160.264 282.462 160.136 283.043 160.136C283.624 160.136 284.131 160.259 284.563 160.504C284.995 160.749 285.328 161.101 285.563 161.56C285.798 162.013 285.915 162.555 285.915 163.184L285.907 169H284.491Z" fill="white"/>
<path d="M233.073 169V157.48H234.369L238.721 166.656L243.049 157.48H244.361V168.992H243.009V160.608L239.097 169H238.337L234.425 160.608V169H233.073ZM250.348 169.24C249.5 169.24 248.759 169.053 248.124 168.68C247.495 168.301 247.004 167.776 246.652 167.104C246.3 166.427 246.124 165.637 246.124 164.736C246.124 163.792 246.298 162.976 246.644 162.288C246.991 161.595 247.474 161.061 248.092 160.688C248.716 160.309 249.447 160.12 250.284 160.12C251.154 160.12 251.892 160.32 252.5 160.72C253.114 161.12 253.572 161.691 253.876 162.432C254.186 163.173 254.319 164.056 254.276 165.08H252.836V164.568C252.82 163.507 252.604 162.715 252.188 162.192C251.772 161.664 251.154 161.4 250.332 161.4C249.452 161.4 248.783 161.683 248.324 162.248C247.866 162.813 247.636 163.624 247.636 164.68C247.636 165.699 247.866 166.488 248.324 167.048C248.783 167.608 249.436 167.888 250.284 167.888C250.855 167.888 251.351 167.757 251.772 167.496C252.194 167.235 252.524 166.859 252.764 166.368L254.132 166.84C253.796 167.603 253.29 168.195 252.612 168.616C251.94 169.032 251.186 169.24 250.348 169.24ZM247.156 165.08V163.936H253.54V165.08H247.156ZM259.45 169.24C258.644 169.24 257.954 169.04 257.378 168.64C256.802 168.235 256.356 167.688 256.042 167C255.732 166.312 255.578 165.536 255.578 164.672C255.578 163.808 255.732 163.032 256.042 162.344C256.356 161.656 256.802 161.115 257.378 160.72C257.954 160.32 258.642 160.12 259.442 160.12C260.258 160.12 260.943 160.317 261.498 160.712C262.052 161.107 262.471 161.648 262.754 162.336C263.042 163.024 263.186 163.803 263.186 164.672C263.186 165.531 263.042 166.307 262.754 167C262.471 167.688 262.052 168.235 261.498 168.64C260.943 169.04 260.26 169.24 259.45 169.24ZM259.626 167.936C260.207 167.936 260.684 167.797 261.058 167.52C261.431 167.237 261.706 166.851 261.882 166.36C262.063 165.864 262.154 165.301 262.154 164.672C262.154 164.032 262.063 163.469 261.882 162.984C261.706 162.493 261.434 162.112 261.066 161.84C260.698 161.563 260.231 161.424 259.666 161.424C259.079 161.424 258.594 161.568 258.21 161.856C257.831 162.144 257.548 162.533 257.362 163.024C257.18 163.515 257.09 164.064 257.09 164.672C257.09 165.285 257.183 165.84 257.37 166.336C257.556 166.827 257.836 167.216 258.21 167.504C258.588 167.792 259.06 167.936 259.626 167.936ZM262.154 169V162.64H261.994V157.48H263.426V169H262.154ZM265.827 158.832V157.36H267.251V158.832H265.827ZM265.827 169V160.36H267.251V169H265.827ZM272.931 169.224C272.377 169.224 271.899 169.136 271.499 168.96C271.105 168.784 270.777 168.549 270.515 168.256C270.254 167.963 270.049 167.637 269.899 167.28C269.75 166.923 269.643 166.557 269.579 166.184C269.521 165.811 269.491 165.461 269.491 165.136V160.36H270.931V164.688C270.931 165.093 270.969 165.485 271.043 165.864C271.118 166.243 271.243 166.584 271.419 166.888C271.601 167.192 271.841 167.432 272.139 167.608C272.443 167.784 272.822 167.872 273.275 167.872C273.633 167.872 273.958 167.811 274.251 167.688C274.545 167.565 274.795 167.384 275.003 167.144C275.211 166.899 275.371 166.589 275.483 166.216C275.595 165.843 275.651 165.408 275.651 164.912L276.587 165.2C276.587 166.032 276.435 166.749 276.131 167.352C275.833 167.955 275.409 168.419 274.859 168.744C274.315 169.064 273.673 169.224 272.931 169.224ZM275.811 169V166.688H275.651V160.36H277.083V169H275.811ZM289.651 169L289.659 163.472C289.659 162.827 289.486 162.323 289.139 161.96C288.798 161.592 288.352 161.408 287.803 161.408C287.483 161.408 287.179 161.483 286.891 161.632C286.603 161.776 286.368 162.005 286.187 162.32C286.006 162.629 285.915 163.027 285.915 163.512L285.163 163.208C285.152 162.595 285.278 162.059 285.539 161.6C285.806 161.136 286.168 160.776 286.627 160.52C287.086 160.264 287.603 160.136 288.179 160.136C289.08 160.136 289.79 160.411 290.307 160.96C290.824 161.504 291.083 162.237 291.083 163.16L291.075 169H289.651ZM279.315 169V160.36H280.587V162.672H280.747V169H279.315ZM284.491 169L284.499 163.528C284.499 162.867 284.328 162.349 283.987 161.976C283.646 161.597 283.192 161.408 282.627 161.408C282.067 161.408 281.614 161.6 281.267 161.984C280.92 162.368 280.747 162.877 280.747 163.512L279.995 163.064C279.995 162.504 280.128 162.003 280.395 161.56C280.662 161.117 281.024 160.771 281.483 160.52C281.942 160.264 282.462 160.136 283.043 160.136C283.624 160.136 284.131 160.259 284.563 160.504C284.995 160.749 285.328 161.101 285.563 161.56C285.798 162.013 285.915 162.555 285.915 163.184L285.907 169H284.491Z" fill="white" fill-opacity="0.1"/>
<path d="M356.257 169V157.48H357.681V167.648H363.025V169H356.257ZM368.058 169.24C367.199 169.24 366.458 169.045 365.834 168.656C365.215 168.267 364.738 167.728 364.402 167.04C364.066 166.352 363.898 165.563 363.898 164.672C363.898 163.765 364.068 162.971 364.41 162.288C364.751 161.605 365.234 161.075 365.858 160.696C366.482 160.312 367.215 160.12 368.058 160.12C368.922 160.12 369.666 160.315 370.29 160.704C370.914 161.088 371.391 161.624 371.722 162.312C372.058 162.995 372.226 163.781 372.226 164.672C372.226 165.573 372.058 166.368 371.722 167.056C371.386 167.739 370.906 168.275 370.282 168.664C369.658 169.048 368.916 169.24 368.058 169.24ZM368.058 167.888C368.954 167.888 369.62 167.589 370.058 166.992C370.495 166.395 370.714 165.621 370.714 164.672C370.714 163.696 370.492 162.92 370.05 162.344C369.607 161.763 368.943 161.472 368.058 161.472C367.455 161.472 366.959 161.608 366.57 161.88C366.18 162.152 365.89 162.528 365.698 163.008C365.506 163.488 365.41 164.043 365.41 164.672C365.41 165.643 365.634 166.421 366.082 167.008C366.53 167.595 367.188 167.888 368.058 167.888ZM375.515 169L372.875 160.352L374.291 160.36L376.219 166.68L378.163 160.36H379.419L381.355 166.68L383.291 160.36H384.699L382.059 169H380.875L378.787 162.432L376.699 169H375.515Z" fill="white"/>
<path d="M356.257 169V157.48H357.681V167.648H363.025V169H356.257ZM368.058 169.24C367.199 169.24 366.458 169.045 365.834 168.656C365.215 168.267 364.738 167.728 364.402 167.04C364.066 166.352 363.898 165.563 363.898 164.672C363.898 163.765 364.068 162.971 364.41 162.288C364.751 161.605 365.234 161.075 365.858 160.696C366.482 160.312 367.215 160.12 368.058 160.12C368.922 160.12 369.666 160.315 370.29 160.704C370.914 161.088 371.391 161.624 371.722 162.312C372.058 162.995 372.226 163.781 372.226 164.672C372.226 165.573 372.058 166.368 371.722 167.056C371.386 167.739 370.906 168.275 370.282 168.664C369.658 169.048 368.916 169.24 368.058 169.24ZM368.058 167.888C368.954 167.888 369.62 167.589 370.058 166.992C370.495 166.395 370.714 165.621 370.714 164.672C370.714 163.696 370.492 162.92 370.05 162.344C369.607 161.763 368.943 161.472 368.058 161.472C367.455 161.472 366.959 161.608 366.57 161.88C366.18 162.152 365.89 162.528 365.698 163.008C365.506 163.488 365.41 164.043 365.41 164.672C365.41 165.643 365.634 166.421 366.082 167.008C366.53 167.595 367.188 167.888 368.058 167.888ZM375.515 169L372.875 160.352L374.291 160.36L376.219 166.68L378.163 160.36H379.419L381.355 166.68L383.291 160.36H384.699L382.059 169H380.875L378.787 162.432L376.699 169H375.515Z" fill="white" fill-opacity="0.1"/>
<path d="M464.905 169V157.48H466.329V169H464.905ZM474.881 169V164.672C474.881 164.261 474.844 163.867 474.769 163.488C474.7 163.109 474.575 162.771 474.393 162.472C474.217 162.168 473.977 161.928 473.673 161.752C473.375 161.576 472.996 161.488 472.537 161.488C472.18 161.488 471.855 161.549 471.561 161.672C471.273 161.789 471.025 161.971 470.817 162.216C470.609 162.461 470.447 162.771 470.329 163.144C470.217 163.512 470.161 163.947 470.161 164.448L469.225 164.16C469.225 163.323 469.375 162.605 469.673 162.008C469.977 161.405 470.401 160.944 470.945 160.624C471.495 160.299 472.14 160.136 472.881 160.136C473.441 160.136 473.919 160.224 474.313 160.4C474.708 160.576 475.036 160.811 475.297 161.104C475.559 161.392 475.764 161.717 475.913 162.08C476.063 162.437 476.167 162.803 476.225 163.176C476.289 163.544 476.321 163.893 476.321 164.224V169H474.881ZM468.721 169V160.36H470.001V162.672H470.161V169H468.721ZM479.225 169V159.888C479.225 159.664 479.236 159.437 479.257 159.208C479.279 158.973 479.327 158.747 479.401 158.528C479.476 158.304 479.599 158.099 479.769 157.912C479.967 157.693 480.183 157.539 480.417 157.448C480.652 157.352 480.889 157.293 481.129 157.272C481.375 157.251 481.607 157.24 481.825 157.24H482.921V158.424H481.905C481.484 158.424 481.169 158.528 480.961 158.736C480.753 158.939 480.649 159.248 480.649 159.664V169H479.225ZM477.761 161.536V160.36H482.921V161.536H477.761ZM487.566 169.24C486.707 169.24 485.966 169.045 485.342 168.656C484.723 168.267 484.246 167.728 483.91 167.04C483.574 166.352 483.406 165.563 483.406 164.672C483.406 163.765 483.576 162.971 483.918 162.288C484.259 161.605 484.742 161.075 485.366 160.696C485.99 160.312 486.723 160.12 487.566 160.12C488.43 160.12 489.174 160.315 489.798 160.704C490.422 161.088 490.899 161.624 491.23 162.312C491.566 162.995 491.734 163.781 491.734 164.672C491.734 165.573 491.566 166.368 491.23 167.056C490.894 167.739 490.414 168.275 489.79 168.664C489.166 169.048 488.424 169.24 487.566 169.24ZM487.566 167.888C488.462 167.888 489.128 167.589 489.566 166.992C490.003 166.395 490.222 165.621 490.222 164.672C490.222 163.696 490 162.92 489.558 162.344C489.115 161.763 488.451 161.472 487.566 161.472C486.963 161.472 486.467 161.608 486.078 161.88C485.688 162.152 485.398 162.528 485.206 163.008C485.014 163.488 484.918 164.043 484.918 164.672C484.918 165.643 485.142 166.421 485.59 167.008C486.038 167.595 486.696 167.888 487.566 167.888Z" fill="white"/>
<path d="M464.905 169V157.48H466.329V169H464.905ZM474.881 169V164.672C474.881 164.261 474.844 163.867 474.769 163.488C474.7 163.109 474.575 162.771 474.393 162.472C474.217 162.168 473.977 161.928 473.673 161.752C473.375 161.576 472.996 161.488 472.537 161.488C472.18 161.488 471.855 161.549 471.561 161.672C471.273 161.789 471.025 161.971 470.817 162.216C470.609 162.461 470.447 162.771 470.329 163.144C470.217 163.512 470.161 163.947 470.161 164.448L469.225 164.16C469.225 163.323 469.375 162.605 469.673 162.008C469.977 161.405 470.401 160.944 470.945 160.624C471.495 160.299 472.14 160.136 472.881 160.136C473.441 160.136 473.919 160.224 474.313 160.4C474.708 160.576 475.036 160.811 475.297 161.104C475.559 161.392 475.764 161.717 475.913 162.08C476.063 162.437 476.167 162.803 476.225 163.176C476.289 163.544 476.321 163.893 476.321 164.224V169H474.881ZM468.721 169V160.36H470.001V162.672H470.161V169H468.721ZM479.225 169V159.888C479.225 159.664 479.236 159.437 479.257 159.208C479.279 158.973 479.327 158.747 479.401 158.528C479.476 158.304 479.599 158.099 479.769 157.912C479.967 157.693 480.183 157.539 480.417 157.448C480.652 157.352 480.889 157.293 481.129 157.272C481.375 157.251 481.607 157.24 481.825 157.24H482.921V158.424H481.905C481.484 158.424 481.169 158.528 480.961 158.736C480.753 158.939 480.649 159.248 480.649 159.664V169H479.225ZM477.761 161.536V160.36H482.921V161.536H477.761ZM487.566 169.24C486.707 169.24 485.966 169.045 485.342 168.656C484.723 168.267 484.246 167.728 483.91 167.04C483.574 166.352 483.406 165.563 483.406 164.672C483.406 163.765 483.576 162.971 483.918 162.288C484.259 161.605 484.742 161.075 485.366 160.696C485.99 160.312 486.723 160.12 487.566 160.12C488.43 160.12 489.174 160.315 489.798 160.704C490.422 161.088 490.899 161.624 491.23 162.312C491.566 162.995 491.734 163.781 491.734 164.672C491.734 165.573 491.566 166.368 491.23 167.056C490.894 167.739 490.414 168.275 489.79 168.664C489.166 169.048 488.424 169.24 487.566 169.24ZM487.566 167.888C488.462 167.888 489.128 167.589 489.566 166.992C490.003 166.395 490.222 165.621 490.222 164.672C490.222 163.696 490 162.92 489.558 162.344C489.115 161.763 488.451 161.472 487.566 161.472C486.963 161.472 486.467 161.608 486.078 161.88C485.688 162.152 485.398 162.528 485.206 163.008C485.014 163.488 484.918 164.043 484.918 164.672C484.918 165.643 485.142 166.421 485.59 167.008C486.038 167.595 486.696 167.888 487.566 167.888Z" fill="white" fill-opacity="0.1"/>
</svg>
