<svg width="129" height="41" viewBox="0 0 129 41" fill="none" xmlns="http://www.w3.org/2000/svg">
<path d="M68.4567 10.5052C68.4567 11.9467 67.2956 13.1079 65.8541 13.1079C64.4127 13.1079 63.2515 11.9467 63.2515 10.5052C63.2515 9.06381 64.3726 7.90265 65.8541 7.90265C67.3356 7.94269 68.4567 9.10385 68.4567 10.5052ZM57.726 15.7505C57.726 15.9907 57.726 16.3911 57.726 16.3911C57.726 16.3911 56.4848 14.7895 53.8421 14.7895C49.4778 14.7895 46.0744 18.1129 46.0744 22.7175C46.0744 27.282 49.4377 30.6454 53.8421 30.6454C56.5248 30.6454 57.726 29.0037 57.726 29.0037V29.6844C57.726 30.0047 57.9662 30.245 58.2866 30.245H61.5298V15.1899C61.5298 15.1899 58.5668 15.1899 58.2866 15.1899C57.9662 15.1899 57.726 15.4702 57.726 15.7505ZM57.726 25.4001C57.1254 26.281 55.9242 27.0418 54.4828 27.0418C51.9202 27.0418 49.9582 25.4402 49.9582 22.7175C49.9582 19.9947 51.9202 18.3931 54.4828 18.3931C55.8842 18.3931 57.1654 19.1939 57.726 20.0348V25.4001ZM63.9322 15.1899H67.776V30.245H63.9322V15.1899ZM121.35 14.7895C118.707 14.7895 117.466 16.3911 117.466 16.3911V7.94269H113.622V30.245C113.622 30.245 116.585 30.245 116.865 30.245C117.185 30.245 117.426 29.9647 117.426 29.6844V29.0037C117.426 29.0037 118.667 30.6454 121.31 30.6454C125.674 30.6454 129.077 27.282 129.077 22.7175C129.077 18.1529 125.674 14.7895 121.35 14.7895ZM120.709 27.0017C119.227 27.0017 118.066 26.241 117.466 25.3601V19.9947C118.066 19.1939 119.348 18.3531 120.709 18.3531C123.272 18.3531 125.233 19.9547 125.233 22.6774C125.233 25.4001 123.272 27.0017 120.709 27.0017ZM111.62 21.3161V30.285H107.776V21.7565C107.776 19.274 106.975 18.273 104.813 18.273C103.652 18.273 102.451 18.8736 101.69 19.7545V30.245H97.8461V15.1899H100.889C101.209 15.1899 101.45 15.4702 101.45 15.7505V16.3911C102.571 15.23 104.052 14.7895 105.534 14.7895C107.215 14.7895 108.617 15.27 109.738 16.231C111.099 17.3521 111.62 18.7935 111.62 21.3161ZM88.5168 14.7895C85.8741 14.7895 84.6329 16.3911 84.6329 16.3911V7.94269H80.7891V30.245C80.7891 30.245 83.752 30.245 84.0323 30.245C84.3526 30.245 84.5929 29.9647 84.5929 29.6844V29.0037C84.5929 29.0037 85.8341 30.6454 88.4767 30.6454C92.8411 30.6454 96.2445 27.282 96.2445 22.7175C96.2845 18.1529 92.8811 14.7895 88.5168 14.7895ZM87.8761 27.0017C86.3947 27.0017 85.2335 26.241 84.6329 25.3601V19.9947C85.2335 19.1939 86.5148 18.3531 87.8761 18.3531C90.4387 18.3531 92.4007 19.9547 92.4007 22.6774C92.4007 25.4001 90.4387 27.0017 87.8761 27.0017ZM77.4657 14.7895C78.6269 14.7895 79.2275 14.9897 79.2275 14.9897V18.5533C79.2275 18.5533 76.0243 17.4722 74.0223 19.7545V30.285H70.1785V15.1899C70.1785 15.1899 73.1414 15.1899 73.4217 15.1899C73.742 15.1899 73.9823 15.4702 73.9823 15.7505V16.3911C74.703 15.5503 76.2645 14.7895 77.4657 14.7895ZM37.5458 28.8836C37.3456 28.4031 37.1454 27.8826 36.9452 27.4422C36.6249 26.7215 36.3046 26.0408 36.0243 25.4001L35.9843 25.3601C33.2215 19.3541 30.2585 13.268 27.1354 7.26201L27.0153 7.02177C26.695 6.42117 26.3747 5.78053 26.0543 5.13988C25.6539 4.41916 25.2535 3.6584 24.6129 2.93768C23.3316 1.33608 21.4898 0.4552 19.5278 0.4552C17.5258 0.4552 15.724 1.33608 14.4027 2.8576C13.8021 3.57832 13.3617 4.33908 12.9613 5.0598C12.6409 5.70045 12.3206 6.34109 12.0003 6.94169L11.8802 7.18193C8.79709 13.1879 5.79409 19.274 3.03133 25.28L2.99129 25.3601C2.71101 26.0007 2.39069 26.6814 2.07037 27.4021C1.87017 27.8426 1.66997 28.3231 1.46977 28.8436C0.949245 30.3251 0.789085 31.7265 0.989285 33.1679C1.42973 36.1709 3.43173 38.6934 6.19449 39.8146C7.23553 40.255 8.31661 40.4552 9.43773 40.4552C9.75805 40.4552 10.1585 40.4152 10.4788 40.3751C11.8001 40.215 13.1615 39.7745 14.4828 39.0138C16.1244 38.0928 17.686 36.7715 19.4477 34.8496C21.2095 36.7715 22.8111 38.0928 24.4127 39.0138C25.734 39.7745 27.0954 40.215 28.4167 40.3751C28.737 40.4152 29.1374 40.4552 29.4577 40.4552C30.5789 40.4552 31.7 40.255 32.701 39.8146C35.5038 38.6934 37.4657 36.1309 37.9062 33.1679C38.2265 31.7665 38.0663 30.3651 37.5458 28.8836ZM19.4878 30.9657C17.3256 28.243 15.9242 25.6804 15.4437 23.5183C15.2435 22.5973 15.2035 21.7965 15.3236 21.0758C15.4037 20.4352 15.6439 19.8746 15.9643 19.3941C16.725 18.3131 18.0063 17.6324 19.4878 17.6324C20.9693 17.6324 22.2906 18.273 23.0113 19.3941C23.3316 19.8746 23.5719 20.4352 23.6519 21.0758C23.7721 21.7965 23.732 22.6374 23.5318 23.5183C23.0513 25.6404 21.6499 28.2029 19.4878 30.9657ZM35.4637 32.8476C35.1835 34.9297 33.7821 36.7315 31.8201 37.5323C30.8591 37.9327 29.8181 38.0528 28.7771 37.9327C27.7761 37.8126 26.7751 37.4922 25.734 36.8916C24.2926 36.0908 22.8511 34.8496 21.1695 33.0078C23.8121 29.7645 25.4137 26.8015 26.0143 24.1589C26.2946 22.9177 26.3346 21.7965 26.2145 20.7555C26.0543 19.7545 25.694 18.8336 25.1334 18.0328C23.8922 16.231 21.8101 15.1899 19.4878 15.1899C17.1655 15.1899 15.0834 16.271 13.8421 18.0328C13.2816 18.8336 12.9212 19.7545 12.7611 20.7555C12.6009 21.7965 12.6409 22.9577 12.9613 24.1589C13.5619 26.8015 15.2035 29.8046 17.8061 33.0478C16.1645 34.8896 14.683 36.1309 13.2415 36.9317C12.2005 37.5323 11.1995 37.8526 10.1985 37.9727C9.11741 38.0928 8.07637 37.9327 7.15545 37.5723C5.19349 36.7715 3.79209 34.9697 3.51181 32.8876C3.39169 31.8866 3.47177 30.8856 3.87217 29.7645C3.99229 29.3641 4.19249 28.9637 4.39269 28.4832C4.67297 27.8426 4.99329 27.1619 5.31361 26.4812L5.35365 26.4011C8.11641 20.4352 11.0794 14.3491 14.1625 8.42317L14.2826 8.18293C14.6029 7.58233 14.9232 6.94169 15.2435 6.34109C15.5639 5.70045 15.9242 5.09984 16.3647 4.57932C17.2055 3.61836 18.3266 3.09784 19.5679 3.09784C20.8091 3.09784 21.9302 3.61836 22.7711 4.57932C23.2115 5.09984 23.5719 5.70045 23.8922 6.34109C24.2125 6.94169 24.5328 7.58233 24.8531 8.18293L24.9733 8.42317C28.0163 14.3891 30.9793 20.4752 33.742 26.4412V26.4812C34.0623 27.1219 34.3426 27.8426 34.6629 28.4832C34.8631 28.9637 35.0633 29.3641 35.1835 29.7645C35.5038 30.8055 35.6239 31.8066 35.4637 32.8476Z" fill="white"/>
</svg>
