<svg width="114" height="49" viewBox="0 0 114 49" fill="none" xmlns="http://www.w3.org/2000/svg">
<g clip-path="url(#clip0_110_9950)">
<path d="M49.0564 26.1053C49.0564 31.4286 44.8921 35.3512 39.7814 35.3512C34.6708 35.3512 30.5064 31.4286 30.5064 26.1053C30.5064 20.7446 34.6708 16.8595 39.7814 16.8595C44.8921 16.8595 49.0564 20.7446 49.0564 26.1053ZM44.9963 26.1053C44.9963 22.7788 42.5827 20.5028 39.7814 20.5028C36.9802 20.5028 34.5666 22.7788 34.5666 26.1053C34.5666 29.3985 36.9802 31.7079 39.7814 31.7079C42.5827 31.7079 44.9963 29.3943 44.9963 26.1053Z" fill="white"/>
<path d="M69.0657 26.1053C69.0657 31.4286 64.9013 35.3512 59.7906 35.3512C54.68 35.3512 50.5156 31.4286 50.5156 26.1053C50.5156 20.7488 54.68 16.8595 59.7906 16.8595C64.9013 16.8595 69.0657 20.7446 69.0657 26.1053ZM65.0055 26.1053C65.0055 22.7788 62.5919 20.5028 59.7906 20.5028C56.9894 20.5028 54.5758 22.7788 54.5758 26.1053C54.5758 29.3985 56.9894 31.7079 59.7906 31.7079C62.5919 31.7079 65.0055 29.3943 65.0055 26.1053Z" fill="white"/>
<path d="M88.2413 17.4181V34.0172C88.2413 40.8453 84.2145 43.6341 79.454 43.6341C74.9728 43.6341 72.2757 40.6369 71.2586 38.1858L74.7935 36.7143C75.423 38.2191 76.9653 39.9949 79.4498 39.9949C82.497 39.9949 84.3854 38.1149 84.3854 34.5758V33.2461H84.2436C83.3349 34.3674 81.5841 35.347 79.3748 35.347C74.7518 35.347 70.5166 31.3202 70.5166 26.1387C70.5166 20.9197 74.7518 16.8595 79.3748 16.8595C81.5799 16.8595 83.3307 17.8391 84.2436 18.9271H84.3854V17.4223H88.2413V17.4181ZM84.673 26.1387C84.673 22.883 82.5012 20.5028 79.7374 20.5028C76.9362 20.5028 74.5893 22.883 74.5893 26.1387C74.5893 29.361 76.9362 31.7079 79.7374 31.7079C82.5012 31.7079 84.673 29.361 84.673 26.1387Z" fill="white"/>
<path d="M94.5978 7.68884V34.7844H90.6377V7.68884H94.5978Z" fill="white"/>
<path d="M110.03 29.1481L113.182 31.2491C112.164 32.7539 109.713 35.3468 105.478 35.3468C100.226 35.3468 96.3032 31.2866 96.3032 26.1009C96.3032 20.6026 100.259 16.8551 105.024 16.8551C109.822 16.8551 112.169 20.6735 112.936 22.7369L113.357 23.7874L100.997 28.9064C101.943 30.7614 103.415 31.7076 105.478 31.7076C107.546 31.7076 108.98 30.6905 110.03 29.1481ZM100.33 25.8216L108.592 22.3909C108.138 21.2362 106.77 20.4317 105.161 20.4317C103.098 20.4317 100.226 22.2534 100.33 25.8216Z" fill="white"/>
<path d="M15.5163 23.6998V19.7772H28.7348C28.864 20.4609 28.9307 21.2696 28.9307 22.145C28.9307 25.0879 28.1262 28.7271 25.5333 31.3199C23.0113 33.9461 19.7891 35.3467 15.5205 35.3467C7.60857 35.3467 0.955566 28.9022 0.955566 20.9903C0.955566 13.0784 7.60857 6.63379 15.5205 6.63379C19.8974 6.63379 23.0155 8.35123 25.3582 10.5897L22.5903 13.3577C20.9104 11.7819 18.6344 10.5564 15.5163 10.5564C9.7387 10.5564 5.21999 15.2127 5.21999 20.9903C5.21999 26.7679 9.7387 31.4241 15.5163 31.4241C19.2638 31.4241 21.3981 29.9193 22.7654 28.552C23.8742 27.4432 24.6037 25.8591 24.8914 23.6957L15.5163 23.6998Z" fill="white"/>
</g>
<defs>
<clipPath id="clip0_110_9950">
<rect width="113" height="48" fill="white" transform="translate(0.818848 0.455078)"/>
</clipPath>
</defs>
</svg>
