<svg width="166" height="32" viewBox="0 0 166 32" fill="none" xmlns="http://www.w3.org/2000/svg">
<path d="M121.669 16.8312C122.174 16.5055 122.539 16.0999 122.767 15.6143C122.994 15.1288 123.107 14.5723 123.107 13.9439C123.107 13.3041 122.994 12.742 122.767 12.2564C122.539 11.7708 122.167 11.3652 121.647 11.0396C121.127 10.714 120.458 10.4683 119.638 10.3026C118.818 10.137 117.809 10.0547 116.608 10.0547H112.81H109.671V12.2827V15.5892V17.8172V22.0492H112.81V17.816H114.95L119.133 22.048H122.954L118.68 17.7235C119.048 17.6835 119.39 17.6321 119.706 17.5681C120.509 17.4024 121.164 17.1568 121.669 16.8312ZM119.198 15.1779C118.949 15.315 118.613 15.4178 118.188 15.4864C117.763 15.5549 117.223 15.5892 116.564 15.5892H112.809V12.2827H116.564C117.222 12.2827 117.763 12.317 118.188 12.3855C118.612 12.4541 118.949 12.5592 119.198 12.702C119.448 12.8448 119.615 13.0185 119.703 13.2241C119.791 13.4298 119.835 13.6697 119.835 13.9439C119.835 14.2067 119.791 14.4432 119.703 14.6546C119.617 14.866 119.448 15.0408 119.198 15.1779Z" fill="white"/>
<path d="M52.9287 10.0549L48.8464 14.8158H45.0155V10.0549H41.5753V22.0493H45.0155V17.43H48.8921L52.8602 22.0493H56.9894L51.7131 15.9618L57.0579 10.0549H52.9287Z" fill="white"/>
<path d="M68.4912 13.5635L67.2059 15.1745H66.9545L65.6692 13.5635L62.7339 10.0547H58.4894L65.3024 18.0742V22.0492H68.7655V18.0925L75.6927 10.0547H71.4264L68.4912 13.5635Z" fill="white"/>
<path d="M88.6628 18.2536H88.4103L80.7952 10.0547H77.1254V22.0492H80.5656L80.4285 14.0639H80.6581L88.2732 22.0492H91.943V10.0547H88.5017L88.6628 18.2536Z" fill="white"/>
<path d="M93.3759 12.4712H99.0864V22.0492H102.528V12.4712H108.239V10.0547H93.3759V12.4712Z" fill="white"/>
<path d="M136.169 10.0547H131.26L124.54 22.0492H128.392L133.576 12.5066H133.829L138.99 22.0492H142.935L136.169 10.0547Z" fill="white"/>
<path d="M149.008 15.133C148.816 15.133 148.636 15.0987 148.467 15.029C148.298 14.9593 148.154 14.8645 148.033 14.7457C147.911 14.6257 147.817 14.4829 147.747 14.3161C147.677 14.1493 147.643 13.971 147.643 13.7814C147.643 13.5289 147.702 13.2992 147.82 13.0924C147.939 12.8856 148.102 12.7245 148.311 12.6068C148.52 12.4892 148.752 12.4297 149.009 12.4297C149.247 12.4297 149.466 12.4823 149.665 12.5874C149.865 12.6925 150.026 12.8365 150.15 13.017L149.85 13.2021C149.76 13.065 149.642 12.9576 149.495 12.8811C149.349 12.8034 149.187 12.7645 149.009 12.7645C148.868 12.7645 148.734 12.7908 148.61 12.8422C148.485 12.8936 148.378 12.9645 148.288 13.0547C148.199 13.145 148.13 13.2524 148.078 13.3781C148.027 13.5037 148.001 13.6386 148.001 13.7814C148.001 13.971 148.044 14.1436 148.132 14.3001C148.22 14.4566 148.341 14.5777 148.495 14.6669C148.65 14.756 148.821 14.8005 149.011 14.8005C149.188 14.8005 149.35 14.7617 149.496 14.684C149.642 14.6063 149.761 14.4989 149.851 14.3629L150.151 14.548C150.027 14.7285 149.866 14.8725 149.666 14.9776C149.464 15.0804 149.246 15.133 149.008 15.133Z" fill="#FF3C1C"/>
<path d="M152.356 12.4757H152.746L151.678 14.1221V15.0864H151.33V14.1221L150.262 12.4757H150.66L151.509 13.7771L152.356 12.4757Z" fill="#FF3C1C"/>
<path d="M154.55 13.7017C154.691 13.7416 154.805 13.8239 154.892 13.9507C154.98 14.0764 155.023 14.2215 155.023 14.3838C155.023 14.586 154.954 14.7539 154.817 14.8876C154.68 15.0213 154.509 15.0876 154.304 15.0876H153.086V12.4768H154.214C154.406 12.4768 154.566 12.5385 154.694 12.6631C154.822 12.7865 154.885 12.943 154.885 13.1315C154.885 13.2572 154.853 13.3726 154.791 13.4766C154.727 13.5794 154.647 13.6548 154.55 13.7017ZM154.134 12.7899H153.422V13.584H154.134C154.244 13.584 154.336 13.5463 154.413 13.4697C154.489 13.3932 154.527 13.2995 154.527 13.1875C154.527 13.0744 154.489 12.9796 154.415 12.9042C154.342 12.8276 154.248 12.7899 154.134 12.7899ZM154.226 14.7734C154.352 14.7734 154.459 14.7311 154.542 14.6454C154.627 14.5597 154.669 14.4534 154.669 14.3266C154.669 14.1998 154.627 14.0947 154.542 14.0101C154.457 13.9267 154.352 13.8845 154.226 13.8845H153.423V14.7734H154.226Z" fill="#FF3C1C"/>
<path d="M155.786 14.7619H157.169V15.0876H155.439V12.4768H157.15V12.8013H155.786V13.6103H157.025V13.9359H155.786V14.7619Z" fill="#FF3C1C"/>
<path d="M159.17 15.0876L158.39 14.0513H158.007V15.0876H157.66V12.4768H158.719C158.951 12.4768 159.144 12.5523 159.3 12.7042C159.456 12.8562 159.535 13.0447 159.535 13.2721C159.535 13.4823 159.465 13.6617 159.324 13.8068C159.185 13.953 159.008 14.033 158.795 14.0478L159.59 15.0887H159.17V15.0876ZM158.007 12.8013V13.7474H158.711C158.844 13.7474 158.955 13.7028 159.043 13.6125C159.132 13.5223 159.177 13.4103 159.177 13.2743C159.177 13.1384 159.132 13.0264 159.043 12.9362C158.954 12.8459 158.843 12.8013 158.711 12.8013H158.007Z" fill="#FF3C1C"/>
<path d="M148.63 19.6746C148.436 19.6746 148.247 19.6369 148.064 19.5626C147.88 19.4884 147.728 19.3878 147.606 19.261L147.791 19.0005C147.891 19.109 148.017 19.197 148.168 19.2633C148.317 19.3307 148.473 19.3638 148.632 19.3638C148.805 19.3638 148.952 19.3238 149.069 19.2427C149.188 19.1616 149.246 19.0599 149.246 18.9354C149.246 18.9011 149.241 18.868 149.23 18.836C149.219 18.8051 149.206 18.7766 149.191 18.7526C149.177 18.7286 149.155 18.7046 149.125 18.6817C149.095 18.6589 149.07 18.6406 149.049 18.6257C149.027 18.6109 148.995 18.5949 148.954 18.5789C148.912 18.5618 148.881 18.5503 148.859 18.5423C148.837 18.5343 148.803 18.524 148.755 18.5103C148.707 18.4978 148.676 18.4886 148.661 18.4852C148.646 18.4818 148.617 18.4749 148.571 18.4646C148.477 18.4452 148.391 18.4212 148.309 18.3938C148.228 18.3664 148.149 18.331 148.071 18.2864C147.992 18.243 147.926 18.1938 147.871 18.1401C147.816 18.0864 147.771 18.0213 147.739 17.9448C147.706 17.8682 147.689 17.786 147.689 17.6968C147.689 17.4798 147.776 17.3049 147.948 17.1701C148.122 17.0353 148.345 16.969 148.618 16.969C148.798 16.969 148.963 16.9987 149.113 17.0582C149.262 17.1176 149.383 17.1975 149.477 17.2981L149.311 17.5563C149.239 17.4775 149.141 17.4112 149.014 17.3587C148.889 17.3061 148.755 17.2787 148.614 17.2787C148.45 17.2787 148.313 17.3164 148.205 17.3918C148.098 17.4672 148.044 17.5643 148.044 17.6831C148.044 17.8979 148.252 18.0476 148.669 18.1344C148.715 18.1436 148.758 18.1527 148.802 18.1641C148.844 18.1756 148.899 18.1916 148.964 18.2144C149.03 18.2361 149.091 18.2613 149.146 18.2875C149.201 18.3138 149.258 18.3481 149.316 18.3904C149.374 18.4326 149.423 18.4772 149.465 18.5263C149.505 18.5755 149.539 18.6337 149.565 18.7011C149.591 18.7686 149.605 18.8417 149.605 18.9194C149.605 19.1399 149.513 19.3204 149.327 19.4621C149.14 19.6049 148.908 19.6746 148.63 19.6746Z" fill="#FF3C1C"/>
<path d="M150.377 19.3035H151.76V19.6291H150.03V17.0173H151.74V17.3429H150.376V18.1518H151.615V18.4775H150.376V19.3035H150.377Z" fill="#FF3C1C"/>
<path d="M153.458 19.6746C153.266 19.6746 153.085 19.6403 152.916 19.5706C152.747 19.5009 152.603 19.4061 152.482 19.2873C152.361 19.1673 152.266 19.0245 152.196 18.8577C152.127 18.6909 152.092 18.5126 152.092 18.323C152.092 18.0705 152.152 17.8408 152.269 17.634C152.388 17.4272 152.552 17.2661 152.761 17.1484C152.97 17.0307 153.202 16.9713 153.459 16.9713C153.696 16.9713 153.916 17.0239 154.115 17.129C154.315 17.2341 154.476 17.3781 154.599 17.5586L154.3 17.7437C154.209 17.6066 154.092 17.4992 153.944 17.4226C153.798 17.345 153.636 17.3061 153.459 17.3061C153.317 17.3061 153.183 17.3324 153.059 17.3838C152.934 17.4352 152.827 17.506 152.738 17.5963C152.649 17.6866 152.579 17.794 152.528 17.9196C152.476 18.0453 152.45 18.1802 152.45 18.323C152.45 18.5126 152.493 18.6852 152.581 18.8417C152.669 18.9971 152.79 19.1193 152.945 19.2084C153.099 19.2976 153.27 19.3421 153.46 19.3421C153.637 19.3421 153.799 19.3033 153.946 19.2256C154.092 19.1479 154.211 19.0405 154.301 18.9045L154.6 19.0896C154.477 19.2701 154.316 19.4141 154.116 19.5192C153.915 19.622 153.696 19.6746 153.458 19.6746Z" fill="#FF3C1C"/>
<path d="M156.04 19.6748C155.842 19.6748 155.662 19.6291 155.5 19.5377C155.338 19.4463 155.211 19.3218 155.118 19.1618C155.026 19.0019 154.98 18.8248 154.98 18.6283V17.0173H155.326V18.6214C155.326 18.8259 155.394 18.9973 155.531 19.1344C155.667 19.2715 155.837 19.3401 156.042 19.3401C156.247 19.3401 156.419 19.2715 156.556 19.1344C156.693 18.9973 156.761 18.8259 156.761 18.6214V17.0173H157.105V18.6283C157.105 18.8237 157.06 19.0019 156.967 19.1618C156.874 19.3218 156.748 19.4463 156.585 19.5377C156.421 19.6291 156.24 19.6748 156.04 19.6748Z" fill="#FF3C1C"/>
<path d="M159.168 19.6291L158.388 18.5929H158.005V19.6291H157.658V17.0173H158.717C158.949 17.0173 159.142 17.0927 159.299 17.2447C159.454 17.3966 159.533 17.5851 159.533 17.8125C159.533 18.0227 159.463 18.2021 159.323 18.3472C159.182 18.4923 159.006 18.5734 158.794 18.5883L159.589 19.6291H159.168ZM158.006 17.3429V18.2889H158.71C158.844 18.2889 158.955 18.2444 159.043 18.1541C159.132 18.0639 159.176 17.9519 159.176 17.8159C159.176 17.68 159.132 17.568 159.043 17.4777C158.954 17.3875 158.843 17.3429 158.71 17.3429H158.006Z" fill="#FF3C1C"/>
<path d="M160.003 19.6291V17.0173H160.351V19.628H160.003V19.6291Z" fill="#FF3C1C"/>
<path d="M162.785 17.0173V17.3429H161.948V19.6291H161.604V17.3429H160.766V17.0173H162.785Z" fill="#FF3C1C"/>
<path d="M165.051 17.0173H165.441L164.372 18.6637V19.628H164.025V18.6637L162.957 17.0173H163.354L164.203 18.3186L165.051 17.0173Z" fill="#FF3C1C"/>
<path d="M12.0563 7.31876L12.0678 7.32676V22.1947L7.96945 19.6034V0.705711H12.0678V7.31876H12.0563Z" fill="#FF3C1C"/>
<path d="M22.3722 7.31876L18.2853 8.53672L22.3722 9.75467V19.6034L18.2739 22.1947V9.75467H15.5889L12.0676 7.32676V7.31876H18.2739V0.705711H22.3722V7.31876Z" fill="#FF3C1C"/>
<path d="M12.0686 7.31876V7.3273L12.0564 7.31876H12.0686Z" fill="#FF3C1C"/>
<path d="M12.0686 7.31876V7.3273L12.0564 7.31876H12.0686Z" fill="#FF3C1C"/>
<path d="M29.4694 22.0497H29.4672L29.4694 22.0509L15.0871 31.2941L0.705841 22.0509V4.75843L4.79959 7.31888V20.5918L15.0871 27.2026L25.3757 20.5918V7.31888L29.4694 4.75615V22.0497Z" fill="#FF3C1C"/>
</svg>
