<svg width="72" height="72" viewBox="0 0 72 72" fill="none" xmlns="http://www.w3.org/2000/svg">
<rect width="72" height="72" rx="36" fill="#272423"/>
<path d="M34.6933 46H30C29.1733 46 28.44 45.9733 27.7867 45.88C24.28 45.4933 23.3333 43.84 23.3333 39.3333V32.6667C23.3333 28.16 24.28 26.5067 27.7867 26.12C28.44 26.0267 29.1733 26 30 26H34.6133" stroke="white" stroke-width="2" stroke-linecap="round" stroke-linejoin="round"/>
<path d="M40.0267 26H42C42.8267 26 43.56 26.0267 44.2133 26.12C47.72 26.5067 48.6667 28.16 48.6667 32.6667V39.3333C48.6667 43.84 47.72 45.4933 44.2133 45.88C43.56 45.9733 42.8267 46 42 46H40.0267" stroke="white" stroke-width="2" stroke-linecap="round" stroke-linejoin="round"/>
<path d="M40 22.6667V49.3334" stroke="white" stroke-width="2" stroke-linecap="round" stroke-linejoin="round"/>
<path d="M34.7926 35.9999H34.8046" stroke="white" stroke-width="2.66667" stroke-linecap="round" stroke-linejoin="round"/>
<path d="M29.4593 35.9999H29.4713" stroke="white" stroke-width="2.66667" stroke-linecap="round" stroke-linejoin="round"/>
</svg>
