<svg width="112" height="72" viewBox="0 0 112 72" fill="none" xmlns="http://www.w3.org/2000/svg">
<rect width="112" height="72" rx="36" fill="#4CAF50"/>
<rect x="0.5" y="0.5" width="111" height="71" rx="35.5" stroke="white" stroke-opacity="0.5"/>
<path d="M42.6667 37.8667V41.8667C42.6667 47.2 40.5333 49.3334 35.2 49.3334H30.1333C24.8 49.3334 22.6667 47.2 22.6667 41.8667V36.8C22.6667 31.4667 24.8 29.3334 30.1333 29.3334H34.1333" stroke="white" stroke-width="2" stroke-linecap="round" stroke-linejoin="round"/>
<path d="M42.6667 37.8667H38.4C35.2 37.8667 34.1333 36.8 34.1333 33.6V29.3334L42.6667 37.8667Z" stroke="white" stroke-width="2" stroke-linecap="round" stroke-linejoin="round"/>
<path d="M35.4667 22.6666H40.8" stroke="white" stroke-width="2" stroke-linecap="round" stroke-linejoin="round"/>
<path d="M29.3333 26.6666C29.3333 24.4533 31.12 22.6666 33.3333 22.6666H36.8267" stroke="white" stroke-width="2" stroke-linecap="round" stroke-linejoin="round"/>
<path d="M49.3333 30.6666V38.92C49.3333 40.9866 47.6533 42.6666 45.5867 42.6666" stroke="white" stroke-width="2" stroke-linecap="round" stroke-linejoin="round"/>
<path d="M49.3333 30.6666H45.3333C42.3333 30.6666 41.3333 29.6666 41.3333 26.6666V22.6666L49.3333 30.6666Z" stroke="white" stroke-width="2" stroke-linecap="round" stroke-linejoin="round"/>
<path d="M87.88 34.8267C87.88 41.3467 83.1467 47.4534 76.68 49.2401C76.24 49.3601 75.76 49.3601 75.32 49.2401C68.8533 47.4534 64.12 41.3467 64.12 34.8267V28.9734C64.12 27.88 64.9467 26.64 65.9733 26.2267L73.4 23.1868C75.0667 22.5068 76.9467 22.5068 78.6133 23.1868L86.04 26.2267C87.0533 26.64 87.8934 27.88 87.8934 28.9734L87.88 34.8267Z" stroke="white" stroke-width="2" stroke-linecap="round" stroke-linejoin="round"/>
<path d="M76 36.6667C77.4728 36.6667 78.6667 35.4728 78.6667 34C78.6667 32.5273 77.4728 31.3334 76 31.3334C74.5273 31.3334 73.3333 32.5273 73.3333 34C73.3333 35.4728 74.5273 36.6667 76 36.6667Z" stroke="white" stroke-width="2" stroke-miterlimit="10" stroke-linecap="round" stroke-linejoin="round"/>
<path d="M76 36.6666V40.6666" stroke="white" stroke-width="2" stroke-miterlimit="10" stroke-linecap="round" stroke-linejoin="round"/>
</svg>
