<svg width="1256" height="620" viewBox="0 0 1256 620" fill="none" xmlns="http://www.w3.org/2000/svg">
<g clip-path="url(#clip0_55971_690)">
<rect x="576" y="251" width="112" height="112" rx="56" fill="url(#paint0_linear_55971_690)"/>
<path d="M627.785 294.928L627.8 294.939V315.615L622.101 312.012V285.732H627.8V294.928H627.785Z" fill="white"/>
<path d="M642.13 294.928L636.447 296.622L642.13 298.316V312.012L636.431 315.615V298.316H632.697L627.8 294.939V294.928H636.431V285.732H642.13V294.928Z" fill="white"/>
<path d="M627.802 294.928V294.94L627.785 294.928H627.802Z" fill="white"/>
<path d="M627.802 294.928V294.94L627.785 294.928H627.802Z" fill="white"/>
<path d="M652 315.413H651.997L652 315.414L631.999 328.268L612 315.414V291.367L617.693 294.927V313.385L631.999 322.579L646.307 313.385V294.927L652 291.364V315.413Z" fill="white"/>
<path d="M632 229C642.243 229 652.386 231.018 661.849 234.937C671.313 238.857 679.911 244.603 687.154 251.846C694.397 259.089 700.143 267.687 704.063 277.151C707.982 286.614 710 296.757 710 307H706.88C706.88 297.167 704.943 287.43 701.18 278.345C697.417 269.26 691.901 261.005 684.948 254.052C677.995 247.099 669.74 241.583 660.655 237.82C651.57 234.057 641.833 232.12 632 232.12V229Z" fill="url(#paint1_linear_55971_690)"/>
<path d="M710 307C710 317.243 707.982 327.386 704.063 336.849C700.143 346.313 694.397 354.911 687.154 362.154C679.911 369.397 671.313 375.143 661.849 379.063C652.386 382.982 642.243 385 632 385V381.88C641.833 381.88 651.57 379.943 660.655 376.18C669.74 372.417 677.995 366.901 684.948 359.948C691.901 352.995 697.417 344.74 701.18 335.655C704.943 326.57 706.88 316.833 706.88 307H710Z" fill="url(#paint2_linear_55971_690)"/>
<path d="M632 385C611.313 385 591.474 376.782 576.846 362.154C562.218 347.526 554 327.687 554 307L557.12 307C557.12 326.859 565.009 345.905 579.052 359.948C593.095 373.991 612.141 381.88 632 381.88V385Z" fill="url(#paint3_linear_55971_690)"/>
<path d="M554 307C554 286.313 562.218 266.474 576.846 251.846C591.474 237.218 611.313 229 632 229V232.12C612.141 232.12 593.095 240.009 579.052 254.052C565.009 268.095 557.12 287.141 557.12 307H554Z" fill="url(#paint4_linear_55971_690)"/>
<g filter="url(#filter0_d_55971_690)">
<circle cx="708.5" cy="304" r="4" fill="#FE2D0E"/>
</g>
<g filter="url(#filter1_d_55971_690)">
<circle cx="632" cy="383" r="4" fill="#FE2D0E"/>
</g>
<g filter="url(#filter2_d_55971_690)">
<circle cx="556" cy="306" r="4" fill="#FE2D0E"/>
</g>
<g filter="url(#filter3_d_55971_690)">
<circle cx="633" cy="230" r="4" fill="#FE2D0E"/>
</g>
</g>
<g clip-path="url(#clip1_55971_690)">
<rect width="628" height="310" fill="url(#paint5_linear_55971_690)"/>
<line y1="-1" x2="535" y2="-1" transform="matrix(-1 8.74228e-08 8.74228e-08 1 535 310)" stroke="url(#paint6_linear_55971_690)" stroke-width="2"/>
</g>
<g clip-path="url(#clip2_55971_690)">
<line x1="629" y1="4.37114e-08" x2="629" y2="304" stroke="url(#paint7_linear_55971_690)" stroke-width="2"/>
<line x1="721" y1="309" x2="1256" y2="309" stroke="url(#paint8_linear_55971_690)" stroke-width="2"/>
</g>
<g clip-path="url(#clip3_55971_690)">
<rect width="628" height="310" transform="translate(628 310)" fill="url(#paint9_linear_55971_690)"/>
<line y1="-1" x2="304" y2="-1" transform="matrix(-4.37114e-08 -1 -1 4.37114e-08 628 614)" stroke="url(#paint10_linear_55971_690)" stroke-width="2"/>
</g>
<defs>
<filter id="filter0_d_55971_690" x="696.5" y="293" width="24" height="24" filterUnits="userSpaceOnUse" color-interpolation-filters="sRGB">
<feFlood flood-opacity="0" result="BackgroundImageFix"/>
<feColorMatrix in="SourceAlpha" type="matrix" values="0 0 0 0 0 0 0 0 0 0 0 0 0 0 0 0 0 0 127 0" result="hardAlpha"/>
<feOffset dy="1"/>
<feGaussianBlur stdDeviation="4"/>
<feComposite in2="hardAlpha" operator="out"/>
<feColorMatrix type="matrix" values="0 0 0 0 1 0 0 0 0 1 0 0 0 0 1 0 0 0 0.6 0"/>
<feBlend mode="normal" in2="BackgroundImageFix" result="effect1_dropShadow_55971_690"/>
<feBlend mode="normal" in="SourceGraphic" in2="effect1_dropShadow_55971_690" result="shape"/>
</filter>
<filter id="filter1_d_55971_690" x="620" y="372" width="24" height="24" filterUnits="userSpaceOnUse" color-interpolation-filters="sRGB">
<feFlood flood-opacity="0" result="BackgroundImageFix"/>
<feColorMatrix in="SourceAlpha" type="matrix" values="0 0 0 0 0 0 0 0 0 0 0 0 0 0 0 0 0 0 127 0" result="hardAlpha"/>
<feOffset dy="1"/>
<feGaussianBlur stdDeviation="4"/>
<feComposite in2="hardAlpha" operator="out"/>
<feColorMatrix type="matrix" values="0 0 0 0 1 0 0 0 0 1 0 0 0 0 1 0 0 0 0.6 0"/>
<feBlend mode="normal" in2="BackgroundImageFix" result="effect1_dropShadow_55971_690"/>
<feBlend mode="normal" in="SourceGraphic" in2="effect1_dropShadow_55971_690" result="shape"/>
</filter>
<filter id="filter2_d_55971_690" x="544" y="295" width="24" height="24" filterUnits="userSpaceOnUse" color-interpolation-filters="sRGB">
<feFlood flood-opacity="0" result="BackgroundImageFix"/>
<feColorMatrix in="SourceAlpha" type="matrix" values="0 0 0 0 0 0 0 0 0 0 0 0 0 0 0 0 0 0 127 0" result="hardAlpha"/>
<feOffset dy="1"/>
<feGaussianBlur stdDeviation="4"/>
<feComposite in2="hardAlpha" operator="out"/>
<feColorMatrix type="matrix" values="0 0 0 0 1 0 0 0 0 1 0 0 0 0 1 0 0 0 0.6 0"/>
<feBlend mode="normal" in2="BackgroundImageFix" result="effect1_dropShadow_55971_690"/>
<feBlend mode="normal" in="SourceGraphic" in2="effect1_dropShadow_55971_690" result="shape"/>
</filter>
<filter id="filter3_d_55971_690" x="621" y="219" width="24" height="24" filterUnits="userSpaceOnUse" color-interpolation-filters="sRGB">
<feFlood flood-opacity="0" result="BackgroundImageFix"/>
<feColorMatrix in="SourceAlpha" type="matrix" values="0 0 0 0 0 0 0 0 0 0 0 0 0 0 0 0 0 0 127 0" result="hardAlpha"/>
<feOffset dy="1"/>
<feGaussianBlur stdDeviation="4"/>
<feComposite in2="hardAlpha" operator="out"/>
<feColorMatrix type="matrix" values="0 0 0 0 1 0 0 0 0 1 0 0 0 0 1 0 0 0 0.6 0"/>
<feBlend mode="normal" in2="BackgroundImageFix" result="effect1_dropShadow_55971_690"/>
<feBlend mode="normal" in="SourceGraphic" in2="effect1_dropShadow_55971_690" result="shape"/>
</filter>
<linearGradient id="paint0_linear_55971_690" x1="632" y1="251" x2="632" y2="363" gradientUnits="userSpaceOnUse">
<stop stop-color="#FF3C1C"/>
<stop offset="1" stop-color="#FF1E00"/>
</linearGradient>
<linearGradient id="paint1_linear_55971_690" x1="682" y1="251.5" x2="710" y2="307" gradientUnits="userSpaceOnUse">
<stop stop-color="#FF2F10" stop-opacity="0.1"/>
<stop offset="1" stop-color="#FF2F10"/>
</linearGradient>
<linearGradient id="paint2_linear_55971_690" x1="698.5" y1="347" x2="632" y2="385" gradientUnits="userSpaceOnUse">
<stop stop-color="#FF2F10" stop-opacity="0.1"/>
<stop offset="1" stop-color="#FF2F10"/>
</linearGradient>
<linearGradient id="paint3_linear_55971_690" x1="587" y1="370.5" x2="554" y2="307" gradientUnits="userSpaceOnUse">
<stop stop-color="#FF2F10" stop-opacity="0.1"/>
<stop offset="1" stop-color="#FF2F10"/>
</linearGradient>
<linearGradient id="paint4_linear_55971_690" x1="575" y1="255.5" x2="632" y2="229" gradientUnits="userSpaceOnUse">
<stop stop-color="#FF2F10" stop-opacity="0.1"/>
<stop offset="1" stop-color="#FF2F10"/>
</linearGradient>
<linearGradient id="paint5_linear_55971_690" x1="642" y1="310" x2="212" y2="78.5" gradientUnits="userSpaceOnUse">
<stop stop-color="#FF3616" stop-opacity="0.1"/>
<stop offset="1" stop-color="#99200D" stop-opacity="0"/>
</linearGradient>
<linearGradient id="paint6_linear_55971_690" x1="0" y1="0.5" x2="320.291" y2="-1.04857" gradientUnits="userSpaceOnUse">
<stop stop-color="#FF3617" stop-opacity="0.02"/>
<stop offset="0.5" stop-color="#FF3617"/>
<stop offset="1" stop-color="#FF3617" stop-opacity="0.02"/>
</linearGradient>
<linearGradient id="paint7_linear_55971_690" x1="627.5" y1="-2.18557e-08" x2="628" y2="182" gradientUnits="userSpaceOnUse">
<stop stop-color="#FF3617" stop-opacity="0.02"/>
<stop offset="0.5" stop-color="#FF3617"/>
<stop offset="1" stop-color="#FF3617" stop-opacity="0.01"/>
</linearGradient>
<linearGradient id="paint8_linear_55971_690" x1="721" y1="310.5" x2="1041.29" y2="308.951" gradientUnits="userSpaceOnUse">
<stop stop-color="#FF3617" stop-opacity="0.02"/>
<stop offset="0.5" stop-color="#FF3617"/>
<stop offset="1" stop-color="#FF3617" stop-opacity="0.02"/>
</linearGradient>
<linearGradient id="paint9_linear_55971_690" x1="0" y1="0" x2="409.5" y2="175.5" gradientUnits="userSpaceOnUse">
<stop stop-color="#FF3616" stop-opacity="0.1"/>
<stop offset="1" stop-color="#99200D" stop-opacity="0"/>
</linearGradient>
<linearGradient id="paint10_linear_55971_690" x1="0" y1="0.5" x2="182" y2="-7.9681e-06" gradientUnits="userSpaceOnUse">
<stop stop-color="#FF3617" stop-opacity="0.02"/>
<stop offset="0.5" stop-color="#FF3617"/>
<stop offset="1" stop-color="#FF3617" stop-opacity="0.01"/>
</linearGradient>
<clipPath id="clip0_55971_690">
<rect width="170" height="170" fill="white" transform="translate(547 222)"/>
</clipPath>
<clipPath id="clip1_55971_690">
<rect width="628" height="310" fill="white"/>
</clipPath>
<clipPath id="clip2_55971_690">
<rect width="628" height="310" fill="white" transform="translate(628)"/>
</clipPath>
<clipPath id="clip3_55971_690">
<rect width="628" height="310" fill="white" transform="translate(628 310)"/>
</clipPath>
</defs>
</svg>
