<svg width="72" height="72" viewBox="0 0 72 72" fill="none" xmlns="http://www.w3.org/2000/svg">
<rect width="72" height="72" rx="36" fill="#2196F3"/>
<rect x="0.5" y="0.5" width="71" height="71" rx="35.5" stroke="white" stroke-opacity="0.5"/>
<path d="M34.3333 23.2666C35.2533 22.48 36.76 22.48 37.6933 23.2666L39.8 25.0801C40.2 25.4268 40.9467 25.7067 41.48 25.7067H43.7467C45.16 25.7067 46.32 26.8666 46.32 28.28V30.5467C46.32 31.0667 46.6 31.8268 46.9467 32.2268L48.76 34.3334C49.5467 35.2534 49.5467 36.7601 48.76 37.6934L46.9467 39.8C46.6 40.2 46.32 40.9467 46.32 41.48V43.7468C46.32 45.1601 45.16 46.32 43.7467 46.32H41.48C40.96 46.32 40.2 46.6 39.8 46.9466L37.6933 48.76C36.7733 49.5466 35.2667 49.5466 34.3333 48.76L32.2267 46.9466C31.8267 46.6 31.08 46.32 30.5467 46.32H28.24C26.8267 46.32 25.6667 45.1601 25.6667 43.7468V41.4667C25.6667 40.9467 25.3867 40.2 25.0533 39.8L23.2533 37.68C22.48 36.76 22.48 35.2667 23.2533 34.3467L25.0533 32.2268C25.3867 31.8268 25.6667 31.0801 25.6667 30.5601V28.28C25.6667 26.8666 26.8267 25.7067 28.24 25.7067H30.5467C31.0667 25.7067 31.8267 25.4268 32.2267 25.0801L34.3333 23.2666Z" stroke="white" stroke-width="2" stroke-linecap="round" stroke-linejoin="round"/>
<path d="M33.1867 39.76L35.12 41.2533C35.3734 41.5067 35.9334 41.6267 36.3067 41.6267H38.6667C39.4134 41.6267 40.2267 41.0667 40.4134 40.3201L41.9067 35.76C42.2134 34.8934 41.6534 34.1334 40.7201 34.1334H38.2267C37.8534 34.1334 37.5467 33.8268 37.6001 33.3868L37.9067 31.3868C38.0267 30.8268 37.6534 30.2001 37.0934 30.0134C36.6001 29.8268 35.9734 30.08 35.7201 30.4534L33.16 34.2533" stroke="white" stroke-width="2" stroke-miterlimit="10"/>
<path d="M30 39.76V33.6534C30 32.7734 30.3733 32.4667 31.2533 32.4667H31.88C32.7467 32.4667 33.1333 32.7734 33.1333 33.6534V39.76C33.1333 40.6266 32.76 40.9467 31.88 40.9467H31.2533C30.3733 40.9467 30 40.64 30 39.76Z" stroke="white" stroke-width="2" stroke-linecap="round" stroke-linejoin="round"/>
</svg>
