<svg width="20" height="20" viewBox="0 0 20 20" fill="none" xmlns="http://www.w3.org/2000/svg">
<path d="M14.5831 15.8332H7.49981C6.41803 15.8329 5.35763 15.5318 4.43712 14.9636C3.51661 14.3953 2.77224 13.5823 2.2872 12.6153C1.80216 11.6484 1.59555 10.5656 1.69047 9.48802C1.78538 8.41041 2.17808 7.38043 2.82468 6.51316C3.47128 5.64589 4.3463 4.9755 5.35198 4.57691C6.35765 4.17832 7.45434 4.06723 8.51952 4.25606C9.58469 4.44488 10.5764 4.92618 11.3838 5.64618C12.1911 6.36617 12.7824 7.29649 13.0915 8.33317H14.5831C15.5777 8.33317 16.5315 8.72826 17.2348 9.43152C17.9381 10.1348 18.3331 11.0886 18.3331 12.0832C18.3331 13.0777 17.9381 14.0316 17.2348 14.7348C16.5315 15.4381 15.5777 15.8332 14.5831 15.8332Z" stroke="#0A0A0A" stroke-width="2" stroke-linecap="round" stroke-linejoin="round"/>
</svg>
