<svg width="16" height="18" viewBox="0 0 16 18" fill="none" xmlns="http://www.w3.org/2000/svg">
<path d="M11.6671 14.6668H6.00043C5.13501 14.6666 4.28669 14.4257 3.55028 13.9711C2.81387 13.5165 2.21838 12.8661 1.83035 12.0926C1.44231 11.319 1.27703 10.4528 1.35296 9.59071C1.42889 8.72862 1.74305 7.90463 2.26033 7.21082C2.77761 6.517 3.47763 5.98069 4.28217 5.66182C5.0867 5.34295 5.96406 5.25408 6.8162 5.40514C7.66834 5.5562 8.46168 5.94124 9.10759 6.51723C9.75349 7.09323 10.2265 7.83748 10.4738 8.66683H11.6671C12.4627 8.66683 13.2258 8.9829 13.7884 9.54551C14.351 10.1081 14.6671 10.8712 14.6671 11.6668C14.6671 12.4625 14.351 13.2255 13.7884 13.7882C13.2258 14.3508 12.4627 14.6668 11.6671 14.6668Z" stroke="#DC2626" stroke-width="1.33" stroke-linecap="round" stroke-linejoin="round"/>
</svg>
