<svg width="16" height="16" viewBox="0 0 16 16" fill="none" xmlns="http://www.w3.org/2000/svg">
<path d="M11.6671 12.6668H6.00043C5.13501 12.6666 4.28669 12.4257 3.55028 11.9711C2.81387 11.5165 2.21838 10.8661 1.83035 10.0926C1.44231 9.31902 1.27703 8.4528 1.35296 7.59071C1.42889 6.72862 1.74305 5.90463 2.26033 5.21082C2.77761 4.517 3.47763 3.98069 4.28217 3.66182C5.0867 3.34295 5.96406 3.25408 6.8162 3.40514C7.66834 3.5562 8.46168 3.94124 9.10759 4.51723C9.75349 5.09323 10.2265 5.83748 10.4738 6.66683H11.6671C12.4627 6.66683 13.2258 6.9829 13.7884 7.54551C14.351 8.10812 14.6671 8.87118 14.6671 9.66683C14.6671 10.4625 14.351 11.2255 13.7884 11.7882C13.2258 12.3508 12.4627 12.6668 11.6671 12.6668Z" stroke="#0A0A0A" stroke-width="1.5" stroke-linecap="round" stroke-linejoin="round"/>
</svg>
