<svg width="16" height="16" viewBox="0 0 16 16" fill="none" xmlns="http://www.w3.org/2000/svg">
<path d="M11.6666 12.6663H5.99994C5.13452 12.6661 4.28621 12.4253 3.54979 11.9707C2.81338 11.5161 2.21789 10.8656 1.82986 10.0921C1.44183 9.31853 1.27654 8.45231 1.35247 7.59022C1.4284 6.72814 1.74256 5.90415 2.25984 5.21033C2.77712 4.51651 3.47714 3.9802 4.28168 3.66133C5.08622 3.34246 5.96357 3.25359 6.81571 3.40465C7.66785 3.55571 8.4612 3.94075 9.1071 4.51675C9.753 5.09274 10.226 5.83699 10.4733 6.66634H11.6666C12.4623 6.66634 13.2253 6.98241 13.7879 7.54502C14.3505 8.10763 14.6666 8.87069 14.6666 9.66634C14.6666 10.462 14.3505 11.2251 13.7879 11.7877C13.2253 12.3503 12.4623 12.6663 11.6666 12.6663Z" stroke="#737373" stroke-width="1.5" stroke-linecap="round" stroke-linejoin="round"/>
</svg>
