<svg width="16" height="16" viewBox="0 0 16 16" fill="none" xmlns="http://www.w3.org/2000/svg">
<g clip-path="url(#clip0_145_85158)">
<path d="M9.99967 1.33301V2.66634M9.99967 13.333V14.6663M1.33301 9.99967H2.66634M1.33301 5.99967H2.66634M13.333 9.99967H14.6663M13.333 5.99967H14.6663M5.99967 1.33301V2.66634M5.99967 13.333V14.6663M3.99967 2.66634H11.9997C12.7361 2.66634 13.333 3.26329 13.333 3.99967V11.9997C13.333 12.7361 12.7361 13.333 11.9997 13.333H3.99967C3.26329 13.333 2.66634 12.7361 2.66634 11.9997V3.99967C2.66634 3.26329 3.26329 2.66634 3.99967 2.66634ZM6.66634 5.99967H9.33301C9.7012 5.99967 9.99967 6.29815 9.99967 6.66634V9.33301C9.99967 9.7012 9.7012 9.99967 9.33301 9.99967H6.66634C6.29815 9.99967 5.99967 9.7012 5.99967 9.33301V6.66634C5.99967 6.29815 6.29815 5.99967 6.66634 5.99967Z" stroke="#737373" stroke-width="1.2" stroke-linecap="round" stroke-linejoin="round"/>
</g>
<defs>
<clipPath id="clip0_145_85158">
<rect width="16" height="16" fill="white"/>
</clipPath>
</defs>
</svg>
