<svg width="16" height="16" viewBox="0 0 16 16" fill="none" xmlns="http://www.w3.org/2000/svg">
<path d="M8.96667 7.69994L10.3333 6.33327M6.66667 8.66661C6.66667 9.02023 6.80714 9.35937 7.05719 9.60942C7.30724 9.85947 7.64638 9.99994 8 9.99994C8.35362 9.99994 8.69276 9.85947 8.94281 9.60942C9.19286 9.35937 9.33333 9.02023 9.33333 8.66661C9.33333 8.31299 9.19286 7.97385 8.94281 7.7238C8.69276 7.47375 8.35362 7.33327 8 7.33327C7.64638 7.33327 7.30724 7.47375 7.05719 7.7238C6.80714 7.97385 6.66667 8.31299 6.66667 8.66661ZM4.26667 13.3333C3.2921 12.5587 2.58261 11.5001 2.23652 10.3042C1.89043 9.10841 1.92488 7.83453 2.3351 6.65915C2.74531 5.48376 3.51098 4.46508 4.52599 3.74427C5.541 3.02347 6.75509 2.63623 8 2.63623C9.24491 2.63623 10.459 3.02347 11.474 3.74427C12.489 4.46508 13.2547 5.48376 13.6649 6.65915C14.0751 7.83453 14.1096 9.10841 13.7635 10.3042C13.4174 11.5001 12.7079 12.5587 11.7333 13.3333H4.26667Z" stroke="#0A0A0A" stroke-width="1.5" stroke-linecap="round" stroke-linejoin="round"/>
</svg>
