<svg width="100" height="86" viewBox="0 0 100 86" fill="none" xmlns="http://www.w3.org/2000/svg">
<path d="M72.8257 0.428405L76.4494 6.04398C78.4681 9.14957 84.5752 18.5957 90.0357 27.0065C95.5223 35.4434 100 42.5352 100 42.7422C99.9972 42.9534 97.8498 46.3939 95.2118 50.3767C92.5978 54.3624 86.3088 63.912 72.0237 85.5726L28.2092 85.7022L0 42.7422L27.5359 0.298828L72.8257 0.428405ZM49.353 5.99233C34.2686 6.0182 31.3417 6.06982 30.7972 6.38018C30.3832 6.6131 27.7171 10.4694 24.0164 16.137C20.652 21.3129 15.9157 28.6116 13.483 32.3901C11.0245 36.1684 9.0834 39.3778 9.13516 39.5072C9.19061 39.6624 13.72 39.7916 21.8171 39.8434L34.4201 39.895V45.5885C12.0674 45.5885 9.29248 45.6661 9.21308 45.9247C9.16132 46.08 13.8713 53.5081 19.7202 62.4108C25.5421 71.3118 30.5883 78.8673 30.9522 79.2321L31.573 79.8791C64.6144 80.0085 66.7949 79.9571 66.8993 79.6208C66.9769 79.3879 63.0432 73.1244 57.5049 64.6617C52.2514 56.6649 47.7745 49.8067 47.5415 49.3927L47.1012 48.694L53.7008 48.6686C68.4781 71.2615 71.2994 75.35 71.6358 75.35C71.949 75.3457 75.3137 70.4282 82.4275 59.6152C92.1569 44.8399 92.7536 43.829 92.7796 42.7422C92.7796 41.6553 92.2102 40.6971 82.9712 26.4374C77.5903 18.1075 72.9849 11.0963 72.7486 10.8322C72.5157 10.5734 72.2047 10.3918 72.0753 10.3918C71.9446 10.3939 63.1973 23.6181 52.6651 39.7917C42.1321 55.9665 33.4368 69.2432 33.3074 69.295C33.2033 69.3458 32.4266 68.3103 31.573 67.0169C30.719 65.6971 30.0207 64.5323 30.0207 64.4288C30.0267 64.2903 33.7769 58.4713 38.3539 51.4895C42.9346 44.4761 46.8167 38.3162 46.9978 37.8244C47.153 37.3329 47.205 36.6345 47.1274 36.2721C47.0239 35.9098 43.996 31.0954 40.3728 25.5313C36.7778 19.9707 33.7769 15.315 33.7215 15.18C33.6697 15.0506 34.3685 13.782 35.2484 12.3845L36.8786 9.84811C49.5856 29.2839 51.1907 31.5615 51.4236 31.3027C51.5827 31.1156 55.2818 25.4762 59.6272 18.8029C63.9475 12.1285 67.4662 6.48841 67.3913 6.30314C67.3137 6.07022 63.4833 5.99233 49.353 5.99233Z" fill="#325FEC"/>
</svg>
