<svg width="16" height="16" viewBox="0 0 16 16" fill="none" xmlns="http://www.w3.org/2000/svg">
<path d="M3.99967 9.3334L4.99967 7.40006C5.10839 7.18416 5.27376 7.00187 5.47808 6.8727C5.68241 6.74352 5.91801 6.67233 6.15967 6.66673H13.333M13.333 6.66673C13.5367 6.66637 13.7378 6.71269 13.9208 6.80212C14.1038 6.89155 14.2639 7.02172 14.3887 7.18264C14.5136 7.34356 14.5999 7.53095 14.6411 7.73043C14.6823 7.92991 14.6773 8.13618 14.6263 8.3334L13.5997 12.3334C13.5254 12.6211 13.3571 12.8758 13.1216 13.0569C12.8861 13.2381 12.5968 13.3354 12.2997 13.3334H2.66634C2.31272 13.3334 1.97358 13.1929 1.72353 12.9429C1.47348 12.6928 1.33301 12.3537 1.33301 12.0001V3.3334C1.33301 2.97978 1.47348 2.64064 1.72353 2.39059C1.97358 2.14054 2.31272 2.00006 2.66634 2.00006H5.26634C5.48933 1.99788 5.70931 2.05166 5.90614 2.15648C6.10297 2.2613 6.27037 2.41381 6.39301 2.60006L6.93301 3.40006C7.05441 3.58442 7.21969 3.73574 7.41401 3.84047C7.60833 3.94519 7.8256 4.00003 8.04634 4.00006H11.9997C12.3533 4.00006 12.6924 4.14054 12.9425 4.39059C13.1925 4.64064 13.333 4.97978 13.333 5.3334V6.66673Z" stroke="#0A0A0A" stroke-width="1.5" stroke-linecap="round" stroke-linejoin="round"/>
</svg>
