<svg width="16" height="17" viewBox="0 0 16 17" fill="none" xmlns="http://www.w3.org/2000/svg">
<path d="M13.3335 13.8333C13.6871 13.8333 14.0263 13.6929 14.2763 13.4428C14.5264 13.1928 14.6668 12.8536 14.6668 12.5V5.83333C14.6668 5.47971 14.5264 5.14057 14.2763 4.89052C14.0263 4.64048 13.6871 4.5 13.3335 4.5H8.06683C7.84384 4.50219 7.62386 4.44841 7.42703 4.34359C7.2302 4.23877 7.0628 4.08625 6.94016 3.9L6.40016 3.1C6.27876 2.91565 6.11348 2.76432 5.91916 2.6596C5.72485 2.55488 5.50757 2.50004 5.28683 2.5H2.66683C2.31321 2.5 1.97407 2.64048 1.72402 2.89052C1.47397 3.14057 1.3335 3.47971 1.3335 3.83333V12.5C1.3335 12.8536 1.47397 13.1928 1.72402 13.4428C1.97407 13.6929 2.31321 13.8333 2.66683 13.8333H13.3335Z" stroke="#0A0A0A" stroke-width="1.5" stroke-linecap="round" stroke-linejoin="round"/>
</svg>
