<svg width="16" height="16" viewBox="0 0 16 16" fill="none" xmlns="http://www.w3.org/2000/svg">
<path d="M2 14.6663H10M2.66667 5.99967H9.33333M9.33333 14.6663V2.66634C9.33333 2.31272 9.19286 1.97358 8.94281 1.72353C8.69276 1.47348 8.35362 1.33301 8 1.33301H4C3.64638 1.33301 3.30724 1.47348 3.05719 1.72353C2.80714 1.97358 2.66667 2.31272 2.66667 2.66634V14.6663M9.33333 8.66634H10.6667C11.0203 8.66634 11.3594 8.80682 11.6095 9.05687C11.8595 9.30691 12 9.64605 12 9.99967V11.333C12 11.6866 12.1405 12.0258 12.3905 12.2758C12.6406 12.5259 12.9797 12.6663 13.3333 12.6663C13.687 12.6663 14.0261 12.5259 14.2761 12.2758C14.5262 12.0258 14.6667 11.6866 14.6667 11.333V6.55301C14.6668 6.37707 14.6321 6.20284 14.5646 6.04036C14.4971 5.87789 14.3981 5.73038 14.2733 5.60634L12 3.33301" stroke="#0A0A0A" stroke-width="1.33" stroke-linecap="round" stroke-linejoin="round"/>
</svg>
