<svg width="21" height="20" viewBox="0 0 21 20" fill="none" xmlns="http://www.w3.org/2000/svg">
<path d="M2.83301 10C2.83301 11.4834 3.27288 12.9334 4.09699 14.1668C4.9211 15.4001 6.09244 16.3614 7.46288 16.9291C8.83333 17.4968 10.3413 17.6453 11.7962 17.3559C13.251 17.0665 14.5874 16.3522 15.6363 15.3033C16.6852 14.2544 17.3995 12.918 17.6889 11.4632C17.9783 10.0083 17.8298 8.50032 17.2621 7.12987C16.6944 5.75943 15.7332 4.58809 14.4998 3.76398C13.2664 2.93987 11.8164 2.5 10.333 2.5C8.2363 2.50789 6.22382 3.32602 4.71634 4.78333L2.83301 6.66667M2.83301 6.66667V2.5M2.83301 6.66667H6.99967M10.333 5.83333V10L13.6663 11.6667" stroke="#737373" stroke-width="1.5" stroke-linecap="round" stroke-linejoin="round"/>
</svg>
