<svg width="16" height="16" viewBox="0 0 16 16" fill="none" xmlns="http://www.w3.org/2000/svg">
<g clip-path="url(#clip0_5069_12559)">
<path d="M11.9997 14.6663H2.66634C2.31272 14.6663 1.97358 14.5259 1.72353 14.2758C1.47348 14.0258 1.33301 13.6866 1.33301 13.333V3.99967M14.6663 8.66637L13.8023 7.80237C13.501 7.50111 13.0924 7.33187 12.6663 7.33187C12.2403 7.33187 11.8316 7.50111 11.5303 7.80237L7.33301 11.9997M9.33301 5.33301C9.33301 6.06939 8.73605 6.66634 7.99967 6.66634C7.26329 6.66634 6.66634 6.06939 6.66634 5.33301C6.66634 4.59663 7.26329 3.99967 7.99967 3.99967C8.73605 3.99967 9.33301 4.59663 9.33301 5.33301ZM5.33301 1.33301H13.333C14.0694 1.33301 14.6663 1.92996 14.6663 2.66634V10.6663C14.6663 11.4027 14.0694 11.9997 13.333 11.9997H5.33301C4.59663 11.9997 3.99967 11.4027 3.99967 10.6663V2.66634C3.99967 1.92996 4.59663 1.33301 5.33301 1.33301Z" stroke="#0A0A0A" stroke-width="1.33" stroke-linecap="round" stroke-linejoin="round"/>
</g>
<defs>
<clipPath id="clip0_5069_12559">
<rect width="16" height="16" fill="white"/>
</clipPath>
</defs>
</svg>
