<svg width="16" height="16" viewBox="0 0 16 16" fill="none" xmlns="http://www.w3.org/2000/svg">
<path d="M8.66667 3.33317H14M8.66667 5.99984H12M8.66667 9.99984H14M8.66667 12.6665H12M2 3.33317C2 3.15636 2.07024 2.98679 2.19526 2.86177C2.32029 2.73674 2.48986 2.6665 2.66667 2.6665H5.33333C5.51014 2.6665 5.67971 2.73674 5.80474 2.86177C5.92976 2.98679 6 3.15636 6 3.33317V5.99984C6 6.17665 5.92976 6.34622 5.80474 6.47124C5.67971 6.59627 5.51014 6.6665 5.33333 6.6665H2.66667C2.48986 6.6665 2.32029 6.59627 2.19526 6.47124C2.07024 6.34622 2 6.17665 2 5.99984V3.33317ZM2 9.99984C2 9.82303 2.07024 9.65346 2.19526 9.52843C2.32029 9.40341 2.48986 9.33317 2.66667 9.33317H5.33333C5.51014 9.33317 5.67971 9.40341 5.80474 9.52843C5.92976 9.65346 6 9.82303 6 9.99984V12.6665C6 12.8433 5.92976 13.0129 5.80474 13.1379C5.67971 13.2629 5.51014 13.3332 5.33333 13.3332H2.66667C2.48986 13.3332 2.32029 13.2629 2.19526 13.1379C2.07024 13.0129 2 12.8433 2 12.6665V9.99984Z" stroke="#0A0A0A" stroke-width="1.5" stroke-linecap="round" stroke-linejoin="round"/>
</svg>
