<svg width="80" height="24" viewBox="0 0 80 24" fill="none" xmlns="http://www.w3.org/2000/svg">
<path d="M0 8C0 3.58172 3.58172 0 8 0H16C20.4183 0 24 3.58172 24 8V16C24 20.4183 20.4183 24 16 24H8C3.58172 24 0 20.4183 0 16V8Z" fill="#325FEC"/>
<path d="M15.6521 5.1887L16.2319 6.08719C16.5549 6.58409 17.532 8.09547 18.4057 9.4412C19.2836 10.7911 20 11.9258 20 11.9589C19.9995 11.9927 19.656 12.5432 19.2339 13.1804C18.8156 13.8181 17.8094 15.3461 15.5238 18.8118L8.51347 18.8325L4 11.9589L8.40575 5.16797L15.6521 5.1887ZM11.8965 6.07893C9.48297 6.08307 9.01467 6.09133 8.92756 6.14099C8.86131 6.17825 8.43474 6.79526 7.84262 7.70207C7.30432 8.53023 6.54651 9.69802 6.15728 10.3026C5.76392 10.9071 5.45334 11.4206 5.46163 11.4413C5.4705 11.4661 6.1952 11.4868 7.49073 11.4951L9.50722 11.5034V12.4143C5.93078 12.4143 5.4868 12.4267 5.47409 12.4681C5.46581 12.493 6.21941 13.6814 7.15523 15.1059C8.08674 16.5301 8.89413 17.7389 8.95235 17.7973L9.05167 17.9008C14.3383 17.9215 14.6872 17.9133 14.7039 17.8595C14.7163 17.8222 14.0869 16.8201 13.2008 15.466C12.3602 14.1865 11.6439 13.0892 11.6066 13.023L11.5362 12.9112L12.5921 12.9071C14.9565 16.522 15.4079 17.1762 15.4617 17.1762C15.5118 17.1755 16.0502 16.3887 17.1884 14.6586C18.7451 12.2945 18.8406 12.1328 18.8447 11.9589C18.8447 11.785 18.7536 11.6317 17.2754 9.35015C16.4144 8.01735 15.6776 6.89557 15.6398 6.85331C15.6025 6.8119 15.5528 6.78285 15.5321 6.78285C15.5111 6.78319 14.1116 8.89905 12.4264 11.4868C10.7411 14.0748 9.34988 16.1991 9.32918 16.2073C9.31253 16.2155 9.18826 16.0498 9.05167 15.8429C8.91505 15.6317 8.80331 15.4453 8.80331 15.4288C8.80427 15.4066 9.4043 14.4756 10.1366 13.3585C10.8695 12.2363 11.4907 11.2507 11.5197 11.1721C11.5445 11.0934 11.5528 10.9817 11.5404 10.9237C11.5238 10.8657 11.0394 10.0954 10.4596 9.20516C9.88445 8.31546 9.4043 7.57056 9.39544 7.54896C9.38716 7.52826 9.49895 7.32528 9.63974 7.10167L9.90058 6.69585C11.9337 9.80558 12.1905 10.17 12.2278 10.1286C12.2532 10.0987 12.8451 9.19635 13.5404 8.12862C14.2316 7.06071 14.7946 6.1583 14.7826 6.12866C14.7702 6.09139 14.1573 6.07893 11.8965 6.07893Z" fill="white"/>
<path d="M75.4206 9.49568C75.7079 9.43036 75.9107 9.41735 76.4346 9.43041C76.8739 9.43912 77.1781 9.46965 77.3639 9.5219C77.516 9.56111 77.8074 9.67861 78.0186 9.78311C78.2256 9.88326 78.5213 10.0618 78.6692 10.1794C78.8213 10.297 79.0537 10.5408 79.1931 10.7193C79.3325 10.8979 79.5184 11.2028 79.6071 11.3944C79.6958 11.586 79.8226 11.9388 79.886 12.1783C79.9873 12.5789 80 12.6835 80 13.4412C80 14.1684 79.9915 14.3165 79.9028 14.6606C79.8521 14.8739 79.7043 15.2746 79.5775 15.5402C79.3706 15.98 79.3072 16.0759 78.9566 16.4373C78.6355 16.7682 78.4961 16.8771 78.1666 17.0513C77.9384 17.1733 77.6004 17.3083 77.385 17.3606C77.1737 17.4172 76.8316 17.4737 76.6247 17.4911C76.3965 17.5085 76.0711 17.4999 75.8219 17.4694C75.5896 17.4433 75.2263 17.3605 75.0193 17.2909C74.8081 17.2168 74.525 17.0949 74.3856 17.0121C74.2462 16.9294 74.0309 16.7813 73.9126 16.6768C73.7901 16.5723 73.5957 16.3719 73.4774 16.2282C73.3591 16.0845 73.1647 15.771 73.0507 15.5315C72.9366 15.292 72.8057 14.9392 72.7593 14.7476C72.7128 14.556 72.6536 14.1815 72.6241 13.9203C72.5903 13.5632 72.5902 13.3193 72.6282 12.9622C72.6535 12.6966 72.7169 12.3263 72.7634 12.1347C72.8099 11.9431 72.9155 11.6383 72.9958 11.4598C73.0803 11.2813 73.2281 11.0155 73.3295 10.8718C73.4309 10.7281 73.6041 10.5191 73.7139 10.4058C73.828 10.297 74.035 10.1229 74.1744 10.0271C74.3138 9.92691 74.5716 9.78318 74.7448 9.70915C74.918 9.63512 75.2221 9.53923 75.4206 9.49568ZM60.1914 9.5001C60.4998 9.43042 60.6858 9.41735 61.2054 9.43041C61.6954 9.44348 61.9109 9.46953 62.1559 9.54356C62.3291 9.59582 62.6037 9.70471 62.7684 9.7918C62.9289 9.87454 63.1739 10.0357 63.3091 10.1489C63.4485 10.2578 63.6428 10.4582 63.7484 10.5888C63.854 10.7195 64.0019 10.9459 64.0779 11.0896C64.1582 11.2333 64.2723 11.499 64.3315 11.6775C64.3906 11.8561 64.4665 12.1521 64.4961 12.3306C64.5299 12.5092 64.5722 12.9186 64.6272 13.8114H58.8607V14.0596C58.8607 14.199 58.8903 14.4384 58.9283 14.5951C58.9621 14.7519 59.0508 15.0045 59.1268 15.1613C59.2029 15.3224 59.3634 15.5489 59.4944 15.6839C59.6296 15.8276 59.8408 15.9843 60.0013 16.0671C60.1534 16.1411 60.39 16.2326 60.5294 16.2718C60.6688 16.3067 60.9518 16.3371 61.1631 16.3371C61.3701 16.3371 61.6615 16.3067 61.8052 16.2718C61.953 16.237 62.1896 16.1454 62.3332 16.0671C62.4811 15.993 62.6838 15.8406 62.7894 15.7317C62.895 15.6185 63.0176 15.4357 63.1486 15.1178H64.4792L64.4539 15.2571C64.437 15.3355 64.3863 15.4967 64.344 15.6186C64.2976 15.7362 64.1877 15.9408 64.1032 16.0715C64.0187 16.2021 63.816 16.433 63.6555 16.5898C63.4443 16.7901 63.2373 16.9294 62.9373 17.0818C62.705 17.1994 62.3417 17.3344 62.1347 17.3866C61.8433 17.4607 61.6151 17.4825 61.1842 17.4868C60.8547 17.4868 60.4871 17.4651 60.3182 17.4302C60.1534 17.3954 59.8619 17.3082 59.6633 17.2342C59.4648 17.1645 59.1691 17.0121 59.0086 16.8988C58.8439 16.79 58.5862 16.5636 58.4341 16.3981C58.2863 16.2326 58.0834 15.9582 57.9947 15.7927C57.9017 15.6229 57.775 15.3311 57.7074 15.1395C57.644 14.9479 57.5595 14.6257 57.5258 14.421C57.492 14.2163 57.4667 13.7939 57.4667 13.4848C57.4667 13.1712 57.492 12.7531 57.5258 12.5484C57.5638 12.3437 57.6356 12.039 57.6905 11.8735C57.7455 11.7036 57.8596 11.4292 57.9441 11.2637C58.0286 11.0939 58.2018 10.8282 58.3285 10.6628C58.4552 10.5017 58.6707 10.2796 58.8058 10.1707C58.941 10.0618 59.2199 9.8877 59.4311 9.77883C59.6592 9.66562 59.9633 9.55236 60.1914 9.5001ZM42.5669 12.2306C42.5754 14.6866 42.5839 14.9436 42.6557 15.1613C42.6937 15.2919 42.7908 15.4966 42.8626 15.6142C42.9387 15.7318 43.0824 15.8973 43.188 15.9757C43.2937 16.0585 43.5091 16.1673 43.6738 16.2195C43.8935 16.2892 44.0793 16.311 44.3919 16.311C44.6749 16.311 44.8988 16.2849 45.0678 16.2326C45.2072 16.1891 45.3932 16.115 45.4777 16.0715C45.5664 16.0236 45.7227 15.9059 45.8325 15.8014C45.9381 15.7013 46.0775 15.5315 46.1451 15.4227C46.2127 15.3138 46.3098 15.1004 46.4619 14.6606L46.4703 9.54356H47.8349L47.8137 17.3606H46.5464L46.5042 16.1585L46.3141 16.4286C46.2085 16.5767 46.0268 16.777 45.9127 16.8728C45.7944 16.9686 45.5917 17.0992 45.4565 17.1689C45.3256 17.2386 45.0678 17.3388 44.8861 17.3911C44.62 17.4694 44.4553 17.4867 43.9906 17.4824C43.5387 17.4824 43.3485 17.4607 43.0824 17.3866C42.8965 17.3344 42.6303 17.2299 42.4909 17.1515C42.3515 17.0775 42.1108 16.8859 41.9587 16.7291C41.7644 16.5332 41.6334 16.3458 41.5278 16.1194C41.4433 15.9408 41.3376 15.6752 41.2996 15.5315C41.232 15.2964 41.2236 14.961 41.211 12.4047L41.1982 9.54356H42.5544L42.5669 12.2306ZM32.0143 6.54758C32.0354 6.49968 32.4747 6.49083 34.4348 6.50825C36.4119 6.52131 36.8809 6.53885 37.1259 6.59546C37.2864 6.63465 37.5356 6.70424 37.675 6.75649C37.8144 6.80439 38.0594 6.92205 38.2242 7.00915C38.427 7.11802 38.634 7.28346 38.879 7.5404C39.1494 7.8191 39.2762 7.98901 39.3902 8.23724C39.4747 8.41579 39.5802 8.69011 39.6225 8.84686C39.6816 9.06024 39.6986 9.28667 39.7028 9.7613C39.7028 10.3012 39.6902 10.4407 39.6015 10.7193C39.5508 10.8979 39.4366 11.1811 39.3479 11.3509C39.2592 11.5295 39.0691 11.7908 38.9002 11.9737C38.7354 12.1522 38.4989 12.3655 38.3721 12.4526C38.2454 12.5397 38.0046 12.6661 37.844 12.7358C37.6793 12.8054 37.5441 12.8707 37.5356 12.8794C37.5315 12.8882 38.0976 13.8942 38.7946 15.1178C39.4916 16.3372 40.0619 17.3475 40.0619 17.3606C40.0611 17.3736 39.6971 17.3822 38.4566 17.3822L38.3805 17.2647C38.3424 17.1991 37.8016 16.2365 36.0613 13.0927L33.4294 13.0711L33.4083 17.3606H32.0143L32.0016 11.9824C31.9974 9.02697 32.0016 6.58055 32.0143 6.54758ZM53.3562 9.4173C53.6308 9.41295 53.9646 9.4391 54.1378 9.47829C54.3068 9.51314 54.6067 9.62638 54.8052 9.72653C55.0545 9.85282 55.2403 9.98782 55.4178 10.1707C55.5867 10.3449 55.7262 10.5452 55.8318 10.763C55.9163 10.9415 56.0176 11.2072 56.0599 11.3509C56.1232 11.5861 56.1359 11.913 56.1571 17.3822H54.8052V14.7999C54.8052 12.7967 54.7883 12.1565 54.7461 11.9387C54.7123 11.782 54.6404 11.5556 54.5813 11.438C54.5264 11.3161 54.4124 11.1549 54.3363 11.0722C54.2561 10.9938 54.1167 10.8806 54.0238 10.8239C53.9309 10.7673 53.7407 10.6933 53.6013 10.6541C53.4619 10.6192 53.1872 10.5888 52.9887 10.5888C52.7901 10.5888 52.5155 10.6193 52.3761 10.6585C52.2367 10.6934 52.0087 10.7891 51.8735 10.8631C51.7341 10.9415 51.5398 11.0983 51.4342 11.2203C51.3328 11.3378 51.206 11.5163 51.1595 11.6121C51.113 11.7079 51.0455 11.8647 51.0074 11.9606C50.9483 12.113 50.9357 12.4877 50.8977 17.3606H49.5459L49.5247 9.54356H50.8342L50.8301 10.7848L50.9398 10.6105C51.0032 10.5147 51.1299 10.3492 51.2271 10.2447C51.3243 10.1402 51.5186 9.97909 51.658 9.88329C51.7974 9.79184 52.0172 9.67426 52.1439 9.62635C52.2706 9.5741 52.4903 9.50877 52.6297 9.47829C52.7691 9.44346 53.0943 9.4173 53.3562 9.4173ZM71.2975 9.53929C71.9185 9.53929 72.0495 9.54796 72.0157 9.59586C71.9902 9.62658 71.3819 10.4931 70.6638 11.5206C69.9457 12.5484 69.3543 13.3977 69.3543 13.4064C69.3564 13.4181 69.9512 14.3053 70.6766 15.3791C71.4029 16.4543 71.9942 17.3468 71.9947 17.3561C71.9947 17.3692 71.6651 17.3779 70.5161 17.3779L69.5571 15.8973C69.0291 15.083 68.5854 14.4166 68.5727 14.4166C68.5639 14.4216 68.12 15.0884 66.6295 17.3779H65.8902C65.4847 17.3779 65.1509 17.3692 65.1509 17.3561C65.1515 17.3466 65.7596 16.4629 66.5028 15.3964C67.2451 14.3355 67.8527 13.4526 67.8546 13.4369C67.8546 13.4282 67.994 13.2148 68.163 12.9709C68.3362 12.727 68.4883 12.5005 68.501 12.47C68.5262 12.4265 68.3864 12.4178 67.1703 12.4352L66.1818 10.9981C65.643 10.2127 65.1965 9.56144 65.1932 9.5524C65.1932 9.54804 65.5312 9.53929 66.6928 9.53929L67.6222 10.9502C68.1327 11.7243 68.5631 12.355 68.5727 12.3524C68.5854 12.3437 69.0333 11.708 70.5372 9.53929H71.2975ZM76.3078 10.5931C76.084 10.5974 75.8094 10.6236 75.6953 10.6541C75.577 10.6889 75.4249 10.7369 75.3573 10.7674C75.2855 10.7935 75.1164 10.898 74.977 11.0025C74.8376 11.1027 74.6517 11.2812 74.5673 11.3988C74.487 11.5164 74.3645 11.7211 74.3012 11.8561C74.2378 11.9868 74.1448 12.2392 74.0984 12.4221C74.0308 12.6834 74.0138 12.8838 74.0096 13.4456C74.0096 14.0247 74.0266 14.1989 74.1026 14.4907C74.1533 14.6823 74.2546 14.9653 74.3265 15.1221C74.4152 15.305 74.5588 15.5054 74.7405 15.6883C74.9095 15.8625 75.1165 16.0192 75.2728 16.0976C75.4122 16.1629 75.6488 16.2457 75.8009 16.2805C75.9488 16.311 76.1896 16.3371 76.329 16.3371C76.4684 16.3371 76.7133 16.3067 76.878 16.2718C77.0386 16.237 77.2878 16.1412 77.4273 16.0672C77.5667 15.9888 77.778 15.8277 77.892 15.7101C78.0103 15.5882 78.175 15.3616 78.2594 15.2092C78.3439 15.0524 78.4581 14.7694 78.513 14.5778C78.5975 14.2686 78.6102 14.1336 78.6102 13.4456C78.6102 12.7401 78.5974 12.6268 78.5087 12.335C78.4538 12.1521 78.3567 11.8995 78.2933 11.7689C78.2299 11.6339 78.0736 11.4118 77.9469 11.2681C77.8117 11.1201 77.6047 10.946 77.4653 10.8676C77.3259 10.7892 77.1019 10.6977 76.9625 10.6585C76.8104 10.6193 76.5443 10.5931 76.3078 10.5931ZM33.4294 13.0057L34.5067 11.8517C36.602 11.8256 36.7752 11.8124 36.978 11.7384C37.1047 11.6948 37.3202 11.586 37.4596 11.5033C37.6032 11.4162 37.7764 11.2595 37.8693 11.1332C37.9581 11.0112 38.068 10.8282 38.1144 10.7193C38.1609 10.6104 38.2201 10.3753 38.2496 10.1968C38.2792 10.0008 38.2834 9.74825 38.2665 9.56536C38.2496 9.39988 38.2031 9.16038 38.165 9.0428C38.1228 8.92087 38.034 8.73798 37.9622 8.62912C37.8946 8.52026 37.7511 8.35918 37.6497 8.26773C37.5483 8.17628 37.3666 8.0543 37.2525 7.99769C37.1342 7.93673 36.9273 7.85832 36.7879 7.81913C36.5767 7.75817 36.2683 7.74071 34.984 7.72764L33.4379 7.70584L33.4294 13.0057ZM61.0574 10.5539C60.9518 10.5539 60.7702 10.5757 60.6561 10.5931C60.5379 10.6149 60.3562 10.6628 60.2548 10.7064C60.1492 10.7456 59.9676 10.8414 59.8535 10.9154C59.7353 10.9938 59.5535 11.155 59.4521 11.2726C59.3465 11.3945 59.2113 11.5861 59.148 11.7036C59.0846 11.8212 58.9916 12.0782 58.9452 12.2698C58.8987 12.4614 58.8607 12.6486 58.8607 12.6922C58.8607 12.7662 58.9918 12.7705 61.0151 12.7705H63.1697C63.1655 12.5484 63.1359 12.3568 63.1021 12.2044C63.0641 12.0476 62.9754 11.8037 62.9036 11.66C62.8276 11.5163 62.6628 11.2898 62.536 11.1548C62.4051 11.0199 62.1939 10.8631 62.0503 10.7935C61.9109 10.7238 61.6701 10.6411 61.5222 10.6062C61.3701 10.5757 61.1588 10.5496 61.0574 10.5539Z" fill="#0A0A0A"/>
</svg>
