<svg width="44" height="44" viewBox="0 0 44 44" fill="none" xmlns="http://www.w3.org/2000/svg">
<path d="M22 0.5C33.8741 0.5 43.5 10.1259 43.5 22C43.5 33.8741 33.8741 43.5 22 43.5C10.1259 43.5 0.5 33.8741 0.5 22C0.5 10.1259 10.1259 0.5 22 0.5Z" stroke="#E5E5E5"/>
<path d="M13.3 17L22 22M22 22L30.7001 17M22 22L22 32M31 17.9999C30.9996 17.6492 30.9071 17.3047 30.7315 17.0011C30.556 16.6974 30.3037 16.4453 30 16.2699L23 12.2699C22.696 12.0944 22.3511 12.002 22 12.002C21.6489 12.002 21.304 12.0944 21 12.2699L14 16.2699C13.6963 16.4453 13.444 16.6974 13.2685 17.0011C13.0929 17.3047 13.0004 17.6492 13 17.9999V25.9999C13.0004 26.3506 13.0929 26.6951 13.2685 26.9987C13.444 27.3024 13.6963 27.5545 14 27.7299L21 31.7299C21.304 31.9054 21.6489 31.9979 22 31.9979C22.3511 31.9979 22.696 31.9054 23 31.7299L30 27.7299C30.3037 27.5545 30.556 27.3024 30.7315 26.9987C30.9071 26.6951 30.9996 26.3506 31 25.9999V17.9999Z" stroke="#0A0A0A" stroke-width="2" stroke-linecap="round" stroke-linejoin="round"/>
</svg>
