<svg width="13" height="13" viewBox="0 0 13 13" fill="none" xmlns="http://www.w3.org/2000/svg">
<path d="M9.2998 2.5H8.2998C8.02366 2.5 7.7998 2.72386 7.7998 3V10C7.7998 10.2761 8.02366 10.5 8.2998 10.5H9.2998C9.57595 10.5 9.7998 10.2761 9.7998 10V3C9.7998 2.72386 9.57595 2.5 9.2998 2.5Z" stroke="#EAB308" stroke-width="1.25" stroke-linecap="round" stroke-linejoin="round"/>
<path d="M5.2998 2.5H4.2998C4.02366 2.5 3.7998 2.72386 3.7998 3V10C3.7998 10.2761 4.02366 10.5 4.2998 10.5H5.2998C5.57595 10.5 5.7998 10.2761 5.7998 10V3C5.7998 2.72386 5.57595 2.5 5.2998 2.5Z" stroke="#EAB308" stroke-width="1.25" stroke-linecap="round" stroke-linejoin="round"/>
</svg>
