<svg width="21" height="20" viewBox="0 0 21 20" fill="none" xmlns="http://www.w3.org/2000/svg">
<path d="M10.3332 16.6665H17.8332M12.8332 4.16646L15.3332 6.66646M13.9798 3.01811C14.3116 2.68637 14.7615 2.5 15.2307 2.5C15.6998 2.5 16.1497 2.68637 16.4815 3.01811C16.8132 3.34985 16.9996 3.79979 16.9996 4.26895C16.9996 4.7381 16.8132 5.18804 16.4815 5.51978L6.47315 15.5289C6.2749 15.7272 6.02984 15.8722 5.76065 15.9506L3.36732 16.6489C3.29561 16.6699 3.2196 16.6711 3.14724 16.6526C3.07488 16.634 3.00884 16.5964 2.95602 16.5436C2.90321 16.4908 2.86556 16.4247 2.84702 16.3524C2.82848 16.28 2.82974 16.204 2.85065 16.1323L3.54898 13.7389C3.6275 13.4701 3.77252 13.2253 3.97065 13.0273L13.9798 3.01811Z" stroke="#737373" stroke-width="1.5" stroke-linecap="round" stroke-linejoin="round"/>
</svg>
