<svg width="26" height="12" viewBox="0 0 26 12" fill="none" xmlns="http://www.w3.org/2000/svg">
<path d="M17.5029 2.94043C18.7425 2.94052 19.9109 4.05739 19.918 6.10645C19.918 8.34615 18.7639 9.36405 17.4961 9.36426C16.873 9.36426 16.4972 9.10265 16.2422 8.91895L16.2344 10.918L14.4639 11.293V3.05371H16.0225L16.1143 3.49219C16.3622 3.26607 16.8088 2.94043 17.5029 2.94043ZM2.39453 2.94043C2.98216 2.94047 3.56276 3.03263 4.15039 3.26562V4.92676C3.61221 4.63719 2.93274 4.47469 2.39453 4.47461C2.01925 4.47461 1.79216 4.58012 1.79199 4.85547C1.79199 5.64681 4.4906 5.27272 4.49805 7.37793C4.49805 8.64273 3.48502 9.37107 2.01172 9.37109C1.40256 9.37109 0.736864 9.2504 0.078125 8.96777V7.28613C0.673123 7.61116 1.42381 7.85156 2.01172 7.85156C2.40829 7.85155 2.69132 7.7458 2.69141 7.4209C2.69141 6.58004 0 6.89066 0 4.94043C7.15711e-05 3.68982 0.956661 2.94043 2.39453 2.94043ZM6.57324 3.06055H7.91895V4.56641H6.57324V7.07422C6.57324 8.11997 7.69224 7.79499 7.91895 7.70312V9.1377C7.68521 9.26486 7.26037 9.37107 6.67969 9.37109C5.63135 9.37109 4.84473 8.60046 4.84473 7.55469L4.85156 1.89551L6.58008 1.52734L6.57324 3.06055ZM22.9424 2.94043C24.621 2.94043 25.4999 4.36803 25.5 6.17676C25.5 6.34614 25.4854 6.71325 25.4854 6.80566H22.0225C22.1004 7.63946 22.7094 7.87988 23.3965 7.87988C24.0976 7.87984 24.6502 7.73142 25.1318 7.49121V8.9043C24.6502 9.17277 24.0126 9.3642 23.1699 9.36426C21.4416 9.36426 20.2373 8.2899 20.2373 6.16309C20.2373 4.36849 21.2568 2.9407 22.9424 2.94043ZM10.1221 3.58398C10.54 2.82085 11.369 2.97575 11.5957 3.06055V4.68652C11.3761 4.6088 10.6679 4.50978 10.25 5.05371V9.24414H8.47852V3.06055H10.0088L10.1221 3.58398ZM13.8057 9.24414H12.0273V3.06055H13.8057V9.24414ZM17.0781 4.50977C16.6744 4.50977 16.4185 4.65055 16.2344 4.85547L16.2422 7.47754C16.4122 7.66113 16.6604 7.80957 17.0781 7.80957C17.7295 7.80931 18.1688 7.10276 18.1689 6.15625C18.1689 5.23077 17.7225 4.51003 17.0781 4.50977ZM22.9355 4.375C22.4894 4.37511 22.001 4.70753 22.001 5.50586H23.8281C23.8281 4.7074 23.3676 4.375 22.9355 4.375ZM13.8057 2.14258L12.0273 2.52441V1.08203L13.8057 0.708008V2.14258Z" fill="#6461FC"/>
</svg>
