<svg width="27" height="27" viewBox="0 0 27 27" fill="none" xmlns="http://www.w3.org/2000/svg">
<path fill-rule="evenodd" clip-rule="evenodd" d="M13.5002 26.5023C16.895 26.5023 20.1507 25.1538 22.5512 22.7533C24.9516 20.3528 26.3002 17.0971 26.3002 13.7023C26.3002 10.3076 24.9516 7.05184 22.5512 4.65138C20.1507 2.25091 16.895 0.902344 13.5002 0.902344C10.1054 0.902344 6.84969 2.25091 4.44923 4.65138C2.04876 7.05184 0.700195 10.3076 0.700195 13.7023C0.700195 17.0971 2.04876 20.3528 4.44923 22.7533C6.84969 25.1538 10.1054 26.5023 13.5002 26.5023ZM19.6714 10.8079C19.7641 10.6804 19.8307 10.5359 19.8675 10.3826C19.9043 10.2293 19.9105 10.0702 19.8859 9.91454C19.8612 9.75883 19.8061 9.60951 19.7237 9.47509C19.6414 9.34068 19.5333 9.2238 19.4058 9.13114C19.2783 9.03848 19.1337 8.97185 18.9804 8.93505C18.8271 8.89825 18.6681 8.892 18.5124 8.91667C18.3567 8.94133 18.2074 8.99642 18.0729 9.07879C17.9385 9.16116 17.8217 9.2692 17.729 9.39674L12.1562 17.0607L9.1482 14.0527C9.03744 13.9382 8.90499 13.8468 8.75855 13.784C8.61212 13.7212 8.45464 13.6882 8.29531 13.6869C8.13597 13.6855 7.97797 13.716 7.83052 13.7764C7.68308 13.8368 7.54914 13.926 7.43652 14.0387C7.3239 14.1514 7.23486 14.2854 7.17459 14.4329C7.11433 14.5804 7.08404 14.7385 7.0855 14.8978C7.08696 15.0571 7.12013 15.2146 7.18309 15.361C7.24605 15.5073 7.33753 15.6397 7.45219 15.7503L11.4522 19.7503C11.5748 19.873 11.7225 19.9677 11.8852 20.0277C12.0479 20.0878 12.2217 20.1119 12.3946 20.0984C12.5675 20.0849 12.7354 20.034 12.8868 19.9493C13.0382 19.8647 13.1694 19.7482 13.2714 19.6079L19.6714 10.8079Z" fill="#325FEC"/>
</svg>
