<svg width="14" height="18" viewBox="0 0 14 18" fill="none" xmlns="http://www.w3.org/2000/svg">
<path d="M7.51562 17.0529C7.20625 17.2936 6.75937 17.2936 6.48437 17.0529L0.984375 12.6529C0.60625 12.3779 0.571875 11.8623 0.846875 11.4842C1.12187 11.1404 1.6375 11.0717 2.01562 11.3811L7 15.3686L11.9844 11.3811C12.3281 11.0717 12.8438 11.1404 13.1188 11.4842C13.3938 11.8623 13.3594 12.3779 12.9813 12.6529L7.48125 17.0529H7.51562ZM13.0156 4.78105C13.3594 5.05605 13.4281 5.57168 13.1188 5.91543C12.8438 6.29355 12.3281 6.32793 11.9844 6.05293L7 2.06543L2.01562 6.05293C1.6375 6.32793 1.12187 6.29355 0.846875 5.91543C0.571875 5.57168 0.60625 5.05605 0.984375 4.78105L6.48437 0.381054C6.75937 0.140429 7.20625 0.140429 7.51562 0.381054L13.0156 4.78105Z" fill="white"/>
</svg>
