<svg width="24" height="25" viewBox="0 0 24 25" fill="none" xmlns="http://www.w3.org/2000/svg">
<g clip-path="url(#clip0_2001_1130)">
<path d="M12 19.8498C12.2406 19.8498 12.9281 19.6092 13.6156 18.1998C13.925 17.5811 14.2 16.8592 14.3719 15.9998H9.59375C9.8 16.8592 10.0406 17.5811 10.35 18.1998C11.0719 19.6092 11.725 19.8498 12 19.8498ZM9.31875 14.3498H14.6469C14.7156 13.8342 14.75 13.2842 14.75 12.6998C14.75 12.1498 14.7156 11.5998 14.6469 11.0498H9.31875C9.25 11.5998 9.25 12.1498 9.25 12.6998C9.25 13.2842 9.25 13.8342 9.31875 14.3498ZM9.59375 9.3998H14.3719C14.2 8.5748 13.925 7.85293 13.6156 7.23418C12.9281 5.8248 12.2406 5.5498 12 5.5498C11.725 5.5498 11.0719 5.8248 10.35 7.23418C10.0406 7.85293 9.8 8.5748 9.59375 9.3998ZM16.2969 11.0498C16.3656 11.5998 16.3656 12.1498 16.3656 12.6998C16.3656 13.2842 16.3656 13.8342 16.2969 14.3498L18.9438 14.3498C19.0813 13.8342 19.15 13.2842 19.15 12.6998C19.15 12.1498 19.0813 11.5998 18.9438 11.0498L16.2969 11.0498ZM18.325 9.3998C17.6031 7.99043 16.4 6.85605 14.9563 6.20293C15.4375 7.09668 15.8156 8.19668 16.0563 9.3998L18.325 9.3998ZM7.90937 9.3998C8.15 8.19668 8.52812 7.09668 9.00937 6.20293C7.56562 6.85605 6.3625 7.99043 5.64062 9.3998H7.90937ZM5.02187 11.0498C4.91875 11.5998 4.85 12.1498 4.85 12.6998C4.85 13.2842 4.88437 13.8342 5.02187 14.3498L7.66875 14.3498C7.6 13.8342 7.6 13.2842 7.6 12.6998C7.6 12.1498 7.6 11.5998 7.66875 11.0498L5.02187 11.0498ZM14.9563 19.2311C16.4 18.5779 17.6031 17.4436 18.325 15.9998L16.0563 15.9998C15.8156 17.2373 15.4375 18.3373 14.9563 19.2311ZM9.00937 19.2311C8.52812 18.3373 8.15 17.2373 7.90937 15.9998H5.64062C6.3625 17.4436 7.56562 18.5779 9.00937 19.2311ZM12 21.4998C8.8375 21.4998 5.95 19.8498 4.36875 17.0998C2.7875 14.3842 2.7875 11.0498 4.36875 8.2998C5.95 5.58418 8.8375 3.8998 12 3.8998C15.1281 3.8998 18.0156 5.58418 19.5969 8.2998C21.1781 11.0498 21.1781 14.3842 19.5969 17.0998C18.0156 19.8498 15.1281 21.4998 12 21.4998Z" fill="white"/>
</g>
<defs>
<clipPath id="clip0_2001_1130">
<rect width="24" height="24" fill="white" transform="translate(0 0.299805)"/>
</clipPath>
</defs>
</svg>
