<svg width="36" height="36" viewBox="0 0 36 36" fill="none" xmlns="http://www.w3.org/2000/svg">
<g clip-path="url(#clip0_2001_617)">
<path d="M5.34998 30.9251H11.1833L30.1416 11.9667C30.9152 11.1932 31.3498 10.144 31.3498 9.05008C31.3498 7.95612 30.9152 6.90696 30.1416 6.13342C29.3681 5.35987 28.3189 4.92529 27.225 4.92529C26.131 4.92529 25.0819 5.35987 24.3083 6.13342L5.34998 25.0918V30.9251Z" stroke="#DDFC9D" stroke-width="2.91667" stroke-linecap="round" stroke-linejoin="round"/>
<path d="M22.1209 8.32104L27.9542 14.1544" stroke="#DDFC9D" stroke-width="2.91667" stroke-linecap="round" stroke-linejoin="round"/>
<path d="M18.475 11.9667L11.1833 4.67505L5.34998 10.5084L12.6416 17.8" stroke="#DDFC9D" stroke-width="2.91667" stroke-linecap="round" stroke-linejoin="round"/>
<path d="M11.1834 11.9666L8.99591 14.1541" stroke="#DDFC9D" stroke-width="2.91667" stroke-linecap="round" stroke-linejoin="round"/>
<path d="M24.3083 17.8L31.6 25.0917L25.7666 30.925L18.475 23.6334" stroke="#DDFC9D" stroke-width="2.91667" stroke-linecap="round" stroke-linejoin="round"/>
<path d="M24.3084 25.0916L22.1209 27.2791" stroke="#DDFC9D" stroke-width="2.91667" stroke-linecap="round" stroke-linejoin="round"/>
</g>
<defs>
<clipPath id="clip0_2001_617">
<rect width="35" height="35" fill="white" transform="translate(0.974976 0.300049)"/>
</clipPath>
</defs>
</svg>
