<svg width="36" height="36" viewBox="0 0 36 36" fill="none" xmlns="http://www.w3.org/2000/svg">
<g clip-path="url(#clip0_2001_903)">
<path d="M22.375 28.008V25.0913C22.375 23.931 21.9141 22.8182 21.0936 21.9977C20.2731 21.1772 19.1603 20.7163 18 20.7163C16.8397 20.7163 15.7269 21.1772 14.9064 21.9977C14.0859 22.8182 13.625 23.931 13.625 25.0913V28.008C13.625 28.3947 13.4714 28.7657 13.1979 29.0392C12.9244 29.3127 12.5534 29.4663 12.1667 29.4663H6.33333C5.94656 29.4663 5.57563 29.3127 5.30214 29.0392C5.02865 28.7657 4.875 28.3947 4.875 28.008V7.59131H10.7083V11.9663H15.0833V7.59131H20.9167V11.9663H25.2917V7.59131H31.125V28.008C31.125 28.3947 30.9714 28.7657 30.6979 29.0392C30.4244 29.3127 30.0534 29.4663 29.6667 29.4663H23.8333C23.4466 29.4663 23.0756 29.3127 22.8021 29.0392C22.5286 28.7657 22.375 28.3947 22.375 28.008Z" stroke="#DDFC9D" stroke-width="2.875" stroke-linecap="round" stroke-linejoin="round"/>
<path d="M4.875 16.3413H31.125" stroke="#DDFC9D" stroke-width="2.875" stroke-linecap="round" stroke-linejoin="round"/>
</g>
<defs>
<clipPath id="clip0_2001_903">
<rect width="35" height="35" fill="white" transform="translate(0.5 0.299805)"/>
</clipPath>
</defs>
</svg>
