<svg width="36" height="36" viewBox="0 0 36 36" fill="none" xmlns="http://www.w3.org/2000/svg">
<path d="M6.33252 10.5086C6.33252 9.73504 6.63981 8.99317 7.18679 8.44619C7.73377 7.89921 8.47564 7.59192 9.24919 7.59192H26.7492C27.5227 7.59192 28.2646 7.89921 28.8116 8.44619C29.3586 8.99317 29.6659 9.73504 29.6659 10.5086V28.0086C29.6659 28.7821 29.3586 29.524 28.8116 30.071C28.2646 30.618 27.5227 30.9253 26.7492 30.9253H9.24919C8.47564 30.9253 7.73377 30.618 7.18679 30.071C6.63981 29.524 6.33252 28.7821 6.33252 28.0086V10.5086Z" stroke="#6535E7" stroke-width="2.91667" stroke-linecap="round" stroke-linejoin="round"/>
<path d="M23.8325 4.67505V10.5084" stroke="#6535E7" stroke-width="2.91667" stroke-linecap="round" stroke-linejoin="round"/>
<path d="M12.1675 4.67505V10.5084" stroke="#6535E7" stroke-width="2.91667" stroke-linecap="round" stroke-linejoin="round"/>
<path d="M6.33252 16.3419H29.6659" stroke="#6535E7" stroke-width="2.91667" stroke-linecap="round" stroke-linejoin="round"/>
<path d="M12.1675 22.175H15.0841V25.0917H12.1675V22.175Z" stroke="#6535E7" stroke-width="2.91667" stroke-linecap="round" stroke-linejoin="round"/>
</svg>
