<svg width="60" height="60" viewBox="0 0 60 60" fill="none" xmlns="http://www.w3.org/2000/svg">
<rect width="60" height="60" rx="30" fill="#027454" fill-opacity="0.1"/>
<path d="M18.333 22.7082C18.333 21.9346 18.6403 21.1928 19.1873 20.6458C19.7343 20.0988 20.4761 19.7915 21.2497 19.7915H38.7497C39.5232 19.7915 40.2651 20.0988 40.8121 20.6458C41.359 21.1928 41.6663 21.9346 41.6663 22.7082V40.2082C41.6663 40.9817 41.359 41.7236 40.8121 42.2706C40.2651 42.8175 39.5232 43.1248 38.7497 43.1248H21.2497C20.4761 43.1248 19.7343 42.8175 19.1873 42.2706C18.6403 41.7236 18.333 40.9817 18.333 40.2082V22.7082Z" stroke="#027454" stroke-width="2.91667" stroke-linecap="round" stroke-linejoin="round"/>
<path d="M35.833 16.875V22.7083" stroke="#027454" stroke-width="2.91667" stroke-linecap="round" stroke-linejoin="round"/>
<path d="M24.167 16.875V22.7083" stroke="#027454" stroke-width="2.91667" stroke-linecap="round" stroke-linejoin="round"/>
<path d="M18.333 28.5415H41.6663" stroke="#027454" stroke-width="2.91667" stroke-linecap="round" stroke-linejoin="round"/>
<path d="M24.167 34.375H27.0837V37.2917H24.167V34.375Z" stroke="#027454" stroke-width="2.91667" stroke-linecap="round" stroke-linejoin="round"/>
</svg>
