<svg width="12" height="11" viewBox="0 0 12 11" fill="none" xmlns="http://www.w3.org/2000/svg">
<path d="M10.6875 2.01855L7.40625 5.2998L10.6875 8.6123C11.0938 8.9873 11.0938 9.64355 10.6875 10.0186C10.3125 10.4248 9.65625 10.4248 9.28125 10.0186L6 6.7373L2.6875 10.0186C2.3125 10.4248 1.65625 10.4248 1.28125 10.0186C0.875 9.64355 0.875 8.9873 1.28125 8.6123L4.5625 5.2998L1.28125 2.01855C0.875 1.64355 0.875 0.987305 1.28125 0.612305C1.65625 0.206055 2.3125 0.206055 2.6875 0.612305L6 3.89355L9.28125 0.612305C9.65625 0.206055 10.3125 0.206055 10.6875 0.612305C11.0938 0.987305 11.0938 1.64355 10.6875 2.01855Z" fill="#E97236"/>
</svg>
