<svg width="36" height="36" viewBox="0 0 36 36" fill="none" xmlns="http://www.w3.org/2000/svg">
<g clip-path="url(#clip0_2001_632)">
<path d="M4.69995 7.59172C4.69995 8.36526 5.00724 9.10713 5.55422 9.65411C6.1012 10.2011 6.84307 10.5084 7.61662 10.5084C8.39017 10.5084 9.13203 10.2011 9.67901 9.65411C10.226 9.10713 10.5333 8.36526 10.5333 7.59172C10.5333 6.81817 10.226 6.0763 9.67901 5.52932C9.13203 4.98234 8.39017 4.67505 7.61662 4.67505C6.84307 4.67505 6.1012 4.98234 5.55422 5.52932C5.00724 6.0763 4.69995 6.81817 4.69995 7.59172Z" stroke="#C8B4FF" stroke-width="2.91667" stroke-linecap="round" stroke-linejoin="round"/>
<path d="M25.1166 7.59172C25.1166 8.36526 25.4239 9.10713 25.9708 9.65411C26.5178 10.2011 27.2597 10.5084 28.0332 10.5084C28.8068 10.5084 29.5487 10.2011 30.0956 9.65411C30.6426 9.10713 30.9499 8.36526 30.9499 7.59172C30.9499 6.81817 30.6426 6.0763 30.0956 5.52932C29.5487 4.98234 28.8068 4.67505 28.0332 4.67505C27.2597 4.67505 26.5178 4.98234 25.9708 5.52932C25.4239 6.0763 25.1166 6.81817 25.1166 7.59172Z" stroke="#C8B4FF" stroke-width="2.91667" stroke-linecap="round" stroke-linejoin="round"/>
<path d="M4.69995 28.0085C4.69995 28.782 5.00724 29.5239 5.55422 30.0709C6.1012 30.6178 6.84307 30.9251 7.61662 30.9251C8.39017 30.9251 9.13203 30.6178 9.67901 30.0709C10.226 29.5239 10.5333 28.782 10.5333 28.0085C10.5333 27.2349 10.226 26.4931 9.67901 25.9461C9.13203 25.3991 8.39017 25.0918 7.61662 25.0918C6.84307 25.0918 6.1012 25.3991 5.55422 25.9461C5.00724 26.4931 4.69995 27.2349 4.69995 28.0085Z" stroke="#C8B4FF" stroke-width="2.91667" stroke-linecap="round" stroke-linejoin="round"/>
<path d="M25.1166 28.0085C25.1166 28.782 25.4239 29.5239 25.9708 30.0709C26.5178 30.6178 27.2597 30.9251 28.0332 30.9251C28.8068 30.9251 29.5487 30.6178 30.0956 30.0709C30.6426 29.5239 30.9499 28.782 30.9499 28.0085C30.9499 27.2349 30.6426 26.4931 30.0956 25.9461C29.5487 25.3991 28.8068 25.0918 28.0332 25.0918C27.2597 25.0918 26.5178 25.3991 25.9708 25.9461C25.4239 26.4931 25.1166 27.2349 25.1166 28.0085Z" stroke="#C8B4FF" stroke-width="2.91667" stroke-linecap="round" stroke-linejoin="round"/>
<path d="M7.61658 10.5083V25.0916" stroke="#C8B4FF" stroke-width="2.91667" stroke-linecap="round" stroke-linejoin="round"/>
<path d="M10.5333 7.5918H25.1167" stroke="#C8B4FF" stroke-width="2.91667" stroke-linecap="round" stroke-linejoin="round"/>
<path d="M10.5333 28.0083H25.1167" stroke="#C8B4FF" stroke-width="2.91667" stroke-linecap="round" stroke-linejoin="round"/>
<path d="M28.0333 10.5083V25.0916" stroke="#C8B4FF" stroke-width="2.91667" stroke-linecap="round" stroke-linejoin="round"/>
</g>
<defs>
<clipPath id="clip0_2001_632">
<rect width="35" height="35" fill="white" transform="translate(0.324951 0.300049)"/>
</clipPath>
</defs>
</svg>
