<svg width="60" height="60" viewBox="0 0 60 60" fill="none" xmlns="http://www.w3.org/2000/svg">
<rect width="60" height="60" rx="30" fill="#027454" fill-opacity="0.1"/>
<g clip-path="url(#clip0_133_2588)">
<path d="M20.2083 22.0833H24.5833C24.9701 22.0833 25.341 21.9297 25.6145 21.6562C25.888 21.3827 26.0417 21.0118 26.0417 20.625V19.1667C26.0417 18.3931 26.349 17.6513 26.8959 17.1043C27.4429 16.5573 28.1848 16.25 28.9583 16.25C29.7319 16.25 30.4737 16.5573 31.0207 17.1043C31.5677 17.6513 31.875 18.3931 31.875 19.1667V20.625C31.875 21.0118 32.0286 21.3827 32.3021 21.6562C32.5756 21.9297 32.9466 22.0833 33.3333 22.0833H37.7083C38.0951 22.0833 38.466 22.237 38.7395 22.5105C39.013 22.784 39.1667 23.1549 39.1667 23.5417V27.9167C39.1667 28.3034 39.3203 28.6744 39.5938 28.9479C39.8673 29.2214 40.2382 29.375 40.625 29.375H42.0833C42.8569 29.375 43.5987 29.6823 44.1457 30.2293C44.6927 30.7763 45 31.5181 45 32.2917C45 33.0652 44.6927 33.8071 44.1457 34.3541C43.5987 34.901 42.8569 35.2083 42.0833 35.2083H40.625C40.2382 35.2083 39.8673 35.362 39.5938 35.6355C39.3203 35.909 39.1667 36.2799 39.1667 36.6667V41.0417C39.1667 41.4284 39.013 41.7994 38.7395 42.0729C38.466 42.3464 38.0951 42.5 37.7083 42.5H33.3333C32.9466 42.5 32.5756 42.3464 32.3021 42.0729C32.0286 41.7994 31.875 41.4284 31.875 41.0417V39.5833C31.875 38.8098 31.5677 38.0679 31.0207 37.5209C30.4737 36.974 29.7319 36.6667 28.9583 36.6667C28.1848 36.6667 27.4429 36.974 26.8959 37.5209C26.349 38.0679 26.0417 38.8098 26.0417 39.5833V41.0417C26.0417 41.4284 25.888 41.7994 25.6145 42.0729C25.341 42.3464 24.9701 42.5 24.5833 42.5H20.2083C19.8216 42.5 19.4506 42.3464 19.1771 42.0729C18.9036 41.7994 18.75 41.4284 18.75 41.0417V36.6667C18.75 36.2799 18.9036 35.909 19.1771 35.6355C19.4506 35.362 19.8216 35.2083 20.2083 35.2083H21.6667C22.4402 35.2083 23.1821 34.901 23.7291 34.3541C24.276 33.8071 24.5833 33.0652 24.5833 32.2917C24.5833 31.5181 24.276 30.7763 23.7291 30.2293C23.1821 29.6823 22.4402 29.375 21.6667 29.375H20.2083C19.8216 29.375 19.4506 29.2214 19.1771 28.9479C18.9036 28.6744 18.75 28.3034 18.75 27.9167V23.5417C18.75 23.1549 18.9036 22.784 19.1771 22.5105C19.4506 22.237 19.8216 22.0833 20.2083 22.0833Z" stroke="#027454" stroke-width="2.91667" stroke-linecap="round" stroke-linejoin="round"/>
</g>
<defs>
<clipPath id="clip0_133_2588">
<rect width="35" height="35" fill="white" transform="translate(12.5 12.5)"/>
</clipPath>
</defs>
</svg>
