<svg width="36" height="36" viewBox="0 0 36 36" fill="none" xmlns="http://www.w3.org/2000/svg">
<g clip-path="url(#clip0_2001_424)">
<path d="M8.20833 9.88338H12.5833C12.9701 9.88338 13.341 9.72974 13.6145 9.45625C13.888 9.18276 14.0417 8.81182 14.0417 8.42505V6.96672C14.0417 6.19317 14.349 5.4513 14.8959 4.90432C15.4429 4.35734 16.1848 4.05005 16.9583 4.05005C17.7319 4.05005 18.4737 4.35734 19.0207 4.90432C19.5677 5.4513 19.875 6.19317 19.875 6.96672V8.42505C19.875 8.81182 20.0286 9.18276 20.3021 9.45625C20.5756 9.72974 20.9466 9.88338 21.3333 9.88338H25.7083C26.0951 9.88338 26.466 10.037 26.7395 10.3105C27.013 10.584 27.1667 10.9549 27.1667 11.3417V15.7167C27.1667 16.1035 27.3203 16.4744 27.5938 16.7479C27.8673 17.0214 28.2382 17.175 28.625 17.175H30.0833C30.8569 17.175 31.5987 17.4823 32.1457 18.0293C32.6927 18.5763 33 19.3182 33 20.0917C33 20.8653 32.6927 21.6071 32.1457 22.1541C31.5987 22.7011 30.8569 23.0084 30.0833 23.0084H28.625C28.2382 23.0084 27.8673 23.162 27.5938 23.4355C27.3203 23.709 27.1667 24.0799 27.1667 24.4667V28.8417C27.1667 29.2285 27.013 29.5994 26.7395 29.8729C26.466 30.1464 26.0951 30.3 25.7083 30.3H21.3333C20.9466 30.3 20.5756 30.1464 20.3021 29.8729C20.0286 29.5994 19.875 29.2285 19.875 28.8417V27.3834C19.875 26.6098 19.5677 25.868 19.0207 25.321C18.4737 24.774 17.7319 24.4667 16.9583 24.4667C16.1848 24.4667 15.4429 24.774 14.8959 25.321C14.349 25.868 14.0417 26.6098 14.0417 27.3834V28.8417C14.0417 29.2285 13.888 29.5994 13.6145 29.8729C13.341 30.1464 12.9701 30.3 12.5833 30.3H8.20833C7.82156 30.3 7.45063 30.1464 7.17714 29.8729C6.90365 29.5994 6.75 29.2285 6.75 28.8417V24.4667C6.75 24.0799 6.90365 23.709 7.17714 23.4355C7.45063 23.162 7.82156 23.0084 8.20833 23.0084H9.66667C10.4402 23.0084 11.1821 22.7011 11.7291 22.1541C12.276 21.6071 12.5833 20.8653 12.5833 20.0917C12.5833 19.3182 12.276 18.5763 11.7291 18.0293C11.1821 17.4823 10.4402 17.175 9.66667 17.175H8.20833C7.82156 17.175 7.45063 17.0214 7.17714 16.7479C6.90365 16.4744 6.75 16.1035 6.75 15.7167V11.3417C6.75 10.9549 6.90365 10.584 7.17714 10.3105C7.45063 10.037 7.82156 9.88338 8.20833 9.88338Z" stroke="#6535E7" stroke-width="2.91667" stroke-linecap="round" stroke-linejoin="round"/>
</g>
<defs>
<clipPath id="clip0_2001_424">
<rect width="35" height="35" fill="white" transform="translate(0.5 0.300049)"/>
</clipPath>
</defs>
</svg>
