<svg width="20" height="19" viewBox="0 0 20 19" fill="none" xmlns="http://www.w3.org/2000/svg">
<path d="M10 16.8498C10.2406 16.8498 10.9281 16.6092 11.6156 15.1998C11.925 14.5811 12.2 13.8592 12.3719 12.9998H7.59375C7.8 13.8592 8.04062 14.5811 8.35 15.1998C9.07187 16.6092 9.725 16.8498 10 16.8498ZM7.31875 11.3498H12.6469C12.7156 10.8342 12.75 10.2842 12.75 9.6998C12.75 9.1498 12.7156 8.5998 12.6469 8.0498H7.31875C7.25 8.5998 7.25 9.1498 7.25 9.6998C7.25 10.2842 7.25 10.8342 7.31875 11.3498ZM7.59375 6.3998H12.3719C12.2 5.5748 11.925 4.85293 11.6156 4.23418C10.9281 2.8248 10.2406 2.5498 10 2.5498C9.725 2.5498 9.07187 2.8248 8.35 4.23418C8.04062 4.85293 7.8 5.5748 7.59375 6.3998ZM14.2969 8.0498C14.3656 8.5998 14.3656 9.1498 14.3656 9.6998C14.3656 10.2842 14.3656 10.8342 14.2969 11.3498L16.9438 11.3498C17.0813 10.8342 17.15 10.2842 17.15 9.6998C17.15 9.1498 17.0813 8.5998 16.9438 8.0498L14.2969 8.0498ZM16.325 6.3998C15.6031 4.99043 14.4 3.85605 12.9563 3.20293C13.4375 4.09668 13.8156 5.19668 14.0563 6.3998L16.325 6.3998ZM5.90937 6.3998C6.15 5.19668 6.52812 4.09668 7.00937 3.20293C5.56562 3.85605 4.3625 4.99043 3.64062 6.3998H5.90937ZM3.02187 8.0498C2.91875 8.5998 2.85 9.1498 2.85 9.6998C2.85 10.2842 2.88437 10.8342 3.02187 11.3498L5.66875 11.3498C5.6 10.8342 5.6 10.2842 5.6 9.6998C5.6 9.1498 5.6 8.5998 5.66875 8.0498L3.02187 8.0498ZM12.9563 16.2311C14.4 15.5779 15.6031 14.4436 16.325 12.9998L14.0563 12.9998C13.8156 14.2373 13.4375 15.3373 12.9563 16.2311ZM7.00937 16.2311C6.52812 15.3373 6.15 14.2373 5.90937 12.9998H3.64062C4.3625 14.4436 5.56562 15.5779 7.00937 16.2311ZM10 18.4998C6.8375 18.4998 3.95 16.8498 2.36875 14.0998C0.7875 11.3842 0.7875 8.0498 2.36875 5.2998C3.95 2.58418 6.8375 0.899804 10 0.899804C13.1281 0.899804 16.0156 2.58418 17.5969 5.2998C19.1781 8.0498 19.1781 11.3842 17.5969 14.0998C16.0156 16.8498 13.1281 18.4998 10 18.4998Z" fill="white"/>
</svg>
