<svg width="250" height="114" viewBox="0 0 250 114" fill="none" xmlns="http://www.w3.org/2000/svg">
<g clip-path="url(#clip0_143_1242)">
<rect x="13.4586" width="244" height="52" rx="12" transform="rotate(15 13.4586 0)" fill="#DDFC9D" fill-opacity="0.12"/>
<g clip-path="url(#clip1_143_1242)">
<path d="M29.398 23.1C29.6871 22.0209 30.8034 21.3414 31.9129 21.6831L38.0971 23.3402C38.8027 23.5292 39.4 23.9562 39.7646 24.5877L45.1121 33.8499C45.8717 35.1655 45.4157 36.8672 44.1001 37.6268L37.1009 41.6678C35.7852 42.4274 34.0835 41.9714 33.324 40.6558L27.9765 31.3936C27.6119 30.7621 27.5408 30.0313 27.7298 29.3257L29.398 23.1ZM33.6906 25.6738C32.9436 25.4736 32.1957 25.9404 32.0066 26.646C31.8064 27.3931 32.2318 28.1299 32.9789 28.3301C33.6845 28.5191 34.4627 28.1049 34.6629 27.3578C34.852 26.6522 34.3962 25.8628 33.6906 25.6738Z" fill="#DDFC9D"/>
</g>
<path d="M68.2106 43.4576L67.7121 45.318L66.3212 44.9453L65.7342 47.136L63.7173 46.5956L64.3043 44.4049L58.3233 42.8023L58.8218 40.9419L65.1876 33.9451L67.361 34.5275L60.9952 41.5243L64.8028 42.5445L65.6507 39.3802L67.6676 39.9206L66.8197 43.0849L68.2106 43.4576ZM74.2346 41.2889C76.4427 41.8805 78.0093 43.7538 77.3291 46.2923C76.6442 48.8481 74.264 49.6639 72.0211 49.0629C70.1781 48.569 68.7547 47.2745 68.5819 45.3461L70.5687 44.8163C70.5929 45.9781 71.2737 46.7755 72.5429 47.1156C73.8991 47.4789 75.0035 46.9736 75.3296 45.7565C75.6557 44.5394 74.9473 43.5669 73.6259 43.2129L70.079 42.2625L72.3001 35.8509L79.0809 37.6678L78.5778 39.5456L73.64 38.2225L72.7046 40.8789L74.2346 41.2889ZM82.1768 51.7841C79.1168 50.9642 78.0803 47.9471 79.0866 44.1916C80.0929 40.4361 82.499 38.3414 85.5591 39.1614C88.6191 39.9813 89.6556 42.9984 88.6493 46.7539C87.643 50.5094 85.2369 52.604 82.1768 51.7841ZM82.6986 49.8368C84.5068 50.3213 85.8998 49.0174 86.6498 46.2181C87.3999 43.4189 86.8455 41.5932 85.0373 41.1087C83.2465 40.6288 81.8362 41.9281 81.0861 44.7273C80.336 47.5266 80.9078 49.3569 82.6986 49.8368ZM96.4924 55.3777L94.2496 54.7767L91.7615 49.8053L90.6853 53.8217L88.8075 53.3185L92.0686 41.1479L93.9464 41.651L91.9851 48.9708L96.3877 46.0321L98.6827 46.6471L93.7163 49.8819L96.4924 55.3777ZM106.439 50.5701L105.963 52.3436L103.025 51.5562L102.238 54.4946L100.464 54.0194L101.252 51.081L98.3133 50.2937L98.7885 48.5203L101.727 49.3076L102.514 46.3693L104.288 46.8445L103.5 49.7828L106.439 50.5701ZM114.781 52.526C115.62 51.4834 116.797 51.333 117.892 51.6265L117.347 53.6607C116.136 53.243 114.539 53.4301 114.017 55.3774L112.843 59.7588L110.965 59.2557L113.295 50.5624L115.172 51.0655L114.781 52.526ZM125.715 53.8904L127.593 54.3935L125.263 63.0869L123.386 62.5837L123.721 61.3319C122.813 62.0763 121.639 62.3578 120.282 61.9945C117.918 61.3609 116.489 58.835 117.178 56.2617C117.873 53.6711 120.368 52.2155 122.733 52.8491C124.089 53.2124 124.966 54.0437 125.384 55.1248L125.715 53.8904ZM121.058 60.2828C122.623 60.7021 124.117 59.854 124.55 58.237C124.984 56.6201 124.113 55.1384 122.549 54.7191C120.984 54.2998 119.489 55.1479 119.056 56.7649C118.623 58.3818 119.493 59.8635 121.058 60.2828ZM131.07 53.9275C130.409 53.7505 130.019 53.0497 130.192 52.4064C130.369 51.7457 131.052 51.3512 131.713 51.5282C132.373 51.7052 132.768 52.3886 132.591 53.0493C132.419 53.6926 131.73 54.1046 131.07 53.9275ZM127.452 63.6733L129.781 54.98L131.659 55.4831L129.33 64.1764L127.452 63.6733ZM134.832 58.9049C134.408 60.4871 139.341 60.784 138.48 64.0006C138.014 65.7392 136.25 66.2728 134.372 65.7697C132.633 65.3038 131.591 64.186 131.37 62.785L133.238 62.2794C133.307 63.1364 133.877 63.7922 134.833 64.0484C135.668 64.272 136.385 64.1662 136.572 63.4707C136.986 61.9233 132.076 61.5394 132.91 58.4272C133.348 56.7929 135.031 56.1444 136.805 56.6196C138.231 57.0016 139.236 57.9791 139.537 59.2897L137.717 59.7525C137.586 58.9905 137.061 58.5145 136.348 58.3235C135.67 58.1418 135 58.279 134.832 58.9049ZM141.681 63.6844C141.613 65.1197 142.522 66.1087 143.913 66.4814C144.956 66.7609 145.864 66.5011 146.445 66.0044L147.75 67.3231C146.633 68.2911 145.138 68.6546 143.434 68.198C140.566 67.4293 139.232 64.9661 139.93 62.3581C140.62 59.7849 143.016 58.2839 145.746 59.0153C148.336 59.7095 149.551 62.2711 148.88 64.7748C148.81 65.0356 148.701 65.3044 148.601 65.5385L141.681 63.6844ZM142.073 62.1497L147.185 63.5193C147.325 61.9542 146.402 61.0174 145.272 60.7146C143.864 60.3372 142.684 60.9156 142.073 62.1497ZM159.468 59.2073L161.345 59.7105L158.084 71.8811L156.206 71.378L156.542 70.1262C155.634 70.8706 154.459 71.1521 153.103 70.7887C150.739 70.1552 149.31 67.6292 149.999 65.056C150.693 62.4654 153.189 61.0098 155.554 61.6434C156.91 62.0067 157.787 62.838 158.205 63.9191L159.468 59.2073ZM153.879 69.0771C155.443 69.4964 156.938 68.6483 157.371 67.0313C157.804 65.4144 156.934 63.9327 155.369 63.5134C153.805 63.0941 152.31 63.9422 151.877 65.5592C151.444 67.1761 152.314 68.6578 153.879 69.0771ZM172.012 64.2644C170.723 63.7886 169.858 64.0972 169.499 65.4359L169.453 65.6098L171.504 66.1595L171.02 67.9677L168.968 67.418L167.123 74.3031L165.245 73.8L167.09 66.9149L165.769 66.5608L166.253 64.7526L167.575 65.1067L167.621 64.9328C168.25 62.5856 169.935 61.5835 172.496 62.4562L172.012 64.2644ZM178.462 68.0239L180.34 68.5271L178.011 77.2204L176.133 76.7173L176.431 75.6045C175.615 76.3549 174.56 76.538 173.377 76.2212C171.43 75.6994 170.393 74.0053 170.999 71.7451L172.429 66.4074L174.307 66.9105L172.928 72.057C172.574 73.3783 173.152 74.2788 174.335 74.5956C175.569 74.9264 176.739 74.457 177.214 72.6836L178.462 68.0239ZM187.169 70.1147C189.116 70.6364 190.153 72.3305 189.548 74.5908L188.117 79.9285L186.24 79.4254L187.619 74.2789C187.973 72.9575 187.394 72.0571 186.212 71.7403C184.977 71.4095 183.808 71.8788 183.333 73.6523L182.084 78.3119L180.206 77.8088L182.536 69.1154L184.414 69.6186L184.115 70.7313C184.931 69.981 185.987 69.7979 187.169 70.1147ZM200.285 70.1445L202.163 70.6476L198.902 82.8183L197.024 82.3151L197.36 81.0633C196.452 81.8077 195.277 82.0892 193.921 81.7259C191.556 81.0923 190.128 78.5664 190.817 75.9931C191.511 73.4025 194.007 71.9469 196.372 72.5805C197.728 72.9439 198.604 73.7751 199.023 74.8562L200.285 70.1445ZM194.696 80.0142C196.261 80.4335 197.756 79.5854 198.189 77.9685C198.622 76.3515 197.752 74.8698 196.187 74.4505C194.622 74.0312 193.128 74.8793 192.695 76.4963C192.262 78.1132 193.132 79.595 194.696 80.0142ZM204.708 73.659C204.048 73.4819 203.658 72.7811 203.83 72.1378C204.007 71.4771 204.691 71.0826 205.351 71.2596C206.012 71.4366 206.407 72.12 206.23 72.7807C206.057 73.424 205.369 73.836 204.708 73.659ZM201.091 83.4047L203.42 74.7114L205.298 75.2145L202.969 83.9079L201.091 83.4047ZM212.111 76.798C214.059 77.3197 215.096 79.0138 214.49 81.2741L213.06 86.6118L211.182 86.1086L212.561 80.9622C212.915 79.6408 212.336 78.7404 211.154 78.4236C209.92 78.0928 208.75 78.5621 208.275 80.3356L207.027 84.9952L205.149 84.4921L207.478 75.7987L209.356 76.3019L209.058 77.4146C209.874 76.6643 210.929 76.4812 212.111 76.798ZM224.331 80.3144L226.174 80.8082L223.952 89.1017C223.202 91.9009 220.661 92.6179 218.384 92.0076C216.471 91.4952 215.184 90.3863 214.827 88.7997L216.695 88.2941C216.878 89.1442 217.362 89.9077 218.875 90.313C220.492 90.7463 221.703 90.1205 222.109 88.6078L222.393 87.5473C221.481 88.3091 220.301 88.608 218.962 88.2493C216.511 87.5924 215.117 85.0758 215.783 82.5895C216.449 80.1032 218.915 78.6209 221.366 79.2777C222.705 79.6365 223.577 80.4851 223.986 81.601L224.331 80.3144ZM219.694 86.5631C221.276 86.987 222.77 86.1389 223.189 84.5741C223.609 83.0093 222.739 81.5276 221.156 81.1037C219.574 80.6797 218.08 81.5279 217.66 83.0927C217.241 84.6575 218.111 86.1392 219.694 86.5631Z" fill="#DDFC9D"/>
</g>
<defs>
<clipPath id="clip0_143_1242">
<rect x="13.4586" width="244" height="52" rx="12" transform="rotate(15 13.4586 0)" fill="white"/>
</clipPath>
<clipPath id="clip1_143_1242">
<rect width="30" height="30" fill="white" transform="translate(26.0664 14.7663) rotate(15)"/>
</clipPath>
</defs>
</svg>
