<svg width="338" height="132" viewBox="0 0 338 132" fill="none" xmlns="http://www.w3.org/2000/svg">
<g clip-path="url(#clip0_143_1252)">
<rect y="81.0438" width="335" height="52" rx="12" transform="rotate(-14 0 81.0438)" fill="#EDCC99" fill-opacity="0.12"/>
<g clip-path="url(#clip1_143_1252)">
<path d="M39.3268 88.4328L37.9876 96.7379L42.6572 95.5736C43.1992 95.4385 43.7826 95.6473 44.1158 96.0956C44.4178 96.596 44.4382 97.2109 44.1148 97.6901L35.7701 109.69C35.3633 110.19 34.7066 110.398 34.1128 110.148C33.5293 109.939 33.1545 109.324 33.2592 108.678L34.5984 100.373L29.9705 101.527C29.3868 101.672 28.8033 101.463 28.5118 101.005C28.1682 100.515 28.1478 99.8998 28.4711 99.4206L36.8159 87.4203C37.2226 86.9204 37.8793 86.7124 38.4732 86.9628C39.0567 87.1716 39.4314 87.7867 39.3268 88.4328Z" fill="#FFBF9F"/>
</g>
<path d="M65.4861 97.9371C63.0758 98.538 61.1205 97.764 60.0214 96.1088L61.4979 94.6647C62.2437 95.7958 63.3915 96.3816 65.0507 95.9679C66.6401 95.5716 67.1427 94.6857 66.9206 93.795C66.6506 92.7121 65.5986 92.5849 63.6428 92.4788C61.5954 92.3771 59.5699 92.1401 58.9951 89.8347C58.4334 87.5817 59.9843 85.8407 62.0452 85.3269C64.0537 84.8261 65.8039 85.5214 66.9773 86.954L65.527 88.3545C64.8465 87.4853 63.8952 86.9434 62.5329 87.283C61.3627 87.5748 60.7598 88.3558 60.9905 89.2815C61.2257 90.2246 62.007 90.4565 63.9278 90.5712C66.1149 90.7123 68.3151 90.8316 68.9204 93.2593C69.4778 95.4948 68.036 97.3013 65.4861 97.9371ZM76.3468 85.7125L78.233 85.2422L80.4103 93.9749L78.5241 94.4452L78.2105 93.1876C77.7776 94.2788 76.8865 95.0946 75.5242 95.4343C73.149 96.0265 70.6746 94.51 70.0301 91.9252C69.3813 89.3228 70.8584 86.8397 73.2337 86.2475C74.596 85.9078 75.7658 86.2098 76.6559 86.9525L76.3468 85.7125ZM75.3726 93.5613C76.9445 93.1694 77.8404 91.7031 77.4354 90.0788C77.0304 88.4545 75.551 87.5805 73.9792 87.9724C72.4073 88.3643 71.5114 89.8306 71.9164 91.4549C72.3214 93.0791 73.8008 93.9532 75.3726 93.5613ZM86.3524 83.2178L88.4133 82.704L87.1848 92.2858L85.0017 92.8301L79.4186 84.9466L81.4795 84.4327L85.5794 90.4599L86.3524 83.2178ZM92.0401 87.2908C92.6767 88.5791 93.9512 89.0033 95.3484 88.655C96.3963 88.3937 97.0647 87.7262 97.3315 87.0104L99.1123 87.531C98.605 88.919 97.4737 89.9617 95.7621 90.3884C92.8803 91.1069 90.5194 89.5993 89.8662 86.9795C89.2217 84.3946 90.5898 81.9202 93.3318 81.2365C95.9341 80.5876 98.2382 82.2393 98.8652 84.7543C98.9305 85.0163 98.9653 85.3045 98.9913 85.5577L92.0401 87.2908ZM91.6394 85.7582L96.7743 84.478C96.1378 83.0413 94.8763 82.6694 93.7411 82.9524C92.3264 83.3052 91.5748 84.383 91.6394 85.7582ZM105.426 74.752L107.312 74.2817L110.361 86.5074L108.474 86.9777L108.161 85.7202C107.728 86.8113 106.837 87.6271 105.475 87.9668C103.099 88.559 100.625 87.0426 99.9804 84.4577C99.3316 81.8554 100.809 79.3723 103.184 78.78C104.546 78.4404 105.716 78.7424 106.606 79.4851L105.426 74.752ZM105.323 86.0938C106.895 85.7019 107.791 84.2356 107.386 82.6114C106.981 80.9871 105.501 80.113 103.929 80.5049C102.358 80.8969 101.462 82.3631 101.867 83.9874C102.272 85.6117 103.751 86.4858 105.323 86.0938ZM119.856 76.4599C121.633 76.4435 123.247 77.3395 123.722 79.2432C124.362 81.8106 122.676 83.678 120.423 84.2398C118.624 84.6883 116.795 84.2724 115.687 82.7306L117.15 81.3084C117.757 82.2517 118.713 82.5885 119.935 82.2837C121.315 81.9397 122.018 80.9666 121.714 79.744C121.409 78.5214 120.335 78.01 118.955 78.354L118.501 78.4672L117.397 77.4624L119.168 73.3293L114.051 74.6051L113.58 72.7189L121.091 70.8464L121.517 72.558L119.856 76.4599ZM130.815 81.6486C127.741 82.415 125.372 80.2787 124.432 76.5062C123.491 72.7337 124.58 69.7352 127.654 68.9688C130.728 68.2024 133.097 70.3387 134.038 74.1112C134.978 77.8837 133.889 80.8822 130.815 81.6486ZM130.328 79.6925C132.144 79.2396 132.73 77.4239 132.029 74.612C131.328 71.8001 129.958 70.472 128.142 70.9249C126.343 71.3734 125.739 73.1935 126.44 76.0055C127.141 78.8174 128.529 80.141 130.328 79.6925ZM141.816 78.9057C138.743 79.6722 136.373 77.5359 135.433 73.7633C134.492 69.9908 135.581 66.9923 138.655 66.2259C141.729 65.4595 144.098 67.5958 145.039 71.3683C145.979 75.1408 144.89 78.1393 141.816 78.9057ZM141.329 76.9496C143.145 76.4968 143.731 74.681 143.03 71.8691C142.329 69.0572 140.959 67.7292 139.143 68.182C137.344 68.6306 136.74 70.4507 137.441 73.2626C138.142 76.0745 139.53 77.3982 141.329 76.9496ZM154.159 68.1484L154.603 69.9299L151.651 70.6658L152.387 73.6174L150.606 74.0616L149.87 71.1099L146.918 71.8459L146.474 70.0644L149.425 69.3285L148.69 66.3768L150.471 65.9327L151.207 68.8843L154.159 68.1484ZM164.688 63.4454C166.644 62.9577 168.372 63.9367 168.938 66.2072L170.275 71.569L168.389 72.0393L167.1 66.8696C166.769 65.5422 165.826 65.0352 164.639 65.3313C163.399 65.6405 162.604 66.6179 163.048 68.3993L164.215 73.0801L162.329 73.5503L159.28 61.3246L161.167 60.8543L162.316 65.4652C162.666 64.4133 163.5 63.7415 164.688 63.4454ZM172.381 63.3267C172.609 62.0085 173.565 61.3062 174.666 61.0319L175.175 63.0753C173.913 63.2972 172.607 64.2349 173.095 66.1911L174.193 70.5923L172.306 71.0626L170.129 62.33L172.015 61.8597L172.381 63.3267ZM178.087 62.9059C178.483 64.4953 182.942 62.3633 183.747 65.5944C184.183 67.3409 182.898 68.6629 181.012 69.1332C179.266 69.5686 177.812 69.0962 176.94 67.9781L178.329 66.63C178.804 67.3462 179.62 67.6436 180.581 67.4041C181.419 67.1951 181.996 66.7545 181.822 66.0559C181.434 64.5015 176.954 66.5462 176.174 63.4199C175.765 61.7781 176.923 60.3949 178.704 59.9508C180.136 59.5937 181.489 59.9613 182.388 60.9616L181.021 62.2486C180.537 61.6458 179.847 61.4838 179.131 61.6624C178.45 61.8322 177.93 62.2772 178.087 62.9059ZM194.564 65.7543C192.014 66.3901 189.452 64.8954 188.808 62.3105C188.159 59.7082 189.724 57.2033 192.274 56.5675C194.841 55.9274 197.381 57.409 198.03 60.0113C198.674 62.5962 197.131 65.1142 194.564 65.7543ZM194.107 63.9204C195.644 63.5372 196.54 62.0709 196.143 60.4816C195.747 58.8923 194.268 58.0182 192.731 58.4014C191.194 58.7846 190.298 60.2509 190.694 61.8402C191.09 63.4296 192.57 64.3036 194.107 63.9204ZM202.441 52.2516C201.083 52.4603 200.476 53.1497 200.811 54.4945L200.855 54.6692L202.916 54.1554L203.368 55.9718L201.307 56.4856L203.032 63.4019L201.146 63.8722L199.421 56.9559L198.094 57.2868L197.641 55.4704L198.968 55.1395L198.925 54.9648C198.337 52.607 199.325 50.9138 201.988 50.4352L202.441 52.2516ZM214.431 47.574L216.317 47.1037L219.365 59.3295L217.479 59.7998L217.166 58.5423C216.733 59.6334 215.842 60.4492 214.479 60.7889C212.104 61.3811 209.63 59.8646 208.985 57.2798C208.336 54.6774 209.814 52.1943 212.189 51.6021C213.551 51.2624 214.721 51.5644 215.611 52.3071L214.431 47.574ZM214.328 58.9159C215.9 58.524 216.795 57.0577 216.39 55.4334C215.986 53.8092 214.506 52.9351 212.934 53.327C211.362 53.7189 210.466 55.1852 210.871 56.8095C211.276 58.4338 212.756 59.3078 214.328 58.9159ZM222.16 54.8482C222.797 56.1365 224.071 56.5608 225.468 56.2124C226.516 55.9511 227.185 55.2836 227.452 54.5678L229.232 55.0885C228.725 56.4764 227.594 57.5191 225.882 57.9458C223 58.6643 220.639 57.1567 219.986 54.5369C219.342 51.952 220.71 49.4776 223.452 48.7939C226.054 48.1451 228.358 49.7967 228.985 52.3117C229.051 52.5737 229.085 52.8619 229.111 53.1151L222.16 54.8482ZM221.76 53.3156L226.894 52.0354C226.258 50.5987 224.996 50.2268 223.861 50.5099C222.446 50.8626 221.695 51.9404 221.76 53.3156ZM235.132 46.123L237.193 45.6091L235.964 55.1909L233.781 55.7353L228.198 47.8517L230.259 47.3379L234.359 53.3651L235.132 46.123ZM240.819 50.196C241.456 51.4842 242.73 51.9085 244.128 51.5601C245.176 51.2989 245.844 50.6313 246.111 49.9155L247.892 50.4362C247.384 51.8241 246.253 52.8668 244.541 53.2936C241.66 54.0121 239.299 52.5044 238.646 49.8846C238.001 47.2998 239.369 44.8253 242.111 44.1416C244.713 43.4928 247.017 45.1445 247.645 47.6595C247.71 47.9215 247.745 48.2096 247.771 48.4628L240.819 50.196ZM240.419 48.6634L245.554 47.3831C244.917 45.9464 243.656 45.5745 242.52 45.8576C241.106 46.2103 240.354 47.2881 240.419 48.6634ZM250.389 51.5945L247.21 38.8448L249.096 38.3745L252.275 51.1242L250.389 51.5945ZM258.643 49.7775C256.093 50.4133 253.532 48.9186 252.887 46.3338C252.238 43.7314 253.803 41.2265 256.353 40.5908C258.92 39.9506 261.46 41.4322 262.109 44.0345C262.753 46.6194 261.211 49.1374 258.643 49.7775ZM258.186 47.9437C259.723 47.5605 260.619 46.0942 260.223 44.5048C259.826 42.9155 258.347 42.0414 256.81 42.4246C255.273 42.8078 254.377 44.2741 254.774 45.8635C255.17 47.4528 256.649 48.3269 258.186 47.9437ZM267.612 37.7836C269.987 37.1913 272.462 38.7078 273.106 41.2926C273.755 43.895 272.278 46.3781 269.903 46.9703C268.54 47.31 267.37 47.008 266.48 46.2653L267.66 50.9984L265.774 51.4687L262.726 39.243L264.612 38.7727L264.926 40.0302C265.359 38.939 266.25 38.1232 267.612 37.7836ZM269.157 45.2454C270.729 44.8535 271.625 43.3872 271.22 41.7629C270.815 40.1387 269.335 39.2646 267.764 39.6565C266.192 40.0484 265.296 41.5147 265.701 43.139C266.106 44.7633 267.585 45.6373 269.157 45.2454ZM283.206 33.8954C285.18 33.4033 286.847 34.4347 287.391 36.6179L288.741 42.0321L286.855 42.5024L285.536 37.2104C285.231 35.9878 284.397 35.4722 283.367 35.7291C282.249 36.0078 281.642 36.9198 282.038 38.5092L283.257 43.3994L281.371 43.8697L280.052 38.5777C279.747 37.3552 278.966 36.8264 277.935 37.0834C276.87 37.349 276.175 38.2828 276.571 39.8721L277.791 44.7624L275.904 45.2327L273.727 36.5001L275.613 36.0298L275.875 37.0777C276.22 36.0825 276.971 35.45 278.054 35.18C279.189 34.897 280.154 35.1944 280.878 35.9414C281.228 34.8895 282.036 34.1872 283.206 33.8954ZM291.356 37.5957C291.993 38.884 293.267 39.3082 294.665 38.9599C295.713 38.6986 296.381 38.0311 296.648 37.3153L298.428 37.8359C297.921 39.2239 296.79 40.2665 295.078 40.6933C292.196 41.4118 289.836 39.9042 289.182 37.2844C288.538 34.6995 289.906 32.225 292.648 31.5414C295.25 30.8925 297.554 32.5442 298.181 35.0592C298.247 35.3212 298.281 35.6094 298.307 35.8626L291.356 37.5957ZM290.956 36.0631L296.09 34.7829C295.454 33.3462 294.193 32.9743 293.057 33.2573C291.643 33.6101 290.891 34.6879 290.956 36.0631ZM303.285 28.8893C305.241 28.4016 306.969 29.3806 307.535 31.6511L308.872 37.0129L306.986 37.4832L305.697 32.3135C305.366 30.9861 304.423 30.4791 303.236 30.7752C301.996 31.0844 301.201 32.0618 301.645 33.8433L302.812 38.524L300.925 38.9943L298.748 30.2616L300.634 29.7913L300.913 30.9091C301.263 29.8572 302.097 29.1854 303.285 28.8893ZM314.052 28.3753L311.886 28.9153L312.931 33.107C313.21 34.2248 313.939 34.0244 315.354 33.5975L315.776 35.2916C312.964 36.3638 311.611 35.8478 311.045 33.5773L310 29.3856L308.393 29.7862L307.94 27.9698L309.547 27.5692L309.076 25.6829L310.823 24.6538L311.433 27.0989L313.599 26.5589L314.052 28.3753Z" fill="#FFBF9F"/>
</g>
<defs>
<clipPath id="clip0_143_1252">
<rect y="81.0438" width="335" height="52" rx="12" transform="rotate(-14 0 81.0438)" fill="white"/>
</clipPath>
<clipPath id="clip1_143_1252">
<rect width="30" height="30" fill="white" transform="translate(18.1859 87.8463) rotate(-14)"/>
</clipPath>
</defs>
</svg>
