<svg width="241" height="77" viewBox="0 0 241 77" fill="none" xmlns="http://www.w3.org/2000/svg">
<g clip-path="url(#clip0_143_1247)">
<rect x="5.43549" width="236" height="52" rx="12" transform="rotate(6 5.43549 0)" fill="#D0D2F7" fill-opacity="0.12"/>
<g clip-path="url(#clip1_143_1247)">
<path d="M24.4406 29.8336C23.2844 28.5023 22.7376 26.7166 22.9262 24.9218L22.9487 24.7082C23.2631 21.7168 25.6693 19.3774 28.6673 19.2173C30.6689 19.082 32.5673 19.9296 33.8338 21.4453L34.2927 22.012L34.8594 21.5531C36.3706 20.3293 38.4464 19.8994 40.3335 20.4434C43.2327 21.2234 45.1426 24.0165 44.8282 27.0078L44.8057 27.2215C44.6171 29.0163 43.6682 30.6448 42.2605 31.7065L33.7667 38.1155C33.4361 38.3832 32.9953 38.4665 32.5679 38.4216C32.0979 38.3722 31.684 38.1991 31.4163 37.8685L24.4406 29.8336Z" fill="#C8B4FF"/>
</g>
<path d="M63.2878 25.5874C66.7428 25.9505 68.995 28.9745 68.6262 32.4832C68.2593 35.9739 65.4257 38.4815 61.9707 38.1184L57.0478 37.6009L58.3649 25.07L63.2878 25.5874ZM62.1777 36.1492C64.5586 36.3994 66.3795 34.7447 66.6392 32.2743C66.9007 29.786 65.4617 27.8068 63.0808 27.5565L60.2166 27.2555L59.3135 35.8482L62.1777 36.1492ZM71.6247 35.4408C71.7822 36.8691 72.8348 37.7037 74.2669 37.8542C75.341 37.9671 76.1973 37.5684 76.6928 36.987L78.1882 38.0854C77.2368 39.2161 75.8171 39.809 74.0627 39.6246C71.109 39.3141 69.4061 37.0899 69.6884 34.4047C69.9668 31.7553 72.0987 29.898 74.9092 30.1934C77.5765 30.4737 79.1766 32.8138 78.9057 35.3916C78.8775 35.6601 78.8116 35.9428 78.7494 36.1896L71.6247 35.4408ZM71.7724 33.8636L77.0354 34.4168C76.9287 32.849 75.8705 32.0681 74.7069 31.9458C73.2569 31.7934 72.182 32.5492 71.7724 33.8636ZM82.2063 33.6933C82.0351 35.3223 86.9541 34.8439 86.606 38.1556C86.4178 39.9458 84.7588 40.7488 82.8254 40.5456C81.0353 40.3574 79.8311 39.4164 79.3937 38.0673L81.1601 37.2756C81.3619 38.1112 82.0271 38.6698 83.0117 38.7733C83.871 38.8636 84.5634 38.6468 84.6387 37.9308C84.8062 36.3376 79.8966 36.7265 80.2334 33.5221C80.4103 31.8394 81.9713 30.9356 83.7972 31.1275C85.2651 31.2818 86.4109 32.09 86.9133 33.3374L85.1883 34.0791C84.9395 33.3471 84.3468 32.959 83.6128 32.8819C82.9147 32.8085 82.274 33.0489 82.2063 33.6933ZM89.9838 30.6556C89.3036 30.5841 88.8089 29.953 88.8785 29.2906C88.95 28.6104 89.5632 28.1138 90.2435 28.1852C90.9237 28.2567 91.4204 28.87 91.3489 29.5503C91.2793 30.2126 90.6641 30.7271 89.9838 30.6556ZM87.9353 40.8473L88.8761 31.8966L90.8094 32.0998L89.8687 41.0505L87.9353 40.8473ZM100.179 33.0846L102.077 33.2841L101.179 41.823C100.876 44.7052 98.4794 45.8107 96.1343 45.5642C94.1652 45.3572 92.7207 44.4634 92.1194 42.9522L93.8858 42.1605C94.1987 42.9717 94.7971 43.65 96.3545 43.8136C98.0194 43.9886 99.1178 43.181 99.2815 41.6236L99.3963 40.5316C98.6144 41.4268 97.4961 41.9065 96.1177 41.7616C93.5936 41.4964 91.8229 39.2288 92.092 36.6689C92.3611 34.109 94.5645 32.2592 97.0886 32.5245C98.467 32.6694 99.4611 33.3712 100.04 34.4093L100.179 33.0846ZM96.5763 39.9818C98.2053 40.153 99.5487 39.0816 99.718 37.4705C99.8873 35.8593 98.7961 34.532 97.1671 34.3608C95.538 34.1896 94.1947 35.261 94.0254 36.8722C93.856 38.4833 94.9473 39.8106 96.5763 39.9818ZM109.063 33.783C111.067 33.9938 112.357 35.5048 112.112 37.832L111.534 43.3277L109.601 43.1245L110.158 37.8257C110.301 36.4652 109.589 35.6663 108.371 35.5384C107.1 35.4048 106.019 36.0513 105.827 37.8772L105.323 42.6748L103.389 42.4716L104.33 33.5209L106.263 33.7241L106.143 34.8698C106.832 34.001 107.845 33.6551 109.063 33.783ZM115.522 40.0545C115.679 41.4828 116.732 42.3174 118.164 42.468C119.238 42.5808 120.094 42.1822 120.59 41.6008L122.085 42.6991C121.134 43.8299 119.714 44.4227 117.96 44.2383C115.006 43.9279 113.303 41.7037 113.585 39.0185C113.864 36.3691 115.996 34.5117 118.806 34.8071C121.473 35.0875 123.074 37.4276 122.803 40.0054C122.774 40.2739 122.708 40.5565 122.646 40.8034L115.522 40.0545ZM115.669 38.4773L120.932 39.0305C120.826 37.4628 119.767 36.6819 118.604 36.5596C117.154 36.4072 116.079 37.163 115.669 38.4773ZM132.389 32.8502L134.322 33.0534L133.005 45.5844L131.072 45.3812L131.207 44.0923C130.427 44.9695 129.311 45.4314 127.915 45.2846C125.48 45.0287 123.674 42.7575 123.952 40.1081C124.232 37.4408 126.47 35.6126 128.904 35.8685C130.301 36.0152 131.297 36.6991 131.879 37.7015L132.389 32.8502ZM128.413 43.4728C130.024 43.6421 131.367 42.5707 131.542 40.9058C131.717 39.241 130.626 37.9137 129.015 37.7443C127.404 37.575 126.06 38.6464 125.885 40.3113C125.71 41.9761 126.802 43.3034 128.413 43.4728ZM144.349 38.8855C146.623 39.1244 148.463 40.7296 148.188 43.3432C147.912 45.9747 145.689 47.1527 143.379 46.91C141.482 46.7106 139.873 45.6547 139.401 43.777L141.28 42.9429C141.486 44.0867 142.283 44.7677 143.59 44.9051C144.986 45.0518 145.998 44.3799 146.13 43.1268C146.262 41.8737 145.41 41.024 144.049 40.881L140.397 40.4972L141.588 33.8171L148.57 34.5509L148.366 36.4842L143.282 35.9499L142.774 38.7199L144.349 38.8855ZM153.836 48.009C150.685 47.6779 149.189 44.8601 149.596 40.9934C150.002 37.1267 152.051 34.6815 155.202 35.0126C158.352 35.3438 159.848 38.1615 159.442 42.0282C159.035 45.895 156.986 48.3402 153.836 48.009ZM154.046 46.0041C155.908 46.1998 157.08 44.694 157.383 41.8119C157.686 38.9297 156.853 37.2133 154.991 37.0176C153.147 36.8238 151.957 38.3277 151.654 41.2098C151.352 44.0919 152.203 45.8103 154.046 46.0041ZM169.113 42.1217L168.921 43.9476L165.895 43.6296L165.577 46.655L163.751 46.4631L164.069 43.4377L161.044 43.1197L161.236 41.2938L164.261 41.6118L164.579 38.5864L166.405 38.7784L166.087 41.8037L169.113 42.1217ZM188.379 38.735L187.062 51.2659L185.003 51.0496L185.942 42.1168L181.467 48.0173L181.216 47.991L178.067 41.271L177.126 50.2217L175.068 50.0053L176.385 37.4743L178.605 37.7077L181.723 44.3701L186.177 38.5035L188.379 38.735ZM192.747 51.8635L189.714 38.8753L191.969 39.1123L194.243 49.505L198.646 39.8141L200.884 40.0493L195.217 52.1231L192.747 51.8635ZM206.841 40.6755C209.204 40.9238 210.806 42.9021 210.562 45.2293C210.319 47.5386 208.339 49.1585 205.976 48.9101L203.416 48.6411L202.964 52.9374L200.906 52.721L202.223 40.19L206.841 40.6755ZM206.179 46.9768C207.396 47.1047 208.371 46.266 208.503 45.0129C208.637 43.7419 207.856 42.7368 206.638 42.6088L204.078 42.3398L203.619 46.7077L206.179 46.9768ZM215.262 54.4652C212.791 54.2055 211.219 52.8095 210.752 50.8781L212.633 50.0261C212.947 51.3442 213.826 52.2871 215.526 52.4659C217.155 52.6371 217.931 51.9765 218.026 51.0635C218.143 49.9537 217.198 49.4742 215.397 48.7057C213.507 47.9099 211.685 46.9944 211.933 44.6314C212.176 42.3221 214.229 41.2166 216.341 41.4387C218.4 41.655 219.807 42.907 220.42 44.6546L218.578 45.4745C218.236 44.425 217.527 43.5904 216.131 43.4436C214.931 43.3176 214.097 43.8453 213.998 44.7941C213.896 45.7608 214.551 46.2459 216.317 47.0106C218.324 47.8912 220.35 48.7558 220.089 51.2441C219.848 53.5355 217.875 54.7399 215.262 54.4652Z" fill="#C8B4FF"/>
</g>
<defs>
<clipPath id="clip0_143_1247">
<rect x="5.43549" width="236" height="52" rx="12" transform="rotate(6 5.43549 0)" fill="white"/>
</clipPath>
<clipPath id="clip1_143_1247">
<rect width="30" height="30" fill="white" transform="translate(20.198 12.6122) rotate(6)"/>
</clipPath>
</defs>
</svg>
