<svg width="60" height="60" viewBox="0 0 60 60" fill="none" xmlns="http://www.w3.org/2000/svg">
<rect width="60" height="60" rx="30" fill="#027454" fill-opacity="0.1"/>
<g clip-path="url(#clip0_133_2581)">
<path d="M16.875 30C16.875 31.7236 17.2145 33.4303 17.8741 35.0227C18.5337 36.6151 19.5005 38.062 20.7192 39.2808C21.938 40.4995 23.3849 41.4663 24.9773 42.1259C26.5697 42.7855 28.2764 43.125 30 43.125C31.7236 43.125 33.4303 42.7855 35.0227 42.1259C36.6151 41.4663 38.062 40.4995 39.2808 39.2808C40.4995 38.062 41.4663 36.6151 42.1259 35.0227C42.7855 33.4303 43.125 31.7236 43.125 30C43.125 28.2764 42.7855 26.5697 42.1259 24.9773C41.4663 23.3849 40.4995 21.938 39.2808 20.7192C38.062 19.5005 36.6151 18.5337 35.0227 17.8741C33.4303 17.2145 31.7236 16.875 30 16.875C28.2764 16.875 26.5697 17.2145 24.9773 17.8741C23.3849 18.5337 21.938 19.5005 20.7192 20.7192C19.5005 21.938 18.5337 23.3849 17.8741 24.9773C17.2145 26.5697 16.875 28.2764 16.875 30Z" stroke="#027454" stroke-width="2.91667" stroke-linecap="round" stroke-linejoin="round"/>
<path d="M30 30L34.375 32.9167" stroke="#027454" stroke-width="2.91667" stroke-linecap="round" stroke-linejoin="round"/>
<path d="M30 22.7085V30.0002" stroke="#027454" stroke-width="2.91667" stroke-linecap="round" stroke-linejoin="round"/>
</g>
<defs>
<clipPath id="clip0_133_2581">
<rect width="35" height="35" fill="white" transform="translate(12.5 12.5)"/>
</clipPath>
</defs>
</svg>
