<svg width="60" height="24" viewBox="0 0 60 24" fill="none" xmlns="http://www.w3.org/2000/svg">
<g clip-path="url(#clip0_1_39614)">
<mask id="mask0_1_39614" style="mask-type:luminance" maskUnits="userSpaceOnUse" x="0" y="0" width="60" height="24">
<path d="M59.8618 0.268311H0.861816V23.3734H59.8618V0.268311Z" fill="white"/>
</mask>
<g mask="url(#mask0_1_39614)">
<path d="M10.3521 16.0491C9.99889 16.1517 9.63561 16.1993 9.26735 16.1918C8.80885 16.2193 8.35791 16.0741 7.99966 15.7862C7.66143 15.4258 7.49357 14.9351 7.54368 14.442V9.19519H11.4344V6.03858H7.54368V1.88818L3.10176 3.11478V6.03858H0.854492V9.19768H3.09925V15.1754C3.0742 16.0265 3.28715 16.8677 3.71304 17.6036C4.11139 18.2169 4.69764 18.685 5.3866 18.9353C6.21084 19.2307 7.0827 19.3734 7.95956 19.3534C8.646 19.3534 9.33247 19.2658 9.99637 19.093C10.5851 18.9528 11.1438 18.705 11.6424 18.3621L11.1714 15.621C10.9283 15.8113 10.6503 15.9564 10.3521 16.0491Z" fill="#101011"/>
<path d="M19.1406 16.2442C18.7798 16.2817 18.4216 16.1465 18.1735 15.8787C17.9481 15.5107 17.8479 15.0801 17.8879 14.6521V0.503662H13.446V15.2253C13.446 16.6873 13.7592 17.7386 14.3855 18.3844C15.0119 19.0278 16.0215 19.3507 17.4169 19.3507C17.918 19.3482 18.419 19.2881 18.9051 19.168C19.336 19.0754 19.7494 18.9176 20.1327 18.6974L20.4183 16.0364C20.1753 16.1065 19.9648 16.159 19.792 16.1941C19.579 16.2291 19.3585 16.2467 19.1406 16.2442Z" fill="#101011"/>
<path d="M22.9564 9.87354C23.49 10.3141 24.1714 10.5369 24.8629 10.4994C25.5593 10.5419 26.2458 10.3166 26.7819 9.87354C27.2554 9.42797 27.5085 8.79966 27.4734 8.1513C27.511 7.49545 27.2579 6.85462 26.7819 6.40152C26.2433 5.95846 25.5593 5.73317 24.8629 5.77573C24.1714 5.73817 23.49 5.96095 22.9564 6.40152C22.4728 6.84961 22.2148 7.49045 22.2524 8.1513C22.2173 8.80215 22.4754 9.43297 22.9564 9.87354Z" fill="#101011"/>
<path d="M26.3759 15.0428C25.9049 14.7324 25.3462 14.5771 24.7825 14.5997C24.3391 14.5972 23.9032 14.6948 23.5023 14.8876C23.109 15.0728 22.7758 15.3607 22.5353 15.7236C22.2772 16.1392 22.1495 16.6198 22.1695 17.1079C22.1519 17.5335 22.2647 17.9515 22.4952 18.3095C22.6981 18.6099 22.9787 18.8527 23.3044 19.0129C23.6 19.1631 23.9257 19.2432 24.2589 19.2482C24.4443 19.2532 24.6272 19.2357 24.8076 19.1956C24.9303 19.1681 25.0456 19.1155 25.1458 19.0379L25.276 19.1155C25.1032 19.5061 24.8702 19.8665 24.5846 20.1844C24.2639 20.5449 23.9056 20.8703 23.5123 21.1507C23.0965 21.4485 22.6455 21.6964 22.167 21.8816L23.9683 23.2133C24.6372 22.9155 25.246 22.4949 25.7571 21.9717C26.3082 21.4185 26.7592 20.7752 27.0899 20.0668C27.4256 19.3608 27.5985 18.5898 27.5985 17.8088C27.606 17.2581 27.5033 16.7124 27.2978 16.2043C27.1124 15.7361 26.7918 15.3331 26.3759 15.0428Z" fill="#101011"/>
<path d="M39.1507 8.26883C38.9077 7.75064 38.5769 7.27252 38.1712 6.85949C37.407 6.12104 36.3724 5.72803 35.3101 5.7756C34.2979 5.75555 33.3007 6.03841 32.449 6.58415C31.5948 7.15737 30.9234 7.96343 30.5174 8.90715C30.0239 10.0787 29.7884 11.3428 29.8259 12.6145C29.7934 13.8586 30.0213 15.0927 30.4925 16.2442C30.8781 17.1829 31.5321 17.9865 32.3738 18.5547C33.2182 19.0954 34.2053 19.3733 35.2075 19.3507C35.9865 19.3633 36.7532 19.178 37.4422 18.8126C38.0985 18.4546 38.6546 17.9389 39.0632 17.3106C39.2158 17.0728 39.3487 16.8225 39.4613 16.5646L39.6241 19.0854H43.5953V0.501221H39.1532V8.26883H39.1507ZM38.8627 14.4694C38.7148 14.945 38.4267 15.3681 38.0409 15.6835C37.6676 15.9588 37.214 16.1015 36.7507 16.089C36.0466 16.1191 35.3702 15.8011 34.9443 15.2404C34.5084 14.6747 34.2903 13.7835 34.2903 12.5644C34.2903 11.3478 34.5134 10.4542 34.9569 9.88843C35.3878 9.3277 36.0667 9.01229 36.7731 9.03983C37.2367 9.02731 37.6927 9.17 38.066 9.44537C38.4466 9.74825 38.7273 10.1563 38.8753 10.6194C39.0704 11.2227 39.1633 11.8535 39.1507 12.4868C39.1658 13.1577 39.0679 13.8286 38.8627 14.4694Z" fill="#101011"/>
<path d="M55.2671 6.03845L52.5238 15.9814L49.8333 6.03845H45.1558L49.8581 19.0879H55.1617L59.8641 6.03845H55.2671Z" fill="#101011"/>
</g>
</g>
<defs>
<clipPath id="clip0_1_39614">
<rect width="59" height="23.2085" fill="white" transform="translate(0.861816 0.268311)"/>
</clipPath>
</defs>
</svg>
