<svg width="106" height="30" viewBox="0 0 106 30" fill="none" xmlns="http://www.w3.org/2000/svg">
<g clip-path="url(#clip0_1_39339)">
<path d="M34.758 15.3936C35.3716 15.3936 35.8139 14.9228 35.8139 14.2664V10.5852H39.7662V14.2664C39.7662 14.9228 40.2085 15.3936 40.8221 15.3936C41.4356 15.3936 41.8779 14.9228 41.8779 14.2664V5.2345C41.8779 4.57816 41.4356 4.1073 40.8221 4.1073C40.2085 4.1073 39.7662 4.57816 39.7662 5.2345V8.51624H35.8139V5.2345C35.8139 4.57816 35.3716 4.1073 34.758 4.1073C34.1445 4.1073 33.7021 4.57816 33.7021 5.2345V14.2664C33.7021 14.9228 34.1445 15.3936 34.758 15.3936Z" fill="#101011"/>
<path d="M47.8562 4.16418C45.1167 4.16418 43.1904 6.47567 43.1904 9.78594C43.1904 11.3269 43.6327 12.7252 44.4318 13.724C45.3164 14.8227 46.5863 15.4077 48.0845 15.4077C49.283 15.4077 50.3817 15.0082 51.195 14.2662C51.3091 14.1663 51.6801 13.8382 51.6801 13.2817C51.6801 12.711 51.2806 12.3114 50.7099 12.3114C50.3104 12.3114 50.0107 12.5397 49.7539 12.768C49.3116 13.1676 48.7551 13.3673 48.0845 13.3673C47.5423 13.3673 45.773 13.1818 45.3878 10.8275H51.5089C52.1367 10.8275 52.5505 10.4137 52.5505 9.78594C52.5505 6.47567 50.6243 4.16418 47.8562 4.16418ZM47.8562 6.20457C49.3972 6.20457 50.1534 7.48872 50.3674 8.78715H45.3592C45.6303 7.17482 46.5435 6.20457 47.8562 6.20457Z" fill="#101011"/>
<path d="M54.8625 15.308C55.4618 15.308 55.9041 14.8228 55.9041 14.1522V9.84317C55.9041 7.43181 57.0884 6.34741 58.2584 6.34741C58.9575 6.34741 59.4141 5.93363 59.4141 5.27728C59.4141 4.63521 58.929 4.20715 58.2156 4.20715C57.9873 4.20715 57.6163 4.24996 57.3167 4.34984C56.7745 4.53533 56.2893 4.87777 55.8898 5.32009C55.847 4.70655 55.419 4.2785 54.8482 4.2785C54.249 4.2785 53.8066 4.76362 53.8066 5.43424V14.1665C53.8209 14.8228 54.2632 15.308 54.8625 15.308Z" fill="#101011"/>
<path d="M63.6091 15.4221C65.9349 15.4221 67.5044 14.0808 67.5044 12.0975C67.5044 9.58629 65.1501 9.02982 63.8802 8.73018C62.382 8.38774 62.0396 8.13091 62.0396 7.36042C62.0396 6.80395 62.2108 6.16187 63.5806 6.16187C64.3225 6.16187 64.7078 6.34736 65.0217 6.53285C65.3356 6.73261 65.6352 6.9181 66.0205 6.9181C66.6055 6.9181 66.9765 6.54712 66.9765 5.96211C66.9765 5.43418 66.6483 5.12028 66.3629 4.92052C65.6495 4.43539 64.6507 4.15002 63.6091 4.15002C61.3832 4.15002 59.9564 5.43418 59.9564 7.40322C59.9564 9.91446 62.1395 10.4281 63.3095 10.6992L63.3951 10.7135C64.7649 11.0274 65.4212 11.2129 65.4212 12.0547C65.4212 13.1677 64.3939 13.396 63.5235 13.396C62.5533 13.396 62.0539 13.082 61.6971 12.7824C61.6543 12.7539 61.6115 12.7111 61.583 12.6825C61.3404 12.4685 61.0836 12.2402 60.6413 12.2402C60.0848 12.2402 59.6853 12.6397 59.6853 13.1962C59.6853 13.5386 59.828 13.8668 60.0848 14.1236C60.8696 14.9369 62.1965 15.4221 63.6091 15.4221Z" fill="#101011"/>
<path d="M73.3681 15.4223C74.5666 15.4223 75.6653 15.0228 76.4786 14.2809C76.5927 14.181 76.9637 13.8528 76.9637 13.2963C76.9637 12.7256 76.5642 12.3261 75.9935 12.3261C75.5939 12.3261 75.2943 12.5544 75.0375 12.7827C74.5952 13.1822 74.0387 13.382 73.3681 13.382C72.8259 13.382 71.0566 13.1965 70.6713 10.8422H76.7925C77.4203 10.8422 77.8341 10.4284 77.8341 9.80059C77.8341 6.49031 75.9079 4.17883 73.1541 4.17883C70.4145 4.17883 68.4883 6.49031 68.4883 9.80059C68.4883 11.3416 68.9306 12.7399 69.7296 13.7387C70.6 14.8373 71.8699 15.4223 73.3681 15.4223ZM73.1255 6.20495C74.6665 6.20495 75.4227 7.4891 75.6367 8.78753H70.6285C70.8996 7.1752 71.8128 6.20495 73.1255 6.20495Z" fill="#101011"/>
<path d="M85.6247 14.1665C85.6247 14.8371 86.067 15.3222 86.6663 15.3222C87.2655 15.3222 87.7079 14.8371 87.7079 14.1665V9.07264C87.7079 5.96213 86.1811 4.16431 83.5272 4.16431C82.5427 4.16431 81.6866 4.52102 81.0445 5.2059C80.9589 4.6637 80.5594 4.27845 80.0172 4.27845C79.4179 4.27845 78.9756 4.76358 78.9756 5.43419V14.1665C78.9756 14.8371 79.4179 15.3222 80.0172 15.3222C80.6165 15.3222 81.0588 14.8228 81.0588 14.1665V9.0441C81.0588 7.44604 82.1004 6.20469 83.4131 6.20469C84.8684 6.20469 85.6104 7.18921 85.6104 9.12971V14.1665H85.6247Z" fill="#101011"/>
<path d="M37.3266 22.0428L37.2267 22.0143C35.8569 21.6005 35.4146 21.4007 35.4146 20.5874C35.4146 20.0024 35.6001 19.3889 37.0127 19.3889C37.8831 19.3889 38.1827 19.6315 38.4681 19.8598C38.5251 19.9168 38.5965 19.9596 38.6678 20.0024C38.839 20.1166 39.0673 20.2307 39.3812 20.2307C39.952 20.2307 40.3515 19.8312 40.3515 19.2462C40.3515 18.8039 40.1232 18.5185 39.9234 18.3188C39.3099 17.7052 38.2398 17.3485 36.9984 17.3485C34.7297 17.3485 33.3172 18.5899 33.3172 20.6017C33.3172 23.0416 35.3718 23.6551 36.5989 24.0119C36.7416 24.0547 36.8843 24.0975 37.0269 24.1403C38.2968 24.5113 38.7249 24.6825 38.7249 25.4958C38.7249 25.8097 38.7249 26.7657 36.9128 26.7657C35.7571 26.7657 35.3575 26.3804 35.0151 26.0522C34.958 25.9952 34.8867 25.9238 34.8296 25.881C34.6013 25.6813 34.3445 25.5814 34.0734 25.5814C33.5027 25.5814 33.0889 26.0094 33.0889 26.5944C33.0889 26.8941 33.1887 27.1509 33.4028 27.4077C34.1447 28.2924 35.4432 28.806 36.9699 28.806C39.3527 28.806 40.8366 27.5219 40.8366 25.4672C40.8366 23.0559 38.8105 22.4709 37.3266 22.0428Z" fill="#101011" fill-opacity="0.6"/>
<path d="M47.9142 17.5341H42.2497C41.6218 17.5341 41.1367 17.9764 41.1367 18.5614C41.1367 19.1464 41.6076 19.5887 42.2497 19.5887H44.0332V27.579C44.0332 28.2354 44.4755 28.7062 45.0891 28.7062C45.7026 28.7062 46.1449 28.2354 46.1449 27.579V19.5887H47.9285C48.5563 19.5887 49.0414 19.1464 49.0414 18.5614C49.0414 17.9764 48.5563 17.5341 47.9142 17.5341Z" fill="#101011" fill-opacity="0.6"/>
<path d="M51.1379 17.434C50.5244 17.434 50.082 17.9048 50.082 18.5612V27.5931C50.082 28.2494 50.5244 28.7203 51.1379 28.7203C51.7514 28.7203 52.1938 28.2494 52.1938 27.5931V18.5612C52.1938 17.9048 51.7514 17.434 51.1379 17.434Z" fill="#101011" fill-opacity="0.6"/>
<path d="M79.4894 17.5339H73.8249C73.197 17.5339 72.7119 17.9763 72.7119 18.5613C72.7119 19.1463 73.1828 19.5886 73.8249 19.5886H75.6084V27.5789C75.6084 28.2352 76.0507 28.7061 76.6643 28.7061C77.2778 28.7061 77.7201 28.2352 77.7201 27.5789V19.5886H79.5037C80.1315 19.5886 80.6166 19.1463 80.6166 18.5613C80.6166 17.9763 80.1172 17.5339 79.4894 17.5339Z" fill="#101011" fill-opacity="0.6"/>
<path d="M82.7141 17.434C82.1005 17.434 81.6582 17.9048 81.6582 18.5612V27.5931C81.6582 28.2494 82.1005 28.7203 82.7141 28.7203C83.3276 28.7203 83.7699 28.2494 83.7699 27.5931V18.5612C83.7699 17.9048 83.3276 17.434 82.7141 17.434Z" fill="#101011" fill-opacity="0.6"/>
<path d="M58.5298 19.4315C59.2432 19.4315 59.8282 19.6883 60.3419 20.2162C60.5274 20.4017 60.8128 20.63 61.2408 20.63C61.7973 20.63 62.2253 20.1877 62.2253 19.617C62.2253 19.3173 62.1112 19.0462 61.8829 18.7751C61.0268 17.8619 59.8425 17.3625 58.5298 17.3625C55.6476 17.3625 53.6357 19.7168 53.6357 23.0842C53.6357 26.4515 55.6476 28.8058 58.5298 28.8058C59.8282 28.8058 61.0268 28.3064 61.8829 27.379C62.1112 27.1221 62.2253 26.851 62.2253 26.5514C62.2253 25.9664 61.7973 25.5383 61.2408 25.5383C60.8128 25.5383 60.5274 25.7809 60.3419 25.9664C59.8282 26.4943 59.2432 26.7369 58.5298 26.7369C57.1458 26.7369 55.7332 25.6097 55.7332 23.0842C55.7332 20.5587 57.1315 19.4315 58.5298 19.4315Z" fill="#101011" fill-opacity="0.6"/>
<path d="M70.5428 17.434C69.9292 17.434 69.4869 17.9048 69.4869 18.5612V21.8429H65.5346V18.5612C65.5346 17.9048 65.0923 17.434 64.4787 17.434C63.8652 17.434 63.4229 17.9048 63.4229 18.5612V27.5931C63.4229 28.2494 63.8652 28.7203 64.4787 28.7203C65.0923 28.7203 65.5346 28.2494 65.5346 27.5931V23.9118H69.4869V27.5931C69.4869 28.2494 69.9292 28.7203 70.5428 28.7203C71.1563 28.7203 71.5986 28.2494 71.5986 27.5931V18.5612C71.5986 17.9048 71.1563 17.434 70.5428 17.434Z" fill="#101011" fill-opacity="0.6"/>
<path d="M90.1766 17.4911C89.1921 17.4911 88.336 17.8478 87.6939 18.5327C87.6083 17.9905 87.2088 17.6052 86.6666 17.6052C86.0673 17.6052 85.625 18.0904 85.625 18.761V27.4932C85.625 28.1639 86.0673 28.649 86.6666 28.649C87.2659 28.649 87.7082 28.1496 87.7082 27.4932V22.3852C87.7082 20.7871 88.7498 19.5457 90.0625 19.5457C91.5179 19.5457 92.2598 20.5303 92.2598 22.4708V27.4932C92.2598 28.1639 92.7021 28.649 93.3014 28.649C93.9007 28.649 94.343 28.1639 94.343 27.4932V22.3994C94.343 19.2889 92.8305 17.4911 90.1766 17.4911Z" fill="#101011" fill-opacity="0.6"/>
<path d="M103.746 22.3995H101.12C100.492 22.3995 100.007 22.8418 100.007 23.4269C100.007 24.0119 100.478 24.4542 101.12 24.4542H102.69C102.618 25.6099 101.819 26.7229 100.335 26.7229C98.9514 26.7229 97.5389 25.5957 97.5389 23.0701C97.5389 20.5446 98.9372 19.4174 100.335 19.4174C101.049 19.4174 101.634 19.6743 102.148 20.2022C102.333 20.3877 102.618 20.616 103.046 20.616C103.603 20.616 104.031 20.1737 104.031 19.6029C104.031 19.3033 103.917 19.0322 103.689 18.7611C102.832 17.8479 101.648 17.3485 100.335 17.3485C97.4532 17.3485 95.4414 19.7028 95.4414 23.0701C95.4414 26.4375 97.4532 28.7918 100.335 28.7918C103.232 28.7918 104.801 26.4803 104.801 24.3115V23.4411C104.801 22.8418 104.359 22.3995 103.746 22.3995Z" fill="#101011" fill-opacity="0.6"/>
<path d="M28.8656 13.753C28.4804 13.3963 28.0951 13.0396 27.824 12.6686C27.4388 12.1264 27.5101 11.47 27.5815 10.6995C27.5957 10.5854 27.61 10.4855 27.61 10.3714C27.8383 7.77452 27.1106 5.49157 25.5126 3.77936C23.729 1.8674 21.018 0.840072 17.8932 0.882877C10.6734 1.01129 7.20619 5.76267 7.04923 10.1288C6.89228 14.5377 8.76144 16.7208 11.3726 18.4901C11.5438 21.1868 11.0301 23.9834 10.545 26.5375C10.4308 27.1653 10.3167 27.7646 10.2168 28.3496C10.1597 28.6349 10.3595 28.9203 10.6591 28.9631C10.6877 28.9631 10.7162 28.9774 10.7448 28.9774C11.0016 28.9774 11.2299 28.7919 11.2727 28.535C11.3726 27.95 11.4867 27.365 11.6009 26.7372C12.0574 24.3401 12.5426 21.7576 12.4855 19.1892C13.0134 19.5174 13.5699 19.8313 14.1406 20.1595C15.3106 20.8301 16.5092 21.515 17.7363 22.3568C19.263 23.3984 20.0049 24.7111 19.9907 26.3663C19.9764 27.6504 19.8623 28.478 19.8623 28.4922C19.8195 28.7776 20.0192 29.063 20.3189 29.0915C20.3474 29.0915 20.3759 29.0915 20.3902 29.0915C20.647 29.0915 20.8753 28.906 20.9181 28.6349C20.9181 28.5921 21.0465 27.736 21.0608 26.3663C21.0751 24.3544 20.1619 22.6993 18.3498 21.4579C17.0799 20.5875 15.8528 19.8884 14.6828 19.2178C13.8695 18.7612 13.1133 18.3189 12.4142 17.8766C12.2857 16.6495 12.0146 15.4224 11.5295 14.2381C10.4737 11.6555 10.331 9.47246 11.0872 7.74598C11.715 6.30487 12.9706 5.24901 14.7827 4.57839C17.9075 3.43692 20.9181 4.33583 22.5162 5.73414C23.7005 6.76146 24.1856 8.04562 23.9002 9.34404C23.7861 9.87197 23.5292 9.95759 22.8444 10.0432C22.5447 10.086 22.2308 10.1288 21.9455 10.2715C21.3747 10.5569 21.175 11.0705 21.018 11.47C20.8896 11.7982 20.804 11.9837 20.6328 12.0693C20.433 12.1549 20.1762 12.1407 19.848 12.1121C19.2915 12.0693 18.6066 12.0122 17.8219 12.4688C16.9943 12.954 16.7946 13.5532 16.6519 13.9813C16.5377 14.3237 16.4807 14.4949 16.1667 14.6519C15.3963 15.0514 14.5259 14.4664 14.5116 14.4664C14.269 14.2952 13.9409 14.3523 13.7697 14.5948C13.5984 14.8374 13.6555 15.1656 13.8981 15.3368C13.9551 15.3796 15.2964 16.307 16.6519 15.6079C17.351 15.2512 17.5222 14.7375 17.6649 14.3237C17.7933 13.9527 17.879 13.6816 18.3641 13.3963C18.8635 13.1109 19.2773 13.1394 19.7624 13.1822C20.1619 13.2108 20.6185 13.2536 21.0751 13.0396C21.6601 12.7685 21.8598 12.2691 22.0168 11.8553C22.1452 11.5128 22.2308 11.3131 22.4306 11.2132C22.559 11.1561 22.773 11.1276 22.987 11.0991C23.6149 11.0134 24.6707 10.885 24.9561 9.57234C25.3271 7.90293 24.6993 6.20499 23.2296 4.92084C21.3747 3.33704 17.9503 2.29545 14.4117 3.57961C12.3285 4.33583 10.8446 5.63426 10.1027 7.31793C9.21803 9.32977 9.36072 11.7982 10.5307 14.6519C10.8446 15.4367 11.0729 16.2357 11.2013 17.049C9.20376 15.5223 7.97668 13.6388 8.1051 10.1573C8.30485 4.6212 13.3273 2.02435 17.8932 1.93874C20.7184 1.89593 23.144 2.79484 24.7135 4.49278C26.0976 5.9767 26.7254 7.97428 26.5256 10.2572C26.5113 10.3571 26.5113 10.4712 26.4971 10.5711C26.4115 11.4272 26.3259 12.3832 26.9251 13.2536C27.2533 13.7244 27.7099 14.1382 28.1094 14.5092C28.409 14.7946 28.9655 15.3082 29.0083 15.508C28.9227 15.5508 28.7229 15.5936 28.5945 15.6221C28.1807 15.722 27.4103 15.8932 27.4103 16.678C27.4103 17.0204 27.6528 17.2773 27.9096 17.5484C27.9667 17.6055 28.0381 17.6911 28.0951 17.7624C27.8383 17.8623 27.3817 18.0335 27.2818 18.5757C27.1677 19.175 27.7955 19.3605 28.0381 19.4175C28.0809 19.4318 28.1522 19.4461 28.2093 19.4746C28.1807 19.5174 28.1379 19.5602 28.0666 19.6173C27.8526 19.8313 27.5244 20.1452 27.4959 20.8729C27.4816 21.1583 27.5672 21.4008 27.6385 21.6434C27.767 22.0572 27.8526 22.3283 27.5529 22.7278C27.2105 23.1701 26.5113 23.2272 25.2129 23.2843C24.8705 23.2985 24.4852 23.3128 24.0714 23.3556C22.8301 23.4555 22.188 24.2117 22.1595 24.2545C21.974 24.4828 22.0025 24.8253 22.2308 25.0108C22.4591 25.1962 22.8016 25.1677 22.987 24.9394C22.987 24.9394 23.3866 24.4971 24.1428 24.44C24.5423 24.4115 24.899 24.3972 25.2557 24.3829C26.6398 24.3259 27.7384 24.2688 28.409 23.3984C29.0368 22.5709 28.8228 21.8432 28.6659 21.358C28.6231 21.2011 28.566 21.0441 28.566 20.9443C28.5803 20.6446 28.6373 20.5733 28.8086 20.4163C28.9512 20.2736 29.151 20.0882 29.2651 19.7457C29.3793 19.4175 29.3079 19.1607 29.2366 19.0038C29.151 18.8183 29.0083 18.7041 28.8514 18.6185C29.0226 18.5186 29.1795 18.3474 29.2509 18.0906C29.3793 17.5912 28.994 17.1774 28.6801 16.8492C28.6516 16.8207 28.6231 16.7922 28.5945 16.7493C28.6801 16.7208 28.7658 16.7065 28.8371 16.6923C29.2509 16.5924 30.0214 16.4212 30.0784 15.6507C30.1641 14.9515 29.5362 14.3665 28.8656 13.753Z" fill="#101011"/>
</g>
<defs>
<clipPath id="clip0_1_39339">
<rect width="106" height="28.2943" fill="white" transform="translate(0 0.86853)"/>
</clipPath>
</defs>
</svg>
