<svg width="39" height="38" viewBox="0 0 39 38" fill="none" xmlns="http://www.w3.org/2000/svg">
<g clip-path="url(#clip0_1_39577)">
<path d="M19.5684 0.000244141C9.07561 0.000244141 0.568359 8.50749 0.568359 19.0002C0.568359 29.493 9.07561 38.0002 19.5684 38.0002C30.0611 38.0002 38.5684 29.493 38.5684 19.0002C38.5684 8.50749 30.0611 0.000244141 19.5684 0.000244141ZM19.5684 1.23524C29.3787 1.23524 37.3318 9.18833 37.3318 19.0002C37.3318 28.8106 29.3803 36.7637 19.5684 36.7637C9.75644 36.7637 1.80494 28.8106 1.80494 19.0002C1.80494 9.18991 9.75803 1.23524 19.5684 1.23524ZM18.4949 2.23274C17.9724 2.25491 17.4499 2.29924 16.9242 2.35624L16.7548 7.01758C17.1276 6.95449 17.5026 6.90485 17.8789 6.86874L17.9898 3.72108L17.9692 3.50416L18.0373 3.70999L19.0886 6.06758H20.0481L21.0994 3.71158L21.1628 3.50416L21.1469 3.72108L21.2578 6.86874C21.6251 6.90358 22.0067 6.95424 22.3819 7.01758L22.2094 2.35624C21.6873 2.29742 21.1635 2.25623 20.6387 2.23274L19.6048 4.80566L19.5684 4.99566L19.5319 4.80566L18.4949 2.23274ZM29.0969 5.12074L26.6538 8.96508C26.9625 9.20258 27.3694 9.55249 27.6307 9.79158L29.9313 8.59774L30.0769 8.48849L29.9677 8.63733L28.777 10.9379C29.0351 11.215 29.4072 11.6631 29.6162 11.9354L33.4637 9.49074C33.2277 9.18551 32.9849 8.88565 32.7354 8.59141L30.2986 10.1969L30.1324 10.3426L30.2559 10.1605L31.3325 8.01349L30.5725 7.25349L28.4255 8.33016L28.2434 8.45366L28.3875 8.28583L29.9994 5.84908C29.7144 5.60841 29.4436 5.38833 29.0969 5.12074ZM9.27669 5.99316C8.70669 6.05174 8.26653 6.44124 7.07111 7.77441C6.65659 8.24418 6.25686 8.72681 5.87253 9.22158L9.15636 12.336C10.2441 11.1327 10.6859 10.6862 11.544 9.78208C12.1504 9.14083 12.494 8.40458 11.886 7.69683C11.5567 7.31366 11.0025 7.22974 10.5402 7.41974L10.4959 7.43558L10.5117 7.39441C10.5688 7.18432 10.5628 6.96207 10.4943 6.75539C10.4259 6.54871 10.2981 6.36676 10.1269 6.23224C10.008 6.13843 9.87154 6.06913 9.7256 6.02836C9.57965 5.9876 9.42708 5.97459 9.27669 5.99316ZM9.28619 6.96691C9.50153 6.90833 9.72478 7.06191 9.77386 7.28358C9.82453 7.50524 9.68519 7.71424 9.53003 7.88841C9.18169 8.28424 7.89761 9.62691 7.89761 9.62691L7.26111 9.02049C7.92136 8.21299 8.62436 7.47833 8.94261 7.18699C9.03809 7.08746 9.15585 7.01203 9.28619 6.96691ZM19.5684 7.73166C16.7792 7.73043 14.0887 8.7641 12.0178 10.6326C9.94698 12.501 8.643 15.0714 8.35836 17.846V17.8492C8.17945 19.6095 8.41729 21.3872 9.05267 23.0386C9.68804 24.69 10.7031 26.1688 12.0158 27.3552C13.3285 28.5416 14.902 29.4025 16.609 29.8683C18.316 30.334 20.1087 30.3915 21.842 30.0361C24.3828 29.5138 26.6653 28.1304 28.3039 26.1197C29.9425 24.1089 30.8367 21.5941 30.8354 19.0002C30.8324 16.0131 29.6444 13.1492 27.532 11.0371C25.4196 8.92499 22.5555 7.73734 19.5684 7.73483V7.73166ZM10.8014 8.11483C10.8759 8.11483 10.9534 8.13541 11.0231 8.18291C11.1624 8.27633 11.2258 8.43624 11.1909 8.59458C11.1498 8.78299 10.993 8.96033 10.8664 9.09808L9.21178 10.8714L8.54678 10.2381C8.54678 10.2381 9.79286 8.92074 10.2014 8.49799C10.3629 8.33016 10.4674 8.22883 10.5782 8.17341C10.6469 8.13776 10.7241 8.11776 10.8014 8.11483ZM19.5684 9.21208C20.8542 9.21062 22.1276 9.4628 23.3159 9.95419C24.5041 10.4456 25.5837 11.1665 26.4929 12.0757C27.4021 12.9849 28.123 14.0645 28.6144 15.2528C29.1058 16.441 29.358 17.7144 29.3565 19.0002H19.5684V28.7884C18.2825 28.7899 17.0091 28.5377 15.8209 28.0463C14.6327 27.5549 13.553 26.834 12.6438 25.9248C11.7346 25.0156 11.0137 23.936 10.5223 22.7477C10.0309 21.5595 9.77873 20.2861 9.78019 19.0002H19.5684V9.21208Z" fill="#101011"/>
</g>
<defs>
<clipPath id="clip0_1_39577">
<rect width="38" height="38" fill="white" transform="translate(0.568359 0.000244141)"/>
</clipPath>
</defs>
</svg>
