<svg width="80" height="35" viewBox="0 0 80 35" fill="none" xmlns="http://www.w3.org/2000/svg">
<g clip-path="url(#clip0_1_39531)">
<path d="M2.12642 24.7445C2.21903 24.7829 2.27763 24.8409 2.34802 24.9114C2.36017 24.9235 2.37232 24.9356 2.38484 24.9481C2.42549 24.9886 2.46596 25.0294 2.50643 25.0701C2.53554 25.0993 2.56467 25.1284 2.5938 25.1575C2.67286 25.2365 2.75177 25.3157 2.83066 25.3949C2.91312 25.4777 2.99573 25.5604 3.07831 25.643C3.23469 25.7995 3.39093 25.9562 3.54713 26.1129C3.72497 26.2912 3.90295 26.4695 4.08093 26.6477C4.44706 27.0144 4.81302 27.3812 5.17886 27.7481C5.27147 27.7097 5.33006 27.6518 5.40046 27.5812C5.41868 27.5631 5.41868 27.5631 5.43727 27.5445C5.47792 27.504 5.51839 27.4632 5.55886 27.4225C5.58798 27.3934 5.6171 27.3642 5.64624 27.3351C5.7253 27.2561 5.80421 27.1769 5.88309 27.0977C5.96556 27.0149 6.04816 26.9323 6.13075 26.8496C6.28712 26.6931 6.44336 26.5364 6.59957 26.3797C6.7774 26.2014 6.95538 26.0231 7.13337 25.8449C7.4995 25.4782 7.86545 25.1114 8.23129 24.7445C8.30642 24.778 8.35785 24.8162 8.41581 24.8743C8.43258 24.891 8.44936 24.9077 8.46665 24.9249C8.48479 24.9433 8.50294 24.9616 8.52163 24.9805C8.55059 25.0094 8.55059 25.0094 8.58013 25.0389C8.64394 25.1028 8.70756 25.1668 8.77119 25.2308C8.81539 25.2751 8.85959 25.3194 8.90381 25.3636C9.00828 25.4683 9.11265 25.573 9.21696 25.6778C9.33574 25.7971 9.45466 25.9163 9.5736 26.0355C9.8182 26.2806 10.0626 26.5259 10.3069 26.7713C10.2685 26.8639 10.2106 26.9225 10.1401 26.9929C10.128 27.0051 10.1158 27.0172 10.1034 27.0297C10.0628 27.0704 10.0221 27.1109 9.98132 27.1513C9.9522 27.1804 9.92308 27.2096 9.89397 27.2387C9.81492 27.3178 9.73573 27.3967 9.6565 27.4756C9.57373 27.558 9.4911 27.6406 9.40845 27.7232C9.25193 27.8796 9.09528 28.0358 8.93859 28.192C8.76021 28.3699 8.58197 28.5478 8.40373 28.7258C8.03709 29.092 7.67028 29.4579 7.30335 29.8238C7.34176 29.9164 7.39969 29.975 7.47024 30.0454C7.48234 30.0575 7.49445 30.0697 7.50693 30.0822C7.54749 30.1228 7.58823 30.1633 7.62897 30.2038C7.6581 30.2329 7.68722 30.262 7.71632 30.2911C7.79537 30.3702 7.87457 30.4491 7.95379 30.528C8.03656 30.6105 8.11919 30.6931 8.20184 30.7756C8.35836 30.932 8.51501 31.0883 8.6717 31.2445C8.85009 31.4223 9.02833 31.6003 9.20656 31.7783C9.5732 32.1444 9.94002 32.5103 10.3069 32.8762C10.2734 32.9513 10.2353 33.0027 10.1771 33.0607C10.1521 33.0859 10.1521 33.0859 10.1265 33.1115C10.1082 33.1297 10.0899 33.1478 10.071 33.1665C10.0517 33.1858 10.0324 33.2051 10.0125 33.225C9.94867 33.2888 9.88466 33.3525 9.82065 33.4161C9.77637 33.4603 9.73209 33.5045 9.68782 33.5487C9.58318 33.6532 9.47843 33.7575 9.37363 33.8619C9.2543 33.9806 9.13511 34.0996 9.01594 34.2185C8.77082 34.4631 8.52553 34.7075 8.28013 34.9518C8.18752 34.9134 8.12893 34.8555 8.05853 34.785C8.04638 34.7728 8.03423 34.7607 8.02172 34.7483C7.98107 34.7077 7.9406 34.667 7.90013 34.6262C7.87101 34.5971 7.84189 34.568 7.81275 34.5389C7.73369 34.4598 7.65478 34.3806 7.5759 34.3014C7.49343 34.2186 7.41083 34.136 7.32824 34.0534C7.17187 33.8968 7.01562 33.7402 6.85942 33.5835C6.68158 33.4051 6.50361 33.2269 6.32562 33.0486C5.95949 32.682 5.59354 32.3152 5.2277 31.9482C5.13509 31.9867 5.07649 32.0446 5.0061 32.1151C4.99395 32.1272 4.9818 32.1393 4.96928 32.1518C4.92864 32.1924 4.88817 32.2331 4.84769 32.2739C4.81858 32.303 4.78945 32.3321 4.76032 32.3612C4.68126 32.4403 4.60235 32.5195 4.52346 32.5987C4.441 32.6815 4.3584 32.7641 4.27581 32.8467C4.11944 33.0033 3.96319 33.1599 3.80699 33.3166C3.62915 33.495 3.45118 33.6732 3.27319 33.8515C2.90706 34.2181 2.5411 34.5849 2.17526 34.9518C2.10013 34.9183 2.0487 34.8802 1.99075 34.822C1.97397 34.8053 1.95719 34.7886 1.93991 34.7714C1.92176 34.7531 1.90362 34.7348 1.88492 34.7159C1.86562 34.6966 1.84631 34.6773 1.82642 34.6574C1.76262 34.5936 1.69899 34.5296 1.63536 34.4656C1.59117 34.4213 1.54696 34.377 1.50274 34.3327C1.39827 34.2281 1.29391 34.1233 1.18959 34.0185C1.07081 33.8992 0.951891 33.78 0.832959 33.6608C0.588354 33.4157 0.343924 33.1704 0.0996094 32.925C0.138015 32.8324 0.195954 32.7738 0.266495 32.7034C0.284657 32.6852 0.284657 32.6852 0.303185 32.6666C0.343752 32.626 0.38449 32.5855 0.42523 32.545C0.454358 32.5159 0.483476 32.4868 0.512583 32.4576C0.59163 32.3786 0.670827 32.2997 0.750051 32.2208C0.832821 32.1383 0.915453 32.0557 0.9981 31.9731C1.15462 31.8168 1.31127 31.6605 1.46796 31.5043C1.64634 31.3265 1.82459 31.1485 2.00282 30.9705C2.36946 30.6044 2.73627 30.2384 3.1032 29.8726C3.0648 29.78 3.00686 29.7214 2.93632 29.651C2.91816 29.6328 2.91816 29.6328 2.89963 29.6142C2.85906 29.5735 2.81832 29.5331 2.77758 29.4926C2.74845 29.4635 2.71934 29.4344 2.69023 29.4052C2.61118 29.3262 2.53199 29.2472 2.45276 29.1684C2.36999 29.0859 2.28736 29.0033 2.20471 28.9207C2.04819 28.7643 1.89154 28.6081 1.73485 28.4519C1.55647 28.274 1.37822 28.0961 1.19999 27.9181C0.833351 27.552 0.466538 27.186 0.0996094 26.8202C0.133115 26.745 0.171279 26.6936 0.229413 26.6356C0.246123 26.6189 0.262833 26.6021 0.28005 26.5848C0.30753 26.5576 0.30753 26.5576 0.335565 26.5298C0.354864 26.5105 0.374164 26.4912 0.394048 26.4713C0.457884 26.4075 0.521891 26.3439 0.5859 26.2803C0.630188 26.2361 0.674464 26.1919 0.718731 26.1476C0.823371 26.0432 0.92812 25.9388 1.03292 25.8345C1.15225 25.7157 1.27144 25.5968 1.39062 25.4779C1.63573 25.2333 1.88102 24.9888 2.12642 24.7445Z" fill="#101011"/>
<path d="M2.12642 12.5349C2.21903 12.5733 2.27763 12.6313 2.34802 12.7018C2.36017 12.7139 2.37232 12.726 2.38484 12.7385C2.42549 12.7791 2.46596 12.8198 2.50643 12.8605C2.53554 12.8897 2.56467 12.9188 2.5938 12.9479C2.67286 13.0269 2.75177 13.1061 2.83066 13.1854C2.91312 13.2681 2.99573 13.3508 3.07831 13.4334C3.23469 13.5899 3.39093 13.7466 3.54713 13.9033C3.72497 14.0816 3.90295 14.2599 4.08093 14.4381C4.44706 14.8048 4.81302 15.1716 5.17886 15.5385C5.27147 15.5001 5.33006 15.4422 5.40046 15.3716C5.41868 15.3535 5.41868 15.3535 5.43727 15.3349C5.47792 15.2944 5.51839 15.2536 5.55886 15.2129C5.58798 15.1838 5.6171 15.1546 5.64624 15.1255C5.7253 15.0465 5.80421 14.9673 5.88309 14.8881C5.96556 14.8053 6.04816 14.7227 6.13075 14.64C6.28712 14.4835 6.44336 14.3268 6.59957 14.1702C6.7774 13.9918 6.95538 13.8135 7.13337 13.6353C7.4995 13.2687 7.86545 12.9018 8.23129 12.5349C8.30642 12.5684 8.35785 12.6066 8.41581 12.6647C8.43258 12.6814 8.44936 12.6981 8.46665 12.7154C8.48479 12.7337 8.50294 12.752 8.52163 12.7709C8.55059 12.7998 8.55059 12.7998 8.58013 12.8294C8.64394 12.8932 8.70756 12.9572 8.77119 13.0212C8.81539 13.0655 8.85959 13.1098 8.90381 13.154C9.00828 13.2587 9.11265 13.3634 9.21696 13.4682C9.33574 13.5876 9.45466 13.7067 9.5736 13.8259C9.8182 14.071 10.0626 14.3163 10.3069 14.5617C10.2685 14.6543 10.2106 14.7129 10.1401 14.7833C10.128 14.7955 10.1158 14.8076 10.1034 14.8201C10.0628 14.8608 10.0221 14.9013 9.98132 14.9417C9.9522 14.9708 9.92308 15 9.89397 15.0291C9.81492 15.1082 9.73573 15.1871 9.6565 15.266C9.57373 15.3484 9.4911 15.431 9.40845 15.5136C9.25193 15.67 9.09528 15.8262 8.93859 15.9824C8.76021 16.1603 8.58197 16.3382 8.40373 16.5162C8.03709 16.8824 7.67028 17.2483 7.30335 17.6142C7.34176 17.7068 7.39969 17.7654 7.47024 17.8358C7.48234 17.8479 7.49445 17.8601 7.50693 17.8726C7.54749 17.9132 7.58823 17.9537 7.62897 17.9942C7.6581 18.0233 7.68722 18.0524 7.71632 18.0815C7.79537 18.1606 7.87457 18.2395 7.95379 18.3184C8.03656 18.4009 8.11919 18.4835 8.20184 18.566C8.35836 18.7224 8.51501 18.8787 8.6717 19.0349C8.85009 19.2127 9.02833 19.3907 9.20656 19.5687C9.5732 19.9348 9.94002 20.3008 10.3069 20.6666C10.2734 20.7417 10.2353 20.7932 10.1771 20.8511C10.1521 20.8763 10.1521 20.8763 10.1265 20.9019C10.1082 20.9201 10.0899 20.9382 10.071 20.9569C10.0517 20.9762 10.0324 20.9955 10.0125 21.0154C9.94867 21.0792 9.88466 21.1429 9.82065 21.2065C9.77637 21.2507 9.73209 21.2949 9.68782 21.3391C9.58318 21.4436 9.47843 21.548 9.37363 21.6523C9.2543 21.771 9.13511 21.89 9.01594 22.0089C8.77082 22.2535 8.52553 22.4979 8.28013 22.7422C8.18752 22.7038 8.12893 22.6459 8.05853 22.5754C8.04638 22.5633 8.03423 22.5511 8.02172 22.5387C7.98107 22.4981 7.9406 22.4574 7.90013 22.4166C7.87101 22.3875 7.84189 22.3584 7.81275 22.3293C7.73369 22.2502 7.65478 22.171 7.5759 22.0918C7.49343 22.009 7.41083 21.9264 7.32824 21.8438C7.17187 21.6872 7.01562 21.5306 6.85942 21.3739C6.68158 21.1955 6.50361 21.0173 6.32562 20.839C5.95949 20.4724 5.59354 20.1056 5.2277 19.7387C5.13509 19.7771 5.07649 19.835 5.0061 19.9055C4.99395 19.9176 4.9818 19.9298 4.96928 19.9422C4.92864 19.9828 4.88817 20.0235 4.84769 20.0643C4.81858 20.0934 4.78945 20.1225 4.76032 20.1516C4.68126 20.2307 4.60235 20.3099 4.52346 20.3891C4.441 20.4719 4.3584 20.5545 4.27581 20.6371C4.11944 20.7937 3.96319 20.9503 3.80699 21.107C3.62915 21.2854 3.45118 21.4636 3.27319 21.6419C2.90706 22.0085 2.5411 22.3753 2.17526 22.7422C2.10013 22.7087 2.0487 22.6706 1.99075 22.6124C1.97397 22.5957 1.95719 22.579 1.93991 22.5618C1.92176 22.5435 1.90362 22.5252 1.88492 22.5063C1.86562 22.487 1.84631 22.4677 1.82642 22.4478C1.76262 22.384 1.69899 22.32 1.63536 22.256C1.59117 22.2117 1.54696 22.1674 1.50274 22.1231C1.39827 22.0185 1.29391 21.9137 1.18959 21.8089C1.07081 21.6896 0.951891 21.5704 0.832959 21.4512C0.588354 21.2061 0.343924 20.9608 0.0996094 20.7154C0.138015 20.6228 0.195954 20.5642 0.266495 20.4938C0.284657 20.4756 0.284657 20.4756 0.303185 20.457C0.343752 20.4164 0.38449 20.3759 0.42523 20.3354C0.454358 20.3063 0.483476 20.2772 0.512583 20.2481C0.59163 20.169 0.670827 20.0901 0.750051 20.0112C0.832821 19.9287 0.915453 19.8461 0.9981 19.7635C1.15462 19.6072 1.31127 19.4509 1.46796 19.2947C1.64634 19.1169 1.82459 18.9389 2.00282 18.7609C2.36946 18.3948 2.73627 18.0288 3.1032 17.663C3.0648 17.5704 3.00686 17.5118 2.93632 17.4414C2.91816 17.4232 2.91816 17.4232 2.89963 17.4046C2.85906 17.3639 2.81832 17.3235 2.77758 17.283C2.74845 17.2539 2.71934 17.2248 2.69023 17.1956C2.61118 17.1166 2.53199 17.0377 2.45276 16.9588C2.36999 16.8763 2.28736 16.7937 2.20471 16.7111C2.04819 16.5547 1.89154 16.3985 1.73485 16.2423C1.55647 16.0645 1.37822 15.8865 1.19999 15.7085C0.833351 15.3424 0.466538 14.9764 0.0996094 14.6106C0.133115 14.5354 0.171279 14.484 0.229413 14.4261C0.246123 14.4093 0.262833 14.3925 0.28005 14.3752C0.30753 14.348 0.30753 14.348 0.335565 14.3202C0.354864 14.3009 0.374164 14.2816 0.394048 14.2617C0.457884 14.1979 0.521891 14.1343 0.5859 14.0707C0.630188 14.0265 0.674464 13.9823 0.718731 13.938C0.823371 13.8336 0.92812 13.7292 1.03292 13.6249C1.15225 13.5061 1.27144 13.3872 1.39062 13.2683C1.63573 13.0237 1.88102 12.7792 2.12642 12.5349Z" fill="#101011"/>
<path d="M2.12642 0.301025C2.21903 0.339431 2.27763 0.39737 2.34802 0.467911C2.36017 0.480019 2.37232 0.492127 2.38484 0.504601C2.42549 0.545168 2.46596 0.585906 2.50643 0.626646C2.53554 0.655774 2.56467 0.684892 2.5938 0.713999C2.67286 0.793046 2.75177 0.872243 2.83066 0.951467C2.91312 1.03424 2.99573 1.11687 3.07831 1.19952C3.23469 1.35604 3.39093 1.51269 3.54713 1.66938C3.72497 1.84776 3.90295 2.026 4.08093 2.20424C4.44706 2.57088 4.81302 2.93769 5.17886 3.30462C5.27147 3.26621 5.33006 3.20828 5.40046 3.13773C5.41868 3.11957 5.41868 3.11957 5.43727 3.10104C5.47792 3.06048 5.51839 3.01974 5.55886 2.979C5.58798 2.94987 5.6171 2.92075 5.64624 2.89165C5.7253 2.8126 5.80421 2.7334 5.88309 2.65418C5.96556 2.57141 6.04816 2.48878 6.13075 2.40613C6.28712 2.24961 6.44336 2.09296 6.59957 1.93627C6.7774 1.75788 6.95538 1.57964 7.13337 1.40141C7.4995 1.03477 7.86545 0.667954 8.23129 0.301025C8.30642 0.334531 8.35785 0.372695 8.41581 0.430829C8.43258 0.447539 8.44936 0.464249 8.46665 0.481466C8.48479 0.499786 8.50294 0.518106 8.52163 0.536981C8.55059 0.56593 8.55059 0.56593 8.58013 0.595464C8.64394 0.6593 8.70756 0.723307 8.77119 0.787316C8.81539 0.831604 8.85959 0.87588 8.90381 0.920147C9.00828 1.02479 9.11265 1.12954 9.21696 1.23434C9.33574 1.35367 9.45466 1.47286 9.5736 1.59203C9.8182 1.83715 10.0626 2.08244 10.3069 2.32784C10.2685 2.42045 10.2106 2.47904 10.1401 2.54944C10.128 2.56159 10.1158 2.57374 10.1034 2.58626C10.0628 2.6269 10.0221 2.66737 9.98132 2.70784C9.9522 2.73696 9.92308 2.76608 9.89397 2.79522C9.81492 2.87428 9.73573 2.95319 9.6565 3.03207C9.57373 3.11454 9.4911 3.19714 9.40845 3.27973C9.25193 3.4361 9.09528 3.59235 8.93859 3.74855C8.76021 3.92639 8.58197 4.10436 8.40373 4.28235C8.03709 4.64848 7.67028 5.01443 7.30335 5.38027C7.34176 5.47288 7.39969 5.53148 7.47024 5.60187C7.48234 5.61402 7.49445 5.62617 7.50693 5.63869C7.54749 5.67933 7.58823 5.7198 7.62897 5.76028C7.6581 5.78939 7.68722 5.81852 7.71632 5.84765C7.79537 5.92671 7.87457 6.00562 7.95379 6.08451C8.03656 6.16697 8.11919 6.24957 8.20184 6.33216C8.35836 6.48853 8.51501 6.64478 8.6717 6.80098C8.85009 6.97882 9.02833 7.1568 9.20656 7.33478C9.5732 7.70091 9.94002 8.06687 10.3069 8.43271C10.2734 8.50784 10.2353 8.55927 10.1771 8.61722C10.1521 8.64239 10.1521 8.64239 10.1265 8.66806C10.1082 8.68621 10.0899 8.70435 10.071 8.72305C10.0517 8.74235 10.0324 8.76166 10.0125 8.78155C9.94867 8.84535 9.88466 8.90898 9.82065 8.97261C9.77637 9.0168 9.73209 9.06101 9.68782 9.10523C9.58318 9.2097 9.47843 9.31406 9.37363 9.41838C9.2543 9.53716 9.13511 9.65608 9.01594 9.77501C8.77082 10.0196 8.52553 10.264 8.28013 10.5084C8.18752 10.47 8.12893 10.412 8.05853 10.3415C8.04638 10.3294 8.03423 10.3173 8.02172 10.3048C7.98107 10.2642 7.9406 10.2235 7.90013 10.1827C7.87101 10.1536 7.84189 10.1245 7.81275 10.0954C7.73369 10.0163 7.65478 9.93714 7.5759 9.85792C7.49343 9.77515 7.41083 9.69252 7.32824 9.60987C7.17187 9.45335 7.01562 9.2967 6.85942 9.14001C6.68158 8.96163 6.50361 8.78338 6.32562 8.60515C5.95949 8.23851 5.59354 7.8717 5.2277 7.50477C5.13509 7.54317 5.07649 7.60111 5.0061 7.67165C4.99395 7.68376 4.9818 7.69587 4.96928 7.70834C4.92864 7.74891 4.88817 7.78965 4.84769 7.83039C4.81858 7.85952 4.78945 7.88863 4.76032 7.91774C4.68126 7.99679 4.60235 8.07598 4.52346 8.15521C4.441 8.23798 4.3584 8.32061 4.27581 8.40326C4.11944 8.55978 3.96319 8.71643 3.80699 8.87312C3.62915 9.0515 3.45118 9.22975 3.27319 9.40798C2.90706 9.77462 2.5411 10.1414 2.17526 10.5084C2.10013 10.4749 2.0487 10.4367 1.99075 10.3786C1.97397 10.3618 1.95719 10.3451 1.93991 10.3279C1.92176 10.3096 1.90362 10.2913 1.88492 10.2724C1.86562 10.2531 1.84631 10.2338 1.82642 10.2139C1.76262 10.1501 1.69899 10.0861 1.63536 10.0221C1.59117 9.97778 1.54696 9.93351 1.50274 9.88924C1.39827 9.7846 1.29391 9.67985 1.18959 9.57505C1.07081 9.45572 0.951891 9.33653 0.832959 9.21735C0.588354 8.97224 0.343924 8.72695 0.0996094 8.48155C0.138015 8.38894 0.195954 8.33034 0.266495 8.25995C0.284657 8.24172 0.284657 8.24172 0.303185 8.22313C0.343752 8.18248 0.38449 8.14201 0.42523 8.10154C0.454358 8.07243 0.483476 8.0433 0.512583 8.01417C0.59163 7.93511 0.670827 7.8562 0.750051 7.77731C0.832821 7.69485 0.915453 7.61224 0.9981 7.52966C1.15462 7.37328 1.31127 7.21704 1.46796 7.06084C1.64634 6.883 1.82459 6.70502 2.00282 6.52704C2.36946 6.16091 2.73627 5.79495 3.1032 5.42911C3.0648 5.3365 3.00686 5.27791 2.93632 5.20751C2.91816 5.18929 2.91816 5.18929 2.89963 5.1707C2.85906 5.13005 2.81832 5.08958 2.77758 5.04911C2.74845 5.01999 2.71934 4.99087 2.69023 4.96173C2.61118 4.88267 2.53199 4.80376 2.45276 4.72488C2.36999 4.64242 2.28736 4.55981 2.20471 4.47722C2.04819 4.32085 1.89154 4.16461 1.73485 4.0084C1.55647 3.83057 1.37822 3.65259 1.19999 3.4746C0.833351 3.10847 0.466538 2.74252 0.0996094 2.37668C0.133115 2.30155 0.171279 2.25012 0.229413 2.19216C0.246123 2.17539 0.262833 2.15861 0.28005 2.14132C0.30753 2.11411 0.30753 2.11411 0.335565 2.08634C0.354864 2.06703 0.374164 2.04773 0.394048 2.02784C0.457884 1.96403 0.521891 1.90041 0.5859 1.83678C0.630188 1.79258 0.674464 1.74838 0.718731 1.70416C0.823371 1.59969 0.92812 1.49532 1.03292 1.39101C1.15225 1.27223 1.27144 1.15331 1.39062 1.03437C1.63573 0.78977 1.88102 0.54534 2.12642 0.301025Z" fill="#101011"/>
<path d="M28.7582 15.8102C28.9094 15.9387 29.0201 16.084 29.1336 16.2467C29.1659 16.2876 29.1983 16.3284 29.2313 16.3688C29.2414 16.3537 29.2514 16.3386 29.2618 16.3231C29.5856 15.8482 30.0308 15.5323 30.5988 15.4164C31.2817 15.3006 32.0072 15.3648 32.5954 15.7541C32.6485 15.7941 32.6983 15.8358 32.7477 15.8804C32.762 15.8925 32.7763 15.9046 32.7911 15.917C33.2476 16.3311 33.4041 17.0285 33.4341 17.6179C33.4382 17.7439 33.4376 17.8698 33.437 17.9958C33.437 18.037 33.437 18.0782 33.437 18.1194C33.437 18.2298 33.4367 18.3402 33.4364 18.4506C33.4361 18.5665 33.4361 18.6825 33.436 18.7984C33.4359 19.0173 33.4355 19.2361 33.435 19.455C33.4344 19.7045 33.4341 19.9539 33.4339 20.2034C33.4334 20.7159 33.4325 21.2285 33.4314 21.7411C32.9157 21.7411 32.4 21.7411 31.8686 21.7411C31.8674 21.4856 31.8662 21.23 31.865 20.9668C31.8641 20.8042 31.8632 20.6416 31.8623 20.479C31.8608 20.2214 31.8594 19.9637 31.8583 19.7061C31.8575 19.5184 31.8565 19.3307 31.8553 19.1429C31.8547 19.0437 31.8542 18.9445 31.8539 18.8453C31.8912 17.8433 31.8912 17.8433 31.4582 16.9842C31.2197 16.7843 30.9244 16.7577 30.6257 16.7785C30.3815 16.8044 30.1775 16.9149 30.0198 17.1021C29.7519 17.4775 29.7086 17.9256 29.7091 18.3728C29.7089 18.4099 29.7087 18.447 29.7084 18.4841C29.7077 18.5834 29.7075 18.6827 29.7073 18.7819C29.7071 18.8862 29.7065 18.9905 29.7059 19.0948C29.7048 19.2916 29.7041 19.4884 29.7035 19.6853C29.7029 19.9096 29.7018 20.134 29.7007 20.3583C29.6984 20.8192 29.6967 21.2801 29.6953 21.7411C29.1715 21.7411 28.6477 21.7411 28.108 21.7411C28.1075 21.5677 28.1075 21.5677 28.1069 21.3908C28.1057 21.0081 28.1041 20.6253 28.1022 20.2426C28.1012 20.0106 28.1002 19.7787 28.0995 19.5467C28.099 19.3444 28.0982 19.142 28.097 18.9397C28.0965 18.8327 28.096 18.7257 28.0959 18.6187C28.0957 18.5177 28.0952 18.4167 28.0945 18.3157C28.0943 18.2789 28.0942 18.2421 28.0942 18.2054C28.0946 17.7789 28.0525 17.3243 27.7417 17.0037C27.4898 16.7892 27.2084 16.7595 26.8892 16.7787C26.7721 16.7906 26.673 16.8274 26.5696 16.8816C26.5501 16.8917 26.5306 16.9017 26.5105 16.9121C26.2659 17.0563 26.1446 17.3039 26.0568 17.5653C25.9915 17.8182 25.9726 18.0624 25.973 18.3229C25.9727 18.3605 25.9725 18.3981 25.9722 18.4357C25.9715 18.5364 25.9713 18.6372 25.9712 18.738C25.9709 18.8438 25.9703 18.9496 25.9697 19.0554C25.9686 19.2551 25.9679 19.4549 25.9674 19.6547C25.9667 19.8823 25.9656 20.11 25.9645 20.3376C25.9623 20.8055 25.9606 21.2733 25.9591 21.7411C25.4353 21.7411 24.9115 21.7411 24.3718 21.7411C24.3718 19.6942 24.3718 17.6474 24.3718 15.5385C24.8634 15.5385 25.355 15.5385 25.8614 15.5385C25.8695 15.7803 25.8775 16.022 25.8858 16.2711C25.9327 16.2001 25.9327 16.2001 25.9805 16.1276C26.2489 15.7364 26.6007 15.4908 27.0704 15.3998C27.6728 15.3048 28.2795 15.4171 28.7582 15.8102Z" fill="#101011"/>
<path d="M36.3075 3.57006C36.4795 3.73367 36.6219 3.91261 36.7528 4.11034C36.7658 4.09202 36.7788 4.0737 36.7923 4.05483C36.9879 3.78614 37.1927 3.5672 37.4854 3.40218C37.5041 3.39119 37.5228 3.38021 37.542 3.36889C38.1253 3.04956 38.8805 3.04675 39.5122 3.20682C39.836 3.30848 40.1018 3.45574 40.3424 3.69521C40.3677 3.71915 40.3677 3.71915 40.3934 3.74357C40.8745 4.23515 40.9659 4.99988 40.9612 5.65418C40.9612 5.69635 40.9612 5.73852 40.9613 5.78069C40.9613 5.89352 40.9609 6.00635 40.9604 6.11919C40.9599 6.23772 40.9599 6.35625 40.9598 6.47478C40.9595 6.6985 40.9589 6.92221 40.9582 7.14593C40.9574 7.40094 40.957 7.65595 40.9566 7.91096C40.9559 8.43485 40.9545 8.95873 40.9529 9.48262C40.4372 9.48262 39.9215 9.48262 39.3901 9.48262C39.3896 9.37049 39.3891 9.25836 39.3886 9.14284C39.387 8.77168 39.3851 8.40053 39.3831 8.02937C39.3818 7.80442 39.3807 7.57947 39.3798 7.35452C39.379 7.15832 39.378 6.96212 39.3768 6.76592C39.3762 6.66215 39.3757 6.55839 39.3754 6.45462C39.375 6.35669 39.3745 6.25876 39.3738 6.16083C39.3736 6.12514 39.3734 6.08945 39.3734 6.05376C39.3726 5.6097 39.3381 5.11596 39.0284 4.7689C38.9117 4.65791 38.7856 4.59815 38.6331 4.54989C38.6186 4.5452 38.6041 4.54051 38.5892 4.53568C38.3129 4.48326 38.0144 4.51287 37.7711 4.65625C37.7211 4.69132 37.6766 4.72819 37.6319 4.76967C37.6189 4.78163 37.6059 4.79359 37.5926 4.80591C37.2473 5.1654 37.2381 5.71762 37.2362 6.18367C37.2359 6.21979 37.2357 6.25592 37.2354 6.29204C37.2348 6.3894 37.2343 6.48676 37.2338 6.58411C37.2332 6.68612 37.2326 6.78813 37.2319 6.89014C37.2307 7.08299 37.2296 7.27584 37.2285 7.46869C37.2273 7.68838 37.226 7.90807 37.2246 8.12776C37.2219 8.57938 37.2193 9.031 37.2168 9.48262C36.701 9.48262 36.1853 9.48262 35.6539 9.48262C35.6534 9.37396 35.6529 9.26531 35.6524 9.15335C35.6508 8.79312 35.6489 8.43288 35.6469 8.07264C35.6457 7.85437 35.6445 7.6361 35.6436 7.41783C35.6428 7.22739 35.6418 7.03695 35.6407 6.84651C35.64 6.74585 35.6395 6.64519 35.6392 6.54454C35.6736 5.59823 35.6736 5.59823 35.2922 4.7689C35.1756 4.65791 35.0495 4.59815 34.8969 4.54989C34.8752 4.54286 34.8752 4.54286 34.853 4.53568C34.5767 4.48326 34.2782 4.51287 34.0349 4.65625C33.985 4.69132 33.9404 4.72819 33.8957 4.76967C33.8827 4.78163 33.8698 4.79359 33.8564 4.80591C33.5271 5.14881 33.5018 5.66532 33.5 6.11159C33.4997 6.14843 33.4995 6.18527 33.4992 6.22211C33.4986 6.32164 33.4981 6.42117 33.4976 6.5207C33.4971 6.62489 33.4964 6.72908 33.4957 6.83327C33.4945 7.03036 33.4934 7.22745 33.4924 7.42454C33.4912 7.64901 33.4898 7.87348 33.4885 8.09795C33.4857 8.55951 33.4831 9.02107 33.4806 9.48262C32.9568 9.48262 32.433 9.48262 31.8933 9.48262C31.8933 7.43578 31.8933 5.38894 31.8933 3.28008C32.3849 3.28008 32.8764 3.28008 33.3829 3.28008C33.391 3.52989 33.399 3.7797 33.4073 4.03708C33.4637 3.94844 33.5201 3.8598 33.5783 3.76847C33.8459 3.41246 34.2261 3.19396 34.6669 3.13114C35.2526 3.0608 35.8514 3.17826 36.3075 3.57006Z" fill="#101011"/>
<path d="M75.2453 15.7554C75.2844 15.7884 75.3231 15.822 75.3613 15.8561C75.3781 15.8708 75.3949 15.8856 75.4122 15.9008C75.559 16.0384 75.6664 16.2018 75.7765 16.3689C75.7895 16.3506 75.8025 16.3323 75.816 16.3134C76.201 15.7844 76.6699 15.4964 77.3149 15.3921C77.9316 15.3072 78.6523 15.3828 79.1633 15.7632C79.1912 15.785 79.1912 15.785 79.2196 15.8072C79.2367 15.8203 79.2537 15.8333 79.2713 15.8467C79.6741 16.1743 79.86 16.7026 79.9461 17.1992C79.9489 17.2153 79.9517 17.2315 79.9546 17.2482C80.0045 17.5673 80.0046 17.8927 80.0038 18.2149C80.0038 18.2537 80.0038 18.2925 80.0038 18.3313C80.0038 18.4352 80.0037 18.5392 80.0035 18.6431C80.0033 18.7523 80.0033 18.8614 80.0033 18.9706C80.0032 19.1767 80.003 19.3827 80.0028 19.5888C80.0025 19.8237 80.0024 20.0586 80.0023 20.2934C80.002 20.776 80.0016 21.2586 80.001 21.7412C79.4772 21.7412 78.9534 21.7412 78.4138 21.7412C78.4132 21.5713 78.4132 21.5713 78.4127 21.3981C78.4115 21.0229 78.4098 20.6478 78.408 20.2726C78.4069 20.0453 78.4059 19.818 78.4053 19.5906C78.4047 19.3923 78.4039 19.194 78.4028 18.9957C78.4022 18.8908 78.4018 18.786 78.4016 18.6811C78.4015 18.5821 78.401 18.4831 78.4002 18.384C78.4 18.348 78.3999 18.312 78.4 18.276C78.4003 17.8549 78.3625 17.3524 78.0545 17.0338C77.8155 16.8095 77.5646 16.7739 77.2474 16.7789C76.9818 16.7884 76.7702 16.9022 76.5884 17.0938C76.2748 17.4784 76.2618 18.0178 76.2598 18.4894C76.2596 18.525 76.2594 18.5606 76.2591 18.5963C76.2584 18.6922 76.2579 18.7882 76.2574 18.8841C76.2569 18.9847 76.2562 19.0853 76.2556 19.1858C76.2544 19.3759 76.2533 19.566 76.2522 19.7561C76.2508 20.0132 76.2492 20.2703 76.2476 20.5274C76.245 20.932 76.2428 21.3366 76.2404 21.7412C75.7247 21.7412 75.209 21.7412 74.6776 21.7412C74.6771 21.63 74.6766 21.5189 74.6761 21.4044C74.6745 21.0363 74.6726 20.6681 74.6706 20.3C74.6693 20.0769 74.6682 19.8538 74.6673 19.6307C74.6665 19.4361 74.6655 19.2415 74.6643 19.0469C74.6637 18.944 74.6632 18.8411 74.6629 18.7382C74.6625 18.6411 74.662 18.5439 74.6613 18.4467C74.6611 18.4114 74.6609 18.376 74.6609 18.3407C74.6601 17.884 74.6394 17.3571 74.3113 17.0038C74.0825 16.8002 73.8047 16.7655 73.5095 16.7755C73.2807 16.7901 73.0869 16.8727 72.9194 17.0282C72.9064 17.0402 72.8934 17.0521 72.8801 17.0645C72.5411 17.4174 72.5255 17.9587 72.5237 18.4173C72.5234 18.4536 72.5232 18.49 72.5229 18.5264C72.5223 18.6245 72.5218 18.7226 72.5213 18.8207C72.5207 18.9235 72.5201 19.0262 72.5194 19.129C72.5182 19.3233 72.5171 19.5176 72.516 19.7119C72.5148 19.9333 72.5135 20.1546 72.5121 20.376C72.5094 20.831 72.5068 21.2861 72.5043 21.7412C71.9885 21.7412 71.4728 21.7412 70.9414 21.7412C70.9414 19.6943 70.9414 17.6475 70.9414 15.5386C71.4249 15.5386 71.9084 15.5386 72.4066 15.5386C72.4146 15.7884 72.4227 16.0383 72.431 16.2956C72.4874 16.207 72.5438 16.1184 72.6019 16.027C72.8756 15.663 73.2577 15.4558 73.7054 15.3845C74.2426 15.3218 74.8106 15.4168 75.2453 15.7554Z" fill="#101011"/>
<path d="M19.222 1.17482C19.2426 1.17465 19.2631 1.17448 19.2843 1.1743C20.1459 1.1687 20.1459 1.1687 20.5136 1.25304C20.5348 1.25776 20.5561 1.26248 20.578 1.26735C21.3332 1.44055 21.9731 1.79851 22.516 2.35191C22.4839 2.42279 22.4496 2.47321 22.3945 2.52791C22.3802 2.54214 22.3659 2.55637 22.3513 2.57103C22.3361 2.58585 22.321 2.60068 22.3054 2.61595C22.2898 2.63136 22.2742 2.64676 22.2582 2.66264C22.1688 2.7506 22.0776 2.835 21.9817 2.91585C21.9084 2.98173 21.8402 3.05236 21.7712 3.12265C21.6599 3.2358 21.5485 3.33624 21.4171 3.42637C21.4061 3.41454 21.3951 3.4027 21.3838 3.39051C20.9056 2.8922 20.2562 2.64292 19.5723 2.62062C18.9789 2.61338 18.4012 2.78814 17.9496 3.18218C17.9338 3.19452 17.918 3.20686 17.9017 3.21957C17.3823 3.63831 17.1352 4.34255 17.0575 4.98445C16.967 5.8824 17.176 6.7272 17.7271 7.44223C18.0251 7.80032 18.4538 8.0299 18.9019 8.13933C18.9341 8.14754 18.9341 8.14754 18.967 8.15592C19.583 8.28552 20.2906 8.16594 20.8311 7.84629C21.2162 7.59339 21.4759 7.26938 21.5987 6.82525C21.6488 6.58712 21.6488 6.58712 21.6613 6.18577C21.0166 6.18577 20.372 6.18577 19.7078 6.18577C19.7078 5.72644 19.7078 5.26711 19.7078 4.79386C20.9085 4.79386 22.1092 4.79386 23.3463 4.79386C23.3463 7.54155 23.3463 7.54155 22.3512 8.55904C21.5518 9.34991 20.4102 9.6397 19.316 9.63625C18.2049 9.62017 17.1936 9.2086 16.4116 8.41864C15.7869 7.76605 15.4677 6.92056 15.3367 6.03925C15.3341 6.02259 15.3316 6.00593 15.329 5.98877C15.2112 5.09678 15.3567 4.15849 15.7518 3.35311C15.7594 3.3372 15.767 3.32129 15.7749 3.30489C16.2138 2.39359 17.0381 1.74474 17.974 1.39956C18.3755 1.25946 18.7964 1.17721 19.222 1.17482Z" fill="#101011"/>
<path d="M61.1229 12.6327C61.6387 12.6327 62.1544 12.6327 62.6858 12.6327C62.6858 15.6385 62.6858 18.6443 62.6858 21.7412C62.1942 21.7412 61.7026 21.7412 61.1962 21.7412C61.1881 21.443 61.1801 21.1448 61.1718 20.8376C61.1073 20.9263 61.0428 21.0149 60.9764 21.1062C60.5789 21.5677 60.0206 21.8349 59.4136 21.8877C58.6043 21.9341 57.8209 21.7249 57.1914 21.2039C57.1707 21.1872 57.15 21.1705 57.1286 21.1533C56.5172 20.6348 56.2 19.8361 56.1169 19.055C56.1099 18.9232 56.1086 18.7917 56.1093 18.6597C56.1093 18.6421 56.1094 18.6245 56.1094 18.6063C56.1106 18.3276 56.1243 18.057 56.1902 17.7852C56.1944 17.7679 56.1986 17.7506 56.2029 17.7327C56.4062 16.925 56.8625 16.2173 57.5863 15.7844C58.2664 15.3882 59.097 15.2547 59.8633 15.4537C60.2064 15.5502 60.4928 15.7135 60.7566 15.9537C60.7806 15.9752 60.7806 15.9752 60.8051 15.997C60.9263 16.1113 60.9991 16.2268 61.0985 16.3689C61.1106 14.5195 61.1106 14.5195 61.1229 12.6327ZM58.1697 17.3104C57.7834 17.7683 57.6936 18.3272 57.7286 18.9085C57.7681 19.2799 57.9173 19.654 58.1682 19.9341C58.1895 19.9583 58.1895 19.9583 58.2112 19.983C58.5002 20.292 58.8969 20.4536 59.3152 20.4767C59.828 20.4921 60.2605 20.3404 60.6391 19.9906C60.9902 19.6222 61.1199 19.1222 61.1321 18.6261C61.1185 18.0725 60.9422 17.5641 60.5368 17.1747C60.263 16.947 59.9163 16.8063 59.5601 16.784C59.5409 16.7827 59.5218 16.7814 59.5021 16.7801C59.005 16.7631 58.5136 16.948 58.1697 17.3104Z" fill="#101011"/>
<path d="M18.2182 13.585C18.8468 13.585 19.4754 13.585 20.123 13.585C20.1985 13.7511 20.2718 13.9154 20.3387 14.0847C20.3515 14.1171 20.3515 14.1171 20.3647 14.1502C20.3931 14.2217 20.4214 14.2933 20.4498 14.3649C20.4702 14.4164 20.4907 14.4679 20.5112 14.5195C20.5551 14.6301 20.599 14.7407 20.6429 14.8514C20.7556 15.1354 20.8685 15.4193 20.9814 15.7032C20.9938 15.7342 21.0061 15.7652 21.0184 15.7962C21.2739 16.4387 21.5313 17.0803 21.7894 17.7217C21.8431 17.8553 21.8968 17.9889 21.9506 18.1224C21.9612 18.149 21.9719 18.1755 21.9829 18.2028C22.0045 18.2566 22.0261 18.3103 22.0477 18.364C22.0693 18.4178 22.0909 18.4715 22.1125 18.5252C22.1901 18.7181 22.2676 18.9109 22.3451 19.1038C22.3628 19.1477 22.3628 19.1477 22.3808 19.1925C22.527 19.5561 22.6731 19.9198 22.8189 20.2835C22.8767 20.4277 22.9346 20.5719 22.9926 20.7161C23.0463 20.8498 23.1 20.9835 23.1535 21.1173C23.1732 21.1665 23.193 21.2156 23.2128 21.2647C23.2397 21.3316 23.2665 21.3986 23.2933 21.4656C23.3052 21.495 23.3052 21.495 23.3173 21.525C23.3708 21.6594 23.3708 21.6594 23.3708 21.7411C22.7905 21.7411 22.2103 21.7411 21.6126 21.7411C21.4752 21.4114 21.4752 21.4114 21.4277 21.2859C21.417 21.2578 21.4063 21.2297 21.3953 21.2008C21.3843 21.1715 21.3733 21.1423 21.3619 21.1122C21.3501 21.081 21.3383 21.0498 21.3264 21.0187C21.3019 20.9541 21.2775 20.8895 21.2531 20.8248C21.2218 20.742 21.1904 20.6593 21.159 20.5765C21.129 20.4972 21.0989 20.4178 21.0688 20.3384C21.0576 20.3087 21.0464 20.279 21.0348 20.2484C21.0244 20.221 21.0141 20.1936 21.0034 20.1654C20.9943 20.1413 20.9851 20.1172 20.9757 20.0923C20.9593 20.048 20.9438 20.0033 20.9288 19.9584C19.7442 19.9504 18.5596 19.9423 17.3391 19.934C17.315 20.0146 17.2908 20.0952 17.2659 20.1782C17.2493 20.226 17.2322 20.2736 17.2143 20.3209C17.2048 20.346 17.1954 20.3711 17.1856 20.3969C17.1756 20.4232 17.1656 20.4495 17.1553 20.4766C17.1448 20.5044 17.1343 20.5322 17.1235 20.5608C17.1014 20.6193 17.0792 20.6777 17.0571 20.7362C17.0233 20.825 16.9897 20.9139 16.9561 21.0028C16.9345 21.0599 16.9129 21.117 16.8913 21.1741C16.8813 21.2004 16.8714 21.2266 16.8611 21.2537C16.8157 21.3733 16.7699 21.4927 16.7231 21.6117C16.7153 21.6314 16.7076 21.651 16.6996 21.6713C16.6798 21.7166 16.6798 21.7166 16.6554 21.7411C16.603 21.7434 16.5504 21.7439 16.498 21.7438C16.4733 21.7438 16.4733 21.7438 16.4481 21.7438C16.3936 21.7438 16.339 21.7436 16.2844 21.7434C16.2467 21.7434 16.209 21.7434 16.1712 21.7433C16.0717 21.7432 15.9722 21.743 15.8726 21.7427C15.7712 21.7425 15.6697 21.7424 15.5682 21.7423C15.369 21.742 15.1697 21.7416 14.9705 21.7411C14.9858 21.6107 15.0281 21.5004 15.0774 21.3799C15.0903 21.3479 15.0903 21.3479 15.1034 21.3153C15.1321 21.2439 15.1611 21.1727 15.19 21.1014C15.2107 21.0503 15.2313 20.9992 15.2519 20.9481C15.2963 20.838 15.3408 20.7279 15.3854 20.6178C15.4936 20.3505 15.6013 20.083 15.7091 19.8155C15.7341 19.7537 15.759 19.6918 15.784 19.63C16.0372 19.0021 16.2878 18.3731 16.5378 17.7439C16.9055 16.8186 17.2747 15.894 17.6458 14.97C17.6808 14.8827 17.7158 14.7955 17.7508 14.7082C17.8054 14.5722 17.86 14.4362 17.9147 14.3003C17.9347 14.2504 17.9547 14.2005 17.9747 14.1506C18.0021 14.0824 18.0295 14.0143 18.0569 13.9461C18.0649 13.9263 18.0728 13.9066 18.0809 13.8862C18.0883 13.8678 18.0957 13.8495 18.1034 13.8305C18.1097 13.8148 18.116 13.7991 18.1225 13.7829C18.1519 13.7158 18.1855 13.6505 18.2182 13.585ZM19.1218 15.1722C18.9032 15.7286 18.6902 16.2869 18.4799 16.8464C18.3751 17.125 18.2696 17.4033 18.1625 17.681C18.1522 17.7078 18.1419 17.7345 18.1313 17.7621C18.0822 17.8896 18.0329 18.0171 17.9834 18.1445C17.9659 18.1899 17.9484 18.2352 17.9309 18.2806C17.9229 18.3012 17.9148 18.3218 17.9065 18.343C17.8993 18.3619 17.892 18.3807 17.8846 18.4001C17.8751 18.4246 17.8751 18.4246 17.8654 18.4496C17.8484 18.4973 17.8484 18.4973 17.852 18.5665C18.6981 18.5665 19.5442 18.5665 20.416 18.5665C20.3587 18.373 20.3587 18.373 20.2925 18.184C20.2832 18.1595 20.2739 18.1351 20.2644 18.1099C20.2545 18.0841 20.2446 18.0582 20.2344 18.0316C20.2238 18.0038 20.2132 17.976 20.2024 17.9474C20.1738 17.8722 20.1451 17.7971 20.1164 17.722C20.0863 17.6431 20.0563 17.5643 20.0263 17.4854C19.977 17.3558 19.9276 17.2262 19.8782 17.0967C19.8099 16.9175 19.7417 16.7383 19.6737 16.5591C19.6633 16.5318 19.653 16.5045 19.6423 16.4764C19.622 16.4229 19.6017 16.3695 19.5814 16.3161C19.4366 15.9347 19.2915 15.5534 19.1462 15.1722C19.1381 15.1722 19.1301 15.1722 19.1218 15.1722Z" fill="#101011"/>
<path d="M49.8782 16.2022C50.4509 16.7433 50.7632 17.5576 50.7968 18.3358C50.7983 18.4021 50.7987 18.4683 50.7987 18.5345C50.799 18.5563 50.7993 18.5781 50.7996 18.6005C50.8 18.7924 50.7732 18.9573 50.7453 19.1526C49.2222 19.1607 47.6992 19.1688 46.13 19.1771C46.2446 19.6356 46.4227 19.9799 46.8257 20.2405C47.3386 20.5372 47.921 20.5799 48.4878 20.4341C48.876 20.3248 49.1935 20.1242 49.4755 19.8364C49.5671 19.8744 49.6243 19.9311 49.6933 20.0015C49.7047 20.013 49.716 20.0244 49.7277 20.0362C49.7638 20.0728 49.7997 20.1095 49.8357 20.1462C50.0433 20.3584 50.0433 20.3584 50.2643 20.5563C50.3347 20.6193 50.3926 20.6913 50.4523 20.7643C49.8479 21.4775 49.0544 21.7948 48.1346 21.8817C47.214 21.9541 46.3188 21.7409 45.5994 21.149C45.0061 20.6331 44.6422 19.933 44.5427 19.1526C44.5401 19.1336 44.5374 19.1146 44.5346 19.095C44.4307 18.2026 44.6236 17.2702 45.1577 16.5401C45.6959 15.8609 46.4269 15.4881 47.2825 15.3824C48.2505 15.2876 49.1476 15.5643 49.8782 16.2022ZM47.0335 16.7595C47.0086 16.7693 46.9837 16.7791 46.958 16.7892C46.6255 16.937 46.3457 17.2211 46.2139 17.5617C46.1612 17.7094 46.1279 17.8488 46.1056 18.0049C47.129 18.0049 48.1524 18.0049 49.2069 18.0049C49.1515 17.7204 49.1515 17.7204 49.0466 17.4631C49.0382 17.4469 49.0298 17.4306 49.0211 17.4139C48.8269 17.0555 48.5139 16.8383 48.1324 16.7107C47.7788 16.6103 47.3743 16.6223 47.0335 16.7595Z" fill="#101011"/>
<path d="M54.7176 3.99446C55.3081 4.61226 55.584 5.44705 55.5845 6.29142C55.5848 6.31709 55.5851 6.34276 55.5854 6.3692C55.5855 6.39481 55.5855 6.42042 55.5856 6.4468C55.5857 6.46945 55.5858 6.49209 55.5859 6.51542C55.5771 6.64271 55.5521 6.76841 55.5311 6.89427C54.0081 6.89427 52.485 6.89427 50.9158 6.89427C51.0341 7.3379 51.1892 7.72034 51.5944 7.97135C51.8732 8.13051 52.1795 8.248 52.5031 8.26176C52.5209 8.26274 52.5387 8.26371 52.557 8.26472C53.1366 8.28106 53.7105 8.0947 54.1392 7.70011C54.1802 7.65967 54.2209 7.61904 54.2613 7.57802C54.353 7.61605 54.4101 7.67271 54.4792 7.74313C54.4905 7.75458 54.5018 7.76603 54.5135 7.77783C54.5496 7.81438 54.5856 7.8511 54.6215 7.88784C54.8295 8.10017 54.8295 8.10017 55.0501 8.29914C55.1164 8.3565 55.1769 8.41885 55.2381 8.48154C55.0467 8.91138 54.4783 9.20506 54.0642 9.37428C53.3309 9.65028 52.5138 9.7195 51.7461 9.55599C51.7188 9.55029 51.7188 9.55029 51.691 9.54447C50.9184 9.37539 50.2421 8.89646 49.8089 8.23752C49.5482 7.82638 49.3833 7.35419 49.3286 6.86985C49.3259 6.84738 49.3232 6.8249 49.3205 6.80174C49.2335 5.94113 49.3956 4.99138 49.9391 4.29665C49.9712 4.25868 50.0038 4.22103 50.0367 4.18371C50.0543 4.16319 50.0719 4.14266 50.0901 4.12152C50.6254 3.50912 51.3627 3.18453 52.1681 3.11873C53.125 3.05558 54.0165 3.33307 54.7176 3.99446ZM51.2333 4.91629C51.0364 5.1706 50.9486 5.43215 50.8914 5.74656C51.9148 5.74656 52.9383 5.74656 53.9927 5.74656C53.9129 5.30771 53.7504 4.942 53.3822 4.6721C52.6916 4.24231 51.7985 4.29856 51.2333 4.91629Z" fill="#101011"/>
<path d="M47.5223 3.95444C48.0901 4.50889 48.4174 5.29542 48.4303 6.08684C48.4368 6.66623 48.4368 6.66623 48.4009 6.8696C48.3595 6.91102 48.3078 6.89701 48.2526 6.89717C48.2347 6.8971 48.2168 6.89703 48.1984 6.89696C48.1795 6.89698 48.1606 6.897 48.1412 6.89702C48.0775 6.89706 48.0138 6.89693 47.9501 6.89679C47.9046 6.89679 47.8591 6.89679 47.8136 6.8968C47.6898 6.89681 47.5659 6.89667 47.4421 6.8965C47.3128 6.89634 47.1835 6.89633 47.0542 6.8963C46.8092 6.89622 46.5642 6.89602 46.3192 6.89578C46.0403 6.89551 45.7615 6.89537 45.4826 6.89525C44.9088 6.89499 44.335 6.89456 43.7612 6.89402C43.7797 6.95999 43.7985 7.02589 43.8173 7.09176C43.8225 7.11024 43.8276 7.12873 43.833 7.14777C43.9486 7.54906 44.2133 7.84117 44.5718 8.04295C45.0959 8.31881 45.6904 8.31023 46.2468 8.14344C46.5874 8.03392 46.863 7.83557 47.1067 7.57776C47.1918 7.61401 47.2445 7.66231 47.3082 7.72886C47.3741 7.79757 47.4416 7.86206 47.5138 7.92403C47.6363 8.03016 47.7497 8.14486 47.8637 8.25998C47.8849 8.28134 47.9062 8.3027 47.9281 8.3247C47.9799 8.37684 48.0317 8.42904 48.0835 8.48129C48.0436 8.58932 47.9908 8.66049 47.9095 8.74074C47.8903 8.75974 47.8903 8.75974 47.8706 8.77911C47.141 9.47654 46.137 9.6531 45.164 9.63222C44.3194 9.59991 43.5309 9.23261 42.9508 8.6217C42.6036 8.2239 42.3686 7.74859 42.2472 7.23589C42.2395 7.20501 42.2317 7.17413 42.2237 7.14232C42.0323 6.28399 42.1907 5.33618 42.6135 4.57417C42.6265 4.55069 42.6395 4.52721 42.6528 4.50301C43.035 3.86155 43.6948 3.40735 44.4113 3.21937C45.5019 2.94778 46.6948 3.17102 47.5223 3.95444ZM44.1256 4.87054C43.9205 5.1074 43.7612 5.42968 43.7612 5.74631C44.7766 5.74631 45.792 5.74631 46.8381 5.74631C46.7923 5.33442 46.6188 4.99056 46.3009 4.72069C45.6648 4.22618 44.6863 4.29402 44.1256 4.87054Z" fill="#101011"/>
<path d="M29.012 3.45091C29.0363 3.46271 29.0606 3.47452 29.0856 3.48668C29.4109 3.65423 29.7115 3.8973 29.94 4.18349C29.9586 4.20672 29.9772 4.22995 29.9963 4.25389C30.5867 5.01991 30.7031 5.95966 30.5993 6.89405C29.0682 6.89405 27.5371 6.89405 25.9596 6.89405C26.1316 7.44431 26.3219 7.79771 26.8326 8.07229C27.0612 8.1814 27.3176 8.2506 27.5713 8.26154C27.5893 8.26252 27.6074 8.26349 27.6259 8.2645C28.2124 8.28082 28.7586 8.08441 29.2002 7.70476C29.2596 7.65166 29.2596 7.65166 29.3051 7.5778C29.5652 7.69299 29.7813 7.97775 29.9796 8.1776C30.0091 8.20719 30.0386 8.23678 30.0681 8.26636C30.1394 8.33795 30.2106 8.40961 30.2818 8.48132C30.2402 8.59569 30.1799 8.66978 30.0941 8.75451C30.0801 8.76838 30.0661 8.78225 30.0516 8.79655C29.3646 9.45546 28.3922 9.64322 27.473 9.63418C26.675 9.61656 25.9008 9.33606 25.3247 8.77435C25.304 8.75471 25.2834 8.73507 25.2621 8.71483C25.2425 8.69418 25.2228 8.67353 25.2026 8.65225C25.1795 8.6294 25.1795 8.6294 25.1559 8.60609C24.5328 7.95988 24.3539 7.05648 24.3663 6.19028C24.3879 5.37382 24.6848 4.60391 25.2514 4.01256C25.2684 3.99402 25.2854 3.97547 25.3029 3.95637C25.7601 3.47332 26.4321 3.21002 27.0829 3.13346C27.1145 3.12971 27.146 3.12596 27.1786 3.1221C27.8108 3.06131 28.4439 3.17091 29.012 3.45091ZM26.3503 4.86724C26.3366 4.88043 26.3229 4.89362 26.3088 4.9072C26.1095 5.11486 25.9596 5.45944 25.9596 5.74634C26.975 5.74634 27.9903 5.74634 29.0364 5.74634C28.9931 5.31266 28.8067 4.97918 28.4748 4.6963C27.8279 4.23482 26.9058 4.2953 26.3503 4.86724Z" fill="#101011"/>
<path d="M73.4975 3.97195C74.0222 4.48321 74.3655 5.26658 74.3853 6.00049C74.3862 6.08194 74.3865 6.16334 74.3863 6.24479C74.3862 6.29574 74.3863 6.34669 74.3864 6.39764C74.3866 6.7139 74.3866 6.7139 74.3587 6.86972C74.3173 6.91114 74.2656 6.89712 74.2103 6.89729C74.1924 6.89722 74.1745 6.89715 74.1561 6.89708C74.1372 6.8971 74.1184 6.89712 74.0989 6.89714C74.0352 6.89718 73.9715 6.89704 73.9078 6.89691C73.8623 6.8969 73.8169 6.89691 73.7714 6.89692C73.6475 6.89693 73.5237 6.89679 73.3998 6.89662C73.2705 6.89646 73.1412 6.89645 73.012 6.89642C72.767 6.89634 72.5219 6.89614 72.2769 6.8959C71.9981 6.89563 71.7192 6.89549 71.4404 6.89537C70.8666 6.89511 70.2928 6.89468 69.719 6.89414C69.7344 6.94908 69.7499 7.004 69.7654 7.0589C69.774 7.08949 69.7827 7.12007 69.7915 7.15159C69.9111 7.55343 70.1689 7.84193 70.53 8.04346C71.0275 8.3032 71.6068 8.32131 72.138 8.15937C72.5021 8.0418 72.8007 7.85556 73.0644 7.57788C73.1645 7.61719 73.2296 7.68963 73.3025 7.76561C73.3821 7.84801 73.4625 7.92721 73.5494 8.00198C73.6574 8.09528 73.7578 8.19524 73.8581 8.29673C73.8758 8.3146 73.8936 8.33246 73.9119 8.35086C73.9551 8.39432 73.9982 8.43784 74.0412 8.4814C73.8124 8.95409 73.2214 9.24961 72.7486 9.42079C71.7976 9.74455 70.6994 9.73109 69.7893 9.2896C69.0906 8.93615 68.5635 8.32324 68.3041 7.58596C68.1737 7.1855 68.122 6.79502 68.1241 6.37523C68.1241 6.35639 68.1242 6.33755 68.1242 6.31815C68.1255 6.04044 68.1343 5.772 68.205 5.50223C68.2098 5.48299 68.2147 5.46375 68.2197 5.44392C68.4158 4.68369 68.8379 4.021 69.5053 3.59293C70.7672 2.85369 72.4172 2.95437 73.4975 3.97195ZM70.0853 4.86732C69.8786 5.11177 69.719 5.42199 69.719 5.74642C70.7343 5.74642 71.7497 5.74642 72.7958 5.74642C72.7509 5.34213 72.5798 4.9802 72.2586 4.72081C71.5683 4.25676 70.6961 4.27837 70.0853 4.86732Z" fill="#101011"/>
<path d="M68.6231 16.0568C68.8795 16.2972 69.0541 16.6002 69.1671 16.9305C69.173 16.9473 69.1788 16.964 69.1848 16.9813C69.2957 17.3275 69.2872 17.6854 69.2875 18.0446C69.2876 18.1371 69.288 18.2296 69.2885 18.3221C69.2897 18.5514 69.2905 18.7808 69.291 19.0101C69.2914 19.2047 69.2921 19.3993 69.2933 19.5939C69.2936 19.6552 69.2937 19.7165 69.2937 19.7778C69.2937 19.8633 69.2942 19.9487 69.2947 20.0342C69.2946 20.0594 69.2945 20.0847 69.2944 20.1108C69.2952 20.2789 69.2952 20.2789 69.3777 20.4225C69.4931 20.4924 69.6039 20.4817 69.744 20.4957C69.744 20.9067 69.744 21.3177 69.744 21.7411C69.602 21.7426 69.46 21.7441 69.3136 21.7457C69.2696 21.7464 69.2255 21.747 69.1801 21.7477C68.7903 21.7512 68.4004 21.7076 68.0988 21.4328C67.9906 21.3166 67.9272 21.1771 67.8637 21.033C67.8542 21.0463 67.8447 21.0596 67.8349 21.0733C67.5018 21.5224 67.0183 21.7837 66.4716 21.8687C65.8281 21.9544 65.1343 21.8552 64.5968 21.473C64.5362 21.4258 64.4781 21.3769 64.4206 21.326C64.3973 21.3057 64.3973 21.3057 64.3736 21.2851C64.0569 20.9909 63.8711 20.524 63.8531 20.0961C63.8415 19.5812 63.9504 19.1234 64.3129 18.7411C64.8618 18.1947 65.6896 18.0266 66.4373 18.0266C66.4692 18.0267 66.501 18.0269 66.5338 18.027C66.5674 18.027 66.601 18.0271 66.6346 18.0271C66.7222 18.0272 66.8098 18.0274 66.8974 18.0277C66.9871 18.0279 67.0768 18.0281 67.1665 18.0282C67.342 18.0284 67.5174 18.0288 67.6928 18.0294C67.6895 17.9589 67.686 17.8884 67.6824 17.818C67.681 17.7882 67.681 17.7882 67.6796 17.7579C67.6656 17.4883 67.5931 17.235 67.3888 17.0461C67.0509 16.7858 66.6221 16.718 66.2036 16.765C65.7872 16.8217 65.4341 16.9824 65.1343 17.2783C65.0799 17.3212 65.0799 17.3212 64.9822 17.3212C64.9259 17.2732 64.8757 17.2254 64.8247 17.1723C64.8095 17.157 64.7944 17.1417 64.7789 17.1259C64.7304 17.0768 64.6823 17.0273 64.6343 16.9778C64.5712 16.9133 64.5079 16.849 64.4446 16.7846C64.4296 16.7693 64.4145 16.754 64.399 16.7382C64.2966 16.6343 64.1918 16.5345 64.0787 16.4421C64.2875 16.0144 64.8227 15.7324 65.249 15.5802C66.3347 15.2117 67.7331 15.2548 68.6231 16.0568ZM65.6706 19.3846C65.6529 19.4048 65.6353 19.4249 65.6171 19.4457C65.5915 19.4729 65.5915 19.4729 65.5653 19.5006C65.4415 19.6821 65.4188 19.8814 65.4577 20.0946C65.5184 20.3309 65.656 20.4905 65.8613 20.6178C66.1324 20.7612 66.5004 20.755 66.7902 20.6689C67.1754 20.5271 67.433 20.3196 67.6112 19.9452C67.689 19.7446 67.6992 19.5738 67.6959 19.3602C67.6956 19.3332 67.6954 19.3061 67.6952 19.2782C67.6946 19.2119 67.6938 19.1457 67.6928 19.0794C66.6217 19.0062 66.6217 19.0062 65.6706 19.3846Z" fill="#101011"/>
<path d="M61.6312 3.63166C62.1001 4.07464 62.3275 4.7189 62.3487 5.35673C62.3508 5.46607 62.3503 5.57539 62.3498 5.68474C62.3498 5.72641 62.3498 5.76808 62.3498 5.80975C62.3498 5.92179 62.3495 6.03382 62.3492 6.14585C62.3489 6.26334 62.3489 6.38083 62.3488 6.49832C62.3486 6.72031 62.3482 6.9423 62.3478 7.1643C62.3472 7.41723 62.3469 7.67017 62.3467 7.92311C62.3462 8.44297 62.3453 8.96283 62.3442 9.48269C61.8285 9.48269 61.3128 9.48269 60.7814 9.48269C60.7809 9.37378 60.7804 9.26486 60.7799 9.15265C60.7783 8.79182 60.7764 8.431 60.7744 8.07018C60.7731 7.85153 60.772 7.63287 60.7711 7.41422C60.7703 7.22347 60.7693 7.03273 60.7681 6.84198C60.7675 6.74113 60.767 6.64029 60.7667 6.53944C60.7663 6.44419 60.7658 6.34895 60.7651 6.25371C60.7649 6.21906 60.7647 6.18441 60.7647 6.14977C60.7638 5.66399 60.7299 5.10893 60.3663 4.74532C60.079 4.53258 59.7622 4.4909 59.4139 4.52554C59.2251 4.56198 59.053 4.62608 58.9011 4.74532C58.8866 4.75646 58.8722 4.7676 58.8573 4.77908C58.5459 5.05267 58.4629 5.52502 58.4371 5.91745C58.4333 6.0367 58.4326 6.15593 58.4321 6.27522C58.4319 6.31039 58.4316 6.34555 58.4314 6.38072C58.4307 6.47535 58.4302 6.56998 58.4297 6.66461C58.4292 6.76382 58.4285 6.86302 58.4279 6.96223C58.4266 7.14972 58.4255 7.3372 58.4245 7.52469C58.423 7.77831 58.4214 8.03192 58.4198 8.28554C58.4173 8.68459 58.415 9.08364 58.4127 9.48269C57.897 9.48269 57.3812 9.48269 56.8499 9.48269C56.8499 7.43585 56.8499 5.38901 56.8499 3.28015C57.3414 3.28015 57.833 3.28015 58.3394 3.28015C58.3475 3.52996 58.3556 3.77977 58.3639 4.03715C58.4203 3.94851 58.4767 3.85987 58.5348 3.76854C58.8533 3.38203 59.2931 3.17155 59.7897 3.11894C60.434 3.06559 61.1303 3.20345 61.6312 3.63166Z" fill="#101011"/>
<path d="M38.7877 15.966C39.0843 16.2435 39.0843 16.2435 39.0975 16.3934C39.0686 16.4407 39.0686 16.4407 39.0233 16.4861C39.0065 16.5033 38.9897 16.5204 38.9724 16.5381C38.9539 16.5563 38.9354 16.5744 38.9163 16.5931C38.8976 16.612 38.8788 16.6308 38.8594 16.6502C38.8196 16.69 38.7797 16.7296 38.7395 16.7691C38.678 16.8297 38.6171 16.8909 38.5564 16.9523C38.5177 16.9909 38.4789 17.0293 38.4401 17.0678C38.4219 17.0862 38.4036 17.1046 38.3848 17.1236C38.3676 17.1404 38.3504 17.1571 38.3327 17.1743C38.3177 17.1892 38.3026 17.204 38.2871 17.2194C38.2428 17.248 38.2428 17.248 38.1904 17.2426C38.1353 17.2195 38.1161 17.1953 38.081 17.1473C37.8839 16.9056 37.5483 16.7325 37.2416 16.6864C36.9255 16.6604 36.6076 16.6579 36.3488 16.865C36.2288 16.9829 36.1883 17.095 36.1824 17.2618C36.1881 17.4219 36.232 17.5145 36.3457 17.6265C36.6084 17.8398 36.9758 17.9156 37.2949 18.0075C37.9166 18.1876 38.5618 18.4497 38.9126 19.0281C39.1325 19.4629 39.1807 20.021 39.0321 20.4864C38.8059 21.065 38.4119 21.4207 37.8551 21.6741C37.0902 21.9882 36.1246 21.9844 35.3595 21.6717C34.9751 21.5048 34.6189 21.2541 34.4089 20.8865C34.699 20.5964 34.9891 20.3063 35.288 20.0074C35.3779 20.0524 35.4224 20.0883 35.4925 20.157C35.8278 20.4622 36.2502 20.6135 36.7044 20.5935C36.9619 20.5694 37.2235 20.5139 37.4125 20.3249C37.5048 20.1908 37.5413 20.0476 37.5346 19.8853C37.5074 19.7574 37.452 19.6645 37.3637 19.5679C37.0856 19.3896 36.757 19.3017 36.4431 19.2093C36.1621 19.1264 35.8936 19.037 35.6299 18.9086C35.6055 18.8968 35.581 18.8851 35.5558 18.873C35.1672 18.6746 34.844 18.3504 34.6959 17.9364C34.5441 17.4419 34.5726 16.9092 34.7996 16.4422C34.8505 16.3552 34.9074 16.2764 34.9706 16.198C34.9951 16.1675 34.9951 16.1675 35.0201 16.1364C35.436 15.6476 36.0385 15.4366 36.6628 15.3791C37.4196 15.3189 38.2029 15.4529 38.7877 15.966Z" fill="#101011"/>
<path d="M64.5183 1.59509C64.9696 1.59509 65.4209 1.59509 65.8858 1.59509C65.8858 2.15112 65.8858 2.70716 65.8858 3.28004C66.3774 3.28004 66.869 3.28004 67.3754 3.28004C67.3754 3.70713 67.3754 4.13423 67.3754 4.57427C66.8839 4.57427 66.3923 4.57427 65.8858 4.57427C65.8875 5.10346 65.8875 5.10346 65.89 5.63265C65.8911 5.822 65.8921 6.01135 65.8925 6.20071C65.8928 6.3668 65.8937 6.53289 65.8948 6.69898C65.8952 6.76217 65.8954 6.82537 65.8954 6.88856C65.8809 7.44163 65.8809 7.44163 66.113 7.92832C66.3109 8.12036 66.5473 8.15406 66.8138 8.16393C66.9669 8.14781 67.12 8.13169 67.2777 8.11509C67.2777 8.55024 67.2777 8.9854 67.2777 9.43374C66.7304 9.65268 65.9455 9.57483 65.4101 9.35056C64.9536 9.14383 64.6572 8.79232 64.4695 8.33487C64.3542 8.01246 64.3153 7.67318 64.3174 7.33264C64.3174 7.30258 64.3174 7.27252 64.3174 7.24155C64.3175 7.16024 64.3177 7.07894 64.318 6.99763C64.3183 6.91224 64.3184 6.82685 64.3184 6.74147C64.3186 6.58027 64.319 6.41908 64.3195 6.25788C64.32 6.07416 64.3203 5.89043 64.3205 5.7067C64.321 5.32922 64.3219 4.95175 64.323 4.57427C63.9684 4.57427 63.6139 4.57427 63.2485 4.57427C63.2485 4.14717 63.2485 3.72007 63.2485 3.28004C63.5751 3.27088 63.5751 3.27088 63.6766 3.26836C64.066 3.25868 64.066 3.25868 64.3901 3.06637C64.506 2.89898 64.5019 2.7297 64.504 2.53229C64.5045 2.50846 64.5049 2.48463 64.5053 2.46007C64.5069 2.37168 64.508 2.28329 64.5092 2.1949C64.5122 1.99696 64.5152 1.79903 64.5183 1.59509Z" fill="#101011"/>
<path d="M40.9285 13.8535C41.3717 13.8535 41.8149 13.8535 42.2716 13.8535C42.2716 14.4095 42.2716 14.9656 42.2716 15.5385C42.7712 15.5385 43.2708 15.5385 43.7856 15.5385C43.7856 15.9656 43.7856 16.3927 43.7856 16.8327C43.286 16.8327 42.7863 16.8327 42.2716 16.8327C42.2745 17.3116 42.2745 17.3116 42.2779 17.7906C42.2793 17.9861 42.2808 18.1816 42.2819 18.3771C42.2828 18.5348 42.2839 18.6925 42.2852 18.8502C42.2857 18.9102 42.286 18.9702 42.2863 19.0302C42.2867 19.1146 42.2874 19.199 42.2882 19.2833C42.2883 19.3079 42.2883 19.3324 42.2884 19.3576C42.292 19.666 42.3285 19.9767 42.544 20.2131C42.6877 20.3355 42.863 20.4009 43.0502 20.4012C43.0732 20.4012 43.0961 20.4012 43.1197 20.4013C43.1435 20.4012 43.1673 20.4011 43.1919 20.401C43.2152 20.4011 43.2386 20.4012 43.2626 20.4013C43.2857 20.4012 43.3088 20.4012 43.3326 20.4012C43.3533 20.4011 43.374 20.4011 43.3954 20.4011C43.4932 20.3968 43.5906 20.3843 43.6879 20.3735C43.6879 20.8087 43.6879 21.2438 43.6879 21.6922C43.5226 21.7473 43.5226 21.7473 43.441 21.7565C43.4228 21.7585 43.4047 21.7606 43.3859 21.7627C42.717 21.8292 42.0071 21.8112 41.4413 21.3991C40.9856 21.0239 40.7836 20.487 40.726 19.9114C40.7116 19.7303 40.7053 19.5509 40.706 19.3693C40.706 19.3416 40.7059 19.3139 40.7059 19.2854C40.706 19.1952 40.7062 19.1049 40.7063 19.0147C40.7064 18.9516 40.7064 18.8886 40.7064 18.8255C40.7065 18.6773 40.7067 18.5291 40.707 18.3809C40.7072 18.2119 40.7074 18.0429 40.7075 17.874C40.7078 17.5269 40.7082 17.1798 40.7087 16.8327C40.3622 16.8327 40.0157 16.8327 39.6587 16.8327C39.6587 16.4056 39.6587 15.9785 39.6587 15.5385C39.9609 15.5264 39.9609 15.5264 40.2692 15.514C40.55 15.4894 40.55 15.4894 40.782 15.3431C40.8755 15.208 40.9061 15.067 40.9091 14.9042C40.9096 14.8804 40.9101 14.8566 40.9106 14.8321C40.911 14.8074 40.9114 14.7828 40.9118 14.7573C40.9123 14.7344 40.9127 14.7115 40.9132 14.6879C40.9149 14.6026 40.9163 14.5173 40.9178 14.432C40.9213 14.2411 40.9249 14.0502 40.9285 13.8535Z" fill="#101011"/>
<path d="M55.3039 15.4732C55.321 15.474 55.3381 15.4749 55.3557 15.4757C55.3725 15.4768 55.3892 15.4779 55.4064 15.479C55.4211 15.4799 55.4357 15.4808 55.4508 15.4818C55.5359 15.4942 55.6189 15.518 55.7022 15.5388C55.7022 16.0384 55.7022 16.5381 55.7022 17.0528C55.5411 17.0286 55.3799 17.0045 55.2138 16.9796C55.1272 16.9731 55.0465 16.9677 54.9605 16.9689C54.9304 16.9692 54.9304 16.9692 54.8997 16.9695C54.5554 16.9789 54.2536 17.0975 54.0112 17.3474C53.6966 17.7272 53.6481 18.186 53.646 18.6614C53.6457 18.6951 53.6455 18.7288 53.6452 18.7626C53.6446 18.8535 53.6441 18.9444 53.6436 19.0353C53.643 19.1305 53.6424 19.2257 53.6417 19.3209C53.6405 19.501 53.6394 19.681 53.6384 19.8611C53.6369 20.1046 53.6353 20.3481 53.6337 20.5916C53.6312 20.9749 53.6289 21.3581 53.6266 21.7414C53.1108 21.7414 52.5951 21.7414 52.0637 21.7414C52.0637 19.6945 52.0637 17.6477 52.0637 15.5388C52.5553 15.5388 53.0468 15.5388 53.5533 15.5388C53.5614 15.845 53.5694 16.1513 53.5777 16.4668C53.6261 16.3781 53.6744 16.2895 53.7242 16.1981C53.9757 15.8311 54.3186 15.5985 54.7528 15.5029C54.9385 15.4688 55.1159 15.4635 55.3039 15.4732Z" fill="#101011"/>
</g>
<defs>
<clipPath id="clip0_1_39531">
<rect width="79.9005" height="34.6512" fill="white" transform="translate(0.0996094 0.301025)"/>
</clipPath>
</defs>
</svg>
