<svg width="79" height="28" viewBox="0 0 79 28" fill="none" xmlns="http://www.w3.org/2000/svg">
<g clip-path="url(#clip0_1_39607)">
<path d="M49.1769 9.06296C50.036 8.99513 52.5258 7.77991 52.7773 6.54491C52.8932 5.97122 52.8027 5.45122 52.5314 5.11491C52.3393 4.87752 52.0736 4.75317 51.7627 4.75317C51.7317 4.75317 51.7006 4.75317 51.6695 4.75883C50.8245 4.82665 48.8547 6.05883 48.4817 7.10448C48.2754 7.67817 48.3234 8.40165 48.5947 8.78317C48.7417 8.9923 48.9367 9.08557 49.1797 9.06861" fill="#101011"/>
<path d="M78.5345 18.2646C78.4017 18.2646 78.2406 18.3409 78.0682 18.4879C77.3221 19.1181 76.4206 19.4516 75.4654 19.4516C74.4508 19.4516 73.4617 19.0813 72.7467 18.4342C72.6675 18.3635 72.6562 18.2929 72.6647 18.2448C72.6704 18.194 72.7014 18.1233 72.8117 18.0696C75.4399 16.7413 76.918 15.5544 77.599 14.2261C78.0851 13.2766 78.0908 12.245 77.6132 11.4594C77.1158 10.6483 76.1973 10.199 75.0273 10.199C71.961 10.199 69.7171 12.5192 69.4401 15.9755C69.3808 16.7216 69.4147 17.4196 69.5447 18.0498L69.5617 18.1403L69.4712 18.1572C68.5132 18.3522 67.7417 18.3324 67.2556 18.0979C66.5575 17.7616 66.5575 16.4842 66.5575 15.0061C66.5575 13.0731 66.5575 10.8829 64.893 10.6624C64.7912 10.6483 64.6838 10.6427 64.5821 10.6427C63.8445 10.6427 63.1436 10.9761 62.6575 11.5583C61.8945 12.4711 61.2275 13.6016 60.5832 14.6953L60.2214 15.3085C59.7043 16.1874 59.2945 16.8798 58.7773 17.0805C58.7067 17.1087 58.636 17.1229 58.5738 17.1229C58.0651 17.1229 58.0284 16.292 57.9804 15.2407C57.9182 13.8587 57.8419 12.1405 56.6888 11.7957C55.4906 11.4396 53.6367 12.0585 51.4351 13.5479C51.2062 13.7033 51.0847 13.7598 50.983 13.7598C50.7484 13.7598 50.7201 13.4603 50.7004 13.2427C50.6834 13.0759 50.6693 12.9233 50.6608 12.7848C50.5054 10.6511 49.553 10.6511 49.0923 10.6511C48.5525 10.6511 48.1032 10.897 47.716 11.4C47.2243 12.0387 46.7099 12.9459 46.1645 13.9068C45.2121 15.5855 44.2286 17.3235 43.2677 17.7531C43.0134 17.8661 42.7986 17.9227 42.6121 17.9227C41.948 17.9227 41.8123 17.2274 41.7699 16.7046C41.6851 15.707 41.6936 14.6557 41.6993 13.7287C41.7049 12.9318 41.7106 12.1772 41.6569 11.595C41.6032 11.0213 41.2075 10.6653 40.6197 10.6653H40.5943C39.9923 10.6766 39.6023 10.9874 39.1671 11.8098C38.9608 12.197 38.7488 12.6577 38.503 13.189C38.1497 13.9548 37.7512 14.8196 37.2454 15.7324L37.1182 15.967C36.5388 17.0296 35.6627 18.6348 34.3712 18.6405C34.0293 18.6405 33.7438 18.5161 33.5375 18.2844C33.2182 17.9198 33.1051 17.3263 33.2069 16.5209C33.2719 15.9953 33.3849 15.4866 33.4951 14.9948C33.7749 13.7429 34.0151 12.6577 33.3934 11.7561C32.7406 10.8037 31.6977 10.7755 29.8043 10.7218H29.7167C28.8575 10.6935 28.5608 10.3713 28.3404 10.134C28.199 9.98135 28.0945 9.8683 27.8825 9.86548C27.7186 9.86548 27.5208 9.9983 27.3738 10.2074C27.2467 10.3911 26.9782 10.8998 27.2636 11.6911C27.6225 12.6803 28.3686 12.6972 29.2362 12.717H29.3945C30.0021 12.7368 30.5758 12.7509 30.8697 13.1663C31.1495 13.5592 31.0703 13.9435 30.9319 14.6416C30.898 14.8055 30.8612 14.9863 30.8273 15.1927C30.5701 16.6255 30.378 17.9905 30.8386 18.957C31.2456 19.8133 32.0284 20.2683 33.1051 20.2683C34.7217 20.2683 35.8069 19.4996 36.9769 17.527C37.1436 17.2472 37.2962 16.9872 37.4347 16.747C37.8586 16.0235 38.1667 15.4979 38.4012 15.1785C38.5397 14.9892 38.6923 14.814 38.8845 14.814C38.9325 14.814 38.9834 14.8253 39.0343 14.8479C39.2858 14.9666 39.2971 15.4696 39.2914 16.2807V16.3683C39.283 17.9961 39.2717 20.2287 41.4082 20.2711H41.4732C43.9997 20.2711 45.3703 17.2613 46.3736 15.0627C46.9388 13.8248 47.3458 12.929 47.8149 12.929C47.8347 12.929 47.8545 12.929 47.8743 12.9346C48.3208 13.0053 48.4395 13.8983 48.5864 15.772V15.8172L48.5582 15.8483C45.7801 18.3579 43.5193 21.28 42.9343 23.1227C42.3351 25.002 42.7704 26.6129 44.0986 27.4324C44.6101 27.749 45.2206 27.9157 45.8621 27.9157C46.7721 27.9157 47.6821 27.5935 48.5017 26.9887C51.4577 24.7957 51.2995 19.3103 50.9264 15.3735L50.9208 15.3227L50.9632 15.2916C52.3423 14.2629 53.3738 13.7627 54.1114 13.7627C55.5019 13.7627 55.5499 15.5572 55.581 16.747L55.5867 16.9222C55.6573 19.5392 55.6969 20.9805 56.8471 20.9805C57.6412 20.9805 58.246 20.5848 59.0006 19.5731C59.6054 18.762 60.1508 17.7446 60.6764 16.7611C61.4706 15.2718 62.1573 13.9887 62.8808 13.7542C63.0193 13.709 63.1464 13.6863 63.2595 13.6863C64.0056 13.6863 64.0536 14.6642 64.0932 15.447C64.1045 15.6533 64.1101 15.8709 64.1158 16.097C64.1582 17.5044 64.209 19.2566 65.3451 19.9603C65.6758 20.1637 66.0856 20.2627 66.5971 20.2627C67.2895 20.2627 68.1656 20.0733 69.1999 19.6974C69.4317 19.6127 69.604 19.5618 69.751 19.5618C70.0054 19.5618 70.1636 19.7116 70.4038 20.0253C71.2375 21.1105 72.5488 21.6842 74.1993 21.6842C77.209 21.6842 78.3819 19.6748 78.7662 19.0163C78.8736 18.8327 78.8849 18.5896 78.7917 18.4257C78.7521 18.3579 78.6786 18.2759 78.543 18.2759M47.3656 24.8127C46.9671 25.2337 46.5206 25.457 46.074 25.457C45.9327 25.457 45.7914 25.4344 45.653 25.3892C45.3025 25.2733 45.0595 25.0444 44.9267 24.7081C44.6214 23.9224 44.9464 22.5716 45.8225 21.0003C46.5743 19.655 47.5521 18.4681 48.2417 17.7079C48.3462 17.592 48.4282 17.5411 48.5045 17.5411C48.6854 17.5411 48.6995 17.787 48.7051 17.869L48.7701 19.0418C48.9143 21.5711 48.3886 23.7274 47.3627 24.8155M72.1249 17.1963C71.9017 17.1963 71.8593 16.942 71.8423 16.8346C71.588 15.3396 72.498 13.4913 73.5069 12.7057C73.9449 12.3666 74.4395 12.1772 74.903 12.1772C75.2958 12.1772 75.6321 12.3157 75.8469 12.5644C76.0645 12.8187 76.1464 13.172 76.0843 13.5874C75.9091 14.732 74.5327 16.0461 72.4019 17.1087C72.2832 17.1681 72.1984 17.1935 72.1277 17.1935" fill="#101011"/>
<path d="M26.5118 18.6971C25.7827 19.2341 25.1496 19.5054 24.6324 19.5054C24.1944 19.5054 23.827 19.3132 23.5416 18.9373C22.804 17.9595 22.2387 15.9502 21.99 13.4237C21.9703 13.2315 22.0494 13.0789 22.2077 12.9969C23.649 12.2621 24.4629 11.4595 24.9461 10.9197C26.6248 9.05169 27.5263 7.16104 27.8683 4.79843C28.0605 3.473 27.7468 2.18713 27.029 1.35626C26.3648 0.584738 25.387 0.234303 24.2311 0.350173C21.7979 0.596042 20.2746 2.67887 19.5681 6.72017C19.2629 8.46387 19.1894 10.476 19.3448 12.7002L19.3505 12.7821L19.2685 12.7963C18.3642 12.946 17.3157 13.0365 16.1542 13.0647H16.0835L16.0637 12.9997C15.6879 11.6969 15.2103 10.2952 14.6055 8.71539C13.4185 5.60387 11.6805 3.66517 9.95374 3.53235C8.84591 3.44756 8.20439 3.86017 7.33961 4.69387C4.17439 7.74887 1.67048 14.441 0.978088 18.0019C0.811348 18.861 0.856566 19.4517 1.11657 19.805C1.30874 20.065 1.62809 20.2147 2.08874 20.2628C2.95917 20.3532 3.49048 19.788 3.74765 18.5389C4.14613 16.5917 4.55591 15.0797 5.25678 12.9658C6.9807 7.76017 7.92461 5.80735 8.85722 5.4993C8.92222 5.47669 8.98722 5.46822 9.05787 5.46822C10.1968 5.46822 11.8613 8.44974 13.0144 12.5589C13.0398 12.6465 13.0624 12.7765 12.9918 12.8697C12.9211 12.963 12.7996 12.9715 12.712 12.9715C12.6866 12.9715 12.6555 12.9715 12.6244 12.9687C9.47048 12.7171 8.89678 12.4176 8.032 11.9682L7.87657 11.8863C7.73244 11.8128 7.61657 11.7421 7.51483 11.68C7.35374 11.5839 7.2407 11.5132 7.13896 11.5076H7.11917C6.97787 11.5076 6.82526 11.5839 6.68961 11.7252C6.43809 11.9823 6.29678 12.4034 6.31091 12.8471C6.3307 13.5763 6.7207 14.051 7.54309 14.3393C8.92222 14.8226 10.7959 15.0882 12.9635 15.1023C13.4298 15.1052 13.6559 15.1871 13.7492 15.6676C13.9272 16.5973 14.0798 17.5526 14.1985 18.5078C14.3653 19.8473 14.8231 20.3391 15.8066 20.2656C16.8381 20.1893 17.0444 19.2341 17.0359 18.4456C17.0274 17.4254 16.8579 16.2017 16.5385 14.8113L16.5159 14.718L16.612 14.701C17.6096 14.5287 18.5366 14.3195 19.3674 14.085L19.472 14.0539L19.4833 14.1613C19.5087 14.3902 19.537 14.6021 19.5596 14.7887C19.8027 16.651 20.0824 18.3128 21.0348 19.7626C21.6933 20.763 22.7248 20.9721 23.4766 20.9721C24.9094 20.9721 26.3931 20.2402 27.1646 19.5619C27.6366 19.1465 27.5377 18.8837 27.3963 18.7C27.207 18.4541 26.8368 18.4597 26.5118 18.7M21.8544 11.061C21.7809 7.85909 22.202 5.80735 22.5666 4.64865C22.8774 3.66235 23.615 2.59409 24.3131 2.51778C24.72 2.47256 25.0309 2.59409 25.257 2.87387C25.7629 3.50126 25.7035 4.84082 25.4803 5.88365C24.9292 8.44974 23.9796 10.2641 22.5835 11.4284C22.3716 11.6037 22.2416 11.6771 22.1313 11.6771C21.8883 11.6771 21.86 11.3578 21.8544 11.0582" fill="#101011"/>
<path d="M41.3518 9.27202C42.16 9.04028 44.0592 7.37854 43.9913 6.42049C43.9348 5.64332 43.5052 5.13745 42.8948 5.13745C42.7818 5.13745 42.6659 5.15441 42.55 5.18832C41.8011 5.4031 40.0998 6.8218 40.0433 7.83071C40.015 8.31115 40.1479 8.74071 40.405 9.01484C40.6537 9.27767 40.9985 9.37093 41.3518 9.27202Z" fill="#101011"/>
</g>
<defs>
<clipPath id="clip0_1_39607">
<rect width="78" height="27.6957" fill="white" transform="translate(0.862305 0.268311)"/>
</clipPath>
</defs>
</svg>
