<svg width="76" height="23" viewBox="0 0 76 23" fill="none" xmlns="http://www.w3.org/2000/svg">
<g clip-path="url(#clip0_1_39428)">
<path d="M29.1878 22.9755H26.3849L29.8911 16.0137L24.9905 6.32617H27.9723L31.3118 13.1436L34.6514 6.32617H37.6192L29.1878 22.9755Z" fill="#101011"/>
<path d="M45.8624 8.83271H40.4496V6.32617H50.4298L44.4294 16.2677H50.3017V18.7858H39.8743L45.8624 8.83271Z" fill="#101011"/>
<path d="M57.7042 15.9645C58.148 16.3363 58.9531 16.5222 60.123 16.5222C61.3859 16.5222 62.4646 16.1022 63.3609 15.2623C63.4714 15.1494 63.6976 14.8988 64.0397 14.512L66.6882 15.4084C66.0392 16.2566 65.5709 16.8177 65.2815 17.0916C63.8572 18.4395 62.1383 19.1134 60.1248 19.1134C58.1112 19.1134 56.4063 18.4395 54.9821 17.0916C53.5578 15.7437 52.8457 14.1169 52.8457 12.2113C52.8457 10.3057 53.5578 8.67892 54.9821 7.33103C56.4063 5.98315 58.1217 5.3092 60.1248 5.3092C61.8472 5.3092 63.3574 5.80221 64.6536 6.78657C64.8658 6.95588 65.0763 7.13848 65.2797 7.33103C65.3657 7.41237 65.6077 7.66634 66.0094 8.09461L64.6781 9.36614L57.7042 15.9661V15.9645ZM62.1313 8.21579C61.8331 7.99834 61.1631 7.88878 60.123 7.88878C58.8689 7.88878 57.7972 8.31041 56.9044 9.15367C56.0116 9.99692 55.5679 11.0161 55.5679 12.2113C55.5679 13.1874 55.6837 13.8215 55.9134 14.112L62.1313 8.21579Z" fill="#101011"/>
<path d="M71.7425 8.01104C72.7318 6.74449 73.9473 6.07719 75.3891 6.01245V8.61526C74.4244 8.6634 73.6579 8.95888 73.0861 9.50002C72.2249 10.3068 71.7758 11.2679 71.7425 12.3817V18.7875H69.094V6.32784H71.7425V8.01104Z" fill="#101011"/>
<path d="M2.80784 11.2505C2.80784 7.1023 5.99308 3.65955 10.1746 2.98893V0.216797C4.44081 0.8841 0.00146484 5.50708 0.00146484 11.1128C0.00146484 16.7184 4.44081 21.3414 10.1746 22.0087V19.5121C5.99308 18.8415 2.80784 15.3988 2.80784 11.2505Z" fill="#101011"/>
<path d="M23.2077 11.1131C23.2077 5.54558 18.8297 0.949158 13.1538 0.232056V2.98925C17.3353 3.65987 20.5206 7.10262 20.5206 11.2509C20.5206 15.3991 17.3353 18.8418 13.1538 19.5125V21.9941C18.8297 21.277 23.2077 16.6789 23.2077 11.1131Z" fill="#101011"/>
</g>
<defs>
<clipPath id="clip0_1_39428">
<rect width="75.3969" height="22.7613" fill="white" transform="translate(-0.00341797 0.217163)"/>
</clipPath>
</defs>
</svg>
