<svg width="71" height="36" viewBox="0 0 71 36" fill="none" xmlns="http://www.w3.org/2000/svg">
<g clip-path="url(#clip0_1_39512)">
<path d="M17.9346 7.62056L15.2393 3.85388C11.8798 6.00538 8.95116 8.79129 6.95237 11.9025L9.10759 12.9118L5.72577 14.0987C4.27075 17.1552 3.74187 20.4365 4.55753 23.683L12.6744 18.6971C10.9102 15.437 13.0617 10.5964 17.9333 7.61932L17.9346 7.62056Z" fill="#101011" fill-opacity="0.8"/>
<path d="M16.2877 30.8563C20.6006 30.6837 25.6274 28.9667 30.5835 25.2956L26.6157 19.7499C24.6491 20.8437 22.6541 21.5091 20.7931 21.7636L16.3212 27.9884L17.1605 21.7015C15.5043 21.3775 14.1139 20.619 13.1703 19.4408C13.1207 19.3787 13.0735 19.3154 13.0276 19.2521L4.74683 24.3397C5.889 27.8941 9.18267 30.2119 13.5614 30.7495L16.0469 28.6762L16.289 30.855L16.2877 30.8563Z" fill="#101011" fill-opacity="0.7"/>
<path d="M36.3498 22.372L35.7625 22.3744C21.6269 36.8229 6.17784 33.3256 3.64644 24.5148C0.887855 14.9143 10.5404 4.24745 20.5506 0.6521C11.4368 2.50068 -2.74474 15.3265 1.706 27.7575C4.77372 36.3251 19.8864 38.8242 32.9431 28.5943L31.9586 27.2187C34.2132 25.3255 35.7352 23.5489 36.3498 22.3695V22.372Z" fill="#101011" fill-opacity="0.49"/>
<g style="mix-blend-mode:multiply">
<path opacity="0.7" d="M20.7908 21.7648L17.5704 26.2491L17.2314 28.156L21.3445 22.7567C23.1782 22.4588 25.316 21.7636 27.2602 20.6549L26.6134 19.7511C24.6469 20.8449 22.6518 21.5103 20.7908 21.7648Z" fill="#101011"/>
<path opacity="0.7" d="M17.0251 22.7084L17.1591 21.7028C15.503 21.3787 14.1125 20.6202 13.169 19.442C13.1193 19.3799 13.0722 19.3166 13.0262 19.2533L12.5247 19.5612C12.6252 19.7462 12.737 19.9262 12.8611 20.1C13.8133 21.4383 15.2696 22.316 17.0251 22.7071V22.7084Z" fill="#101011"/>
<path opacity="0.7" d="M12.7415 13.2208C11.7732 15.196 11.5609 17.2408 12.2437 18.9627L12.6757 18.697C11.8191 17.1129 11.8862 15.1551 12.7415 13.2208Z" fill="#101011"/>
</g>
<path d="M70.8894 10.6349C70.4251 8.88194 69.0433 8.17305 67.0979 8.23637C66.6125 8.2525 66.0438 8.32948 65.4591 8.43873L67.1761 3.95447H63.8563L58.2907 18.4588L58.2485 18.5631H58.251L58.2485 18.568L58.2523 18.5631L60.5714 18.5606L61.5298 17.8604C61.5298 17.8604 62.0587 18.5296 63.1897 18.6885C66.0712 19.0944 68.497 17.3588 69.7882 15.3575C70.6994 13.9472 71.2469 11.9857 70.8881 10.6337L70.8894 10.6349ZM66.8185 15.0608C66.1494 16.0242 65.2245 16.7418 64.2412 16.7579C63.3722 16.7728 62.5553 16.2725 63.0593 14.6884C63.5795 13.0422 64.6534 10.5244 64.6534 10.5244C67.191 9.5002 68.0153 10.81 67.9868 11.8268C67.9682 12.4711 67.6516 13.864 66.8198 15.0608H66.8185Z" fill="#101011"/>
<path d="M23.9795 8.23247C21.7721 8.44973 20.0564 9.07917 18.3133 10.672C16.9688 11.8998 16.091 13.8254 16.0513 15.3549C16.0004 17.3376 17.489 19.1017 20.4387 18.6436C21.237 18.5195 22.2426 17.8577 22.2426 17.8577L22.7032 18.5579L25.0236 18.5604L28.686 9.01088C27.9771 8.65458 26.2253 8.01273 23.9782 8.23371L23.9795 8.23247ZM25.0422 10.1928C25.0422 10.1928 23.9894 13.037 23.2147 14.6832C22.4686 16.2686 21.4381 16.8099 20.6138 16.7541C19.7149 16.692 19.1811 16.065 19.201 15.0569C19.2258 13.8068 19.998 12.461 20.553 11.8216C21.0582 11.2394 22.517 9.83772 25.0434 10.1928H25.0422Z" fill="#101011"/>
<path d="M40.6773 17.2235L44.0132 8.50452H47.3031L44.1721 16.6822C45.1069 17.1689 46.8587 16.8957 47.6123 15.2036L50.1685 8.50452H53.4758L50.3237 16.6983C51.6285 17.1279 53.0339 16.897 53.7502 15.2048L56.3188 8.50452H59.6001L56.9818 15.2756C56.325 16.7902 55.2574 18.8672 51.5937 18.8672C50.3671 18.8672 49.2535 18.434 48.5421 17.8666C47.7377 18.3595 46.0567 18.8672 44.7904 18.8672C43.524 18.8672 41.2236 18.4153 40.6736 17.2235H40.6773Z" fill="#101011"/>
<path d="M31.2292 8.96867L27.5457 18.5704H30.9138L34.025 10.5094C34.4608 10.3989 35.1312 10.3082 35.6861 10.3082C36.7749 10.3082 37.2442 10.7279 37.1697 11.2766C37.1535 11.4032 37.1126 11.5311 37.0493 11.6788L34.4024 18.5704H37.7743L40.3789 11.8055C40.4832 11.5311 40.5614 11.2766 40.595 11.0196C40.7899 9.53976 39.7209 8.27716 36.4968 8.27344C35.4813 8.27344 34.5799 8.33924 34.0002 8.40752C33.4725 8.46959 32.5203 8.60492 31.2279 8.96743L31.2292 8.96867Z" fill="#101011"/>
</g>
<defs>
<clipPath id="clip0_1_39512">
<rect width="70.1367" height="34.6289" fill="white" transform="translate(0.862793 0.651489)"/>
</clipPath>
</defs>
</svg>
