<svg width="88" height="19" viewBox="0 0 88 19" fill="none" xmlns="http://www.w3.org/2000/svg">
<g clip-path="url(#clip0_1_39360)">
<path d="M9.48232 1.09546H5.42664L-0.00195312 17.8051H2.24139L3.88742 12.7979L11.124 12.7908L12.8174 17.805H15.06L9.48232 1.09546ZM4.48734 10.9731L7.45795 1.93635L10.5085 10.9683L4.48734 10.9731ZM20.0622 10.1544C19.1331 9.89362 18.4875 9.48424 18.4875 8.62707C18.4875 7.71421 19.6933 6.97406 21.1819 6.97406C22.6704 6.97406 23.8758 7.7584 23.8758 9.00032H25.8181C26.0992 7.07601 23.9809 5.18939 21.0766 5.18939C18.4563 5.18939 16.3329 6.80349 16.3329 8.79442C16.3329 9.89926 17.0759 11.5308 19.3757 12.1386L21.1342 12.6027C21.7019 12.7526 22.1914 12.8824 22.2068 12.8867C23.2836 13.1876 24.0682 13.6114 24.0682 14.4146C24.0682 15.4948 23.0357 16.3637 21.1842 16.3021C19.28 16.2386 17.8076 15.0498 17.9784 13.8287C18.1489 12.6142 19.7369 12.2335 21.1336 12.6025C19.0205 12.0441 16.4548 12.058 16.0989 13.8287C15.7026 15.8053 17.651 17.9788 21.1841 18.0888C23.7512 18.1686 26.2284 16.9367 26.2284 14.2237C26.2284 11.8294 23.7633 11.1323 23.0019 10.9313C23.0019 10.9313 20.0748 10.158 20.0622 10.1544ZM30.3436 17.8027V5.4809H28.2256V17.8027H30.3436ZM35.1366 9.59611V5.47912H33.0187V17.8058H35.1366V9.59611C35.1366 7.76019 36.3219 6.98384 37.7841 6.98384C39.3262 6.98384 40.4319 7.9174 40.4319 9.59611V17.8058H42.5498V9.59611C42.5498 7.99608 43.7351 6.98384 45.1975 6.98384C46.8191 6.98384 47.8451 7.99601 47.8451 9.59611V17.8058H49.9628V9.59611C49.9628 7.13884 48.5723 5.18925 45.808 5.18925C44.1836 5.18925 42.7431 6.17786 42.1013 7.30819C41.319 5.95339 40.1489 5.18925 38.544 5.18925C36.9496 5.18925 35.1365 6.2766 35.1365 9.59611H35.1366ZM57.6827 5.17747C54.4665 5.17747 51.9983 7.52908 51.9983 11.6342C51.9983 15.7394 54.3992 18.0639 57.6827 18.091C60.9661 18.0639 63.3671 15.7267 63.3671 11.6342C63.3671 7.54179 60.8989 5.17747 57.6827 5.17747ZM57.6827 16.2953C55.6803 16.2697 54.0106 14.6197 54.0106 11.6342C54.0106 8.8656 55.6431 7.0054 57.6827 6.97499C59.7222 7.00533 61.3547 8.84861 61.3547 11.6342C61.3547 14.6195 59.6851 16.2696 57.6827 16.2953ZM73.5124 5.48533L69.8864 15.3893L66.2599 5.48533H64.0059L68.8505 17.807H70.9215L75.7663 5.48533H73.5124ZM82.0851 5.17747C78.8689 5.17747 76.4007 7.52908 76.4007 11.6342C76.4007 15.7394 78.8016 18.0639 82.0851 18.091C85.3686 18.0639 87.7695 15.7267 87.7695 11.6342C87.7695 7.54179 85.3013 5.17747 82.0851 5.17747ZM82.0851 16.2953C80.0827 16.2697 78.4131 14.6197 78.4131 11.6342C78.4131 8.8656 80.0456 7.0054 82.0851 6.97499C84.1247 7.00533 85.7572 8.84861 85.7572 11.6342C85.7571 14.6195 84.0875 16.2696 82.0851 16.2953Z" fill="#101011"/>
<path d="M26.8609 1.80707L28.0066 3.93607C28.0079 3.93845 28.0109 3.93937 28.0133 3.93814C28.0147 3.93737 28.0157 3.93593 28.0159 3.93429L28.4947 0.0150577C28.495 0.0123518 28.493 0.00993865 28.4903 0.00966735C28.4887 0.00951742 28.4872 0.0100814 28.4861 0.0112023L26.8616 1.80136C26.8602 1.8029 26.86 1.80512 26.8609 1.80693" fill="#101011"/>
<path d="M30.9529 0.0453329L28.5274 0.00171054C28.5222 0.00161772 28.5179 0.00569438 28.5178 0.0108206C28.5178 0.0138477 28.5192 0.0167035 28.5217 0.0184884L31.7405 2.31591C31.7446 2.31897 31.7505 2.31812 31.7536 2.314C31.7555 2.31151 31.756 2.30826 31.7549 2.30534L30.9619 0.0516157C30.9606 0.0479603 30.9571 0.0454971 30.9532 0.0454043" fill="#101011"/>
<path d="M30.4159 4.44341L31.7569 2.34111C31.7578 2.33973 31.7573 2.33793 31.7559 2.33709C31.7551 2.33661 31.7541 2.33654 31.7532 2.3369L28.0204 3.94722C28.0189 3.94784 28.0182 3.94956 28.0188 3.95105C28.0192 3.95195 28.02 3.9526 28.0209 3.95278L30.4128 4.4447C30.414 4.44497 30.4152 4.44445 30.4159 4.44341Z" fill="#101011"/>
</g>
<defs>
<clipPath id="clip0_1_39360">
<rect width="87.7715" height="18.0903" fill="white" transform="translate(-0.000488281)"/>
</clipPath>
</defs>
</svg>
