<svg width="92" height="23" viewBox="0 0 92 23" fill="none" xmlns="http://www.w3.org/2000/svg">
<path d="M8.7585 6.76819H6.94385V16.1572H8.7585V6.76819Z" fill="#101011"/>
<path d="M11.6779 4.4126H9.86328V18.5139H11.6779V4.4126Z" fill="#101011"/>
<path d="M14.5981 6.76819H12.7834V16.1572H14.5981V6.76819Z" fill="#101011"/>
<path d="M21.5052 9.47778C20.4114 3.55937 14.7041 -0.364152 8.78721 0.729567C5.33969 1.36731 2.38819 3.6441 0.89241 6.8205L0.798442 7.01922L1.80281 7.49214L1.89678 7.29342C3.24005 4.43897 5.89271 2.39325 8.99055 1.82175C11.5646 1.34575 14.1726 1.90031 16.3308 3.3853C18.489 4.87029 19.9401 7.10549 20.4161 9.68112C20.8921 12.2568 20.3375 14.8632 18.8525 17.0214C17.3675 19.1795 15.1323 20.6306 12.5567 21.1066C9.98568 21.5826 7.37924 21.025 5.21953 19.54C3.05828 18.0535 1.60718 15.8198 1.13118 13.2473L1.09113 13.0301L0.000488281 13.2319L0.0405403 13.4491C0.99716 18.625 5.51068 22.3806 10.7698 22.3806C11.4322 22.3806 12.1023 22.319 12.7585 22.1973C15.6253 21.6674 18.1146 20.053 19.7675 17.6499C21.4174 15.2468 22.0351 12.3461 21.5052 9.47778Z" fill="#101011"/>
<path d="M3.15588 7.37933L0.17049 9.63763L0.0395508 5.89587L3.15588 7.37933Z" fill="#101011"/>
<path d="M32.7465 16.5097H31.3925L29.6949 12.7987C29.47 12.828 29.2358 12.8434 28.9924 12.8434H26.4815V16.5112H25.2815V6.22717H29.2851C29.9737 6.22717 30.576 6.36427 31.0936 6.63693C31.6112 6.90959 32.0102 7.29625 32.2936 7.79689C32.5771 8.29754 32.7188 8.87675 32.7188 9.53452C32.7188 10.2524 32.554 10.8608 32.2243 11.36C31.8946 11.8606 31.4371 12.238 30.8518 12.4906L32.7465 16.5097ZM26.4815 11.7666H29.1819C29.6456 11.7666 30.0523 11.6757 30.4004 11.4924C30.7485 11.3091 31.0181 11.0503 31.2091 10.713C31.4002 10.3756 31.4941 9.98587 31.4941 9.54222C31.4941 9.08779 31.3986 8.69651 31.2091 8.36378C31.0197 8.03104 30.7485 7.77686 30.4004 7.59817C30.0507 7.41948 29.6456 7.33168 29.1819 7.33168H26.4815V11.7666Z" fill="#101011"/>
<path d="M42.1014 16.5097H34.8181V6.22571H41.9982V7.36102H36.0181V10.6915H40.8921V11.8037H36.0181V15.376H42.0998V16.5097H42.1014Z" fill="#101011"/>
<path d="M44.2974 16.5097V6.22571H47.9575C48.6553 6.22571 49.2668 6.3628 49.7906 6.63546C50.3159 6.90812 50.7195 7.29478 51.0014 7.79234C51.2848 8.28991 51.4266 8.86296 51.4266 9.51303C51.4266 10.1862 51.2879 10.7762 51.0091 11.2799C50.7303 11.7852 50.3313 12.1749 49.8091 12.4507C49.2869 12.7264 48.6722 12.8635 47.9652 12.8635H45.4989V16.5082H44.2974V16.5097ZM47.8758 11.759C48.3441 11.759 48.7554 11.6681 49.1097 11.4848C49.464 11.3015 49.7367 11.0427 49.9292 10.7053C50.1218 10.368 50.2188 9.97516 50.2188 9.52689C50.2188 9.08324 50.1233 8.69659 49.9292 8.36693C49.7367 8.03728 49.4625 7.7831 49.1097 7.60287C48.757 7.42263 48.3457 7.33175 47.8758 7.33175H45.4974V11.7605H47.8758V11.759Z" fill="#101011"/>
<path d="M56.7098 16.5097H55.5098V7.36102H52.187V6.22571H60.0479V7.36102H56.7098V16.5097Z" fill="#101011"/>
<path d="M63.4985 16.1107C62.8623 15.7133 62.3786 15.1664 62.0489 14.4717C61.7193 13.7769 61.5544 12.9867 61.5544 12.104V6.21948H62.7545V12.0378C62.7545 12.7263 62.87 13.3364 63.1026 13.8678C63.3337 14.3993 63.6772 14.8167 64.1316 15.1187C64.5861 15.4206 65.1345 15.5731 65.7784 15.5731C66.4176 15.5731 66.963 15.4237 67.4143 15.1233C67.8657 14.8229 68.2076 14.4054 68.4387 13.8724C68.6698 13.3379 68.7869 12.7263 68.7869 12.0393V6.22102H69.9869V12.1055C69.9869 12.9882 69.822 13.7785 69.4924 14.4732C69.1627 15.168 68.6806 15.7148 68.0474 16.1122C67.4128 16.5097 66.6564 16.7084 65.7784 16.7084C64.8957 16.7069 64.1362 16.5081 63.4985 16.1107Z" fill="#101011"/>
<path d="M73.8228 16.5097H72.6228V6.22571H73.8598L80.0524 14.5549V6.22571H81.2524V16.5097H80.0663L73.8228 8.1143V16.5097Z" fill="#101011"/>
<path d="M91.4622 16.5097H84.179V6.22571H91.359V7.36102H85.379V10.6915H90.2529V11.8037H85.379V15.376H91.4607V16.5097H91.4622Z" fill="#101011"/>
</svg>
