<svg width="96" height="19" viewBox="0 0 96 19" fill="none" xmlns="http://www.w3.org/2000/svg">
<g clip-path="url(#clip0_1_39394)">
<path d="M30.6501 8.699V14.0754H27.6968V9.9106C27.6968 8.24466 27.0911 7.7903 26.3338 7.7903C25.1222 7.7903 24.5164 8.62326 24.5164 10.4406V14.0754H21.5632V1.80811C21.5632 1.80811 23.7592 1.80811 23.9107 1.80811C24.2893 1.80811 24.5164 1.95951 24.5164 2.41391C24.5164 2.56531 24.5164 6.7302 24.5164 6.7302H24.5923C25.1981 5.82151 26.1825 5.29142 27.4698 5.29142C29.7415 5.29142 30.6501 6.95736 30.6501 8.699ZM14.9752 9.83488C14.9752 8.39612 15.9596 7.4874 17.3227 7.4874C17.777 7.4874 18.2313 7.56326 18.61 7.71466C18.7614 7.79051 18.7614 7.79052 18.8372 7.79052C18.8372 7.79052 18.8372 7.79052 18.9131 7.79052C19.0645 7.79052 19.2159 7.71466 19.2159 7.48762V5.67026C18.6101 5.36738 17.8529 5.21591 17.02 5.21591C14.1424 5.21591 12.0222 6.88181 12.0222 9.6836C12.0222 12.4854 14.1424 14.1513 17.02 14.1513C17.7772 14.1513 18.6859 14.0755 19.3674 13.7727V11.5767C18.8373 11.804 18.2315 12.031 17.55 12.031C16.187 12.1069 14.9752 11.1979 14.9752 9.83488ZM44.7347 5.29142C43.5231 5.29142 42.3873 5.74575 41.7057 6.95733C41.2514 5.82148 40.267 5.29142 39.0554 5.29142C37.7681 5.29142 36.8594 5.74578 35.875 6.7302C35.875 6.7302 35.6478 6.95741 35.4964 6.95741C35.4206 6.95741 35.2692 6.8816 35.1935 6.8816L34.0576 5.67C33.9818 5.59416 33.8304 5.51859 33.7548 5.51859C33.5275 5.51859 33.3004 5.74584 33.3004 5.97294V14.0754H36.1779V10.4407C36.1779 8.62331 36.7837 7.79035 37.8438 7.79035C38.6768 7.79035 38.9797 8.54761 38.9797 9.4563V14.0754H41.9329V10.4407C41.9329 8.62331 42.5387 7.79035 43.5989 7.79035C44.4318 7.79035 44.7347 8.54761 44.7347 9.4563V14.0754H47.6879V9.00195C47.7638 6.73023 47.2336 5.29142 44.7347 5.29142ZM9.90171 6.20012V13.3939C9.90171 13.6211 9.67447 13.8482 9.44737 13.8482C9.29597 13.8482 9.22013 13.7724 9.14448 13.6968L8.69015 13.2425C8.6143 13.1666 8.4629 13.0911 8.38726 13.0911C8.31141 13.0911 8.16002 13.1667 8.08434 13.1667C7.32712 13.8482 6.56989 14.151 5.43401 14.151C2.93514 14.151 0.966309 12.1822 0.966309 9.68334C0.966309 7.18447 2.93514 5.21565 5.43401 5.21565C6.56989 5.21565 7.32712 5.59428 8.08434 6.20008C8.16019 6.27592 8.31158 6.27589 8.38726 6.27589C8.4631 6.27589 8.61451 6.20004 8.69015 6.12448L9.14448 5.67018C9.22033 5.59433 9.37173 5.51877 9.44737 5.51877C9.67462 5.74601 9.90171 5.97293 9.90171 6.20012ZM7.47857 9.83488C7.47857 8.69901 6.64562 7.86603 5.58547 7.86603C4.52533 7.86603 3.69237 8.77473 3.69237 9.83488C3.69237 10.895 4.52533 11.8037 5.58547 11.8037C6.64562 11.8037 7.47857 10.895 7.47857 9.83488ZM69.5722 6.20012V13.3939C69.5722 13.6211 69.3449 13.8482 69.1178 13.8482C68.9664 13.8482 68.8906 13.7724 68.8149 13.6968L68.3606 13.2425C68.2847 13.1666 68.1333 13.0911 68.0577 13.0911C67.9818 13.0911 67.8304 13.1667 67.7548 13.1667C66.9976 13.8482 66.2403 14.151 65.1045 14.151C62.6055 14.151 60.6368 12.1822 60.6368 9.68334C60.6368 7.18447 62.6056 5.21565 65.1045 5.21565C66.1646 5.21565 66.9976 5.59428 67.7548 6.20008C67.8306 6.27592 67.982 6.27589 68.0577 6.27589C68.1335 6.27589 68.2849 6.20004 68.3606 6.12448L68.7392 5.82163C68.815 5.74578 68.9664 5.67022 69.0421 5.67022C69.345 5.74606 69.5722 5.97293 69.5722 6.20012ZM67.149 9.83488C67.149 8.69901 66.316 7.86603 65.2559 7.86603C64.1958 7.86603 63.3628 8.77473 63.3628 9.83488C63.3628 10.895 64.1958 11.8037 65.2559 11.8037C66.316 11.8037 67.149 10.895 67.149 9.83488ZM58.7436 10.1377V10.6678H52.8372C52.9886 11.8037 53.8973 12.3337 55.3361 12.3337C56.0933 12.3337 57.002 12.1823 57.9107 11.728V13.8482C57.002 14.2268 55.8661 14.3783 54.806 14.3783C52.0042 14.3783 49.8839 12.7124 49.8839 9.9106C49.8839 7.10882 51.777 5.44287 54.4274 5.44287C57.6835 5.36703 58.7436 7.63886 58.7436 10.1377ZM56.0933 8.62328C56.0175 7.86605 55.4875 7.18455 54.4274 7.18455C53.443 7.18455 52.9886 7.79032 52.8372 8.62328C52.7613 8.85052 52.913 9.0019 53.1401 9.0019H55.7147C55.9419 9.0019 56.0933 8.92608 56.0933 8.62328ZM86.8372 1.0509C84.7169 1.0509 82.6724 1.73241 81.2336 3.01971C81.0822 3.17111 80.855 3.24697 80.6279 3.24697C80.4006 3.24697 80.1735 3.17111 80.0221 3.01971L79.0376 2.03529C78.9618 1.95944 78.8104 1.88388 78.5833 1.88388C78.2804 1.88388 77.9775 2.11112 77.9775 2.48968V17.1801C77.9775 17.483 78.2048 17.7859 78.5833 17.7859C78.7347 17.7859 78.8862 17.7101 79.0376 17.6345L80.0221 16.6501C80.1735 16.4987 80.4007 16.4229 80.6279 16.4229C80.8551 16.4229 81.0822 16.4987 81.2336 16.6501C82.6724 17.9374 84.7169 18.6189 86.8372 18.6189C91.6835 18.6189 95.6212 14.6813 95.6212 9.83497C95.6212 4.98862 91.6835 1.0509 86.8372 1.0509ZM86.61 4.38276C87.8973 4.38276 89.1846 4.83709 90.0933 5.67004C90.1691 5.74589 90.3205 5.82145 90.4719 5.82145C90.6233 5.82145 90.7748 5.7456 90.8505 5.67004L91.4563 5.06424C91.5321 4.9884 91.6077 4.98839 91.6835 4.98839C91.9108 4.98839 92.0622 5.13981 92.0622 5.36706V14.4539C92.0622 14.6812 91.9108 14.8325 91.6835 14.8325C91.6077 14.8325 91.4563 14.7567 91.4563 14.7567L90.8505 14.1509C90.7746 14.0751 90.6232 13.9995 90.4719 13.9995C90.3205 13.9995 90.2446 14.0751 90.0933 14.1509C89.1846 14.9839 87.973 15.4382 86.61 15.4382C83.581 15.4382 81.1578 13.015 81.1578 9.98607C81.082 6.80566 83.581 4.38276 86.61 4.38276ZM86.6858 12.1823C87.8974 12.1823 88.8818 11.1222 88.8818 9.83488C88.8818 8.54758 87.8974 7.4874 86.6858 7.4874C85.4742 7.4874 84.4898 8.54758 84.4898 9.83488C84.4898 11.1222 85.4742 12.1823 86.6858 12.1823Z" fill="#101011"/>
</g>
<defs>
<clipPath id="clip0_1_39394">
<rect width="95.4121" height="18.3253" fill="white" transform="translate(0.587402 0.672363)"/>
</clipPath>
</defs>
</svg>
