<svg width="71" height="41" viewBox="0 0 71 41" fill="none" xmlns="http://www.w3.org/2000/svg">
<g clip-path="url(#clip0_1_39371)">
<path d="M28.9174 12.5541C28.2777 12.3451 26.8883 12.0599 25.9654 12.0167C24.1862 11.9338 18.532 12.2655 17.2026 12.919C15.7866 13.6156 14.5305 16.6672 13.0245 17.5197C12.9712 17.6491 12.9179 17.7751 12.8646 17.9045C16.293 18.5646 19.7215 19.228 23.15 19.8848C26.7684 20.4719 31.0265 23.6131 32.7357 25.1887C33.5121 25.9019 34.2517 26.6217 34.9614 27.3415V23.3046H39.8459C38.9763 22.1602 38.1 21.0059 37.2337 19.8184C35.3146 17.188 33.1122 14.1927 28.9141 12.5541H28.9174ZM14.1607 23.8486C13.2177 23.1985 10.9588 22.3161 10.9488 22.2996C10.3024 22.0342 9.656 21.7688 9.01295 21.5035C8.00673 21.5433 6.80393 23.225 5.98763 23.8685C4.75484 24.8404 0.630013 27.0628 0.550049 27.2552C5.2946 29.2521 9.48274 34.5826 15.3801 35.6407C17.8623 36.2112 20.3512 36.7818 22.8335 37.3556C26.4852 37.8034 31.3763 38.626 34.9614 40.9015V33.7467C32.4059 31.8825 28.7142 29.8724 27.8946 29.534C24.1296 27.9817 17.4192 26.1075 14.1573 23.8519L14.1607 23.8486ZM54.6027 22.7241C52.9334 20.6112 49.0418 18.6575 45.63 18.1234C44.2706 17.9111 41.9283 17.795 40.3557 16.6274C37.6202 14.6007 35.8277 11.1278 34.2284 8.46088C33.3555 7.00138 32.919 5.08413 31.6396 3.78053C29.9103 2.02582 26.8384 1.74055 24.4761 0.828369C24.1562 1.55812 23.823 2.01587 23.1267 2.98113C23.0734 3.10718 23.0201 3.23654 22.9667 3.3659C25.7222 3.62463 28.6842 1.24632 31.3297 4.24824C31.8861 4.87847 32.226 5.1571 32.5458 5.95651C28.7009 1.83012 25.0025 5.10403 21.7306 5.78734C21.3575 6.70616 20.9376 7.50889 20.4145 8.40449C20.2813 8.72624 19.8748 9.16409 19.7415 9.48584C20.781 9.52896 21.3208 8.9518 22.1938 8.72624C24.5727 8.10927 26.7651 7.27338 29.5671 7.66147C33.1322 8.15903 35.5545 12.5475 36.8039 14.2557C39.1595 17.4832 42.3315 20.2563 45.0936 23.2947H50.4212C50.1646 22.8966 49.8881 22.5351 49.5882 22.2299C48.7386 21.3708 45.9232 19.7222 45.4801 19.4734C44.8037 19.092 43.321 18.412 43.3777 18.2826C44.9969 18.6807 46.3463 18.9394 47.6791 19.1882C50.2913 19.6758 51.7573 21.4305 52.7335 23.2947H55.1824C54.9525 23.0791 54.7259 22.8734 54.6027 22.7175V22.7241Z" fill="#101011"/>
<path d="M39.8552 28.2922H40.6615V32.4518H39.8552V28.2922Z" fill="#101011"/>
<path d="M41.655 29.2416H42.4413V29.5833C42.6779 29.4108 43.0744 29.1587 43.5242 29.1587C44.5138 29.1587 44.5737 29.7524 44.5737 30.4192V32.4558H43.7941V30.5087C43.7941 30.0211 43.7008 29.8453 43.2676 29.8453C42.9411 29.8453 42.6346 29.9913 42.4413 30.0974V32.4591H41.655V29.2483V29.2416Z" fill="#101011"/>
<path d="M45.4834 29.241H46.2697V29.5827C46.5063 29.4102 46.9028 29.1581 47.3526 29.1581C48.3388 29.1581 48.4054 29.7518 48.4054 30.4186V32.4552H47.6258V30.5081C47.6258 30.0205 47.5325 29.8447 47.0993 29.8447C46.7728 29.8447 46.4663 29.9907 46.2697 30.0968V32.4585H45.4834V29.2476V29.241Z" fill="#101011"/>
<path d="M51.4953 30.8439C51.4953 30.2966 51.342 29.7791 50.7023 29.7791C50.0626 29.7791 49.9027 30.2966 49.9027 30.8505C49.9027 31.4443 50.0993 31.8921 50.7123 31.8921C51.3254 31.8921 51.4953 31.4277 51.4953 30.8472V30.8439ZM49.113 30.8737C49.113 29.7891 49.7627 29.1555 50.7223 29.1555C51.7952 29.1555 52.295 29.7858 52.295 30.8439C52.295 31.902 51.6086 32.5223 50.6757 32.5223C49.6761 32.5223 49.1164 31.8987 49.1164 30.8737H49.113Z" fill="#101011"/>
<path d="M52.6311 29.2416H53.4841L54.0738 31.1588L54.257 31.8156L54.457 31.1522L55.12 29.2416H55.9396L54.7302 32.4525H53.7473L52.6311 29.2416Z" fill="#101011"/>
<path d="M58.1806 31.6866V31.0531L57.5842 31.0763C57.2111 31.0829 56.9745 31.2355 56.9745 31.5009C56.9745 31.7828 57.1744 31.889 57.4243 31.889C57.6942 31.889 58.014 31.7397 58.1806 31.6899V31.6866ZM56.2148 31.5573C56.2148 30.7512 56.9479 30.5854 57.5443 30.5787L58.1806 30.5721V30.2901C58.1806 29.9186 57.9674 29.8324 57.5009 29.8324C57.1944 29.8324 56.8412 29.9153 56.6013 29.975L56.4414 29.3912C56.7246 29.2818 57.1444 29.1624 57.6409 29.1624C58.5338 29.1624 58.947 29.4277 58.947 30.1143V31.68C58.947 31.8326 59.0769 31.8691 59.2435 31.879L59.2068 32.4794H59.0369C58.6937 32.4794 58.3206 32.3965 58.2506 32.1145C58.044 32.2704 57.7142 32.5059 57.2477 32.5059C56.5913 32.5059 56.2148 32.1775 56.2148 31.5606V31.5573Z" fill="#101011"/>
<path d="M60.1345 31.4937V29.8418H59.6614V29.2414H60.1345V28.5813H60.9142V29.2414H61.917V29.8418H60.9142V31.487C60.9142 31.8088 61.0208 31.8519 61.3706 31.8519C61.5705 31.8519 61.967 31.7856 61.997 31.7822L62.087 32.4058C61.9037 32.4655 61.6072 32.5186 61.3839 32.5186C60.7709 32.5186 60.1378 32.5286 60.1378 31.4937H60.1345Z" fill="#101011"/>
<path d="M62.4851 28.24L63.0415 27.686L63.6013 28.24L63.0415 28.7972L62.4851 28.24Z" fill="#101011"/>
<path d="M62.6599 29.2416H63.4462V32.4525H62.6599V29.2416Z" fill="#101011"/>
<path d="M66.5534 30.8439C66.5534 30.2966 66.4002 29.7791 65.7604 29.7791C65.1207 29.7791 64.9641 30.2966 64.9641 30.8505C64.9641 31.4443 65.1607 31.8921 65.7738 31.8921C66.3868 31.8921 66.5534 31.4277 66.5534 30.8472V30.8439ZM64.1711 30.8737C64.1711 29.7891 64.8209 29.1555 65.7771 29.1555C66.8533 29.1555 67.3497 29.7858 67.3497 30.8439C67.3497 31.902 66.6634 32.5223 65.7304 32.5223C64.7309 32.5223 64.1711 31.8987 64.1711 30.8737Z" fill="#101011"/>
<path d="M68.083 29.2414H68.8693V29.583C69.1059 29.4105 69.5024 29.1584 69.9522 29.1584C70.9384 29.1584 71.005 29.7522 71.005 30.4189V32.4556H70.2254V30.5085C70.2254 30.0209 70.1321 29.8451 69.699 29.8451C69.3758 29.8451 69.0659 29.991 68.8727 30.0972V32.4589H68.0863V29.248L68.083 29.2414Z" fill="#101011"/>
<path d="M41.7559 37.7928C40.8296 37.7928 40.4198 37.0996 40.4198 36.267C40.4198 35.4344 40.8396 34.7776 41.7959 34.7776C42.7521 34.7776 43.1486 35.4211 43.1486 36.2803C43.1486 37.1394 42.7455 37.7928 41.7559 37.7928ZM41.8492 34.1375C40.4798 34.1375 39.6035 34.9667 39.6035 36.2736C39.6035 37.5805 40.3365 38.433 41.7359 38.433C43.1353 38.433 43.9716 37.5938 43.9716 36.2869C43.9716 35.0563 43.3019 34.1408 41.8492 34.1408V34.1375Z" fill="#101011"/>
<path d="M42.7428 39.3117C42.3363 39.2122 42.0598 39.1259 41.6899 39.1259V38.5554C42.2897 38.5554 42.5962 38.6748 42.8827 38.7412C43.2492 38.8407 43.5624 38.8407 43.9756 38.8407V39.4212C43.6324 39.4212 43.126 39.4411 42.7395 39.315L42.7428 39.3117Z" fill="#101011"/>
<path d="M44.7507 37.1653V35.1486H45.537V37.0791C45.537 37.5435 45.6137 37.7425 46.0368 37.7425C46.3733 37.7425 46.7232 37.5733 46.8765 37.4904V35.1486H47.6628V38.3595H46.8765V38.0145C46.6632 38.1671 46.2501 38.4324 45.7903 38.4324C44.8207 38.4324 44.7507 37.8254 44.7507 37.1686V37.1653Z" fill="#101011"/>
<path d="M50.3235 37.5969V36.9633L49.7271 36.9866C49.354 36.9899 49.1174 37.1458 49.1174 37.4078C49.1174 37.6931 49.3173 37.7992 49.5672 37.7992C49.8371 37.7992 50.1569 37.65 50.3235 37.6002V37.5969ZM48.3577 37.4675C48.3577 36.6615 49.0907 36.4956 49.6871 36.489L50.3235 36.4824V36.2004C50.3235 35.8322 50.1103 35.7427 49.6438 35.7427C49.3373 35.7427 48.9841 35.8256 48.7442 35.8853L48.5843 35.3015C48.8675 35.1954 49.2873 35.0726 49.7838 35.0726C50.6734 35.0726 51.0899 35.338 51.0899 36.0246V37.5903C51.0899 37.7428 51.2198 37.7793 51.3831 37.7893L51.3497 38.3864H51.1765C50.8333 38.3864 50.4635 38.3067 50.3902 38.0215C50.1836 38.1741 49.8537 38.4096 49.3839 38.4096C48.7276 38.4096 48.3511 38.0812 48.3511 37.4642L48.3577 37.4675Z" fill="#101011"/>
<path d="M52.1608 35.1492H52.9471V35.5771C53.1004 35.3582 53.4136 35.0829 53.8134 35.0829C53.9967 35.0829 54.1266 35.1028 54.2332 35.136L54.1199 35.7828C53.9667 35.7529 53.89 35.7463 53.7068 35.7463C53.3803 35.7463 53.0871 35.9354 52.9438 36.1112V38.3568H52.1575V35.1459L52.1608 35.1492Z" fill="#101011"/>
<path d="M55.0063 37.4045V35.7527H54.5332V35.1523H55.0063V34.4922H55.786V35.1523H56.7889V35.7527H55.786V37.3979C55.786 37.723 55.8926 37.7628 56.2391 37.7628C56.439 37.7628 56.8355 37.6964 56.8655 37.6931L56.9555 38.3167C56.7722 38.3764 56.4757 38.4295 56.2524 38.4295C55.6394 38.4295 55.0063 38.4428 55.0063 37.4079V37.4045Z" fill="#101011"/>
<path d="M59.4147 36.4496C59.4213 35.9686 59.2248 35.6303 58.8349 35.6303C58.4451 35.6303 58.1719 35.9188 58.1386 36.4496H59.4147ZM57.3323 36.8078C57.3323 35.4943 57.9986 35.073 58.9116 35.073C59.8245 35.073 60.221 35.6833 60.221 36.6917V36.9737H58.1186C58.1186 37.6802 58.5617 37.7996 59.1348 37.7996C59.3614 37.7996 59.7445 37.7233 60.0111 37.6702L60.1344 38.2773C59.8678 38.3602 59.438 38.4365 58.9949 38.4365C57.9787 38.4365 57.3323 38.0716 57.3323 36.8111V36.8078Z" fill="#101011"/>
<path d="M60.9343 35.1497H61.7206V35.5776C61.8739 35.3587 62.1871 35.0834 62.5903 35.0834C62.7735 35.0834 62.9034 35.1033 63.0101 35.1364L62.8968 35.7833C62.7435 35.7534 62.6669 35.7468 62.4836 35.7468C62.1604 35.7468 61.8639 35.9359 61.7206 36.1117V38.3573H60.9343V35.1464V35.1497Z" fill="#101011"/>
</g>
<defs>
<clipPath id="clip0_1_39371">
<rect width="70.4453" height="40.0698" fill="white" transform="translate(0.554688 0.830933)"/>
</clipPath>
</defs>
</svg>
