<svg width="153" height="33" viewBox="0 0 153 33" fill="none" xmlns="http://www.w3.org/2000/svg">
<g clip-path="url(#clip0_2001_1245)">
<path d="M56.3638 17.7527C56.3638 23.2444 52.3587 27.3356 46.0683 27.3356H38.6477V8.10831H46.0683C52.3587 8.10831 56.3638 12.2486 56.3638 17.7404V17.7527ZM52.6535 17.7527C52.6535 13.9932 50.0735 11.3272 46.1543 11.3272H42.272V24.0921H46.1543C50.0735 24.0921 52.6535 21.5121 52.6535 17.7527Z" fill="#F5F4ED"/>
<path d="M73.4907 18.1831V27.3237H70.0876V23.5028C68.6378 26.1074 66.193 27.594 63.3304 27.594C61.0206 27.594 58.9443 26.4637 58.9443 23.9943C58.9443 19.7679 65.591 18.2568 70.0384 17.5442C69.7681 15.5171 68.3061 14.8291 66.3281 14.8291C64.2395 14.8291 62.0526 15.6522 60.4555 16.8071L59.2761 14.0673C61.3032 12.7528 63.8832 11.905 66.4632 11.905C70.2227 11.905 73.4907 13.5513 73.4907 18.1954V18.1831ZM70.0876 19.6697C65.8367 20.4682 62.5687 21.4511 62.5687 23.294C62.5687 24.4243 63.7235 24.7806 64.5958 24.7806C67.0898 24.7806 69.805 22.2497 70.0876 19.6697Z" fill="#F5F4ED"/>
<path d="M90.9487 18.1831V27.3237H87.5456V23.5028C86.0958 26.1074 83.651 27.594 80.7884 27.594C78.4786 27.594 76.4023 26.4637 76.4023 23.9943C76.4023 19.7679 83.049 18.2568 87.4964 17.5442C87.2261 15.5171 85.7641 14.8291 83.7861 14.8291C81.6975 14.8291 79.5107 15.6522 77.9135 16.8071L76.7341 14.0673C78.7612 12.7528 81.3412 11.905 83.9213 11.905C87.6807 11.905 90.9487 13.5513 90.9487 18.1954V18.1831ZM87.5333 19.6697C83.2824 20.4682 80.0144 21.4511 80.0144 23.294C80.0144 24.4243 81.1692 24.7806 82.0415 24.7806C84.5356 24.7806 87.2507 22.2497 87.5333 19.6697Z" fill="#F5F4ED"/>
<path d="M93.5166 25.4928L94.6715 22.6425C96.5143 23.908 98.5661 24.7065 101.122 24.7065C103.345 24.7065 105.127 24.08 105.127 22.9005C105.127 21.8808 104.107 21.5614 100.986 21.1928C96.5143 20.7259 94.0695 19.5957 94.0695 16.6102C94.0695 13.3422 96.9198 11.917 100.925 11.917C103.64 11.917 106.245 12.6296 107.866 13.4282L106.994 16.3399C105.655 15.6273 103.235 14.8533 100.851 14.8533C98.8486 14.8533 97.3989 15.3693 97.3989 16.4136C97.3989 17.2859 98.4432 17.7282 101.22 18.0599C105.778 18.5514 108.493 19.3745 108.493 22.6425C108.493 25.9106 105.36 27.6674 101.171 27.6674C98.4555 27.6674 95.8141 26.8934 93.5412 25.5051L93.5166 25.4928Z" fill="#F5F4ED"/>
<path d="M111.195 12.2368H114.598V27.336H111.195V12.2368Z" fill="#F5F4ED"/>
<path d="M133.679 12.2367V25.6528C133.679 30.2969 130.583 32.9506 125.337 32.9506C122.917 32.9506 120.558 32.3486 118.113 31.2797L118.961 28.2574C120.963 29.2772 123.027 29.9897 125.275 29.9897C128.187 29.9897 130.3 28.8349 130.3 25.4931V23.7117C129.17 25.6897 127.167 26.8937 124.587 26.8937C120.521 26.8937 117.425 23.8223 117.425 19.4239C117.425 15.0256 120.521 11.905 124.587 11.905C127.167 11.905 129.17 13.1459 130.3 15.1485V12.2367H133.679ZM130.276 19.4239C130.276 16.8194 128.408 14.9273 125.583 14.9273C122.757 14.9273 120.914 16.8194 120.914 19.4239C120.914 22.0285 122.806 23.8468 125.583 23.8468C128.359 23.8468 130.276 22.0408 130.276 19.4239Z" fill="#F5F4ED"/>
<path d="M152.5 18.6496V27.3234H149.097V19.1165C149.097 16.4873 147.856 15.0499 145.583 15.0499C142.758 15.0499 140.644 17.4702 140.644 22.7899V27.3234H137.241V12.2242H140.644V16.475C141.603 13.809 143.642 11.8924 146.517 11.8924C150.227 11.8924 152.5 14.2022 152.5 18.6496Z" fill="#F5F4ED"/>
<path d="M110.531 7.70318C110.531 6.54831 111.576 5.63916 112.915 5.63916C114.254 5.63916 115.298 6.54831 115.298 7.70318C115.298 8.85804 114.254 9.76719 112.915 9.76719C111.576 9.76719 110.531 8.8949 110.531 7.70318Z" fill="#F5F4ED"/>
<path opacity="0.41" d="M104.377 7.70317C104.377 6.54831 105.421 5.63916 106.76 5.63916C108.099 5.63916 109.144 6.54831 109.144 7.70317C109.144 8.85804 108.099 9.76719 106.76 9.76719C105.421 9.76719 104.377 8.8949 104.377 7.70317Z" fill="#F5F4ED"/>
<path opacity="0.12" d="M98.2219 7.70317C98.2219 6.54831 99.2662 5.63916 100.605 5.63916C101.944 5.63916 102.989 6.54831 102.989 7.70317C102.989 8.85804 101.944 9.76719 100.605 9.76719C99.2662 9.76719 98.2219 8.8949 98.2219 7.70317Z" fill="#F5F4ED"/>
<path d="M15.8576 0.000152588H0.832031L18.0567 20.5912H24.6051C24.6051 20.5912 29.5071 19.4363 27.5168 13.6497L15.8576 0.000152588Z" fill="#F5F4ED"/>
<path d="M0.5 20.5909H18.0564L22.0247 25.2718C22.0247 25.2718 24.7768 29.9527 19.7641 32.2624H10.6235L0.5 20.5909Z" fill="#F5F4ED"/>
</g>
<defs>
<clipPath id="clip0_2001_1245">
<rect width="152" height="32.9505" fill="white" transform="translate(0.5)"/>
</clipPath>
</defs>
</svg>
