<svg width="108" height="23" viewBox="0 0 108 23" fill="none" xmlns="http://www.w3.org/2000/svg">
<path fill-rule="evenodd" clip-rule="evenodd" d="M56.7996 9.69287C55.5624 10.9969 53.5896 12.2007 50.9146 12.2676C47.738 12.3679 46.0661 12.1672 42.1539 10.4619C42.923 9.39193 43.2239 8.32193 43.2574 7.11818C43.3243 5.47974 42.5886 4.07537 41.1174 3.17255C39.5458 2.20287 38.5761 1.73474 38.5761 1.73474C39.3452 2.16943 39.8468 3.27287 40.0474 4.71068C40.3149 6.65006 39.8133 9.02412 37.573 10.4954L40.5155 15.6782C38.3086 15.4441 36.8039 16.6144 36.8039 16.6144L39.6461 19.0219C39.6461 19.0219 42.0536 17.4838 45.8655 18.2529L41.2511 11.8663C44.7286 13.7722 50.1789 14.9426 50.1789 14.9426C50.1789 14.9426 48.1727 14.976 46.5342 14.5079C46.0327 14.3741 45.598 14.5079 46.2668 14.8757C46.4339 14.976 48.5071 16.0126 50.4799 16.2466C54.0243 16.6144 55.3618 15.2435 55.6627 14.7754C55.988 14.2641 55.5704 14.302 54.6679 14.3839C54.272 14.4198 53.7825 14.4642 53.2217 14.4744C51.3827 14.4744 49.5436 13.906 48.7411 13.4713C51.8174 13.4379 57.4683 12.8694 57.6689 11.0304C57.7024 10.5622 57.368 9.92693 56.7996 9.69287ZM11.8596 3.17255C10.823 5.41287 12.2274 6.21537 14.568 6.21537C15.4438 6.21537 16.3196 5.92085 17.3362 5.57895C20.4725 4.52423 24.9486 3.01893 34.898 8.32193C33.7946 8.62287 32.3902 8.95724 32.3902 8.95724C31.3202 8.25506 30.1499 8.89037 29.2136 9.52568C29.0097 9.65763 28.7477 9.86056 28.4412 10.098C27.0385 11.1845 24.7024 12.9939 22.7268 12.0335C22.2252 11.766 21.2221 11.231 20.4196 11.2979C19.9703 11.3215 19.6381 11.4789 19.1982 11.6874C19.0161 11.7737 18.8155 11.8687 18.5805 11.9666C17.778 12.3344 17.7446 11.7326 18.6474 11.0972C21.0883 9.42537 26.4383 6.81724 31.7214 7.61974C24.6327 5.41287 22.3589 5.78068 15.0027 8.85693C14.7352 8.99068 14.4343 9.09099 14.1333 9.19131C14.4677 9.69287 15.5377 10.0941 17.0424 9.65943C17.0858 9.64495 17.1367 9.62693 17.1936 9.6068L17.1939 9.6067C17.6626 9.44082 18.5382 9.13092 19.0152 9.45881C19.0152 9.45881 16.8418 10.8632 14.9693 11.0638C11.5921 11.4316 7.17831 10.0272 5.84081 8.55599C5.37269 8.02099 5.37269 7.55287 5.90769 7.68662L5.92779 7.6911C6.29105 7.77199 8.31041 8.22162 9.71956 8.22162C10.6893 8.22162 11.4249 8.15474 12.0268 8.02099C5.67363 5.64693 10.3214 3.27287 11.7927 2.83818C12.1271 2.73787 11.9599 3.07224 11.8596 3.17255ZM70.4421 6.14849H67.4996V7.18506H69.2383V7.31881C69.2383 7.61974 69.1714 7.85381 69.0377 8.05443C68.9039 8.25506 68.7367 8.38881 68.5361 8.48912C68.3355 8.58943 68.1014 8.62287 67.9008 8.62287C67.3658 8.62287 66.9311 8.42224 66.6302 8.05443C66.3293 7.68662 66.1621 7.15162 66.1621 6.48287C66.1621 6.04818 66.2624 5.64693 66.3961 5.34599C66.5299 5.04506 66.7639 4.81099 67.0314 4.6438C67.2989 4.47662 67.5999 4.40974 67.9342 4.40974C68.2352 4.40974 68.5027 4.44318 68.7702 4.57693C69.0377 4.71068 69.3052 4.87787 69.5727 5.11193L70.3418 4.30943C70.0074 3.97505 69.6396 3.74099 69.2383 3.5738C68.8371 3.40662 68.3689 3.33974 67.8674 3.33974C67.2655 3.33974 66.7639 3.47349 66.2958 3.74099C65.8277 4.00849 65.4599 4.40974 65.2258 4.87787C64.9918 5.37943 64.858 5.91443 64.858 6.51631C64.858 7.11818 64.9917 7.68662 65.1924 8.15474C65.393 8.65631 65.7274 9.02412 66.1286 9.29162C66.5633 9.55912 67.0649 9.69287 67.6333 9.69287C67.9677 9.69287 68.3021 9.62599 68.603 9.49224C68.9039 9.35849 69.1714 9.15787 69.3721 8.85693V9.55912H70.4421V6.14849ZM72.348 7.72006H75.5246V7.18506C75.5246 6.75037 75.4243 6.34912 75.2571 6.01474C75.0899 5.68037 74.8558 5.41287 74.5214 5.24568C74.1871 5.07849 73.8193 4.97818 73.3846 4.97818C72.9499 4.97818 72.5486 5.07849 72.2142 5.27912C71.8799 5.47974 71.6124 5.74724 71.4452 6.11506C71.278 6.48287 71.1777 6.88412 71.1777 7.35224C71.1777 7.78693 71.278 8.18818 71.4786 8.55599C71.6793 8.92381 71.9467 9.19131 72.2811 9.39193C72.6155 9.59256 73.0168 9.69287 73.4849 9.69287C74.1871 9.69287 74.8224 9.45881 75.3239 8.99068L74.7555 8.22162C74.5549 8.38881 74.3542 8.52256 74.1536 8.58943C73.953 8.65631 73.7524 8.68974 73.5183 8.68974C73.2174 8.68974 72.9499 8.58943 72.7493 8.42224C72.5486 8.25506 72.4149 8.02099 72.348 7.72006ZM72.3814 6.85068C72.4483 6.54974 72.5821 6.31568 72.7493 6.14849C72.9164 5.98131 73.1505 5.88099 73.3846 5.88099C73.6521 5.88099 73.8861 5.98131 74.0533 6.14849C74.2205 6.31568 74.3208 6.54974 74.3543 6.85068H72.3814ZM82.4461 5.37943C82.7136 5.64693 82.8474 6.01474 82.8474 6.44943V9.52568H81.6436V6.81724C81.6436 6.58318 81.5768 6.38256 81.443 6.24881C81.3092 6.11506 81.1421 6.01474 80.908 6.01474C80.6739 6.01474 80.5068 6.08162 80.373 6.24881C80.2393 6.41599 80.1724 6.61662 80.1724 6.85068V9.52568H78.9686V6.81724C78.9686 6.58318 78.9017 6.38256 78.8014 6.24881C78.6677 6.11506 78.5005 6.01474 78.2664 6.01474C78.0324 6.01474 77.8318 6.11506 77.698 6.28224C77.5643 6.44943 77.4974 6.68349 77.4974 6.95099V9.55912H76.2936V5.11193H77.3971V5.74724C77.5308 5.51318 77.698 5.31256 77.9321 5.17881C78.1661 5.04506 78.4336 4.97818 78.7346 4.97818C79.0355 4.97818 79.303 5.04506 79.5036 5.17881C79.7377 5.31256 79.9049 5.47974 80.0052 5.71381C80.1389 5.47974 80.3396 5.31256 80.5736 5.17881C80.8077 5.04506 81.0752 4.97818 81.3427 4.97818C81.8108 4.97818 82.1786 5.11193 82.4461 5.37943ZM84.7533 7.72006H87.9299V7.18506C87.9299 6.75037 87.8296 6.34912 87.6624 6.01474C87.4952 5.68037 87.2611 5.41287 86.9268 5.24568C86.5924 5.07849 86.2246 4.97818 85.7899 4.97818C85.3552 4.97818 84.9539 5.07849 84.6196 5.27912C84.2852 5.47974 84.0177 5.74724 83.8505 6.11506C83.6833 6.48287 83.583 6.88412 83.583 7.35224C83.583 7.78693 83.6833 8.18818 83.8839 8.55599C84.0846 8.92381 84.3521 9.19131 84.6864 9.39193C85.0208 9.59256 85.4221 9.69287 85.8902 9.69287C86.5924 9.69287 87.2277 9.45881 87.7293 8.99068L87.1608 8.22162C86.9602 8.38881 86.7596 8.52256 86.5589 8.58943C86.3583 8.65631 86.1577 8.68974 85.9236 8.68974C85.6227 8.68974 85.3552 8.58943 85.1546 8.42224C84.9539 8.25506 84.8202 8.02099 84.7533 7.72006ZM84.7533 6.85068C84.8202 6.54974 84.9539 6.31568 85.1211 6.14849C85.2883 5.98131 85.5224 5.88099 85.7564 5.88099C86.0239 5.88099 86.258 5.98131 86.4252 6.14849C86.5924 6.31568 86.6927 6.54974 86.7261 6.85068H84.7533ZM92.7449 7.72006H89.5683C89.6352 8.02099 89.7689 8.25506 89.9696 8.42224C90.1702 8.58943 90.4377 8.68974 90.7386 8.68974C90.9727 8.68974 91.1733 8.65631 91.3739 8.58943C91.5746 8.52256 91.7752 8.38881 91.9758 8.22162L92.5443 8.99068C92.0427 9.45881 91.4074 9.69287 90.7052 9.69287C90.2371 9.69287 89.8358 9.59256 89.5014 9.39193C89.1671 9.19131 88.8996 8.92381 88.6989 8.55599C88.4983 8.18818 88.398 7.78693 88.398 7.35224C88.398 6.88412 88.4983 6.48287 88.6655 6.11506C88.8327 5.74724 89.1002 5.47974 89.4346 5.27912C89.7689 5.07849 90.1702 4.97818 90.6049 4.97818C91.0396 4.97818 91.4074 5.07849 91.7418 5.24568C92.0761 5.41287 92.3102 5.68037 92.4774 6.01474C92.6446 6.34912 92.7449 6.75037 92.7449 7.18506V7.72006ZM89.9361 6.14849C89.7689 6.31568 89.6352 6.54974 89.5683 6.85068H91.5411C91.5077 6.54974 91.4074 6.31568 91.2402 6.14849C91.073 5.98131 90.8389 5.88099 90.5714 5.88099C90.3374 5.88099 90.1368 5.98131 89.9361 6.14849ZM97.4596 6.54974C97.4596 6.08162 97.3258 5.71381 97.0583 5.41287C96.7908 5.11193 96.423 4.97818 95.9214 4.94474C95.6205 4.94474 95.3196 5.04506 95.0855 5.17881C94.8514 5.31256 94.6508 5.51318 94.5505 5.74724V5.11193H93.4471V9.59256H94.6508V7.05131C94.6508 6.71693 94.7177 6.48287 94.8849 6.31568C95.0521 6.14849 95.2527 6.04818 95.4867 6.04818C95.7208 6.04818 95.9214 6.11506 96.0552 6.24881C96.1889 6.38256 96.2558 6.58318 96.2558 6.88412V9.55912H97.4596V6.54974ZM98.7302 6.08162H97.9611V5.14537H98.7302V4.1088L99.9339 3.44006V5.11193H100.837V6.08162H99.9339V8.22162C99.9339 8.35537 99.9674 8.48912 100.068 8.55599C100.135 8.62287 100.302 8.65631 100.502 8.65631C100.67 8.65631 100.803 8.65631 100.937 8.62287V9.55912C100.703 9.62599 100.436 9.65943 100.101 9.65943C99.5996 9.65943 99.2652 9.55912 99.0646 9.35849C98.8639 9.15787 98.7636 8.85693 98.7636 8.45568V6.08162H98.7302ZM102.375 7.72006H105.551V7.18506C105.551 6.75037 105.451 6.34912 105.284 6.01474C105.117 5.68037 104.883 5.41287 104.548 5.24568C104.214 5.07849 103.846 4.97818 103.411 4.97818C102.977 4.97818 102.576 5.07849 102.241 5.27912C101.907 5.47974 101.639 5.74724 101.472 6.11506C101.305 6.48287 101.205 6.88412 101.205 7.35224C101.205 7.78693 101.305 8.18818 101.505 8.55599C101.706 8.92381 101.974 9.19131 102.308 9.39193C102.642 9.59256 103.044 9.69287 103.512 9.69287C104.214 9.69287 104.849 9.45881 105.351 8.99068L104.782 8.22162C104.582 8.38881 104.381 8.52256 104.18 8.58943C103.98 8.65631 103.779 8.68974 103.545 8.68974C103.244 8.68974 102.977 8.58943 102.776 8.42224C102.576 8.25506 102.442 8.02099 102.375 7.72006ZM102.408 6.85068C102.475 6.54974 102.609 6.31568 102.776 6.14849C102.943 5.98131 103.177 5.88099 103.411 5.88099C103.679 5.88099 103.913 5.98131 104.08 6.14849C104.247 6.31568 104.348 6.54974 104.381 6.85068H102.408ZM70.2749 18.0188H68.9039L67.4661 15.7785H66.4964V18.0188H65.2927V11.8997H68.1683C68.5361 11.8997 68.8705 11.9666 69.138 12.1338C69.4389 12.301 69.673 12.5351 69.8402 12.836C70.0074 13.1369 70.0742 13.4713 70.0742 13.8391C70.0742 14.3072 69.9405 14.6751 69.7064 15.0094C69.4724 15.3438 69.138 15.5444 68.7368 15.6782L70.2749 18.0188ZM66.4964 12.9363V14.7419H67.9342C68.2018 14.7419 68.4358 14.6751 68.603 14.5079C68.7702 14.3407 68.8705 14.1401 68.8705 13.8391C68.8705 13.5382 68.7702 13.3376 68.603 13.1704C68.4358 13.0032 68.2018 12.9363 67.9342 12.9363H66.4964ZM70.8099 17.0157C71.0105 17.3835 71.278 17.651 71.6124 17.8516C71.9467 18.0522 72.348 18.1526 72.7827 18.1526C73.2174 18.1526 73.6186 18.0522 73.953 17.8516C74.2874 17.651 74.5549 17.3835 74.7555 17.0157C74.9561 16.6479 75.0564 16.2466 75.0564 15.7785C75.0564 15.3104 74.9561 14.9091 74.7555 14.5413C74.5549 14.2069 74.2874 13.9394 73.953 13.7388C73.6186 13.5382 73.2174 13.4379 72.7827 13.4379C72.348 13.4379 71.9467 13.5382 71.6124 13.7388C71.278 13.906 71.0105 14.1735 70.8099 14.5413C70.6093 14.9091 70.5089 15.3104 70.5089 15.7785C70.5089 16.2466 70.6093 16.6479 70.8099 17.0157ZM73.8193 15.7785C73.8193 16.2132 73.7189 16.5476 73.5183 16.7816C73.3511 17.0157 73.0836 17.1494 72.7827 17.1494C72.4818 17.1494 72.2477 17.0157 72.0471 16.7816C71.8464 16.5141 71.7461 16.2132 71.7461 15.7785C71.7461 15.3438 71.8464 15.0094 72.0471 14.7754C72.2142 14.5413 72.4818 14.4076 72.7827 14.4076C73.0836 14.4076 73.3177 14.5413 73.5183 14.7754C73.7189 15.0429 73.8193 15.3438 73.8193 15.7785ZM76.093 14.5413H75.3239V13.6051H76.093V12.5685L77.2967 11.8997V13.5716H78.1996V14.5079H77.2967V16.6479C77.2967 16.7816 77.3302 16.9154 77.4305 16.9822C77.4974 17.0491 77.6646 17.0826 77.8652 17.0826C78.0324 17.0826 78.1661 17.0826 78.2999 17.0491V17.9854C78.0658 18.0522 77.7983 18.0857 77.4639 18.0857C76.9624 18.0857 76.628 17.9854 76.4274 17.7847C76.2268 17.5841 76.1264 17.2832 76.1264 16.8819V14.5413H76.093ZM78.6342 14.5413H79.4033H79.4368V16.8819C79.4368 17.2832 79.5371 17.5841 79.7377 17.7847C79.9383 17.9854 80.2727 18.0857 80.7743 18.0857C81.1086 18.0857 81.3761 18.0522 81.6102 17.9854V17.0491C81.4764 17.0826 81.3427 17.0826 81.1755 17.0826C80.9749 17.0826 80.8077 17.0491 80.7408 16.9822C80.6405 16.9154 80.6071 16.7816 80.6071 16.6479V14.5079H81.5099V13.5716H80.6071V11.8997L79.4033 12.5685V13.6051H78.6342V14.5413ZM86.2246 16.1797H83.048C83.1149 16.4807 83.2486 16.7147 83.4492 16.8819C83.6499 17.0491 83.9174 17.1494 84.2183 17.1494C84.4524 17.1494 84.653 17.116 84.8536 17.0491C85.0543 16.9822 85.2549 16.8485 85.4555 16.6813L86.0239 17.4504C85.5224 17.9185 84.8871 18.1526 84.1849 18.1526C83.7168 18.1526 83.3155 18.0522 82.9811 17.8516C82.6468 17.651 82.3792 17.3835 82.1786 17.0157C81.978 16.6479 81.8777 16.2466 81.8777 15.8119C81.8777 15.3438 81.978 14.9426 82.1452 14.5747C82.3124 14.2069 82.5799 13.9394 82.9143 13.7388C83.2486 13.5382 83.6499 13.4379 84.0846 13.4379C84.5192 13.4379 84.8871 13.5382 85.2214 13.7054C85.5558 13.8726 85.7899 14.1401 85.9571 14.4744C86.1243 14.8088 86.2246 15.2101 86.2246 15.6447V16.1797ZM83.4158 14.6082C83.2486 14.7754 83.1149 15.0094 83.048 15.3104H85.0208C84.9874 15.0094 84.8871 14.7754 84.7199 14.6082C84.5527 14.441 84.3186 14.3407 84.0511 14.3407C83.8171 14.3741 83.6164 14.441 83.4158 14.6082ZM89.8024 14.7085V13.5716C89.6686 13.5382 89.5349 13.5382 89.3343 13.5382C89.0333 13.5382 88.7658 13.6385 88.5318 13.8057C88.2977 13.9729 88.1639 14.1735 88.0636 14.4744V13.6051H86.9602V18.0188H88.1639V16.2466C88.1639 15.7451 88.2643 15.3438 88.4983 15.0763C88.6989 14.8088 88.9999 14.6751 89.3677 14.6751C89.5349 14.6751 89.6686 14.6751 89.8024 14.7085ZM93.2464 11.6991H94.4502V18.0188H93.3467V17.3835C93.0792 17.8851 92.6111 18.1526 91.9758 18.1526C91.608 18.1526 91.2736 18.0522 90.9727 17.8516C90.6717 17.651 90.4377 17.3835 90.2705 17.0157C90.1033 16.6479 90.0364 16.2466 90.0364 15.7785C90.0364 15.3104 90.1033 14.9091 90.2705 14.5413C90.4377 14.1735 90.6717 13.906 90.9727 13.7388C91.2736 13.5716 91.608 13.4379 91.9758 13.4379C92.5443 13.4379 92.9455 13.6385 93.2464 14.0732V11.6991ZM92.9789 16.7816C93.1796 16.5476 93.2799 16.2132 93.2799 15.7785C93.2799 15.3438 93.1796 15.0429 92.9789 14.8088C92.7783 14.5747 92.5443 14.441 92.2433 14.441C91.9424 14.441 91.6749 14.5747 91.5077 14.8088C91.3071 15.0429 91.2402 15.3772 91.2402 15.8119C91.2402 16.2132 91.3405 16.5476 91.5077 16.8151C91.7083 17.0491 91.9424 17.1829 92.2433 17.1829C92.5443 17.1494 92.8117 17.0491 92.9789 16.7816ZM99.7668 17.0826H99.1983V14.9091C99.1983 13.9394 98.5964 13.4379 97.3927 13.4379C96.958 13.4379 96.5902 13.5047 96.2224 13.6385C95.8546 13.7388 95.5536 13.906 95.3196 14.1066L95.888 14.8757C96.0552 14.7419 96.2892 14.6416 96.5233 14.5413C96.7574 14.441 97.0249 14.4076 97.2589 14.4076C97.5264 14.4076 97.7605 14.4744 97.8608 14.5747C97.9611 14.7085 98.028 14.8757 98.028 15.0763V15.1766L97.0249 15.3772C96.4899 15.4776 96.0552 15.6447 95.7208 15.8788C95.4199 16.1129 95.2527 16.4472 95.2527 16.8819C95.2527 17.2832 95.3864 17.6176 95.6874 17.8516C95.9883 18.0857 96.3561 18.186 96.7908 18.186C97.1252 18.186 97.4261 18.0857 97.6602 17.9519C97.8942 17.8182 98.0949 17.6176 98.1952 17.3835V18.0188H99.7668V17.0826ZM97.9946 16.4138C97.9946 16.6813 97.9277 16.8819 97.7271 17.0157C97.5264 17.1829 97.3258 17.2497 97.0918 17.2163C96.8911 17.2163 96.7239 17.1829 96.5902 17.0826C96.4564 17.0157 96.3896 16.8819 96.3896 16.7482C96.3896 16.581 96.4564 16.4472 96.5902 16.3804C96.7574 16.3135 96.958 16.2466 97.2589 16.1797L97.9946 16.0126V16.4138ZM106.555 13.8391C106.822 14.1066 106.956 14.4744 106.956 14.9091V17.9854H105.752V15.2769C105.752 15.0429 105.685 14.8422 105.551 14.7085C105.418 14.5747 105.25 14.4744 105.016 14.4744C104.782 14.4744 104.615 14.5413 104.481 14.7085C104.348 14.8757 104.281 15.0763 104.281 15.3104V17.9854H103.077V15.2769C103.077 15.0429 103.01 14.8422 102.91 14.7085C102.776 14.5747 102.609 14.4744 102.375 14.4744C102.141 14.4744 101.94 14.5747 101.806 14.7419C101.673 14.9091 101.606 15.1432 101.606 15.4107V18.0188H100.402V13.6051H101.505V14.2404C101.639 14.0063 101.806 13.8057 102.04 13.6719C102.275 13.5382 102.542 13.4713 102.843 13.4713C103.144 13.4713 103.411 13.5382 103.612 13.6719C103.846 13.8057 104.013 13.9729 104.114 14.2069C104.247 13.9729 104.448 13.8057 104.682 13.6719C104.916 13.5382 105.184 13.4713 105.451 13.4713C105.953 13.4379 106.287 13.5716 106.555 13.8391ZM32.3902 12.1004L34.3296 11.6322L35.433 13.8726V19.8913C35.433 19.8913 34.1289 21.1619 32.0558 20.7272L29.2136 18.3197C30.9524 18.7544 32.3902 17.651 32.3902 17.651V12.1004ZM36.6702 7.18506C36.8708 6.71693 36.9377 6.11506 36.8708 5.54662C36.8374 5.31256 36.7705 5.07849 36.7036 4.84443C36.3462 3.96715 35.3889 4.16334 35.1816 4.20584L35.1655 4.20912L32.3902 4.87787C32.3902 4.87787 30.5511 3.54037 29.2136 3.00537C28.5449 2.73787 28.1771 2.63755 27.5083 2.57068C26.3714 2.47037 25.4686 3.54037 26.5386 3.64068C28.7789 3.8413 32.4905 5.78068 36.2355 7.82037C36.3228 7.76212 36.385 7.67856 36.4656 7.56959C36.4776 7.55344 36.49 7.53672 36.503 7.51943C36.5267 7.47205 36.5505 7.42888 36.5726 7.38842C36.613 7.31463 36.6485 7.24982 36.6702 7.18506ZM1.32674 5.54662C0.691428 4.9113 1.52737 4.04193 2.59737 4.71068C3.23268 5.07849 3.56705 5.58006 3.93488 6.44943C4.13891 6.94822 4.02014 6.86285 3.75572 6.67276C3.63017 6.58251 3.47179 6.46869 3.29955 6.38256C2.68908 6.08513 2.33508 6.00755 2.07632 5.95088C1.78233 5.88644 1.61129 5.84896 1.32674 5.54662Z" fill="#101011"/>
</svg>
