<svg width="97" height="31" viewBox="0 0 97 31" fill="none" xmlns="http://www.w3.org/2000/svg">
<g clip-path="url(#clip0_1_39399)">
<path d="M1.66306 2.25362C1.66306 2.02224 1.01381 1.40407 0.796243 1.40407H0.240234V0.844604H3.52103L6.89161 9.33669H6.96759L10.5281 0.844604H13.467V1.40061H12.911C12.6934 1.40061 12.0442 2.01878 12.0442 2.25017V10.6974C12.0442 10.9287 12.6934 11.5469 12.911 11.5469H13.467V12.1029H9.10529V11.5469H9.6613C9.87887 11.5469 10.5281 10.9287 10.5281 10.6974V2.49882L6.42885 12.3067L2.32958 2.3296V10.6974C2.32958 10.9287 2.97883 11.5469 3.1964 11.5469H3.75241V12.1029H0.240234V11.5469H0.796243C1.01381 11.5469 1.66306 10.9287 1.66306 10.6974V2.25362Z" fill="#101011"/>
<path d="M18.2054 7.29468C18.4057 6.16539 18.2193 5.14317 16.9691 5.14317C15.5152 5.14317 14.8038 6.30353 14.8038 8.01991C14.8038 9.64304 15.8398 10.9899 17.5113 10.9899C18.7787 10.9899 19.3209 10.5409 19.832 9.69138H20.281C19.8009 11.2834 18.8271 12.2918 17.0002 12.2918C14.973 12.2918 13.6572 10.5582 13.6572 8.48612C13.6572 6.13431 15.2182 4.58716 17.1383 4.58716C18.2814 4.58716 19.055 4.94287 19.7215 5.60938L18.6544 7.2636L18.2054 7.29468Z" fill="#101011"/>
<path d="M32.93 3.07063C33.4722 3.07063 33.8728 2.69766 33.8728 2.12784C33.8728 1.55801 33.4722 1.19885 32.93 1.19885C32.3878 1.19885 31.97 1.55456 31.97 2.12784C31.97 2.70111 32.3878 3.07063 32.93 3.07063Z" fill="#101011"/>
<path d="M43.2956 11.5499C43.078 11.5499 42.491 11.0249 42.491 10.7763V6.7081C42.491 5.4545 41.5931 4.61876 40.4638 4.61876C39.148 4.61876 38.4677 5.37852 37.587 6.27297L37.3073 4.77416H35.0038V5.33017H35.4528C35.6704 5.33017 36.2574 5.87236 36.2574 6.10375V10.7763C36.2574 11.0249 35.6704 11.5499 35.4528 11.5499H34.5549C34.3546 11.5499 33.7502 11.0249 33.7502 10.7763V4.77416H31.1359V5.33017H31.5849C31.8025 5.33017 32.3896 5.87236 32.3896 6.10375V10.7763C32.3896 11.0249 31.8025 11.5499 31.5849 11.5499H30.7664C30.535 11.5499 29.6199 10.8523 29.4368 10.6071L25.493 5.36125L28.2316 2.42235C28.387 2.25313 29.4541 1.40012 29.6717 1.40012H30.2139V0.844116H26.1284V1.40012H26.6706C26.8882 1.40012 27.5202 2.1737 27.3509 2.374L23.3277 6.86006V2.25313C23.3277 2.02175 23.9769 1.40358 24.1945 1.40358H24.7505V0.844116H20.3577V1.40012H20.9137C21.1312 1.40012 21.7805 2.0183 21.7805 2.24968V10.6969C21.7805 10.9282 21.1312 11.5464 20.9137 11.5464H20.3577V12.1024H24.7505V11.5464H24.1945C23.9769 11.5464 23.3277 10.9282 23.3277 10.6969V7.70961L24.4742 6.47327L28.3732 12.1024H38.8303V11.5464H38.4124C38.1948 11.5464 37.6077 11.0215 37.6077 10.7728V7.04309C37.6077 6.54925 38.9546 5.52702 39.9906 5.52702C40.778 5.52702 41.151 6.06921 41.151 6.78063V10.7728C41.151 11.0215 40.5639 11.5464 40.3463 11.5464H39.9285V12.1024H43.672V11.5464H43.3025L43.2956 11.5499Z" fill="#101011"/>
<path d="M44.6546 9.53622C44.6546 10.2166 45.6457 11.6877 47.2239 11.6877C48.1356 11.6877 48.6468 11.3631 48.6468 10.6828C48.6468 9.8643 47.9181 9.58457 47.2688 9.30484C46.7577 9.08727 46.3398 8.91805 45.7528 8.65559C44.8721 8.25499 44.2056 7.66444 44.2056 6.65948C44.2056 5.34371 44.993 4.5874 46.402 4.5874C47.2067 4.5874 47.6556 4.97419 48.2116 4.97419C48.4292 4.97419 48.5535 4.9293 48.6122 4.77389H49.0128V7.03246H48.5639C48.5639 6.4281 47.7143 5.14341 46.3502 5.14341C45.5007 5.14341 45.0966 5.51639 45.0966 6.11729C45.0966 6.75273 45.5283 6.98411 46.288 7.30874C46.8441 7.54012 47.2619 7.72661 47.8663 7.95799C48.6537 8.2688 49.5516 8.90078 49.5516 10.0784C49.5516 11.4702 48.5915 12.2921 47.217 12.2921C46.288 12.2921 45.7458 11.8604 45.1139 11.8604C44.8203 11.8604 44.7443 11.9364 44.5579 12.1091H44.2021V9.53968H44.6511L44.6546 9.53622Z" fill="#101011"/>
<path d="M50.0115 8.43747C50.0115 6.27215 51.4827 4.58686 53.3683 4.60067C55.0225 4.61448 55.9515 5.74377 56.0274 7.17005L56.0585 7.69498L51.1857 8.08177C51.1857 9.55294 52.2079 11.0069 53.8621 11.0069C55.1157 11.0069 55.689 10.5268 56.1345 9.69108H56.5835C56.1034 11.2831 55.1917 12.2743 53.3959 12.2743C51.3549 12.2743 50.0081 10.4957 50.0081 8.43747H50.0115ZM54.8084 7.24603C54.9327 6.20999 54.7635 5.15668 53.3372 5.15668C51.8211 5.15668 51.2168 6.41029 51.1719 7.55339L54.8084 7.24257V7.24603Z" fill="#101011"/>
<path d="M57.3101 6.16595C57.2031 5.9173 56.5538 5.33021 56.3674 5.33021H56.0427V4.77421H59.9244V5.33021H59.4755C59.2752 5.33021 58.8262 5.84133 58.8262 6.1176L60.5288 10.0304L62.2003 6.13142C62.2175 5.83787 61.7686 5.32676 61.5648 5.32676H61.1159V4.77075H64.041V5.32676H63.6991C63.5298 5.32676 63.0015 5.88277 62.8495 6.13142L60.3596 11.7468L58.5189 15.8011L57.8523 15.4903L59.8001 11.4981L57.3101 6.1625V6.16595Z" fill="#101011"/>
<path d="M21.9968 17.921C21.9968 18.8189 22.615 19.5441 23.5889 19.9171C25.0428 21.478 26.7903 23.1357 28.3236 24.4964C28.7553 23.7849 28.9107 23.0252 28.9107 22.0996C28.9107 21.0636 28.2304 20.4454 27.1322 20.4144V19.8583H31.1244V20.4144H30.6927C30.4751 20.4144 29.7015 21.295 29.6877 21.6369C29.6566 22.5969 29.3942 23.7884 28.6828 24.8072C29.5012 25.5186 30.3232 26.1851 30.9724 26.6341H31.6527V27.1901H30.4302C29.332 27.1901 28.5584 26.8965 27.6295 26.047C26.7315 26.9138 25.5885 27.3938 23.9308 27.3938C22.1039 27.3938 20.3564 26.047 20.3564 24.0681C20.3564 22.5072 21.1438 21.3606 22.1661 20.6492C21.6239 19.9516 21.2543 19.2885 21.2543 18.2974C21.2543 16.6881 22.3077 15.7902 23.9619 15.7902C24.9979 15.7902 25.5401 16.1321 26.0201 16.1321C26.2688 16.1321 26.4207 16.1182 26.5451 15.9318H27.0251V18.5909H26.5451C26.5451 17.8312 25.433 16.3151 23.9308 16.3151C22.7255 16.3151 21.9968 16.9022 21.9968 17.9244V17.921ZM21.5168 23.336C21.5168 24.9453 23.2332 26.4925 24.8425 26.4925C25.8475 26.4925 26.6521 26.2127 27.2876 25.7362C25.6472 24.3271 23.8237 22.5659 22.4147 20.9566C21.8276 21.5609 21.5168 22.1791 21.5168 23.3394V23.336Z" fill="#101011"/>
<path d="M43.209 19.9162C43.209 18.7559 41.9105 16.4041 39.7901 16.4041C37.8423 16.4041 36.6819 17.4884 36.4782 20.0233C36.4022 21.0144 36.4333 21.8951 36.5093 22.8862C36.6957 24.8512 38.0564 26.4744 40.3461 26.4744C42.2938 26.4744 43.2401 25.6559 43.9653 24.1709H44.5524C43.8237 26.1808 42.2489 27.3895 40.0042 27.3895C36.7717 27.3895 34.6824 24.7304 34.6824 21.5117C34.6824 18.2931 36.5714 15.7272 39.7244 15.7272C40.9297 15.7272 41.6895 16.221 42.5701 16.221C42.9258 16.221 43.095 16.1278 43.2677 15.9275H43.6856V19.9197H43.2055L43.209 19.9162Z" fill="#101011"/>
<path d="M45.3149 23.5192C45.3149 21.1536 47.0175 19.6686 48.9514 19.6686C50.8854 19.6686 52.5879 21.1536 52.5879 23.5192C52.5879 25.8848 50.8854 27.3871 48.9514 27.3871C47.0175 27.3871 45.3149 25.8848 45.3149 23.5192ZM51.1168 24.7417C51.21 23.9992 51.21 22.9943 51.1168 22.2518C50.9786 21.0776 50.3294 20.2868 48.9653 20.2868C47.6011 20.2868 46.9864 21.0741 46.8137 22.2345C46.7067 22.9459 46.7067 23.9992 46.8137 24.7245C46.983 25.8537 47.6184 26.6895 48.9653 26.6895C50.3121 26.6895 50.9752 25.8848 51.1168 24.7417Z" fill="#101011"/>
<path d="M64.4486 25.8567C64.4486 26.1053 65.0046 26.6303 65.2221 26.6303H65.564V27.1863H61.9137V26.6303H62.3316C62.5491 26.6303 63.1052 26.1053 63.1052 25.8567V21.7885C63.1052 21.0771 62.7495 20.5832 61.9621 20.5832C61.002 20.5832 59.8106 21.5122 59.8106 22.0061V25.8567C59.8106 26.1053 60.3666 26.6303 60.5841 26.6303H61.002V27.1863H57.2723V26.6303H57.6901C57.9077 26.6303 58.4637 26.1053 58.4637 25.8567V21.7885C58.4637 21.0771 58.0907 20.5832 57.3033 20.5832C56.3433 20.5832 55.1518 21.5571 55.1518 22.0544V25.8601C55.1518 26.1088 55.7078 26.6337 55.9254 26.6337H56.3433V27.1897H52.6135V26.6337H53.0314C53.249 26.6337 53.805 26.1088 53.805 25.8601V21.1876C53.805 20.9562 53.249 20.414 53.0314 20.414H52.6135V19.858H54.8583L55.1518 21.267C55.9876 20.3864 56.5298 19.7061 57.811 19.7061C58.7849 19.7061 59.6068 20.231 59.7449 21.2532C60.6428 20.3726 61.2161 19.7233 62.4525 19.7233C63.5507 19.7233 64.4486 20.4658 64.4486 21.7954V25.8636V25.8567Z" fill="#101011"/>
<path d="M67.7262 19.8551L67.9748 21.3539C68.6103 20.1797 69.4149 19.6686 70.6202 19.6686C72.3987 19.6686 73.4831 21.1708 73.4831 23.4121C73.4831 25.6534 72.2468 27.3422 70.4682 27.3422C69.1836 27.3422 68.5032 26.8483 67.9783 25.9021V29.397C67.9783 29.6456 68.5516 30.1706 68.7519 30.1706H69.2319V30.7266H65.364V30.1706H65.844C66.0616 30.1706 66.6176 29.6456 66.6176 29.397V21.1812C66.6176 20.9498 66.0616 20.4076 65.844 20.4076H65.364V19.8516H67.7296L67.7262 19.8551ZM67.9576 22.5315V24.4482C67.9576 25.5913 68.8382 26.5686 70.078 26.5686C71.3178 26.5686 71.9187 25.7812 72.0741 24.6209C72.1673 23.9233 72.1812 23.122 72.0914 22.4383C71.936 21.2779 71.304 20.5354 70.2507 20.5354C69.0143 20.5354 68.3167 21.385 67.961 22.5315H67.9576Z" fill="#101011"/>
<path d="M89.3614 26.6306C89.1438 26.6306 88.5567 26.1057 88.5567 25.8571V21.7889C88.5567 20.5353 87.6588 19.6995 86.5295 19.6995C85.2138 19.6995 84.5334 20.4593 83.6528 21.3537L83.3731 19.8549H81.0696V20.4109H81.5186C81.7361 20.4109 82.3232 20.9531 82.3232 21.1845V25.8571C82.3232 26.1057 81.7361 26.6306 81.5186 26.6306H80.6379C80.4376 26.6306 79.8333 26.1057 79.8333 25.8571V21.8648C79.8333 20.4247 78.6729 19.6823 77.0947 19.6823C75.6097 19.6823 74.7601 20.1934 74.1558 20.8115L75.1296 22.2827H75.6546C75.1124 21.0291 75.5164 20.2244 76.7666 20.2244C78.0824 20.2244 78.5002 20.8115 78.483 21.8476L78.4657 22.7593L76.5801 23.1461C75.5441 23.3636 74.2145 23.8713 74.2145 25.3287C74.2145 26.5201 75.064 27.3248 76.0724 27.3248C77.1568 27.3248 77.9304 26.4752 78.5175 25.7155L78.704 27.1866H84.8926V26.6306H84.4747C84.2572 26.6306 83.6701 26.1057 83.6701 25.8571V22.1273C83.6701 21.6335 85.0169 20.6112 86.053 20.6112C86.8403 20.6112 87.2133 21.1534 87.2133 21.8648V25.8571C87.2133 26.1057 86.6262 26.6306 86.4087 26.6306H85.9908V27.1866H89.7344V26.6306H89.3648H89.3614ZM78.4864 25.0386C78.1756 25.5808 77.402 26.3233 76.6906 26.3233C75.9792 26.3233 75.5164 25.7811 75.5164 25.1491C75.5164 24.4204 75.8272 23.9266 76.739 23.6952L78.4864 23.2462V25.042V25.0386Z" fill="#101011"/>
<path d="M90.2684 21.2469C90.1613 20.9982 89.5121 20.4111 89.3256 20.4111H89.001V19.8551H92.8827V20.4111H92.4337C92.2334 20.4111 91.7845 20.9223 91.7845 21.1985L93.487 25.1113L95.1585 21.2124C95.1758 20.9188 94.7268 20.4077 94.5231 20.4077H94.0741V19.8517H96.9992V20.4077H96.6573C96.4881 20.4077 95.9597 20.9637 95.8078 21.2124L93.3178 26.8277L91.4771 30.8821L90.8106 30.5712L92.7584 26.579L90.2684 21.2434V21.2469Z" fill="#101011"/>
</g>
<defs>
<clipPath id="clip0_1_39399">
<rect width="96.7593" height="30.0417" fill="white" transform="translate(0.240723 0.844482)"/>
</clipPath>
</defs>
</svg>
