<svg width="73" height="18" viewBox="0 0 73 18" fill="none" xmlns="http://www.w3.org/2000/svg">
<g clip-path="url(#clip0_1_39627)">
<path d="M35.3085 5.72713C36.5368 6.95434 37.2275 8.61912 37.2286 10.3554V17.7271H30.6832V11.2591C30.6821 10.6801 30.4511 10.1252 30.0411 9.71632L27.7803 7.45704C27.3705 7.04783 26.8151 6.81801 26.236 6.81804H24.1377V17.7271H17.5922V0.272583H27.1398C27.9993 0.272582 28.8505 0.441887 29.6446 0.770833C30.4388 1.09978 31.1603 1.58192 31.7681 2.18974L35.3085 5.72713ZM65.5922 0.272583V6.74058C65.5911 7.3196 65.3602 7.87449 64.9502 8.28333L62.6878 10.5426C62.4852 10.7452 62.2447 10.9059 61.98 11.0156C61.7153 11.1253 61.4316 11.1817 61.145 11.1817H58.0009C58.6819 10.1274 59.045 8.89932 59.0468 7.64421V0.272583H52.5013V6.74058C52.5002 7.3196 52.2693 7.87449 51.8593 8.28333L49.5969 10.5426C49.3943 10.7452 49.1538 10.9059 48.8891 11.0156C48.6244 11.1253 48.3407 11.1817 48.0541 11.1817H45.9559V0.272583H39.4104V17.7271H48.9579C50.6943 17.7272 52.3597 17.0376 53.5878 15.81L55.7741 13.6246V17.7271H62.0488C63.7853 17.7272 65.4506 17.0376 66.6787 15.81L70.2176 12.2725C71.4459 11.0453 72.1366 9.38053 72.1377 7.64421V0.272583H65.5922ZM0.137695 6.81804H4.50133V17.7271H11.0468V6.81804H15.4104V0.272583H0.137695V6.81804Z" fill="#101011"/>
</g>
<defs>
<clipPath id="clip0_1_39627">
<rect width="72" height="17.4545" fill="white" transform="translate(0.137695 0.272583)"/>
</clipPath>
</defs>
</svg>
