<svg width="90" height="30" viewBox="0 0 90 30" fill="none" xmlns="http://www.w3.org/2000/svg">
<g clip-path="url(#clip0_1_39442)">
<mask id="mask0_1_39442" style="mask-type:luminance" maskUnits="userSpaceOnUse" x="-1" y="0" width="92" height="30">
<path d="M-0.110596 29.2441H90.0051V0.266434H-0.110596V29.2441Z" fill="white"/>
</mask>
<g mask="url(#mask0_1_39442)">
<path d="M86.0494 20.6474C83.6285 20.6474 81.8025 22.4875 81.8025 24.9282C81.8025 27.3689 83.6432 29.2096 86.0839 29.2096C87.3797 29.2096 88.6019 28.71 89.384 27.8672L88.315 26.7248C87.9304 27.1095 87.2008 27.6353 86.0839 27.6353C84.7179 27.6353 83.665 26.7638 83.4643 25.4661L83.4375 25.2943H90.0037V24.9282C89.8887 22.2901 88.3732 20.6474 86.0494 20.6474ZM83.4656 24.1327L83.5199 23.943C83.8375 22.8312 84.7984 22.0837 85.912 22.0837C87.1528 22.0837 87.9943 22.7661 88.2211 23.9564L88.255 24.1327H83.4656Z" fill="#101011"/>
<path d="M43.5317 20.6473C41.1108 20.6473 39.2854 22.4874 39.2854 24.928C39.2854 27.3687 41.1255 29.2095 43.5662 29.2095C44.8619 29.2095 46.0848 28.7098 46.8669 27.8671L45.7973 26.7247C45.4133 27.1093 44.6837 27.6352 43.5662 27.6352C42.2002 27.6352 41.1472 26.7637 40.9466 25.466L40.9198 25.2942H47.4866V24.928C47.3703 22.2899 45.8554 20.6473 43.5317 20.6473ZM40.9479 24.1326L41.0015 23.9428C41.3197 22.8311 42.2813 22.0836 43.3943 22.0836C44.6345 22.0836 45.4759 22.7659 45.704 23.9562L45.7379 24.1326H40.9479Z" fill="#101011"/>
<path d="M71.8731 17.0071C71.2342 17.0071 70.7141 17.5271 70.7141 18.1661C70.7141 18.805 71.2342 19.3251 71.8731 19.3251C72.512 19.3251 73.0321 18.805 73.0321 18.1661C73.0321 17.5271 72.512 17.0071 71.8731 17.0071Z" fill="#101011"/>
<path d="M48.9421 29.0714H50.5331V17.1791H48.9421V29.0714Z" fill="#101011"/>
<path d="M71.0803 29.0714H72.6713V20.7846H71.0803V29.0714Z" fill="#101011"/>
<path d="M74.3116 20.7841V22.1693H78.8659L74.3091 28.5074V29.0709H81.1532V27.6864H76.5849L81.1532 21.3316V20.7841H74.3116Z" fill="#101011"/>
<path d="M61.0999 24.9278C61.0999 27.3685 62.9329 29.2086 65.364 29.2086C66.217 29.2086 66.9805 28.9588 67.5715 28.486L67.813 28.2924V29.0712H69.4046V20.7844H67.813V21.5805L67.5715 21.3869C66.9664 20.9033 66.2029 20.647 65.364 20.647C62.9329 20.647 61.0999 22.4878 61.0999 24.9278ZM67.7887 23.3861L67.813 23.4238V26.4325L67.7887 26.4696C67.2872 27.2312 66.3646 27.704 65.3806 27.704C63.8523 27.704 62.7425 26.5366 62.7425 24.9278C62.7425 23.319 63.8523 22.1517 65.3806 22.1517C66.3646 22.1517 67.2872 22.6252 67.7887 23.3861Z" fill="#101011"/>
<path d="M56.4075 20.6475C55.4734 20.6475 54.6377 20.9739 54.1131 21.5439L53.855 21.825V17.1794H52.2634V29.0717H53.855V23.7878L53.8627 23.7641C54.2153 22.7252 54.991 22.1521 56.0465 22.1521C57.4144 22.1521 58.153 23.2198 58.153 24.2241V29.0717H59.7439V24.1903C59.7439 22.0377 58.4341 20.6475 56.4075 20.6475Z" fill="#101011"/>
<path d="M32.0895 17.179H28.3748V29.0719H32.0895C35.6451 29.0719 38.3273 26.5156 38.3273 23.1254C38.3273 19.736 35.6451 17.179 32.0895 17.179ZM32.0895 27.5155H30.0692V18.7354H32.0895C34.7027 18.7354 36.599 20.5819 36.599 23.1254C36.599 25.669 34.7027 27.5155 32.0895 27.5155Z" fill="#101011"/>
<path d="M59.2957 14.4268H60.8866V2.53387H59.2957V14.4268Z" fill="#101011"/>
<path d="M32.8367 2.53408L27.9451 14.427H29.7507L30.8426 11.7135H36.1431L37.235 14.427H39.0579L34.1663 2.53408H32.8367ZM31.4023 10.1922L33.5018 4.96199L35.5828 10.1922H31.4023Z" fill="#101011"/>
<path d="M44.6511 6.00231C43.7177 6.00231 42.8813 6.32944 42.3568 6.89872L42.0986 7.17921V2.53423H40.5071V14.4265H42.0986V9.14262L42.1063 9.11962C42.459 8.08009 43.2346 7.50761 44.2908 7.50761C45.6587 7.50761 46.3967 8.57462 46.3967 9.57964V14.4265H47.9876V9.5445C47.9876 7.39261 46.6778 6.00231 44.6511 6.00231Z" fill="#101011"/>
<path d="M53.6452 6.00237C51.1949 6.00237 49.3472 7.84246 49.3472 10.2832C49.3472 12.7238 51.1949 14.5646 53.6452 14.5646C56.0955 14.5646 57.9432 12.7238 57.9432 10.2832C57.9432 7.84246 56.0955 6.00237 53.6452 6.00237ZM53.6452 13.0593C52.106 13.0593 50.9892 11.892 50.9892 10.2832C50.9892 8.67498 52.106 7.50767 53.6452 7.50767C55.1588 7.50767 56.3006 8.70054 56.3006 10.2832C56.3006 11.8658 55.1588 13.0593 53.6452 13.0593Z" fill="#101011"/>
<path d="M66.4856 6.00237C64.0545 6.00237 62.2214 7.84246 62.2214 10.2832C62.2214 12.7238 64.0545 14.5646 66.4856 14.5646C67.3392 14.5646 68.1027 14.3141 68.6931 13.8413L68.9352 13.6477V14.4266H70.5262V2.53429H68.9352V6.93647L68.6931 6.74288C68.0887 6.25857 67.3252 6.00237 66.4856 6.00237ZM68.9352 8.77913V11.7872L68.911 11.8242C68.4088 12.5858 67.4868 13.0593 66.5029 13.0593C64.9739 13.0593 63.8641 11.892 63.8641 10.2832C63.8641 8.67498 64.9739 7.50767 66.5029 7.50767C67.4862 7.50767 68.4088 7.98047 68.911 8.74207L68.9352 8.77913Z" fill="#101011"/>
<path d="M11.1234 1.82189C11.5541 1.81997 11.9004 1.47048 11.8991 1.04177C11.8972 0.61241 11.5471 0.266114 11.1171 0.26803C10.6871 0.269947 10.3408 0.618799 10.342 1.04816C10.344 1.47687 10.6941 1.82381 11.1234 1.82189Z" fill="#101011"/>
<path d="M11.1234 1.82189C11.5541 1.81997 11.9004 1.47048 11.8991 1.04177C11.8972 0.61241 11.5471 0.266114 11.1171 0.26803C10.6871 0.269947 10.3408 0.618799 10.342 1.04816C10.344 1.47687 10.6941 1.82381 11.1234 1.82189Z" fill="#101011"/>
<path d="M5.53178 5.85876L7.09586 5.85174C7.09586 5.85174 6.84987 5.60128 5.87999 4.58283C5.32668 4.00078 5.27493 3.54586 5.97072 3.54267L6.12214 3.54139L6.90546 2.35683C6.90546 2.35683 6.23204 2.33702 5.93813 2.3383C4.09356 2.3466 3.75301 4.17137 4.69479 5.05372C5.3976 5.71117 5.53178 5.85876 5.53178 5.85876Z" fill="#101011"/>
<path d="M5.53178 5.85876L7.09586 5.85174C7.09586 5.85174 6.84987 5.60128 5.87999 4.58283C5.32668 4.00078 5.27493 3.54586 5.97072 3.54267L6.12214 3.54139L6.90546 2.35683C6.90546 2.35683 6.23204 2.33702 5.93813 2.3383C4.09356 2.3466 3.75301 4.17137 4.69479 5.05372C5.3976 5.71117 5.53178 5.85876 5.53178 5.85876Z" fill="#101011"/>
<path d="M16.2902 3.49748C16.9853 3.49493 16.938 3.95048 16.3905 4.53701C15.4282 5.56376 15.1848 5.81677 15.1848 5.81677L16.7483 5.80974C16.7483 5.80974 16.8824 5.66088 17.5782 4.99767C18.5123 4.10701 18.1558 2.2848 16.3119 2.29311C16.0186 2.29439 15.3452 2.31995 15.3452 2.31995L16.1381 3.49812L16.2902 3.49748Z" fill="#101011"/>
<path d="M16.2902 3.49748C16.9853 3.49493 16.938 3.95048 16.3905 4.53701C15.4282 5.56376 15.1848 5.81677 15.1848 5.81677L16.7483 5.80974C16.7483 5.80974 16.8824 5.66088 17.5782 4.99767C18.5123 4.10701 18.1558 2.2848 16.3119 2.29311C16.0186 2.29439 15.3452 2.31995 15.3452 2.31995L16.1381 3.49812L16.2902 3.49748Z" fill="#101011"/>
<path d="M10.5352 5.27394L11.1409 5.78955L11.7428 5.26883L11.73 2.31317L10.5225 2.31828L10.5352 5.27394Z" fill="#101011"/>
<path d="M10.5352 5.27394L11.1409 5.78955L11.7428 5.26883L11.73 2.31317L10.5225 2.31828L10.5352 5.27394Z" fill="#101011"/>
<path d="M20.545 18.04C20.8491 19.4597 20.7559 20.8762 20.2607 22.2672C19.6524 23.9724 18.703 25.1142 17.514 25.5685C17.2494 25.6694 16.7549 25.826 16.1396 25.833C15.7448 25.8381 15.226 25.6963 14.8937 25.5391C14.6969 25.4669 14.3174 25.2688 14.3174 25.2688C13.2575 24.6855 11.7681 23.5092 11.7732 22.7195C11.7751 22.4441 12.3936 22.0046 12.9048 22.002C13.6287 21.9988 14.2152 21.4072 14.212 20.6833V20.6149L13.9417 19.4623L13.9328 19.4278C13.7443 18.7933 13.2613 16.6523 14.927 15.6869L16.376 14.9988L15.8585 13.9075L14.3871 14.6058L14.3475 14.6269C12.692 15.5693 12.1029 17.4848 12.7693 19.7536L12.9974 20.7267C12.9827 20.7657 12.9444 20.7938 12.8997 20.7944C12.4173 20.7964 11.8646 20.9823 11.4212 21.2915C11.3292 21.3554 11.2442 21.4238 11.1663 21.4941C10.673 21.0564 9.97338 20.8072 9.42199 20.8091C9.37727 20.8091 9.33893 20.7817 9.3236 20.7427L9.54275 19.7683C10.19 17.4938 9.58428 15.5827 7.92052 14.6544L6.40372 13.949L5.89514 15.0448L7.35061 15.7201C9.02395 16.6708 8.55945 18.8163 8.37672 19.4521L8.10837 20.6417V20.7101C8.1122 21.434 8.70321 22.0205 9.42711 22.0173C9.93888 22.0148 10.5612 22.4499 10.565 22.7253C10.5772 23.5143 9.09742 24.7034 8.04384 25.2957C7.94544 25.35 7.84577 25.4004 7.74546 25.4464C7.39789 25.6483 6.87397 25.8739 6.26571 25.8764C6.10343 25.8771 5.54565 25.8994 4.8243 25.6241C3.63527 25.1691 2.67113 24.0466 2.04882 22.3464C1.45654 20.7273 1.4099 19.07 1.9057 17.4075C2.05265 16.8983 2.38873 16.1603 2.38106 16.152C3.14777 14.4959 4.41539 12.9389 6.05998 11.6393C6.08554 11.6208 8.52495 9.73659 10.5427 8.38527L7.79593 6.52153L6.12579 6.5292C6.12579 6.5292 5.97756 6.52281 5.90408 6.52984H5.89897C4.27227 6.6819 2.86345 7.30805 1.71466 8.39038C0.569074 9.44205 -0.112018 11.4138 0.0189612 13.298C0.0751864 14.0953 0.26878 14.8499 0.587602 15.5419C0.770973 15.1655 1.02846 14.6742 1.36326 14.1126C1.28659 13.7938 1.24378 13.4903 1.22397 13.2136C1.11919 11.7013 1.65588 10.0835 2.53696 9.27529C3.4832 8.38399 4.64285 7.86647 5.98459 7.73485L9.37216 7.72015C7.43878 9.04975 5.34439 10.6662 5.31691 10.688C3.96751 11.7537 2.85131 12.981 2.01943 14.2998C1.49423 15.1642 0.996513 16.2913 1.00546 16.306C0.183164 18.4496 0.149939 20.673 0.914731 22.7617C1.85906 25.3417 3.33306 26.3582 4.40325 26.7562C4.92973 26.9517 5.48814 27.0469 6.05487 27.0444C6.927 27.0405 7.67326 26.7607 7.66943 26.755C7.92116 26.6591 8.39013 26.4853 8.63293 26.3505L8.6342 26.3499C8.86102 26.2214 10.3299 25.3723 11.1758 24.2485C12.0128 25.3404 13.4415 26.1639 13.7175 26.3167C13.7175 26.3167 14.3705 26.6898 14.8829 26.8457C15.4688 27.0035 16.0924 27.0003 16.2955 26.9997C16.8623 26.9971 17.42 26.8974 17.9446 26.6968C19.0116 26.2892 20.4766 25.2605 21.398 22.6722C22.0561 20.8264 22.0925 18.8809 21.5168 16.9833C21.274 17.3053 20.9546 17.6727 20.545 18.04Z" fill="#101011"/>
<path d="M20.545 18.04C20.8491 19.4597 20.7559 20.8762 20.2607 22.2672C19.6524 23.9724 18.703 25.1142 17.514 25.5685C17.2494 25.6694 16.7549 25.826 16.1396 25.833C15.7448 25.8381 15.226 25.6963 14.8937 25.5391C14.6969 25.4669 14.3174 25.2688 14.3174 25.2688C13.2575 24.6855 11.7681 23.5092 11.7732 22.7195C11.7751 22.4441 12.3936 22.0046 12.9048 22.002C13.6287 21.9988 14.2152 21.4072 14.212 20.6833V20.6149L13.9417 19.4623L13.9328 19.4278C13.7443 18.7933 13.2613 16.6523 14.927 15.6869L16.376 14.9988L15.8585 13.9075L14.3871 14.6058L14.3475 14.6269C12.692 15.5693 12.1029 17.4848 12.7693 19.7536L12.9974 20.7267C12.9827 20.7657 12.9444 20.7938 12.8997 20.7944C12.4173 20.7964 11.8646 20.9823 11.4212 21.2915C11.3292 21.3554 11.2442 21.4238 11.1663 21.4941C10.673 21.0564 9.97338 20.8072 9.42199 20.8091C9.37727 20.8091 9.33893 20.7817 9.3236 20.7427L9.54275 19.7683C10.19 17.4938 9.58428 15.5827 7.92052 14.6544L6.40372 13.949L5.89514 15.0448L7.35061 15.7201C9.02395 16.6708 8.55945 18.8163 8.37672 19.4521L8.10837 20.6417V20.7101C8.1122 21.434 8.70321 22.0205 9.42711 22.0173C9.93888 22.0148 10.5612 22.4499 10.565 22.7253C10.5772 23.5143 9.09742 24.7034 8.04384 25.2957C7.94544 25.35 7.84577 25.4004 7.74546 25.4464C7.39789 25.6483 6.87397 25.8739 6.26571 25.8764C6.10343 25.8771 5.54565 25.8994 4.8243 25.6241C3.63527 25.1691 2.67113 24.0466 2.04882 22.3464C1.45654 20.7273 1.4099 19.07 1.9057 17.4075C2.05265 16.8983 2.38873 16.1603 2.38106 16.152C3.14777 14.4959 4.41539 12.9389 6.05998 11.6393C6.08554 11.6208 8.52495 9.73659 10.5427 8.38527L7.79593 6.52153L6.12579 6.5292C6.12579 6.5292 5.97756 6.52281 5.90408 6.52984H5.89897C4.27227 6.6819 2.86345 7.30805 1.71466 8.39038C0.569074 9.44205 -0.112018 11.4138 0.0189612 13.298C0.0751864 14.0953 0.26878 14.8499 0.587602 15.5419C0.770973 15.1655 1.02846 14.6742 1.36326 14.1126C1.28659 13.7938 1.24378 13.4903 1.22397 13.2136C1.11919 11.7013 1.65588 10.0835 2.53696 9.27529C3.4832 8.38399 4.64285 7.86647 5.98459 7.73485L9.37216 7.72015C7.43878 9.04975 5.34439 10.6662 5.31691 10.688C3.96751 11.7537 2.85131 12.981 2.01943 14.2998C1.49423 15.1642 0.996513 16.2913 1.00546 16.306C0.183164 18.4496 0.149939 20.673 0.914731 22.7617C1.85906 25.3417 3.33306 26.3582 4.40325 26.7562C4.92973 26.9517 5.48814 27.0469 6.05487 27.0444C6.927 27.0405 7.67326 26.7607 7.66943 26.755C7.92116 26.6591 8.39013 26.4853 8.63293 26.3505L8.6342 26.3499C8.86102 26.2214 10.3299 25.3723 11.1758 24.2485C12.0128 25.3404 13.4415 26.1639 13.7175 26.3167C13.7175 26.3167 14.3705 26.6898 14.8829 26.8457C15.4688 27.0035 16.0924 27.0003 16.2955 26.9997C16.8623 26.9971 17.42 26.8974 17.9446 26.6968C19.0116 26.2892 20.4766 25.2605 21.398 22.6722C22.0561 20.8264 22.0925 18.8809 21.5168 16.9833C21.274 17.3053 20.9546 17.6727 20.545 18.04Z" fill="#101011"/>
<path d="M8.54871 6.15964L12.3861 8.89551C12.4289 8.9249 12.6825 9.0808 12.6825 9.0808C14.4249 10.2839 16.1327 11.579 16.1506 11.5924C17.5997 12.7156 18.7593 14.0356 19.5503 15.4496C19.8819 14.9704 20.0679 14.4573 20.1611 14.1328C19.3248 12.8543 18.2175 11.6659 16.886 10.6334C16.8656 10.618 15.3513 9.47054 13.7074 8.32176C13.0058 7.89432 10.9632 6.50722 10.9632 6.50722C9.98437 5.87915 8.58065 4.59109 8.58065 4.59109C8.0644 4.08825 7.99604 3.53367 8.62985 3.53111L9.8617 3.526L9.85595 2.32163L8.64263 2.3261C6.66708 2.33505 6.36487 3.96494 7.43698 5.12075C7.86251 5.58014 8.54871 6.15964 8.54871 6.15964Z" fill="#101011"/>
<path d="M8.54871 6.15964L12.3861 8.89551C12.4289 8.9249 12.6825 9.0808 12.6825 9.0808C14.4249 10.2839 16.1327 11.579 16.1506 11.5924C17.5997 12.7156 18.7593 14.0356 19.5503 15.4496C19.8819 14.9704 20.0679 14.4573 20.1611 14.1328C19.3248 12.8543 18.2175 11.6659 16.886 10.6334C16.8656 10.618 15.3513 9.47054 13.7074 8.32176C13.0058 7.89432 10.9632 6.50722 10.9632 6.50722C9.98437 5.87915 8.58065 4.59109 8.58065 4.59109C8.0644 4.08825 7.99604 3.53367 8.62985 3.53111L9.8617 3.526L9.85595 2.32163L8.64263 2.3261C6.66708 2.33505 6.36487 3.96494 7.43698 5.12075C7.86251 5.58014 8.54871 6.15964 8.54871 6.15964Z" fill="#101011"/>
<path d="M14.0099 27.1624C13.2847 27.7611 12.1621 28.0096 11.1801 28.0345C10.2224 28.0186 9.12854 27.7898 8.39825 27.2282C8.06601 27.3554 7.58362 27.5221 7.08398 27.6352C7.52037 28.1681 8.13629 28.5783 8.92344 28.8568C9.72977 29.1431 10.5291 29.2223 11.0517 29.2389V29.244C11.0932 29.244 11.138 29.2434 11.1852 29.2421C11.2332 29.2427 11.2792 29.2434 11.3194 29.2434V29.2376C11.8414 29.2159 12.6407 29.1303 13.4445 28.8377C14.2374 28.5482 14.8539 28.1278 15.2865 27.5828C14.7805 27.4595 14.307 27.2838 14.0099 27.1624Z" fill="#101011"/>
<path d="M14.0099 27.1624C13.2847 27.7611 12.1621 28.0096 11.1801 28.0345C10.2224 28.0186 9.12854 27.7898 8.39825 27.2282C8.06601 27.3554 7.58362 27.5221 7.08398 27.6352C7.52037 28.1681 8.13629 28.5783 8.92344 28.8568C9.72977 29.1431 10.5291 29.2223 11.0517 29.2389V29.244C11.0932 29.244 11.138 29.2434 11.1852 29.2421C11.2332 29.2427 11.2792 29.2434 11.3194 29.2434V29.2376C11.8414 29.2159 12.6407 29.1303 13.4445 28.8377C14.2374 28.5482 14.8539 28.1278 15.2865 27.5828C14.7805 27.4595 14.307 27.2838 14.0099 27.1624Z" fill="#101011"/>
<path d="M20.4782 8.31371C19.3447 7.26588 17.9755 6.65571 16.4012 6.49662L16.2657 6.48448C16.1923 6.47873 16.0453 6.48512 16.0453 6.48512L13.2781 6.49725C13.5695 6.2781 13.8532 6.05256 14.1298 5.82127C14.1298 5.82127 14.1739 5.80658 14.2998 5.67816C14.4282 5.56762 14.6512 5.3063 14.6512 5.3063C14.7106 5.24241 14.7764 5.17021 14.8512 5.08907C15.9124 3.92367 15.5968 2.29633 13.6219 2.30464L12.4073 2.31039L12.413 3.51476L13.6442 3.50901C14.3106 3.50582 14.103 4.07382 13.6366 4.65268C13.0238 5.18874 12.3626 5.68582 11.6553 6.18035C12.4891 6.77774 13.3376 7.32019 13.9554 7.70035L16.1955 7.69012C17.5391 7.81088 18.7032 8.31755 19.6635 9.20565C20.5453 10.0017 21.0966 11.6144 21.004 13.1274C20.9759 13.5912 20.8845 14.1343 20.6718 14.6946C20.4584 15.2761 20.0622 16.0594 19.3569 16.6235C19.3498 16.6293 19.3422 16.6331 19.3351 16.6382C19.1658 16.7916 18.9805 16.9405 18.7767 17.0836C15.6102 19.3064 15.3681 22.1407 15.2384 23.6626C15.2269 23.7942 15.2166 23.9175 15.2051 24.0325C15.1981 24.097 15.1917 24.1673 15.186 24.2427C15.1681 24.4369 15.147 24.665 15.1087 24.9129C15.4096 25.0644 15.8281 25.2075 16.2919 25.1647C16.3431 24.8535 16.3686 24.5749 16.3884 24.3488C16.3948 24.2791 16.3999 24.214 16.4069 24.1545C16.4191 24.0338 16.4299 23.9034 16.4414 23.7654C16.5705 22.2595 16.7647 19.9881 19.4425 18.0931C19.461 18.0701 19.4821 18.0477 19.5076 18.0292C20.9746 16.9794 21.5362 15.7003 21.542 15.6875C21.5522 15.6632 21.5669 15.6409 21.5816 15.6198C21.9426 14.8793 22.1566 14.0653 22.2096 13.2008C22.3253 11.3167 21.6269 9.35005 20.4782 8.31371Z" fill="#101011"/>
<path d="M20.4782 8.31371C19.3447 7.26588 17.9755 6.65571 16.4012 6.49662L16.2657 6.48448C16.1923 6.47873 16.0453 6.48512 16.0453 6.48512L13.2781 6.49725C13.5695 6.2781 13.8532 6.05256 14.1298 5.82127C14.1298 5.82127 14.1739 5.80658 14.2998 5.67816C14.4282 5.56762 14.6512 5.3063 14.6512 5.3063C14.7106 5.24241 14.7764 5.17021 14.8512 5.08907C15.9124 3.92367 15.5968 2.29633 13.6219 2.30464L12.4073 2.31039L12.413 3.51476L13.6442 3.50901C14.3106 3.50582 14.103 4.07382 13.6366 4.65268C13.0238 5.18874 12.3626 5.68582 11.6553 6.18035C12.4891 6.77774 13.3376 7.32019 13.9554 7.70035L16.1955 7.69012C17.5391 7.81088 18.7032 8.31755 19.6635 9.20565C20.5453 10.0017 21.0966 11.6144 21.004 13.1274C20.9759 13.5912 20.8845 14.1343 20.6718 14.6946C20.4584 15.2761 20.0622 16.0594 19.3569 16.6235C19.3498 16.6293 19.3422 16.6331 19.3351 16.6382C19.1658 16.7916 18.9805 16.9405 18.7767 17.0836C15.6102 19.3064 15.3681 22.1407 15.2384 23.6626C15.2269 23.7942 15.2166 23.9175 15.2051 24.0325C15.1981 24.097 15.1917 24.1673 15.186 24.2427C15.1681 24.4369 15.147 24.665 15.1087 24.9129C15.4096 25.0644 15.8281 25.2075 16.2919 25.1647C16.3431 24.8535 16.3686 24.5749 16.3884 24.3488C16.3948 24.2791 16.3999 24.214 16.4069 24.1545C16.4191 24.0338 16.4299 23.9034 16.4414 23.7654C16.5705 22.2595 16.7647 19.9881 19.4425 18.0931C19.461 18.0701 19.4821 18.0477 19.5076 18.0292C20.9746 16.9794 21.5362 15.7003 21.542 15.6875C21.5522 15.6632 21.5669 15.6409 21.5816 15.6198C21.9426 14.8793 22.1566 14.0653 22.2096 13.2008C22.3253 11.3167 21.6269 9.35005 20.4782 8.31371Z" fill="#101011"/>
<path d="M7.22796 24.9774C7.18451 24.718 7.1596 24.4796 7.14043 24.2784C7.1334 24.2017 7.12637 24.1321 7.11934 24.0682C7.10656 23.9532 7.09442 23.8292 7.08228 23.6976C6.93917 22.177 6.6721 19.3453 3.48642 17.1506C3.27302 17.003 3.07943 16.849 2.90309 16.6905C2.70949 17.1704 2.59385 17.6125 2.52612 17.9441C2.61557 18.0125 2.70694 18.0802 2.80086 18.1447C5.52267 20.0206 5.73735 22.3022 5.88047 23.8113C5.89325 23.9493 5.90475 24.0797 5.91817 24.2004C5.92519 24.2599 5.93095 24.325 5.93797 24.3947C5.96034 24.6183 5.98717 24.8943 6.0402 25.2023C6.5015 25.2572 6.91936 25.1269 7.22796 24.9774Z" fill="#101011"/>
<path d="M7.22796 24.9774C7.18451 24.718 7.1596 24.4796 7.14043 24.2784C7.1334 24.2017 7.12637 24.1321 7.11934 24.0682C7.10656 23.9532 7.09442 23.8292 7.08228 23.6976C6.93917 22.177 6.6721 19.3453 3.48642 17.1506C3.27302 17.003 3.07943 16.849 2.90309 16.6905C2.70949 17.1704 2.59385 17.6125 2.52612 17.9441C2.61557 18.0125 2.70694 18.0802 2.80086 18.1447C5.52267 20.0206 5.73735 22.3022 5.88047 23.8113C5.89325 23.9493 5.90475 24.0797 5.91817 24.2004C5.92519 24.2599 5.93095 24.325 5.93797 24.3947C5.96034 24.6183 5.98717 24.8943 6.0402 25.2023C6.5015 25.2572 6.91936 25.1269 7.22796 24.9774Z" fill="#101011"/>
</g>
</g>
<defs>
<clipPath id="clip0_1_39442">
<rect width="90" height="28.9759" fill="white" transform="translate(0 0.268311)"/>
</clipPath>
</defs>
</svg>
