<svg width="100" height="22" viewBox="0 0 100 22" fill="none" xmlns="http://www.w3.org/2000/svg">
<g clip-path="url(#clip0_1_39581)">
<path d="M13.4595 9.98555C13.4595 8.15603 15.3722 7.07495 18.0333 7.07495C20.9439 7.07495 21.1934 7.49075 21.1934 8.65499C21.1934 8.90447 21.1102 9.07079 20.8608 9.07079C20.6113 9.07079 19.3639 8.65499 18.0333 8.65499C16.9523 8.65499 15.9543 9.07079 15.9543 9.81923C15.9543 11.6487 22.1913 11.3161 22.1913 14.7257C22.1913 16.8878 19.5302 17.8857 17.3681 17.8857C15.3722 17.8857 13.4595 17.3036 13.4595 17.3036C13.4595 17.3036 13.2932 16.3889 13.2932 15.8899C13.2932 15.7236 13.4595 15.5573 13.6259 15.5573C13.7922 15.5573 15.6217 16.3057 17.4512 16.3057C18.8649 16.3057 19.6134 15.6404 19.6134 14.892C19.6134 12.9793 13.4595 13.1456 13.4595 9.98555Z" fill="#101011"/>
<path d="M26.0994 3.33334C26.0994 2.5849 27.5962 2.75122 28.0952 2.75122C28.3447 2.75122 28.5942 2.91754 28.5942 3.25018V9.07138C28.9268 9.07138 30.1742 7.1587 32.8353 7.1587C34.9975 7.1587 36.6607 8.32294 36.6607 10.3188V17.2211C36.6607 17.5537 36.2449 17.72 36.0786 17.72H34.748C34.4985 17.72 34.1659 17.5537 34.1659 17.2211V11.3167C34.1659 9.81982 33.9164 8.98822 32.4195 8.98822C30.1742 8.98822 28.5942 11.1504 28.5942 11.1504V17.3042C28.5942 17.5537 28.3447 17.8032 28.012 17.8032H26.6815C26.3488 17.8032 26.0994 17.5537 26.0994 17.3042V3.33334Z" fill="#101011"/>
<path d="M45.3925 6.65955C44.1451 6.65955 42.8146 6.82587 42.2324 7.07535C41.6503 7.32483 41.5672 7.5743 41.5672 8.23958C41.5672 8.57222 41.6503 9.07118 41.7335 9.07118C41.8998 9.07118 43.4798 8.40591 45.3925 8.40591C47.5547 8.40591 48.3031 8.8217 48.3031 10.2354C48.3031 10.4017 48.3031 10.5681 48.0536 10.5681C43.7293 10.5681 40.4861 11.566 40.4861 14.4766C40.4861 16.7219 42.4819 17.8861 44.2283 17.8861C46.5568 17.8861 47.721 16.6387 48.22 16.6387C48.5526 16.6387 48.3863 17.5535 49.2179 17.5535H50.1326C50.4653 17.5535 50.5484 17.304 50.5484 17.0545V10.7344C50.7148 8.15642 49.5505 6.65955 45.3925 6.65955ZM48.3031 14.4766C48.3031 15.1419 46.3073 15.9735 45.0599 15.9735C44.1451 15.9735 42.8977 15.6408 42.8977 14.3103C42.8977 11.9818 47.1389 12.1481 48.0536 12.1481H48.3031V14.4766Z" fill="#101011"/>
<path d="M62.1084 7.07495C59.4472 7.07495 57.9504 8.98763 57.9504 8.98763C57.9504 8.98763 57.784 8.48867 57.7009 7.98971C57.5346 7.49075 57.3682 7.32443 56.9524 7.32443H56.0377C55.8714 7.32443 55.4556 7.40759 55.4556 7.82339V20.8795C55.4556 21.2121 55.705 21.3785 55.8714 21.3785H57.5346C57.8672 21.3785 57.9504 21.129 57.9504 20.8795V16.6383C57.9504 16.6383 59.2809 17.8857 61.6926 17.8857C64.9358 17.8857 67.0148 15.1415 67.0148 12.1477C67.0148 8.98763 65.1021 7.07495 62.1084 7.07495ZM61.1936 16.2225C59.6136 16.2225 57.9504 15.3909 57.9504 14.5593V10.4845C57.9504 10.4845 59.5304 8.90447 61.4431 8.90447C63.3558 8.90447 64.2705 10.1519 64.2705 12.3972C64.3537 14.2267 63.4389 16.2225 61.1936 16.2225Z" fill="#101011"/>
<path d="M72.8357 13.0624C72.8357 12.8961 72.9188 12.8129 73.0852 12.8129H80.3201C80.5696 12.8129 80.9022 12.6466 80.9022 12.1476C80.9022 9.23702 79.3222 6.9917 75.9126 6.9917C72.8357 6.9917 70.1746 8.98754 70.1746 12.3139C70.1746 15.6403 73.1683 17.7193 76.7442 17.7193C78.1579 17.7193 80.5696 17.4699 80.7359 16.7214C80.819 16.3888 80.9022 15.3909 80.9022 15.3909C80.9022 15.3909 79.3222 16.1393 77.16 16.1393C73.9999 16.3056 72.8357 14.3929 72.8357 13.0624ZM75.7463 8.6549C77.4095 8.6549 78.3242 9.56966 78.3242 10.9834C78.3242 11.2329 78.1579 11.2329 77.9084 11.2329H72.7525C72.8357 10.9834 72.9188 8.6549 75.7463 8.6549Z" fill="#101011"/>
<path d="M3.22997 12.7297C2.89733 12.7297 2.73101 12.5634 2.73101 12.2308V11.7318C2.73101 11.3992 2.89733 11.2329 3.22997 11.2329H3.97841C5.55844 11.2329 6.97216 10.8171 6.97216 9.65282C6.97216 8.82122 5.72476 8.48858 4.3942 8.48858C2.64785 8.48858 0.818327 9.15386 0.818327 9.15386C0.818327 9.15386 0.901487 8.90438 0.901487 8.32226C0.901487 8.15594 0.984647 7.74014 0.984647 7.74014C0.984647 7.24118 2.56469 6.9917 4.3942 6.9917C7.55428 6.9917 9.21748 7.90646 9.21748 9.40334C9.21748 11.316 6.39004 11.8981 6.39004 11.8981C6.39004 11.8981 9.71644 12.2308 9.71644 14.6424C9.71644 16.3888 8.05324 17.8025 4.31104 17.8025C2.56469 17.8025 0.818327 17.4699 0.818327 17.4699C0.818327 17.4699 0.568848 16.4719 0.568848 16.1393C0.568848 15.973 0.735168 15.8067 0.901487 15.8067C1.06781 15.8067 3.14681 16.3056 4.22789 16.3056C5.97424 16.3056 7.3048 15.8898 7.3048 14.7256C7.3048 13.3119 5.89108 12.7297 3.47945 12.7297H3.22997Z" fill="#101011"/>
<path d="M88.0542 0.838174C87.6384 0.588694 87.1395 0.671854 86.9731 1.00449C86.8068 1.25397 86.7237 1.58661 86.7237 1.75293C86.7237 1.91925 85.0605 11.5658 84.9773 12.1479C84.9773 12.4806 85.0605 12.73 85.3099 12.8964C85.4763 13.0627 85.7257 13.0627 85.8921 13.0627C86.3079 12.9795 98.0334 9.90261 98.6987 9.81945C98.865 9.81945 99.1145 9.65313 99.1976 9.48681C99.4471 9.15417 99.364 8.65521 99.0313 8.40573C98.5324 7.98993 88.6363 1.25397 88.0542 0.838174ZM87.5553 4.99617C87.8047 4.16457 87.8047 3.58245 88.0542 3.24981C88.2205 3.00033 88.5532 2.91717 88.8027 3.08349C89.2185 3.41613 89.3016 4.24773 88.969 4.91301C88.6363 5.57829 86.3079 10.3184 86.3079 10.3184C86.3079 10.3184 86.9731 7.07517 87.5553 4.99617ZM95.8712 8.07309C95.8712 8.15625 95.8712 8.23941 95.7881 8.32257C95.6218 8.48889 95.3723 8.65521 95.1228 8.73837C94.8733 8.82153 88.0542 11.4826 87.8047 11.5658C87.5553 11.649 87.0563 11.8984 86.89 11.7321C86.6405 11.5658 86.8068 11.2332 86.9731 10.9005C87.6384 9.90261 90.1332 6.16041 90.3827 5.66145C90.7985 5.07933 91.4638 4.82985 92.0459 5.24565C92.7112 5.74461 95.3723 7.57413 95.5386 7.65729C95.7049 7.82361 95.8712 7.90677 95.8712 8.07309Z" fill="#101011"/>
</g>
<defs>
<clipPath id="clip0_1_39581">
<rect width="98.7691" height="20.6819" fill="white" transform="translate(0.568848 0.697144)"/>
</clipPath>
</defs>
</svg>
