<svg width="91" height="35" viewBox="0 0 91 35" fill="none" xmlns="http://www.w3.org/2000/svg">
<g clip-path="url(#clip0_1_39631)">
<path d="M0.568539 24.8027V5.62499C0.794646 2.65025 3.07213 0.19886 6.10088 -0.00012207L85.2067 0.00260372C87.9911 0.241564 90.3087 2.46762 90.5686 5.25247V25.2189C90.2814 27.9883 87.9583 30.2334 85.1648 30.4278L5.97142 30.4251C2.97002 30.1298 0.806499 27.7693 0.567627 24.8027H0.568539ZM17.5877 5.75492H15.9247V8.19541H15.0495V9.50288H15.9247V12.9246C15.9247 13.1491 16.1563 13.6688 16.3004 13.8578C17.0015 14.7764 18.3061 14.6401 19.2935 14.3411V13.1209C18.8532 13.1254 18.0974 13.3135 17.7865 12.9001C17.7354 12.832 17.5868 12.4658 17.5868 12.4013V9.50288H19.3373V8.19541H17.5868V5.75492H17.5877ZM35.2642 5.75492H33.6012V8.19541H32.726V9.50288H33.6012V12.9246C33.6012 13.1491 33.8328 13.6688 33.9769 13.8578C34.678 14.7764 35.9827 14.6401 36.9701 14.3411V13.1209C36.5297 13.1254 35.7739 13.3135 35.463 12.9001C35.4119 12.832 35.2633 12.4658 35.2633 12.4013V9.50288H37.0138V8.19541H35.2633V5.75492H35.2642ZM54.7651 7.2432C54.7095 7.25865 53.9801 7.98007 53.9436 8.04095C53.9099 8.09819 53.8816 8.13817 53.9081 8.20813L56.5703 10.8767L53.9081 13.5452C53.8807 13.6152 53.909 13.6552 53.9436 13.7124C53.971 13.7587 54.663 14.4475 54.7095 14.4747C54.7405 14.4929 54.7596 14.5138 54.8016 14.5183C54.9921 14.5383 57.2113 12.1287 57.5559 11.858L58.4494 12.7566C58.4676 12.8592 57.8312 13.3535 57.7501 13.4889C57.7127 13.5516 57.6927 13.5788 57.7145 13.6561C57.7328 13.7197 58.5451 14.512 58.6071 14.5174C58.7767 14.5338 59.2636 13.8878 59.4423 13.7769C59.5626 13.756 60.1206 14.5356 60.3093 14.5174C60.3512 14.5138 60.3713 14.492 60.4014 14.4738C60.4479 14.4465 61.1399 13.7578 61.1672 13.7115C61.1855 13.6815 61.2065 13.6615 61.211 13.6197C61.2292 13.4316 60.447 12.8765 60.4679 12.7566L61.3614 11.858L62.2549 12.7566C62.2759 12.8765 61.4936 13.4326 61.5119 13.6197C61.5183 13.6824 62.3133 14.4911 62.3771 14.5092C62.4555 14.531 62.482 14.5111 62.5449 14.4738C62.6862 14.3902 63.1566 13.7933 63.2487 13.7769C63.4639 13.8541 63.9279 14.5347 64.1158 14.5174C64.1577 14.5138 64.1778 14.492 64.2078 14.4738C64.2543 14.4465 64.9463 13.7578 64.9737 13.7115C64.9919 13.6815 65.0129 13.6615 65.0175 13.6197C65.0357 13.4316 64.2534 12.8765 64.2744 12.7566L65.1679 11.858L67.8155 14.4947C67.8484 14.5156 67.8839 14.522 67.9222 14.5183C68.059 14.5047 68.5932 13.846 68.7555 13.7324C68.9762 13.8905 69.3946 14.5174 69.6636 14.4656L73.2804 10.9139L69.6244 7.29136C69.3792 7.24865 68.8449 8.04095 68.7172 8.01823L67.8803 7.23502L65.1679 9.89448L64.2744 8.99588L65.0165 8.1736L64.0747 7.23502L63.2496 7.97462C63.1585 7.95826 62.6871 7.36223 62.5458 7.27773C62.4829 7.24047 62.4555 7.22049 62.378 7.24229C62.3124 7.26046 61.4772 8.10909 61.4818 8.1736L62.2558 8.99497L61.3624 9.89357L60.4689 8.99497L61.211 8.17269L60.2692 7.23411L59.4441 7.97371C59.2654 7.86286 58.7785 7.21685 58.6089 7.23321C58.546 7.23957 57.7337 8.03095 57.7164 8.09455C57.6945 8.17269 57.7145 8.19904 57.7519 8.26174C57.8331 8.39712 58.4695 8.8923 58.4512 8.99406L57.5577 9.89266L54.9347 7.27591C54.8855 7.23048 54.8298 7.22321 54.7669 7.24047L54.7651 7.2432ZM75.7229 7.28772C75.6463 7.29953 74.9926 7.91556 74.9452 7.99733C74.8851 8.10182 74.8814 8.21449 74.927 8.32625L77.4844 10.8767L74.937 13.4371C74.8942 13.5289 74.8832 13.6361 74.9261 13.7306C74.9571 13.7978 75.66 14.4674 75.7147 14.4738C75.8059 14.4829 75.8916 14.4238 75.9545 14.3648L79.4528 10.8767L75.8232 7.29772C75.7904 7.28227 75.7576 7.28136 75.7229 7.28681V7.28772ZM14.2189 8.54522C13.0738 8.14998 11.667 7.8038 10.5018 8.30626C9.23357 8.85414 8.89167 10.5605 10.0924 11.37C10.7106 11.7862 11.4381 11.8471 12.1283 12.0442C12.5358 12.1605 13.4321 12.4177 12.9069 13.001C12.3818 13.5843 10.52 13.0564 9.87178 12.7765L9.27733 13.9895C10.7726 14.7764 14.3857 15.0853 14.5261 12.7093C14.6365 10.8467 12.7054 10.8494 11.4618 10.4415C11.0707 10.3133 10.5018 10.0026 10.9841 9.57193C11.5357 9.07856 13.0856 9.58283 13.7375 9.76546L14.2189 8.54613V8.54522ZM25.1131 14.4729H26.7323V8.19632H25.1131C25.0903 8.26537 25.1733 8.58065 25.0484 8.54431C24.9234 8.50797 24.7311 8.36259 24.587 8.30626C22.9204 7.65752 21.0586 8.24356 20.3666 9.94082C19.2945 12.5703 21.489 15.2752 24.3162 14.3984C24.5989 14.3103 24.8432 14.1494 25.1131 14.0377V14.4729ZM32.158 8.10909C31.4778 7.97825 30.7539 8.16815 30.2124 8.58974L29.7957 9.02496V8.19723H28.1327V14.4084L28.1984 14.4738H29.7957V11.1393C29.7957 11.0366 29.9379 10.6632 29.9954 10.5532C30.4139 9.75002 31.3666 9.71004 32.158 9.8963V8.10909ZM47.0774 14.124C48.1633 14.6428 49.4233 14.7527 50.5037 14.1594C52.4493 13.09 52.6554 10.1961 50.9723 8.78509C49.8929 7.87922 48.28 7.86286 47.0784 8.54613V8.19723H45.4591V16.4782H47.0784V14.1249L47.0774 14.124ZM39.5958 8.19632H37.9766V12.315C37.9766 12.6212 38.2127 13.2999 38.3787 13.5707C38.9959 14.5719 40.5085 14.7273 41.5542 14.4411C41.8533 14.3593 42.1149 14.2012 42.3948 14.0804V14.472H44.0141V8.19541H42.3948V12.5757C41.7758 13.1863 40.162 13.3762 39.7481 12.4667C39.7134 12.3895 39.5949 12.026 39.5949 11.9661V8.19632H39.5958ZM36.7513 17.9156V15.5405L36.6856 15.4751H35.0883V17.9156H34.213V19.2666H35.0883V22.6448C35.0883 22.8901 35.349 23.4653 35.5077 23.6652C36.1532 24.4765 37.5891 24.4066 38.4571 24.0395V22.8411C37.9857 22.8819 37.1725 23.0437 36.8889 22.5512C36.8534 22.4894 36.7513 22.1751 36.7513 22.1215V19.2666H38.5018V17.9156H36.7513ZM57.7966 15.4751H56.1774V18.2645C53.9701 17.1042 51.2769 18.2381 51.1437 20.8558C51.0024 23.6334 53.7896 25.1725 56.1555 23.8441L56.1774 24.1921H57.7966V15.4751ZM14.3064 24.1921H15.9256V17.9156H14.3064V18.2645C13.2123 17.7248 11.9788 17.5648 10.8801 18.1863C8.96552 19.2685 8.79959 22.2096 10.4553 23.6052C11.5129 24.4965 13.1658 24.5083 14.3055 23.7569V24.193L14.3064 24.1921ZM30.9226 17.7965C29.6006 17.8211 28.3132 18.5561 28.5457 20.0535C28.7536 21.39 30.3847 21.5118 31.414 21.8162C31.7915 21.9279 32.3649 22.0924 32.1607 22.6039C31.9456 23.1445 30.7302 22.9937 30.2753 22.9074C29.8458 22.8256 29.4392 22.6484 29.0344 22.4949L28.4391 23.6488C28.4409 23.746 28.5567 23.7715 28.6287 23.8069C30.185 24.5883 33.8246 24.7273 33.6915 22.2069C33.5994 20.4651 31.6392 20.5896 30.485 20.128C30.1832 20.0071 29.8167 19.7836 30.0592 19.4193C30.3792 18.9368 31.4961 19.1394 31.9848 19.2448C32.2674 19.3057 32.5765 19.3993 32.8381 19.5229L33.3815 18.3344C33.3387 18.1981 32.1188 17.9092 31.9109 17.8783C31.621 17.8356 31.2107 17.7902 30.9235 17.7956L30.9226 17.7965ZM45.3269 21.5336C45.5002 19.9654 44.7608 18.2608 43.0959 17.8938C40.5103 17.3232 38.4489 19.5265 39.1801 22.056C39.9323 24.6601 43.5071 25.0208 45.1045 23.031C45.1264 22.9065 44.2329 22.2977 44.118 22.1469C43.8992 22.2832 43.7779 22.4776 43.5463 22.6148C42.4869 23.2408 40.9215 22.8365 40.689 21.5336H45.3269ZM63.9653 24.1921H65.5845V17.9156H63.9653V18.2645C63.9289 18.3017 63.3444 18.0091 63.2305 17.9719C61.5456 17.4204 59.7276 18.1391 59.1505 19.8536C58.2515 22.5267 60.5081 25.0871 63.2752 24.094C63.5213 24.0059 63.7265 23.8551 63.9644 23.8005V24.193L63.9653 24.1921ZM27.4325 24.1921C27.3751 22.9401 27.5091 21.6208 27.4343 20.3769C27.3185 18.4407 26.2701 17.6612 24.3491 17.8292C23.7501 17.8819 23.2058 18.2218 22.7353 18.5661C21.8564 17.6275 20.0685 17.5648 19.0538 18.3072L19.0319 17.9156H17.4345L17.3689 17.981V24.1921H19.0319V19.7682C19.5607 19.2176 20.8444 19.024 21.3504 19.681C21.4407 19.7982 21.613 20.2007 21.613 20.3342V24.1912H23.2322V19.8545C23.2322 19.8427 23.1921 19.8145 23.1966 19.7745C23.7428 19.1413 25.1432 19.0331 25.5863 19.82C25.703 20.0271 25.8133 20.4524 25.8133 20.6831V24.1921H27.4325ZM50.5338 17.8719C49.5947 17.6621 48.7496 18.0637 48.1278 18.7433V17.9156H46.5085V24.1921H48.1278V21.1629C48.1278 20.9212 48.2399 20.5187 48.353 20.297C48.7878 19.4429 49.7105 19.4929 50.5347 19.6155V17.8719H50.5338ZM77.0477 24.1921V20.0299C77.0477 19.1385 76.3885 18.2263 75.5351 17.9619C74.4657 17.6312 73.2275 17.8129 72.3796 18.5634C72.1699 18.4316 72.0523 18.2545 71.8262 18.1264C71.1333 17.7348 69.9344 17.7284 69.2041 18.0128C69.0664 18.0664 68.8066 18.2463 68.7127 18.2645C68.5823 18.2899 68.6707 17.9937 68.6461 17.9147H67.0269V24.1912H68.6461V19.8109C69.1622 19.1958 70.5826 18.995 71.0449 19.7755C71.1488 19.9508 71.271 20.357 71.271 20.5523V24.1921H72.8902L72.8565 19.7119C73.5567 19.104 74.9689 19.0359 75.3309 20.0389C75.351 20.0944 75.4275 20.3461 75.4275 20.3779V24.1912H77.0468L77.0477 24.1921Z" fill="#101011"/>
<path d="M82.6039 32.822H82.9102V33.0401C83.1482 32.7611 83.6031 32.7103 83.8073 33.0401H83.8712C83.9496 32.7602 84.472 32.7611 84.6571 32.9329C84.6835 32.9574 84.7902 33.1355 84.7902 33.1482V34.2594H84.4401V33.279C84.4401 33.1019 84.0763 33.0782 83.9696 33.1809C83.9623 33.1882 83.8712 33.3554 83.8712 33.3663V34.2594H83.5211V33.279C83.5211 33.0419 82.9521 33.0819 82.9521 33.3227V34.2594H82.6021V32.8211L82.6039 32.822Z" fill="#101011"/>
<path d="M71.1407 32.822H71.4471V33.0401C71.685 32.7611 72.14 32.7103 72.3442 33.0401H72.408C72.4864 32.7602 73.0089 32.7611 73.1939 32.9329C73.2204 32.9574 73.3271 33.1355 73.3271 33.1482V34.2594H72.977V33.279C72.977 33.1019 72.6132 33.0782 72.5065 33.1809C72.4992 33.1882 72.408 33.3554 72.408 33.3663V34.2594H72.0579V33.279C72.0579 33.0419 71.489 33.0819 71.489 33.3227V34.2594H71.1389V32.8211L71.1407 32.822Z" fill="#101011"/>
<path d="M70.0422 32.1733L70.922 34.2594L70.4917 34.2521L70.3139 33.8069L69.4195 33.7869L69.2107 34.254L68.7786 34.2585L69.6584 32.2369C69.7368 32.1206 69.9173 32.1696 70.0431 32.1724L70.0422 32.1733ZM70.1781 33.4762L69.8717 32.6485C69.8152 32.6039 69.5262 33.3962 69.5225 33.4762H70.179H70.1781Z" fill="#101011"/>
<path d="M80.5916 32.0378V34.2612H80.2415L80.2206 34.0867C79.0125 35.0598 78.4938 32.6857 79.8276 32.8211C80.01 32.8392 80.0838 32.9564 80.2424 32.9964V32.0378H80.5925H80.5916ZM79.7045 33.1354C79.2003 33.2472 79.3189 34.0622 79.8659 33.9977C80.4476 33.9286 80.3054 33.0028 79.7045 33.1354Z" fill="#101011"/>
<path d="M50.0744 32.1687C50.41 32.2241 50.5741 32.563 50.4811 32.8792C50.4519 32.9773 50.162 33.1418 50.1839 33.1708C50.6014 33.2317 50.7364 33.7487 50.4701 34.0449C50.4182 34.1031 50.1301 34.2612 50.0744 34.2612H49.1335V32.1687C49.4207 32.2023 49.8009 32.1232 50.0744 32.1687ZM50.0307 32.4294C49.8456 32.3985 49.5912 32.4521 49.3961 32.4294L49.4153 32.9991C49.6861 33.1045 50.2878 33.0754 50.2085 32.6475C50.1939 32.5712 50.1127 32.4431 50.0307 32.4294ZM49.3961 33.9986H50.0307C50.1228 33.9986 50.3033 33.8278 50.3142 33.7115C50.327 33.577 50.1966 33.3017 50.0744 33.3017H49.3961V33.9995V33.9986Z" fill="#101011"/>
<path d="M59.4917 32.1351C59.84 32.0796 60.2193 32.1405 60.4655 32.4085L60.2257 32.6366C59.6796 32.1614 58.9757 32.5821 59.0222 33.279C59.0651 33.9141 59.7789 34.2639 60.2248 33.7478L60.5092 33.9359C60.2658 34.3929 59.5474 34.3966 59.1462 34.1585C58.3028 33.657 58.5463 32.2868 59.4908 32.136L59.4917 32.1351Z" fill="#101011"/>
<path d="M63.3101 33.8242L63.7094 32.8284L64.0532 32.8229L63.3466 34.7128C63.156 35.0099 62.8871 35.0326 62.5652 34.9581L62.609 34.6537C62.8816 34.7173 63.1378 34.5774 63.136 34.283C63.136 34.0677 62.5005 32.8856 62.5643 32.8229C62.6838 32.8338 62.8424 32.7838 62.9363 32.8656C63.0412 32.9574 63.2445 33.6506 63.3083 33.8251L63.3101 33.8242Z" fill="#101011"/>
<path d="M77.6158 33.6942H76.5217C76.6101 33.9459 76.7642 34.0904 77.0487 34.0249C77.2875 33.9704 77.2684 33.7324 77.5711 34.0204C77.1253 34.5874 76.1634 34.2757 76.1762 33.5461C76.1935 32.5467 77.8364 32.5721 77.6149 33.6942H77.6158ZM76.5664 33.3889H77.2666C77.2812 32.9773 76.5828 32.9819 76.5664 33.3889Z" fill="#101011"/>
<path d="M65.7041 32.8329C66.9577 32.6194 67.0188 34.4202 65.7807 34.3039C64.9255 34.2231 64.9027 32.9683 65.7041 32.8329ZM65.7907 33.1355C65.2865 33.2472 65.4051 34.0622 65.9521 33.9977C66.5338 33.9287 66.3915 33.0028 65.7907 33.1355Z" fill="#101011"/>
<path d="M82.21 34.2603H81.9037L81.8827 34.0858C81.569 34.571 80.6491 34.2076 80.9673 33.6533C81.1278 33.3744 81.621 33.3798 81.9037 33.388C81.9529 33.1481 81.6867 33.06 81.4916 33.0836C81.3749 33.0982 81.2591 33.2344 81.1606 33.1936C80.8488 33.0018 81.2399 32.8537 81.4469 32.8247C81.6903 32.7911 82.2091 32.8746 82.2091 33.1908V34.2584L82.21 34.2603ZM81.9037 33.6506C81.673 33.6569 81.2992 33.5852 81.2536 33.8841C81.4733 34.1903 81.9255 34.0267 81.9037 33.6506Z" fill="#101011"/>
<path d="M67.1594 33.1709L66.8941 33.1518C66.7682 32.8901 66.8804 32.7765 67.1594 32.822C67.1001 32.2332 67.256 31.907 67.9033 31.9933V32.2986L67.5633 32.3522L67.5086 32.822L67.8176 32.8411C67.8851 32.8883 67.8906 33.1327 67.7866 33.1645L67.5086 33.1709V34.2603H67.1585V33.1709H67.1594Z" fill="#101011"/>
<path d="M57.403 33.6507H56.2652C56.2698 33.9332 56.5724 34.1377 56.846 34.0786C57.0538 34.0332 57.1286 33.667 57.3128 34.0604C56.9362 34.4848 56.0956 34.3721 56.0063 33.757C55.8321 32.564 57.486 32.4722 57.4021 33.6516L57.403 33.6507ZM57.1405 33.4326C57.0484 32.8956 56.3582 32.9138 56.2652 33.4326H57.1405Z" fill="#101011"/>
<path d="M54.6468 31.9943V32.9965C54.8866 32.8875 55.0252 32.7648 55.316 32.8311C55.4354 32.8584 55.6533 33.0792 55.6533 33.1918V34.2594H55.3908V33.2791C55.3908 33.0737 54.9139 32.9938 54.7571 33.2146C54.7325 33.2491 54.6468 33.4717 54.6468 33.4971V34.2594H54.428V31.9934H54.6468V31.9943Z" fill="#101011"/>
<path d="M62.0408 33.8896C62.0764 34.0168 62.3253 34.0077 62.4347 33.9986L62.4155 34.263C61.512 34.5265 61.7008 33.7769 61.6907 33.17L61.4254 33.1509C61.2987 32.8874 61.4136 32.7766 61.6907 32.8211V32.4286H62.0408V32.8211H62.4347V33.1446L62.0408 33.17V33.8896Z" fill="#101011"/>
<path d="M51.0964 32.8719L51.5186 33.9559L51.8951 32.8701L52.1969 32.8865C51.9079 33.4198 51.7684 34.2266 51.463 34.7264C51.3253 34.9517 51.1019 35.0716 50.8475 34.9508L50.8421 34.6955C51.1903 34.8572 51.2779 34.5501 51.3636 34.2811C51.2432 33.8314 50.9278 33.358 50.7992 32.9283C50.7646 32.812 51.0326 32.8728 51.0983 32.871L51.0964 32.8719Z" fill="#101011"/>
<path d="M74.0327 33.3408C74.092 33.4253 74.7101 33.4044 74.7712 33.7161C74.8633 34.1876 74.4977 34.333 74.0929 34.3048C73.7711 34.283 73.4383 34.1249 73.8385 33.8705C74.0309 34.0023 74.2251 34.1576 74.4184 33.9259C74.5296 33.5834 73.7474 33.7778 73.6817 33.3635C73.5851 32.7539 74.392 32.6621 74.7284 33.0183L74.526 33.21C74.453 33.2227 74.319 33.0037 74.1166 33.1046C74.0473 33.1391 73.9935 33.2845 74.0337 33.3408H74.0327Z" fill="#101011"/>
<path d="M75.2098 33.1709H74.9473V32.822H75.2098V32.4294H75.5353L75.5599 32.822H75.9538V33.1709H75.5599V33.8023C75.5599 33.9432 75.8216 34.0467 75.9538 33.9986C76.1106 34.4447 75.3812 34.3666 75.2764 34.1285C75.2673 34.1076 75.2098 33.8605 75.2098 33.8459V33.1699V33.1709Z" fill="#101011"/>
<path d="M53.3776 33.0837H53.0713V32.8657H53.3776V32.4731H53.6156L53.6402 32.8657H54.0341V33.0837H53.6402V33.846C53.6402 34.1259 54.014 34.0214 54.0341 34.0423C54.0322 34.1268 54.0632 34.264 53.962 34.2976C53.7761 34.3121 53.5572 34.3458 53.4551 34.1613C53.4442 34.1413 53.3776 33.9451 53.3776 33.9333V33.0837Z" fill="#101011"/>
<path d="M78.0098 32.822H78.3161V33.04C78.4966 32.8928 78.6297 32.7747 78.885 32.822V33.1709C78.6252 33.0237 78.3161 33.2681 78.3161 33.5416V34.2612H78.0098V32.8229V32.822Z" fill="#101011"/>
<path d="M61.1218 32.822V34.2603H60.7717V32.8874L60.8438 32.8293L61.1218 32.822Z" fill="#101011"/>
<path d="M61.111 32.1796C61.3234 32.364 61.0098 32.732 60.7828 32.5067C60.5795 32.3049 60.925 32.0178 61.111 32.1796Z" fill="#101011"/>
<path d="M68.7565 8.28442L71.3176 10.8766L68.7565 13.4689L66.1536 10.8766L68.7565 8.28442Z" fill="#101011"/>
<path d="M63.2498 9.98621L64.1834 10.8766L63.2817 11.7671L62.3472 10.8766L63.2498 9.98621Z" fill="#101011"/>
<path d="M59.4434 9.98621L60.377 10.8766L59.4753 11.7671L58.5408 10.8766L59.4434 9.98621Z" fill="#101011"/>
<path d="M54.419 19.2794C54.7736 19.244 55.1848 19.3003 55.5212 19.4202C55.6708 19.4738 56.1485 19.7055 56.1777 19.8564L56.1704 22.2878C55.3097 23.0919 53.6139 23.0655 53.0058 21.9697C52.3548 20.7977 53.0888 19.4139 54.4199 19.2794H54.419Z" fill="#101011"/>
<path d="M48.2055 9.5592C49.4627 9.40928 50.5969 10.1352 50.4893 11.4863C50.3562 13.1581 48.2109 13.5325 47.085 12.5694L47.0868 10.1007C47.1552 9.86812 47.9684 9.58737 48.2055 9.5592Z" fill="#101011"/>
<path d="M23.443 9.51653C23.9727 9.48836 24.7942 9.68735 25.1133 10.1371L25.1051 12.524C24.8361 12.8384 24.3128 13.0319 23.9052 13.0728C21.0834 13.3563 20.9841 9.64828 23.443 9.51653Z" fill="#101011"/>
<path d="M62.0738 19.2785C62.7348 19.1949 63.4541 19.3802 63.9583 19.8191V22.2886C62.9572 23.15 61.1392 23.04 60.6506 21.6753C60.2667 20.6014 60.9168 19.4247 62.0728 19.2775L62.0738 19.2785Z" fill="#101011"/>
<path d="M12.4593 19.2794C13.0948 19.2031 13.8369 19.3739 14.2983 19.82V22.2869C13.5051 23.0292 12.0336 23.0555 11.3087 22.1878C10.4043 21.103 11.0571 19.4484 12.4593 19.2794Z" fill="#101011"/>
<path d="M40.6892 20.4878C40.9846 18.7242 43.6405 18.577 43.7955 20.4878H40.6892Z" fill="#101011"/>
</g>
<defs>
<clipPath id="clip0_1_39631">
<rect width="90" height="35" fill="white" transform="translate(0.568848 -0.00012207)"/>
</clipPath>
</defs>
</svg>
