<svg width="95" height="24" viewBox="0 0 95 24" fill="none" xmlns="http://www.w3.org/2000/svg">
<g clip-path="url(#clip0_1_39421)">
<path fill-rule="evenodd" clip-rule="evenodd" d="M53.2708 6.86301L54.5469 8.14532L55.8424 6.86301L54.5469 5.5807L53.2708 6.86301ZM49.5776 9.25277H49.5389L46.8706 2.25836H44.0478V12.342H46.0005V4.97841H46.0198L48.7655 12.342H51.5305V2.25836H49.5776V9.25277ZM28.2114 2.25836H26.9352L24.1509 12.342H26.2198L26.7806 10.1079H29.6423L30.203 12.342H32.4073L29.7003 2.25836H28.2114ZM28.2114 8.57276H27.206L28.1534 4.20125H28.1921L28.2114 4.25954L29.1976 8.57276H28.2114ZM39.4265 7.13502V7.09616C40.5673 6.88244 41.1278 6.047 41.1278 4.88126C41.1278 2.72465 39.813 2.25836 38.2081 2.25836H34.4956V12.342H38.1887C39.0782 12.342 41.3018 12.2451 41.3018 9.68021C41.3018 8.30075 40.9151 7.32931 39.4265 7.13502ZM36.5841 3.81267H37.8987C38.5948 3.8321 39.0782 4.37611 39.0782 5.09498C39.0782 6.08586 38.4401 6.39672 37.9954 6.39672H36.5839V3.81267H36.5841ZM37.8987 10.8071H36.5841V7.9316H37.899C38.8851 7.97046 39.1945 8.51447 39.1945 9.36935C39.1942 10.6517 38.3821 10.7877 37.8987 10.8071ZM60.4444 2.25836H59.1682L56.3838 12.342H58.4528L59.0329 10.1079H61.8946L62.4553 12.342H64.6593L61.9332 2.25836H60.4444ZM60.4444 8.57276H59.4582L60.4057 4.20125H60.4444V4.25954L61.4498 8.57276H60.4444ZM71.6205 9.11677H71.5819L70.0157 2.25836H66.6512V12.342H68.6815V4.5704H68.7204L70.5377 12.342H72.5489L74.4822 4.5704H74.5016V12.342H76.5512V2.25836H73.2834L71.6205 9.11677ZM83.5505 7.40702V7.38759C84.904 7.15445 85.4068 6.183 85.4068 4.90069C85.4068 3.19121 84.4786 2.25836 83.0481 2.25836H79.1806V12.342H81.2689V8.18418H81.8103C81.9843 8.18418 82.139 8.18418 82.2744 8.20361C83.4152 8.3979 83.3188 9.33049 83.3188 10.3991C83.3188 11.0597 83.2607 11.7397 83.5505 12.342H85.6004C85.4068 11.934 85.3684 10.0302 85.3684 9.38904C85.3684 7.58188 83.9955 7.46531 83.5505 7.40702ZM82.2744 6.62987H81.2691V3.81267H82.2744C82.8934 3.85153 83.2798 4.22068 83.2798 5.15327C83.2801 5.77499 83.0481 6.57158 82.2744 6.62987ZM91.3816 2.0835C87.9204 2.0835 87.9204 4.62869 87.9204 7.29045C87.9204 9.93279 87.9204 12.4974 91.3816 12.4974C94.843 12.4974 94.843 9.93279 94.843 7.29045C94.843 4.62869 94.843 2.0835 91.3816 2.0835ZM91.3816 10.9819C90.183 10.9819 90.0474 9.8745 90.0474 7.29045C90.0474 4.7064 90.183 3.57952 91.3816 3.57952C92.5613 3.57952 92.716 4.7064 92.716 7.29045C92.716 9.8745 92.5613 10.9819 91.3816 10.9819Z" fill="#101011"/>
<path fill-rule="evenodd" clip-rule="evenodd" d="M-0.00415039 0.0057373H17.9202V15.0243L9.00638 6.08699V23.981L-0.00415039 15.0243V0.0057373Z" fill="#101011"/>
<path fill-rule="evenodd" clip-rule="evenodd" d="M9.00879 23.98V6.08594L17.9226 15.0232L9.00879 23.98Z" fill="#101011" fill-opacity="0.5"/>
</g>
<defs>
<clipPath id="clip0_1_39421">
<rect width="94.8359" height="23.9879" fill="white"/>
</clipPath>
</defs>
</svg>
