<svg width="36" height="36" viewBox="0 0 36 36" fill="none" xmlns="http://www.w3.org/2000/svg">
<g clip-path="url(#clip0_2001_649)">
<path d="M12.1736 13.4248H23.8403" stroke="#9DEDF6" stroke-width="2.91667" stroke-linecap="round" stroke-linejoin="round"/>
<path d="M12.1736 19.2585H20.9236" stroke="#9DEDF6" stroke-width="2.91667" stroke-linecap="round" stroke-linejoin="round"/>
<path d="M21.6525 27.2794L18.0067 30.9252L13.6317 26.5502H9.25671C8.09639 26.5502 6.98359 26.0893 6.16312 25.2688C5.34265 24.4483 4.88171 23.3355 4.88171 22.1752V10.5085C4.88171 9.34822 5.34265 8.23542 6.16312 7.41495C6.98359 6.59448 8.09639 6.13354 9.25671 6.13354H26.7567C27.917 6.13354 29.0298 6.59448 29.8503 7.41495C30.6708 8.23542 31.1317 9.34822 31.1317 10.5085V17.071" stroke="#9DEDF6" stroke-width="2.91667" stroke-linecap="round" stroke-linejoin="round"/>
<path d="M28.2152 32.3833V32.3979" stroke="#9DEDF6" stroke-width="2.91667" stroke-linecap="round" stroke-linejoin="round"/>
<path d="M28.2151 28.0085C28.8689 28.0064 29.503 27.7851 30.0161 27.3799C30.5292 26.9747 30.8915 26.4092 31.0451 25.7737C31.1986 25.1382 31.1346 24.4696 30.8632 23.8748C30.5918 23.28 30.1287 22.7935 29.548 22.4931C28.9678 22.1959 28.3042 22.1038 27.665 22.2317C27.0258 22.3595 26.4487 22.6999 26.0276 23.1975" stroke="#9DEDF6" stroke-width="2.91667" stroke-linecap="round" stroke-linejoin="round"/>
</g>
<defs>
<clipPath id="clip0_2001_649">
<rect width="35" height="35" fill="white" transform="translate(0.506714 0.300049)"/>
</clipPath>
</defs>
</svg>
