<svg width="18" height="19" viewBox="0 0 18 19" fill="none" xmlns="http://www.w3.org/2000/svg">
<path d="M10.0312 1.64355L10.0312 8.51855L16.9062 8.51855C17.4648 8.51855 17.9375 8.99121 17.9375 9.5498C17.9375 10.1514 17.4648 10.5811 16.9062 10.5811L10.0312 10.5811V17.4561C10.0312 18.0576 9.55859 18.4873 9 18.4873C8.39844 18.4873 7.96875 18.0576 7.96875 17.4561L7.96875 10.5811H1.09375C0.492187 10.5811 0.0625 10.1514 0.0625 9.5498C0.0625 8.99121 0.492187 8.51855 1.09375 8.51855H7.96875V1.64355C7.96875 1.08496 8.39844 0.612305 9 0.612305C9.55859 0.612305 10.0312 1.08496 10.0312 1.64355Z" fill="#FCFBF8"/>
</svg>
