<svg width="60" height="60" viewBox="0 0 60 60" fill="none" xmlns="http://www.w3.org/2000/svg">
<rect width="60" height="60" rx="30" fill="#FF6363" fill-opacity="0.1"/>
<path d="M19 42.25V39.3333C19 37.7862 19.6146 36.3025 20.7085 35.2085C21.8025 34.1146 23.2862 33.5 24.8333 33.5H27.0208M39.7086 41.0833L42.3336 43.7083M21.9167 21.8333C21.9167 23.3804 22.5312 24.8642 23.6252 25.9581C24.7192 27.0521 26.2029 27.6667 27.75 27.6667C29.2971 27.6667 30.7808 27.0521 31.8748 25.9581C32.9688 24.8642 33.5833 23.3804 33.5833 21.8333C33.5833 20.2862 32.9688 18.8025 31.8748 17.7085C30.7808 16.6146 29.2971 16 27.75 16C26.2029 16 24.7192 16.6146 23.6252 17.7085C22.5312 18.8025 21.9167 20.2862 21.9167 21.8333ZM32.125 37.875C32.125 39.0353 32.5859 40.1481 33.4064 40.9686C34.2269 41.7891 35.3397 42.25 36.5 42.25C37.6603 42.25 38.7731 41.7891 39.5936 40.9686C40.4141 40.1481 40.875 39.0353 40.875 37.875C40.875 36.7147 40.4141 35.6019 39.5936 34.7814C38.7731 33.9609 37.6603 33.5 36.5 33.5C35.3397 33.5 34.2269 33.9609 33.4064 34.7814C32.5859 35.6019 32.125 36.7147 32.125 37.875Z" stroke="#FF6363" stroke-width="2.91667" stroke-linecap="round" stroke-linejoin="round"/>
</svg>
