<svg width="36" height="36" viewBox="0 0 36 36" fill="none" xmlns="http://www.w3.org/2000/svg">
<g clip-path="url(#clip0_2001_606)">
<path d="M5.34998 15.3834C5.34998 16.724 5.61402 18.0514 6.12704 19.2899C6.64006 20.5285 7.392 21.6538 8.33993 22.6018C9.28786 23.5497 10.4132 24.3016 11.6517 24.8147C12.8903 25.3277 14.2177 25.5917 15.5583 25.5917C16.8989 25.5917 18.2263 25.3277 19.4649 24.8147C20.7034 24.3016 21.8288 23.5497 22.7767 22.6018C23.7246 21.6538 24.4766 20.5285 24.9896 19.2899C25.5026 18.0514 25.7666 16.724 25.7666 15.3834C25.7666 14.0428 25.5026 12.7154 24.9896 11.4768C24.4766 10.2383 23.7246 9.11293 22.7767 8.165C21.8288 7.21707 20.7034 6.46513 19.4649 5.95211C18.2263 5.43909 16.8989 5.17505 15.5583 5.17505C14.2177 5.17505 12.8903 5.43909 11.6517 5.95211C10.4132 6.46513 9.28786 7.21707 8.33993 8.165C7.392 9.11293 6.64006 10.2383 6.12704 11.4768C5.61402 12.7154 5.34998 14.0428 5.34998 15.3834Z" stroke="#FFBF9F" stroke-width="2.91667" stroke-linecap="round" stroke-linejoin="round"/>
<path d="M31.6 31.425L22.85 22.675" stroke="#FFBF9F" stroke-width="2.91667" stroke-linecap="round" stroke-linejoin="round"/>
</g>
<defs>
<clipPath id="clip0_2001_606">
<rect width="35" height="35" fill="white" transform="translate(0.974976 0.800049)"/>
</clipPath>
</defs>
</svg>
