<svg width="20" height="21" viewBox="0 0 20 21" fill="none" xmlns="http://www.w3.org/2000/svg">
<path d="M9.99988 18.7998C11.0506 18.8011 12.0913 18.5948 13.0621 18.1926C14.0329 17.7905 14.9146 17.2005 15.6567 16.4566C16.4006 15.7145 16.9906 14.8328 17.3927 13.862C17.7948 12.8912 18.0012 11.8506 17.9999 10.7998C18.0012 9.74904 17.7948 8.70838 17.3927 7.7376C16.9906 6.76683 16.4006 5.88508 15.6567 5.14301C14.9146 4.39907 14.0329 3.8091 13.0621 3.40698C12.0913 3.00486 11.0506 2.79852 9.99988 2.79981C8.94912 2.79852 7.90845 3.00486 6.93768 3.40698C5.9669 3.8091 5.08515 4.39907 4.34308 5.14301C3.59915 5.88508 3.00917 6.76683 2.60705 7.7376C2.20493 8.70838 1.99859 9.74904 1.99988 10.7998C1.99859 11.8506 2.20493 12.8912 2.60705 13.862C3.00917 14.8328 3.59915 15.7145 4.34308 16.4566C5.08515 17.2005 5.9669 17.7905 6.93768 18.1926C7.90845 18.5948 8.94912 18.8011 9.99988 18.7998Z" stroke="white" stroke-width="1.25" stroke-linejoin="round"/>
<path d="M6.79993 11.2002L8.93326 13.2002L13.1999 9.2002" stroke="white" stroke-width="1.25" stroke-linecap="round" stroke-linejoin="round"/>
</svg>
