<svg width="60" height="60" viewBox="0 0 60 60" fill="none" xmlns="http://www.w3.org/2000/svg">
<rect width="60" height="60" rx="30" fill="#FF6363" fill-opacity="0.1"/>
<path d="M21.9792 22.7083H38.0208M30 30C27.6794 30 25.4538 30.9219 23.8128 32.5628C22.1719 34.2038 21.25 36.4294 21.25 38.75V41.6667C21.25 42.0534 21.4036 42.4244 21.6771 42.6979C21.9506 42.9714 22.3216 43.125 22.7083 43.125H37.2917C37.6784 43.125 38.0494 42.9714 38.3229 42.6979C38.5964 42.4244 38.75 42.0534 38.75 41.6667V38.75C38.75 36.4294 37.8281 34.2038 36.1872 32.5628C34.5462 30.9219 32.3206 30 30 30ZM30 30C27.6794 30 25.4538 29.0781 23.8128 27.4372C22.1719 25.7962 21.25 23.5706 21.25 21.25V18.3333C21.25 17.9466 21.4036 17.5756 21.6771 17.3021C21.9506 17.0286 22.3216 16.875 22.7083 16.875H37.2917C37.6784 16.875 38.0494 17.0286 38.3229 17.3021C38.5964 17.5756 38.75 17.9466 38.75 18.3333V21.25C38.75 23.5706 37.8281 25.7962 36.1872 27.4372C34.5462 29.0781 32.3206 30 30 30Z" stroke="#FF6363" stroke-width="2.91667" stroke-linecap="round" stroke-linejoin="round"/>
</svg>
