<svg width="36" height="36" viewBox="0 0 36 36" fill="none" xmlns="http://www.w3.org/2000/svg">
<g clip-path="url(#clip0_2001_412)">
<path d="M4.875 17.8C4.875 19.5236 5.21449 21.2304 5.87408 22.8228C6.53367 24.4152 7.50045 25.8621 8.71922 27.0808C9.93799 28.2996 11.3849 29.2664 12.9773 29.926C14.5697 30.5856 16.2764 30.925 18 30.925C19.7236 30.925 21.4303 30.5856 23.0227 29.926C24.6151 29.2664 26.062 28.2996 27.2808 27.0808C28.4995 25.8621 29.4663 24.4152 30.1259 22.8228C30.7855 21.2304 31.125 19.5236 31.125 17.8C31.125 16.0764 30.7855 14.3697 30.1259 12.7773C29.4663 11.1849 28.4995 9.73804 27.2808 8.51927C26.062 7.3005 24.6151 6.33372 23.0227 5.67413C21.4303 5.01454 19.7236 4.67505 18 4.67505C16.2764 4.67505 14.5697 5.01454 12.9773 5.67413C11.3849 6.33372 9.93799 7.3005 8.71922 8.51927C7.50045 9.73804 6.53367 11.1849 5.87408 12.7773C5.21449 14.3697 4.875 16.0764 4.875 17.8Z" stroke="#6535E7" stroke-width="2.91667" stroke-linecap="round" stroke-linejoin="round"/>
<path d="M18 17.8L22.375 20.7167" stroke="#6535E7" stroke-width="2.91667" stroke-linecap="round" stroke-linejoin="round"/>
<path d="M18 10.5082V17.7998" stroke="#6535E7" stroke-width="2.91667" stroke-linecap="round" stroke-linejoin="round"/>
</g>
<defs>
<clipPath id="clip0_2001_412">
<rect width="35" height="35" fill="white" transform="translate(0.5 0.300049)"/>
</clipPath>
</defs>
</svg>
