<svg width="40" height="46" viewBox="0 0 40 46" fill="none" xmlns="http://www.w3.org/2000/svg">
<path d="M19.998 0C18.4177 0 17.1409 1.28477 17.1409 2.875V4.6C10.6232 5.92969 5.7125 11.7336 5.7125 18.6875V20.3766C5.7125 24.5992 4.16788 28.6781 1.3822 31.8406L0.721496 32.5863C-0.0284944 33.4309 -0.207064 34.6438 0.248288 35.677C0.703639 36.7102 1.73041 37.375 2.8554 37.375H37.1407C38.2656 37.375 39.2835 36.7102 39.7478 35.677C40.2121 34.6438 40.0246 33.4309 39.2746 32.5863L38.6139 31.8406C35.8282 28.6781 34.2836 24.6082 34.2836 20.3766V18.6875C34.2836 11.7336 29.3729 5.92969 22.8551 4.6V2.875C22.8551 1.28477 21.5784 0 19.998 0ZM24.0426 44.3199C25.114 43.2418 25.7122 41.7773 25.7122 40.25H19.998H14.2838C14.2838 41.7773 14.882 43.2418 15.9534 44.3199C17.0249 45.398 18.4802 46 19.998 46C21.5159 46 22.9712 45.398 24.0426 44.3199Z" fill="#333242"/>
</svg>
