<svg width="40" height="31" viewBox="0 0 40 31" fill="none" xmlns="http://www.w3.org/2000/svg">
<path d="M21.4583 5.12054C22.25 4.63616 22.7778 3.75737 22.7778 2.76786C22.7778 1.23862 21.5347 0 20 0C18.4653 0 17.2222 1.23862 17.2222 2.76786C17.2222 3.76429 17.75 4.63616 18.5417 5.12054L14.5625 13.0504C13.9306 14.3098 12.2917 14.6696 11.1875 13.7908L5 8.85714C5.34722 8.39353 5.55556 7.8192 5.55556 7.19643C5.55556 5.66719 4.3125 4.42857 2.77778 4.42857C1.24306 4.42857 0 5.66719 0 7.19643C0 8.72567 1.24306 9.96429 2.77778 9.96429C2.79167 9.96429 2.8125 9.96429 2.82639 9.96429L6 27.3603C6.38194 29.4638 8.22222 31 10.375 31H29.625C31.7708 31 33.6111 29.4708 34 27.3603L37.1736 9.96429C37.1875 9.96429 37.2083 9.96429 37.2222 9.96429C38.7569 9.96429 40 8.72567 40 7.19643C40 5.66719 38.7569 4.42857 37.2222 4.42857C35.6875 4.42857 34.4444 5.66719 34.4444 7.19643C34.4444 7.8192 34.6528 8.39353 35 8.85714L28.8125 13.7908C27.7083 14.6696 26.0694 14.3098 25.4375 13.0504L21.4583 5.12054Z" fill="#8584A3"/>
</svg>
