<svg width="40" height="40" viewBox="0 0 40 40" fill="none" xmlns="http://www.w3.org/2000/svg">
<path d="M25.5234 31.5391C23.7969 32.1641 21.9375 32.5 20 32.5C18.0625 32.5 16.1953 32.1563 14.4766 31.5391L14.4141 31.5156C12.0703 30.6562 9.97656 29.2734 8.27344 27.5C5.46875 24.5781 3.75 20.6172 3.75 16.25C3.75 7.27344 11.0234 0 20 0C28.9766 0 36.25 7.27344 36.25 16.25C36.25 20.6172 34.5313 24.5781 31.7266 27.5C31.6484 27.5781 31.5703 27.6641 31.4922 27.7422C29.8203 29.4141 27.7891 30.7188 25.5312 31.5391H25.5234ZM20 7.17969C19.1328 7.17969 18.4297 7.88281 18.4297 8.75V9.21875C17.9922 9.3125 17.5781 9.44531 17.1875 9.61719C16.0156 10.1484 15.0078 11.1328 14.7578 12.5625C14.6172 13.3594 14.6953 14.125 15.0234 14.8281C15.3516 15.5156 15.8594 16 16.375 16.3516C17.2813 16.9688 18.4766 17.3281 19.3906 17.6016L19.5625 17.6562C20.6484 17.9844 21.3906 18.2344 21.8516 18.5703C22.0469 18.7109 22.1172 18.8203 22.1406 18.8828C22.1641 18.9453 22.2109 19.0859 22.1563 19.4062C22.1094 19.6797 21.9609 19.9063 21.5313 20.0938C21.0547 20.2969 20.2813 20.3984 19.2813 20.2422C18.8125 20.1641 17.9766 19.8828 17.2344 19.625C17.0625 19.5703 16.8984 19.5078 16.7344 19.4609C15.9141 19.1875 15.0312 19.6328 14.7578 20.4531C14.4844 21.2734 14.9297 22.1563 15.75 22.4297C15.8438 22.4609 15.9609 22.5 16.0938 22.5469C16.7109 22.7578 17.6797 23.0859 18.4219 23.2578V23.7578C18.4219 24.625 19.125 25.3281 19.9922 25.3281C20.8594 25.3281 21.5625 24.625 21.5625 23.7578V23.3281C21.9766 23.25 22.3828 23.1328 22.7656 22.9688C23.9922 22.4453 24.9844 21.4297 25.2344 19.9453C25.375 19.1328 25.3125 18.3594 25 17.6484C24.6953 16.9453 24.2031 16.4297 23.6797 16.0469C22.7266 15.3594 21.4688 14.9766 20.5234 14.6875L20.4609 14.6719C19.3516 14.3359 18.6016 14.1016 18.125 13.7812C17.9219 13.6406 17.8594 13.5469 17.8437 13.5078C17.8281 13.4844 17.7891 13.3828 17.8359 13.1172C17.8594 12.9687 17.9844 12.7109 18.4766 12.4844C18.9766 12.2578 19.7578 12.1328 20.7109 12.2812C21.0469 12.3359 22.1094 12.5391 22.4062 12.6172C23.2422 12.8359 24.0937 12.3438 24.3203 11.5078C24.5469 10.6719 24.0469 9.82031 23.2109 9.59375C22.8672 9.5 22.0859 9.34375 21.5703 9.25V8.75781C21.5703 7.89062 20.8672 7.1875 20 7.1875V7.17969ZM3.75 27.5H5C6.52344 29.5234 8.4375 31.2266 10.6406 32.5H5V35H20H35V32.5H29.3594C31.5625 31.2266 33.4844 29.5234 35 27.5H36.25C38.3203 27.5 40 29.1797 40 31.25V36.25C40 38.3203 38.3203 40 36.25 40H3.75C1.67969 40 0 38.3203 0 36.25V31.25C0 29.1797 1.67969 27.5 3.75 27.5Z" fill="#FCC914"/>
</svg>
