<svg width="40" height="40" viewBox="0 0 40 40" fill="none" xmlns="http://www.w3.org/2000/svg">
<path d="M26.25 27.5C33.8437 27.5 40 21.3437 40 13.75C40 6.15625 33.8437 0 26.25 0C18.6563 0 12.5 6.15625 12.5 13.75C12.5 15.2109 12.7266 16.625 13.1484 17.9453L0.546875 30.5469C0.195312 30.8984 0 31.375 0 31.875V38.125C0 39.1641 0.835937 40 1.875 40H8.125C9.16406 40 10 39.1641 10 38.125V35H13.125C14.1641 35 15 34.1641 15 33.125V30H18.125C18.625 30 19.1016 29.8047 19.4531 29.4531L22.0547 26.8516C23.375 27.2734 24.7891 27.5 26.25 27.5ZM29.375 7.5C30.2038 7.5 30.9987 7.82924 31.5847 8.41529C32.1708 9.00134 32.5 9.7962 32.5 10.625C32.5 11.4538 32.1708 12.2487 31.5847 12.8347C30.9987 13.4208 30.2038 13.75 29.375 13.75C28.5462 13.75 27.7513 13.4208 27.1653 12.8347C26.5792 12.2487 26.25 11.4538 26.25 10.625C26.25 9.7962 26.5792 9.00134 27.1653 8.41529C27.7513 7.82924 28.5462 7.5 29.375 7.5Z" fill="#82DB10"/>
</svg>
