<svg width="40" height="32" viewBox="0 0 40 32" fill="none" xmlns="http://www.w3.org/2000/svg">
<path d="M13.0011 22C20.1826 22 26.0016 17.075 26.0016 11C26.0016 4.925 20.1826 0 13.0011 0C5.81963 0 0.000684051 4.925 0.000684051 11C0.000684051 13.4125 0.919465 15.6437 2.47577 17.4625C2.25701 18.05 1.932 18.5688 1.58824 19.0063C1.28823 19.3938 0.981967 19.6937 0.75696 19.9C0.644456 20 0.550703 20.0813 0.488201 20.1313C0.45695 20.1563 0.431949 20.175 0.419448 20.1812L0.406948 20.1938C0.0631862 20.45 -0.0868189 20.9 0.0506857 21.3062C0.18819 21.7125 0.569453 22 1.00072 22C2.36326 22 3.73831 21.65 4.8821 21.2188C5.45712 21 5.99464 20.7563 6.45715 20.5063C8.38222 21.4563 10.6135 22 13.0011 22ZM28.0016 11C28.0016 18.0188 21.8077 23.3062 14.4699 23.9375C15.9887 28.5875 21.0264 32 27.0016 32C29.3892 32 31.6205 31.4563 33.5456 30.5063C34.0143 30.7563 34.5456 31 35.1206 31.2188C36.2644 31.65 37.6395 32 39.002 32C39.4333 32 39.8208 31.7187 39.952 31.3062C40.0833 30.8937 39.9395 30.4437 39.5895 30.1875L39.577 30.175C39.5645 30.1625 39.5395 30.15 39.5083 30.125C39.4458 30.075 39.352 30 39.2395 29.8937C39.0145 29.6875 38.7082 29.3875 38.4082 29C38.0645 28.5625 37.7395 28.0375 37.5207 27.4562C39.077 25.6437 39.9958 23.4125 39.9958 20.9937C39.9958 15.1937 34.6894 10.4375 27.9579 10.025C27.9829 10.3437 27.9954 10.6687 27.9954 10.9937L28.0016 11Z" fill="#82DB10"/>
</svg>
