<svg width="40" height="29" viewBox="0 0 40 29" fill="none" xmlns="http://www.w3.org/2000/svg">
<path d="M33.35 0.34525C37.4062 3.68329 40 8.78853 40 14.5018C40 20.2152 37.4062 25.3141 33.35 28.6584C32.7062 29.1905 31.7625 29.0892 31.2375 28.4367C30.7125 27.7843 30.8125 26.8279 31.4562 26.2958C34.8437 23.5089 37 19.265 37 14.5018C37 9.73864 34.8437 5.49483 31.4562 2.70152C30.8125 2.16946 30.7187 1.21301 31.2375 0.560608C31.7562 -0.091799 32.7062 -0.18681 33.35 0.338916V0.34525ZM29.5688 5.06411C32.2688 7.2937 34 10.6951 34 14.5018C34 18.3086 32.2688 21.71 29.5688 23.9396C28.925 24.4716 27.9812 24.3703 27.4562 23.7179C26.9312 23.0655 27.0312 22.109 27.675 21.577C29.7062 19.9048 31 17.3585 31 14.5018C31 11.6452 29.7062 9.0989 27.675 7.42038C27.0312 6.88832 26.9375 5.93188 27.4562 5.27947C27.975 4.62707 28.925 4.53205 29.5688 5.05778V5.06411ZM25.7875 9.78298C27.1313 10.8978 28 12.5953 28 14.5018C28 16.4084 27.1313 18.1059 25.7875 19.2207C25.1438 19.7528 24.2 19.6514 23.675 18.999C23.15 18.3466 23.25 17.3902 23.8937 16.8581C24.5687 16.3007 25 15.452 25 14.5018C25 13.5517 24.5687 12.703 23.8937 12.1392C23.25 11.6072 23.1562 10.6507 23.675 9.99834C24.1937 9.34593 25.1438 9.25092 25.7875 9.77664V9.78298ZM18.8188 0.490933C19.5375 0.820304 20 1.54238 20 2.34047V26.6632C20 27.4613 19.5375 28.1834 18.8188 28.5128C18.1 28.8421 17.2563 28.7091 16.6688 28.177L8.2375 20.5825H4C1.79375 20.5825 0 18.7647 0 16.5287V12.4749C0 10.239 1.79375 8.42116 4 8.42116H8.2375L16.6688 0.826638C17.2563 0.294578 18.1 0.167897 18.8188 0.490933Z" fill="#333242"/>
</svg>
