<svg width="40" height="46" viewBox="0 0 40 46" fill="none" xmlns="http://www.w3.org/2000/svg">
<path d="M40 18.8582C36.0678 18.8667 32.2324 17.6315 29.0357 15.3273V31.3914C29.0348 34.3666 28.1312 37.2705 26.4457 39.7149C24.7601 42.1592 22.3731 44.0275 19.6038 45.0697C16.8345 46.112 13.815 46.2786 10.9491 45.5472C8.08311 44.8159 5.50741 43.2214 3.56642 40.9771C1.62543 38.7329 0.411691 35.9457 0.0875309 32.9885C-0.236629 30.0313 0.344244 27.045 1.75246 24.429C3.16068 21.813 5.32911 19.692 7.96774 18.3497C10.6064 17.0074 13.5894 16.5077 16.5179 16.9176V24.9945C15.1788 24.5704 13.7408 24.5828 12.4092 25.03C11.0776 25.4772 9.92042 26.3363 9.10295 27.4847C8.28548 28.6331 7.8495 30.0121 7.85726 31.4246C7.86502 32.8372 8.31612 34.2112 9.14616 35.3505C9.97619 36.4897 11.1427 37.3359 12.4792 37.7683C13.8156 38.2006 15.2537 38.1971 16.588 37.758C17.9223 37.319 19.0846 36.467 19.909 35.3236C20.7335 34.1802 21.1778 32.804 21.1786 31.3914V0H29.0357C29.0313 0.668675 29.0881 1.33634 29.2054 1.99453C29.4786 3.46168 30.0463 4.85736 30.8738 6.09625C31.7012 7.33515 32.7711 8.39125 34.0179 9.2C35.7927 10.3795 37.8731 11.0075 40 11.0059V18.8582Z" fill="#1F1E2C"/>
</svg>
