<svg width="40" height="34" viewBox="0 0 40 34" fill="none" xmlns="http://www.w3.org/2000/svg">
<path d="M35.8906 8.85156C35.9141 9.20312 35.9141 9.5625 35.9141 9.91406C35.9141 20.75 27.6641 33.2422 12.5859 33.2422C7.9375 33.2422 3.625 31.8984 0 29.5625C0.65625 29.6406 1.29687 29.6641 1.97656 29.6641C5.8125 29.6641 9.33594 28.3672 12.1563 26.1641C8.55469 26.0859 5.53125 23.7266 4.49219 20.4766C5 20.5547 5.50781 20.6016 6.03906 20.6016C6.77344 20.6016 7.50781 20.5 8.19531 20.3203C4.4375 19.5625 1.625 16.2578 1.625 12.2734V12.1719C2.71875 12.7812 3.98437 13.1641 5.32812 13.2109C3.11719 11.7422 1.67187 9.22656 1.67187 6.38281C1.67187 4.85937 2.07813 3.46094 2.78906 2.24219C6.82813 7.21875 12.8906 10.4687 19.6953 10.8203C19.5703 10.2109 19.4922 9.57812 19.4922 8.94531C19.4922 4.42969 23.1484 0.75 27.6875 0.75C30.0469 0.75 32.1797 1.74219 33.6797 3.33594C35.5313 2.98437 37.3125 2.29687 38.8828 1.35937C38.2734 3.26562 36.9766 4.85937 35.2813 5.875C36.9297 5.69531 38.5313 5.24219 40 4.60938C38.8828 6.23438 37.4844 7.67969 35.8906 8.85156Z" fill="#1F1E2C"/>
</svg>
