<svg width="40" height="28" viewBox="0 0 40 28" fill="none" xmlns="http://www.w3.org/2000/svg">
<path d="M39.1651 4.38229C38.7038 2.65417 37.349 1.29792 35.628 0.838542C32.5082 0 20 0 20 0C20 0 7.49176 0 4.37203 0.838542C2.65104 1.29792 1.29623 2.65417 0.834859 4.38229C0 7.51042 0 14.0292 0 14.0292C0 14.0292 0 20.5479 0.834859 23.676C1.29623 25.4042 2.65104 26.7021 4.37203 27.1615C7.49176 28 20 28 20 28C20 28 32.5082 28 35.628 27.1615C37.349 26.7021 38.7038 25.3969 39.1651 23.676C40 20.5479 40 14.0292 40 14.0292C40 14.0292 40 7.51042 39.1651 4.38229ZM15.9136 19.95V8.10833L26.364 14.0292L15.9136 19.95Z" fill="#1F1E2C"/>
</svg>
